<?xml version="1.0" encoding="UTF-8"?>
<svg id="Topics" xmlns="http://www.w3.org/2000/svg" viewBox="0 0 1601.98 1320.17">
  <defs>
    <style>
      .cls-1, .cls-2 {
        fill: none;
      }

      .cls-2, .cls-3 {
        stroke: #000;
        stroke-linecap: round;
        stroke-linejoin: round;
        stroke-width: 5px;
      }

      .cls-4 {
        font-size: 12px;
      }

      .cls-4, .cls-5 {
        font-family: NewBT-Regular, 'FXCWX H+ New BT';
      }

      .cls-5 {
        font-size: 24px;
      }

      .cls-6 {
        fill: #fff;
      }
    </style>
  </defs>
  <rect class="cls-6" x="411.43" width="1190.55" height="841.89"/>
  <text class="cls-5" transform="translate(441.43 74.77)"><tspan x="0" y="0">Topics</tspan></text>
  <text class="cls-4" transform="translate(487.46 246.33)"><tspan x="0" y="0">Competitions</tspan></text>
  <g>
    <g>
      <path class="cls-2" d="M521.43,205.44l5.66,15.56,2.82-3.2c.73-.83,2.21-1.37,3.3-1.2l4.22.64-4.09-11.24"/>
      <polygon class="cls-2" points="521.43 172.27 526.07 171 529.07 174.75 533.57 176.45 533.8 181.25 536.43 185.27 533.8 189.28 533.57 194.08 529.07 195.78 526.07 199.53 521.43 198.27 516.8 199.53 513.79 195.78 509.3 194.08 509.07 189.28 506.43 185.27 509.07 181.25 509.3 176.45 513.79 174.75 516.8 171 521.43 172.27"/>
      <path class="cls-2" d="M513.31,195.6l-7.88,21.64,4.22-.64c1.09-.16,2.57.38,3.3,1.2l2.82,3.2,8.04-22.09"/>
    </g>
    <rect class="cls-1" x="481.43" y="156" width="80" height="80"/>
  </g>
  <g>
    <g>
      <polyline class="cls-2" points="636.43 180 641.43 173 641.43 216 684.43 216 677.43 221"/>
      <polyline class="cls-2" points="681.43 187 667.43 201 661.43 195 652.43 204"/>
    </g>
    <rect class="cls-1" x="621.43" y="156" width="80" height="80"/>
  </g>
  <g>
    <g>
      <polyline class="cls-2" points="776.43 180 781.43 173 781.43 216 824.43 216 817.43 221"/>
      <g>
        <line class="cls-2" x1="803.43" y1="204" x2="803.43" y2="179"/>
        <line class="cls-2" x1="813.43" y1="204" x2="813.43" y2="189"/>
        <line class="cls-2" x1="793.43" y1="204" x2="793.43" y2="196"/>
      </g>
    </g>
    <rect class="cls-1" x="761.43" y="156" width="80" height="80"/>
  </g>
  <text class="cls-4" transform="translate(608.83 246.33)"><tspan x="0" y="0">Customer and trends</tspan></text>
  <text class="cls-4" transform="translate(741.39 246.33)"><tspan x="0" y="0">Market and competitors</tspan></text>
  <text class="cls-4" transform="translate(907.36 246.33)"><tspan x="0" y="0">Collaboration</tspan></text>
  <g>
    <path class="cls-2" d="M1071.43,220.03c2.76,0,5-2.24,5-5v-11.07h-13c-3.87,0-7-3.13-7-7,0-3.57,2.67-6.5,6.12-6.94-.71-1.19-1.12-2.58-1.12-4.06,0-4.42,3.58-8,8-8,.93,0,1.82.17,2.66.46,1.43-3.77,5.07-6.46,9.34-6.46s7.91,2.69,9.34,6.46c.83-.29,1.72-.46,2.66-.46,4.42,0,8,3.58,8,8,0,1.48-.41,2.87-1.12,4.06,3.45.44,6.12,3.37,6.12,6.94,0,3.87-3.13,7-7,7h-13v11.07c0,2.76,2.24,5,5,5"/>
    <rect class="cls-1" x="1041.43" y="156" width="80" height="80"/>
  </g>
  <text class="cls-4" transform="translate(1047.8395 246.3257)"><tspan x="0" y="0">Sustainability</tspan></text>
  <g>
    <rect class="cls-1" x="1181.43" y="156" width="80" height="80"/>
    <path class="cls-2" d="M1239.01,179.35c-.82-.22-1.69-.35-2.58-.35-3.27,0-6.16,1.58-7.99,4h-14.03c-1.82-2.42-4.72-4-7.99-4-5.52,0-10,4.48-10,10,0,2.79,1.15,5.32,3,7.13v11.87c0,2.76,2.24,5,5,5,1.7,0,3.2-.86,4.11-2.16l4.91-11.84h15.97l4.91,11.84c.9,1.3,2.4,2.16,4.11,2.16,2.76,0,5-2.24,5-5v-11.86c1.85-1.81,3-4.34,3-7.14,0-.89-.13-1.76-.35-2.58"/>
  </g>
  <text class="cls-4" transform="translate(1204.279 246.3257)"><tspan x="0" y="0">Games</tspan></text>
  <g>
    <g>
      <path class="cls-2" d="M523.83,349.89s.39,2.33,3.85,3.76c3.46,1.44,5.38.06,5.38.06"/>
      <path class="cls-2" d="M539.62,360.17c1.61-1.45,2.95-3.26,3.83-5.4l4.97-12.01c1.05-2.55-.16-5.48-2.71-6.53l-17.49-7.25c.08-2.08-.26-4.21-1.11-6.27l-4.98-12.01c-1.05-2.55-3.98-3.76-6.53-2.71l-18.48,7.65c-2.55,1.06-3.76,3.98-2.71,6.53l4.97,12.01c3.17,7.65,11.95,11.29,19.6,8.12,2.14-.88,3.95-2.22,5.4-3.83"/>
      <path class="cls-2" d="M515.76,343.24l-.02.06c-3.17,7.65.46,16.43,8.12,19.6,2.14.88,4.36,1.22,6.53,1.11"/>
      <path class="cls-2" d="M510.56,334.99s.39-2.33,3.85-3.76c3.46-1.44,5.38-.07,5.38-.07"/>
    </g>
    <rect class="cls-1" x="481.43" y="296" width="80" height="80"/>
  </g>
  <g>
    <g>
      <path class="cls-3" d="M656.43,358s1.25-2,5-2,5,2,5,2h-10Z"/>
      <path class="cls-2" d="M681.56,349.06c2.44-3.76,3.87-8.24,3.87-13.06,0-13.25-10.75-24-24-24s-24,10.75-24,24,10.75,24,24,24c4.82,0,9.3-1.42,13.06-3.87"/>
      <path class="cls-3" d="M680.81,347.55s-1.52-1.81-.36-5.38c1.16-3.57,3.45-4.14,3.45-4.14l-3.09,9.51Z"/>
      <path class="cls-3" d="M678.44,321.18s-2.19.88-5.22-1.32c-3.03-2.2-2.87-4.56-2.87-4.56l8.09,5.88Z"/>
      <path class="cls-3" d="M652.7,315.21s.16,2.35-2.87,4.56c-3.03,2.2-5.22,1.32-5.22,1.32l8.09-5.88Z"/>
      <path class="cls-3" d="M639.03,337.87s2.29.57,3.45,4.14c1.16,3.57-.36,5.37-.36,5.37l-3.09-9.51Z"/>
      <circle class="cls-3" cx="661.43" cy="336" r="6"/>
    </g>
    <rect class="cls-1" x="621.43" y="296" width="80" height="80"/>
  </g>
  <g>
    <g>
      <line class="cls-2" x1="788.93" y1="326" x2="813.93" y2="326"/>
      <line class="cls-2" x1="788.93" y1="338" x2="793.93" y2="338"/>
      <line class="cls-2" x1="788.93" y1="348" x2="793.93" y2="348"/>
      <rect class="cls-2" x="803.93" y="338" width="10" height="10"/>
      <path class="cls-2" d="M823.93,348v-29c0-2.76-2.24-5-5-5h-35c-2.76,0-5,2.24-5,5v34c0,2.76,2.24,5,5,5h35"/>
    </g>
    <rect class="cls-1" x="761.43" y="296" width="80" height="80"/>
  </g>
  <path class="cls-2" d="M1346.93,215h22c2.76,0,5-2.24,5-5l9,6v-23l-9,6c0-2.76-2.24-5-5-5h-4c4.97,0,9-4.03,9-9s-4.03-9-9-9c-3.49,0-6.51,1.99-8,4.89-1.49-2.9-4.51-4.89-8-4.89-4.97,0-9,4.03-9,9s4.03,9,9,9h-2c-2.76,0-5,2.24-5,5v6"/>
  <g>
    <path class="cls-2" d="M1518.15,211.98c1.76-2.98,2.79-6.44,2.79-10.14v-13.05c0-12.69-8.95-18.63-20-18.63s-20,6-20,18.63v13.05c0,11.05,8.95,20,20,20,3.71,0,7.17-1.03,10.14-2.79"/>
    <line class="cls-2" x1="1480.93" y1="188.79" x2="1530.93" y2="188.79"/>
    <path class="cls-2" d="M1493.93,208.84s3,3,7,3,7-3,7-3"/>
    <circle class="cls-2" cx="1493.93" cy="199.16" r="1"/>
    <circle class="cls-2" cx="1507.93" cy="199.16" r="1"/>
    <rect class="cls-1" x="1461.43" y="156" width="80" height="80"/>
  </g>
  <text class="cls-4" transform="translate(485.26 386.33)"><tspan x="0" y="0">Entertainment</tspan></text>
  <text class="cls-4" transform="translate(645.44 386.33)"><tspan x="0" y="0">Sports</tspan></text>
  <text class="cls-4" transform="translate(771.73 386.33)"><tspan x="0" y="0">News &amp; info</tspan></text>
  <text class="cls-4" transform="translate(1343.6432 246.3262)"><tspan x="0" y="0">Movies</tspan></text>
  <text class="cls-4" transform="translate(1491.017 246.3262)"><tspan x="0" y="0">Kids</tspan></text>
  <g>
    <rect class="cls-1" x="901.43" y="296" width="80" height="80"/>
    <g>
      <path class="cls-2" d="M921.43,331h0c-2.76,0-5,2.24-5,5v20c0,2.76,2.24,5,5,5h20c2.76,0,5-2.24,5-5"/>
      <polygon class="cls-2" points="947.43 315.61 955.3 311 957.61 319.82 966.43 322.13 961.83 330 966.43 337.87 957.61 340.18 955.3 349 947.43 344.4 939.56 349 937.25 340.18 928.43 337.87 933.04 330 928.43 322.13 937.25 319.82 939.56 311 947.43 315.61"/>
    </g>
  </g>
  <text class="cls-4" transform="translate(926.45 386.33)"><tspan x="0" y="0">Offers</tspan></text>
  <g>
    <path class="cls-2" d="M1100.28,349s-.65,3.25,1-5c1.65-8.25-3.75-15-12-15h-4v-11c0-2.76-2.24-5-5-5s-5,2.24-5,5v26l-5.46-5.46c-1.95-1.95-5.12-1.95-7.07,0-1.95,1.95-1.95,5.12,0,7.07l10.46,10.46h0c1.81,1.81,4.31,2.93,7.07,2.93h15"/>
    <rect class="cls-1" x="1041.43" y="296" width="80" height="80"/>
  </g>
  <text class="cls-4" transform="translate(1054.8533 386.3262)"><tspan x="0" y="0">Interactive</tspan></text>
  <text class="cls-4" transform="translate(1178.3835 386.3262)"><tspan x="0" y="0">Impaired hearing</tspan></text>
  <text class="cls-4" transform="translate(1346.6131 386.3262)"><tspan x="0" y="0">Brand</tspan></text>
  <g>
    <g>
      <line class="cls-2" x1="1236.13" y1="321.3" x2="1244.43" y2="313"/>
      <line class="cls-2" x1="1198.43" y1="359" x2="1215.96" y2="341.47"/>
      <path class="cls-2" d="M1220.34,331.79c0-.85.2-1.65.6-2.38.55-1.01,1.43-1.81,2.49-2.24.6-.25,1.25-.38,1.91-.38,2.76,0,5,2.24,5,5,0,2.59-.42,3.24-3.72,5.77l-.6.45"/>
      <path class="cls-2" d="M1214.62,356.96c4.89.86,8.27-.84,11.09-4.63.21-.28.42-.58.63-.89,1.65-2.46,4.03-4.16,6.36-5.94,3.89-2.97,7.64-6.21,7.64-13.71,0-8.29-6.71-15-15-15-2.03,0-3.97.41-5.74,1.14-3.18,1.32-5.81,3.7-7.44,6.7-1.16,2.13-1.82,4.57-1.82,7.16"/>
    </g>
    <rect class="cls-1" x="1181.43" y="296" width="80" height="80"/>
  </g>
  <g>
    <rect class="cls-1" x="901.43" y="156" width="80" height="80"/>
    <g>
      <polyline class="cls-2" points="953.43 209 959.43 215 923.43 215 929.43 221"/>
      <g>
        <path class="cls-2" d="M913.43,205v-7c0-4.91,3.44-9.12,8.37-10.98-2.05-1.65-3.37-4.18-3.37-7.02,0-4.97,4.03-9,9-9s9,4.03,9,9c0,2.84-1.32,5.37-3.37,7.02,4.93,1.86,8.37,6.07,8.37,10.98v7"/>
        <path class="cls-2" d="M941.43,205v-7c0-4.91,3.44-9.12,8.37-10.98-2.05-1.65-3.37-4.18-3.37-7.02,0-4.97,4.03-9,9-9s9,4.03,9,9c0,2.84-1.32,5.37-3.37,7.02,4.93,1.86,8.37,6.07,8.37,10.98v7"/>
      </g>
    </g>
  </g>
  <g>
    <path class="cls-2" d="M1361.43,356l-11.21-10.21c-5.43-5.43-8.79-9.5-8.79-17.79,0-5.52,4.48-10,10-10s10,4.48,10,10c0-5.52,4.48-10,10-10s10,4.48,10,10c0,8.28-3.36,12.36-8.79,17.79l-11.21,10.21Z"/>
    <rect class="cls-1" x="1321.43" y="296" width="80" height="80"/>
  </g>
  <path class="cls-2" d="M1191.93,583.5c0,5.8-4.7,10.5-10.5,10.5s-10.5-4.7-10.5-10.5v-16c0-5.8,4.7-10.5,10.5-10.5s10.5,4.7,10.5,10.5v16Z"/>
  <g>
    <path class="cls-2" d="M1266.13,664c0-10.86,5.24-20.49,13.33-26.5"/>
    <circle class="cls-2" cx="1276.13" cy="664" r="10"/>
  </g>
  <g>
    <path d="M1136.58,708.08c-.49,0-.97-.14-1.39-.42l-6.23-4.15c-1.32,2.14-3.69,3.57-6.39,3.57h-24.23c-1.38,0-2.5-1.12-2.5-2.5s1.12-2.5,2.5-2.5h24.23c1.38,0,2.5-1.12,2.5-2.5,0-.92.51-1.77,1.32-2.2.81-.44,1.8-.39,2.57.12l5.11,3.41v-13.66l-5.11,3.41c-.77.51-1.75.56-2.57.12-.81-.43-1.32-1.28-1.32-2.2,0-1.38-1.12-2.5-2.5-2.5h-4c-1.38,0-2.5-1.12-2.5-2.5s1.12-2.5,2.5-2.5h4c2.7,0,5.06,1.43,6.39,3.57l6.23-4.15c.77-.51,1.75-.56,2.57-.12.81.43,1.32,1.28,1.32,2.2v23c0,.92-.51,1.77-1.32,2.2-.37.2-.78.3-1.18.3h0Z"/>
    <path d="M1074.13,687.11c1.21,3.98,3.54,7.5,6.73,10.17,9.08,7.62,22.67,6.43,30.29-2.65,7.62-9.08,6.43-22.67-2.65-30.29-9.08-7.62-22.67-6.44-30.29,2.65-2.68,3.19-4.36,7.06-4.87,11.19l-4.96-.61c.62-5.09,2.7-9.86,6-13.8,9.39-11.19,26.14-12.65,37.33-3.26,11.19,9.39,12.65,26.14,3.26,37.33-5.23,6.24-12.75,9.45-20.32,9.45h0c-6.01,0-12.06-2.03-17.02-6.19-3.93-3.3-6.8-7.64-8.3-12.55l4.78-1.46Z"/>
    <g>
      <path d="M1087.63,669.19l-5.35,10.6c-.94,1.91-1.77,3.68-1.77,5.6,0,4.15,2.83,6.48,6.54,6.48s6.54-2.42,6.54-6.54c0-3.89-2.68-6.21-5.51-6.21-.5,0-1.06.06-1.56.26l4.28-8.46-3.17-1.73ZM1087.05,688.42c-1.56,0-2.71-1.12-2.71-3.06s1.15-3.06,2.71-3.06,2.71,1.21,2.71,3.06-1.15,3.06-2.71,3.06Z"/>
      <path d="M1102.06,670.54c-3.42,0-6.39,2.24-6.39,6.24v8.83c0,4.01,3.3,6.25,6.39,6.25,3.41,0,6.36-2.24,6.36-6.25v-8.83c0-4.01-2.95-6.24-6.36-6.24ZM1104.59,685.59c0,1.77-1.03,2.83-2.53,2.83s-2.56-1.06-2.56-2.83v-8.75c0-1.77,1.06-2.86,2.56-2.86s2.53,1.09,2.53,2.86v8.75Z"/>
    </g>
  </g>
</svg>