<?xml version="1.0" encoding="UTF-8"?>
<svg id="Technology" xmlns="http://www.w3.org/2000/svg" xmlns:xlink="http://www.w3.org/1999/xlink" viewBox="0 0 1601.98 1320.17">
  <defs>
    <style>
      .cls-1, .cls-2 {
        fill: none;
      }

      .cls-2, .cls-3, .cls-4, .cls-5, .cls-6 {
        stroke: #000;
        stroke-width: 5px;
      }

      .cls-2, .cls-4, .cls-5, .cls-6 {
        stroke-linecap: round;
        stroke-linejoin: round;
      }

      .cls-7 {
        font-size: 12px;
      }

      .cls-7, .cls-8 {
        font-family: NewBT-Regular, 'FXCWX H+ New BT';
      }

      .cls-8 {
        font-size: 24px;
      }

      .cls-5, .cls-9 {
        fill: #fff;
      }

      .cls-10 {
        font-family: BTVision-Bold, 'FXCWX H+ BT Vision';
        font-size: 14px;
      }

      .cls-10, .cls-11 {
        font-weight: 700;
      }

      .cls-11 {
        font-family: NewBT-Bold, 'FXCWX H+ New BT';
        font-size: 16px;
        letter-spacing: .05em;
      }

      .cls-12 {
        fill: red;
      }

      .cls-6 {
        fill: url(#linear-gradient);
      }
    </style>
    <linearGradient id="linear-gradient" x1="645.93" y1="632" x2="655.93" y2="632" gradientUnits="userSpaceOnUse">
      <stop offset="0" stop-color="#fff"/>
      <stop offset="1" stop-color="#000"/>
    </linearGradient>
  </defs>
  <rect class="cls-9" x="411.43" width="1190.55" height="1320.17"/>
  <g>
    <rect class="cls-1" x="1461.43" y="436" width="80" height="80"/>
    <g>
      <line class="cls-2" x1="1501.43" y1="481.5" x2="1501.43" y2="491.5"/>
      <line class="cls-2" x1="1480.43" y1="491.5" x2="1522.43" y2="491.5"/>
      <g>
        <path class="cls-2" d="M1501.43,470.5c6.08,0,11,4.92,11,11"/>
        <path class="cls-2" d="M1501.43,460.5c11.61,0,21,9.39,21,21"/>
        <circle class="cls-2" cx="1501.43" cy="481.5" r="1"/>
      </g>
    </g>
  </g>
  <g>
    <rect class="cls-1" x="481.43" y="576" width="80" height="80"/>
    <g>
      <line class="cls-2" x1="521.43" y1="616" x2="521.43" y2="626"/>
      <line class="cls-2" x1="500.43" y1="626" x2="542.43" y2="626"/>
      <path class="cls-2" d="M521.43,605c6.08,0,11,4.92,11,11"/>
      <path class="cls-2" d="M521.43,595c11.61,0,21,9.39,21,21"/>
      <circle class="cls-2" cx="521.43" cy="616" r="1"/>
      <line class="cls-2" x1="521.43" y1="636" x2="521.43" y2="626"/>
      <circle class="cls-2" cx="521.43" cy="636" r="1"/>
    </g>
  </g>
  <g>
    <rect class="cls-1" x="1181.43" y="436" width="80" height="80"/>
    <g>
      <path class="cls-2" d="M1228.43,489v7c0,2.76-2.24,5-5,5h-5v-10h-10v10h-5c-2.76,0-5-2.24-5-5v-9c0-1.38.56-2.63,1.46-3.54l13.54-14.46,10,10.69v-7.69"/>
      <g>
        <path class="cls-2" d="M1223.43,461c6.08,0,11,4.92,11,11"/>
        <path class="cls-2" d="M1223.43,451c11.61,0,21,9.39,21,21"/>
      </g>
    </g>
  </g>
  <g>
    <rect class="cls-1" x="761.43" y="576" width="80" height="80"/>
    <g>
      <g>
        <path class="cls-2" d="M795.93,602c6.08,0,11,4.92,11,11"/>
        <path class="cls-2" d="M795.93,592c11.61,0,21,9.39,21,21"/>
      </g>
      <g>
        <path class="cls-2" d="M785.93,617c0-1.54.59-3.07,1.76-4.24,2.35-2.34,6.16-2.34,8.51,0,2.35,2.34,2.25,6.73,0,8.48s-4.28,2.76-4.28,5.27v2.48"/>
        <circle class="cls-2" cx="791.93" cy="639" r="1"/>
      </g>
    </g>
  </g>
  <g>
    <rect class="cls-1" x="901.43" y="436" width="80" height="80"/>
    <g>
      <path class="cls-2" d="M944.64,462.05c6.08,0,11,4.92,11,11"/>
      <path class="cls-2" d="M944.64,452.05c11.61,0,21,9.39,21,21"/>
      <path d="M943.03,470.05h-21.19c-2.54,0-4.62,2.08-4.62,4.62v20.66c0,2.54,2.08,4.62,4.62,4.62h21.19c2.55,0,4.61-2.08,4.61-4.62v-20.66c0-2.54-2.05-4.62-4.61-4.62ZM942.66,494.36c0,.35-.28.58-.61.58h-21.3l16.44-5.07c.54-.17.51-.62.51-.62v-9.55c0-.27-.14-.46-.42-.59l-10.93-4.05h15.7c.33,0,.61.28.61.63v18.67Z"/>
    </g>
  </g>
  <g>
    <rect class="cls-1" x="621.43" y="436" width="80" height="80"/>
    <g>
      <path class="cls-2" d="M641.43,472h5c2.76,0,5-2.24,5-5,0-3,2-5,10-5s10,2,10,5c0,2.76,2.24,5,5,5h5c2.76,0,5-2.24,5-5v-3c0-7-9-12-25-12s-25,5-25,12"/>
      <circle class="cls-2" cx="661.43" cy="489" r="11"/>
      <circle class="cls-2" cx="661.43" cy="489" r="1"/>
    </g>
  </g>
  <g>
    <rect class="cls-1" x="761.43" y="436" width="80" height="80"/>
    <g>
      <path class="cls-2" d="M781.43,472h5c2.76,0,5-2.24,5-5,0-3,2-5,10-5s10,2,10,5c0,2.76,2.24,5,5,5h5c2.76,0,5-2.24,5-5v-3c0-7-9-12-25-12s-25,5-25,12"/>
      <circle class="cls-2" cx="801.43" cy="489" r="11"/>
    </g>
  </g>
  <g>
    <rect class="cls-1" x="621.43" y="156" width="80" height="80"/>
    <g>
      <rect class="cls-2" x="638.43" y="206" width="12" height="12"/>
      <rect class="cls-2" x="672.43" y="206" width="12" height="12"/>
      <rect class="cls-2" x="655.43" y="174" width="12" height="12"/>
      <polyline class="cls-2" points="644.43 206 644.43 196 678.43 196 678.43 206"/>
      <line class="cls-2" x1="661.43" y1="196" x2="661.43" y2="186"/>
    </g>
  </g>
  <g>
    <rect class="cls-1" x="1461.43" y="296" width="80" height="80"/>
    <g>
      <path class="cls-2" d="M1514.43,313h-26c-2.76,0-5,2.24-5,5v13.57c0,8.28,3.36,13.78,8.79,19.21l9.21,8.21,9.21-8.21c5.43-5.43,8.79-10.93,8.79-19.21v-8.57"/>
      <g>
        <line class="cls-2" x1="1501.43" y1="327" x2="1501.43" y2="339"/>
        <line class="cls-2" x1="1507.43" y1="333" x2="1495.43" y2="333"/>
      </g>
    </g>
  </g>
  <g>
    <rect class="cls-1" x="1321.43" y="436" width="80" height="80"/>
    <g>
      <path class="cls-2" d="M1360.93,499.5h-5v-10h-10v10h-5c-2.76,0-5-2.24-5-5v-16c0-2.76,2.24-5,5-5h25v16"/>
      <path class="cls-2" d="M1365.93,462.5c6.08,0,11,4.92,11,11"/>
      <path class="cls-2" d="M1365.93,452.5c11.61,0,21,9.39,21,21"/>
    </g>
  </g>
  <g>
    <rect class="cls-1" x="1041.43" y="296" width="80" height="80"/>
    <g>
      <circle class="cls-2" cx="1081.43" cy="347" r="6"/>
      <path class="cls-2" d="M1068.7,334.27c3.26-3.26,7.76-5.27,12.73-5.27s9.47,2.01,12.73,5.27"/>
      <path class="cls-2" d="M1061.63,327.2c5.06-5.06,12.06-8.2,19.8-8.2s14.74,3.13,19.8,8.2"/>
      <line class="cls-2" x1="1102.43" y1="347" x2="1087.43" y2="347"/>
      <line class="cls-2" x1="1075.43" y1="347" x2="1060.43" y2="347"/>
    </g>
  </g>
  <g>
    <rect class="cls-1" x="1181.43" y="296" width="80" height="80"/>
    <g>
      <circle class="cls-5" cx="1221.43" cy="341.5" r="6"/>
      <g>
        <line class="cls-2" x1="1242.43" y1="341.5" x2="1227.43" y2="341.5"/>
        <line class="cls-2" x1="1215.43" y1="341.5" x2="1200.43" y2="341.5"/>
      </g>
      <path class="cls-2" d="M1208.7,328.77c3.26-3.26,7.76-5.27,12.73-5.27s9.47,2.01,12.73,5.27"/>
      <path class="cls-2" d="M1201.63,321.7c5.06-5.06,12.06-8.2,19.8-8.2s14.74,3.13,19.8,8.2"/>
      <g>
        <circle class="cls-2" cx="1221.43" cy="357.5" r="1"/>
        <line class="cls-2" x1="1221.43" y1="357.5" x2="1221.43" y2="347.5"/>
      </g>
    </g>
  </g>
  <g>
    <rect class="cls-1" x="1321.43" y="296" width="80" height="80"/>
    <g>
      <g>
        <circle class="cls-2" cx="1361.43" cy="347" r="6"/>
        <path class="cls-2" d="M1348.7,334.27c3.26-3.26,7.76-5.27,12.73-5.27s9.47,2.01,12.73,5.27"/>
        <path class="cls-2" d="M1341.63,327.2c5.07-5.06,12.07-8.2,19.8-8.2s14.74,3.13,19.8,8.2"/>
      </g>
      <g>
        <polyline class="cls-2" points="1342.43 342 1337.43 347 1342.43 352"/>
        <polyline class="cls-2" points="1380.43 342 1385.43 347 1380.43 352"/>
      </g>
    </g>
  </g>
  <g>
    <rect class="cls-1" x="481.43" y="436" width="80" height="80"/>
    <g>
      <circle class="cls-2" cx="521.43" cy="479" r="2"/>
      <path class="cls-2" d="M521.43,479v8h16v-11c0-2.76-2.24-5-5-5h-1v-6c0-5.52-4.48-10-10-10s-10,4.48-10,10v6h-1c-2.76,0-5,2.24-5,5v16c0,2.76,2.24,5,5,5h22"/>
    </g>
  </g>
  <g>
    <rect class="cls-1" x="621.43" y="576" width="80" height="80"/>
    <g>
      <g>
        <line class="cls-2" x1="650.93" y1="632" x2="650.93" y2="603"/>
        <line class="cls-6" x1="645.93" y1="632" x2="655.93" y2="632"/>
        <polyline class="cls-2" points="637.93 621 650.93 615 663.93 621"/>
      </g>
      <g>
        <path class="cls-2" d="M663.93,610c6.08,0,11,4.92,11,11"/>
        <path class="cls-2" d="M663.93,600c11.61,0,21,9.39,21,21"/>
      </g>
    </g>
  </g>
  <text class="cls-8" transform="translate(441.43 74.77)"><tspan x="0" y="0">Technology</tspan></text>
  <g>
    <g>
      <path class="cls-2" d="M937.43,201h-13c-2.76,0-5-3.24-5-6v-19c0-2.76,2.24-5,5-5h13v30Z"/>
      <g>
        <line class="cls-2" x1="937.43" y1="179" x2="947.43" y2="179"/>
        <line class="cls-2" x1="937.43" y1="193" x2="947.43" y2="193"/>
      </g>
      <path class="cls-2" d="M963.43,221h-25c-5.52,0-10-4.48-10-10v-10"/>
      <rect class="cls-4" x="956.43" y="216" width="7" height="5"/>
    </g>
    <rect class="cls-1" x="901.43" y="156" width="80" height="80"/>
  </g>
  <g>
    <g>
      <path class="cls-2" d="M789.65,210.86l3.54-3.54c1.95-1.95,1.95-5.12,0-7.07-2.12-2.12-2.12-4.95,3.54-10.61,5.66-5.66,8.49-5.66,10.61-3.54,1.95,1.95,5.12,1.95,7.07,0l3.54-3.54c1.95-1.95,1.95-5.12,0-7.07l-2.12-2.12c-4.95-4.95-14.85-2.12-26.16,9.19-11.31,11.31-14.14,21.21-9.19,26.16"/>
      <g>
        <path class="cls-2" d="M824.65,220.86h-25c-5.52,0-10-4.48-10-10"/>
        <rect class="cls-4" x="817.65" y="215.86" width="7" height="5"/>
      </g>
    </g>
    <rect class="cls-1" x="761.43" y="156" width="80" height="80"/>
  </g>
  <g>
    <g>
      <line class="cls-2" x1="1081.43" y1="173" x2="1081.43" y2="219"/>
      <path class="cls-2" d="M1081.43,195.14l13.07-13.07c1.81-1.81,2.93-4.31,2.93-7.07v-2h-32v2c0,2.76,1.12,5.26,2.93,7.07l13.07,13.07"/>
    </g>
    <rect class="cls-1" x="1041.43" y="156" width="80" height="80"/>
  </g>
  <g>
    <g>
      <path class="cls-2" d="M1239.43,188v14l8.48,9.2c1.55,1.55.56,2.8-2.2,2.8h-48.57c-2.76,0-3.75-1.25-2.2-2.8l8.48-9.2v-19c0-2.76,2.24-5,5-5h26"/>
      <line class="cls-2" x1="1203.43" y1="202" x2="1239.43" y2="202"/>
    </g>
    <rect class="cls-1" x="1181.43" y="156" width="80" height="80"/>
  </g>
  <g>
    <path class="cls-2" d="M1347.43,216h8v-10h-11c-2.76,0-5-2.24-5-5v-20c0-2.76,2.24-5,5-5h32c2.76,0,5,2.24,5,5v20c0,2.76-2.24,5-5,5h-11v10h8"/>
    <rect class="cls-1" x="1321.43" y="156" width="80" height="80"/>
  </g>
  <g>
    <rect class="cls-1" x="481.43" y="296" width="80" height="80"/>
    <path class="cls-2" d="M526.43,345c0,2.76-2.24,5-5,5s-5-2.24-5-5v-28c0-2.76-2.24-5-5-5s-5,2.24-5,5v28c0,8.28,6.72,15,15,15s15-6.72,15-15c0-6.53-4.18-12.07-10-14.13"/>
  </g>
  <g>
    <rect class="cls-1" x="901.43" y="296" width="80" height="80"/>
    <g>
      <polyline class="cls-2" points="925.43 330 963.43 330 953.43 320"/>
      <polyline class="cls-2" points="957.43 342 919.43 342 929.43 352"/>
    </g>
  </g>
  <g>
    <rect class="cls-1" x="761.43" y="296" width="80" height="80"/>
    <g>
      <path class="cls-2" d="M825.72,339.07l-7.07,7.07c1.76-2.98,2.79-6.44,2.79-10.14,0-11.05-8.95-20-20-20-3.71,0-7.17,1.03-10.14,2.79M777.15,332.93l7.07-7.07c-1.76,2.98-2.79,6.44-2.79,10.14,0,11.04,8.96,20,20,20,3.71,0,7.17-1.03,10.14-2.79"/>
      <circle class="cls-2" cx="801.43" cy="336" r="7.5"/>
    </g>
  </g>
  <g>
    <rect class="cls-1" x="1461.43" y="156" width="80" height="80"/>
    <g>
      <path class="cls-2" d="M1511.26,198.16c1.37-1.95,2.17-4.32,2.17-6.88s-.81-4.93-2.17-6.88"/>
      <path class="cls-2" d="M1491.61,198.16c-1.37-1.95-2.17-4.32-2.17-6.88s.81-4.93,2.17-6.88"/>
      <line class="cls-2" x1="1501.43" y1="191.28" x2="1501.43" y2="216.28"/>
      <path class="cls-2" d="M1516.99,206.84c3.98-3.98,6.44-9.48,6.44-15.56s-2.46-11.58-6.44-15.56"/>
      <path class="cls-2" d="M1485.87,206.84c-3.98-3.98-6.44-9.48-6.44-15.56s2.46-11.58,6.44-15.56"/>
      <circle class="cls-2" cx="1501.43" cy="191.28" r="2"/>
    </g>
  </g>
  <g>
    <rect class="cls-1" x="1041.43" y="436" width="80" height="80"/>
    <g>
      <g>
        <line class="cls-2" x1="1081.43" y1="486" x2="1081.43" y2="476"/>
        <circle class="cls-2" cx="1081.43" cy="486" r="1"/>
      </g>
      <rect class="cls-2" x="1058.43" y="486" width="12" height="12"/>
      <rect class="cls-2" x="1092.43" y="486" width="12" height="12"/>
      <rect class="cls-2" x="1075.43" y="454" width="12" height="12"/>
      <polyline class="cls-2" points="1064.43 486 1064.43 476 1098.43 476 1098.43 486"/>
      <line class="cls-2" x1="1081.43" y1="476" x2="1081.43" y2="466"/>
    </g>
  </g>
  <g>
    <g>
      <path class="cls-2" d="M928.43,636h8v-10h-10c-2.76,0-5-2.24-5-5v-20c0-2.76,2.24-5,5-5h30c2.76,0,5,2.24,5,5v20c0,2.76-2.24,5-5,5h-10v10h8"/>
      <text class="cls-10" transform="translate(932.8 615.9)"><tspan x="0" y="0">4:3</tspan></text>
    </g>
    <rect class="cls-1" x="901.43" y="576" width="80" height="80"/>
  </g>
  <g>
    <g>
      <path class="cls-2" d="M1068.43,634h8v-10h-12c-2.76,0-5-2.24-5-5v-16c0-2.76,2.24-5,5-5h34c2.76,0,5,2.24,5,5v16c0,2.76-2.24,5-5,5h-12v10h8"/>
      <text class="cls-10" transform="translate(1069.2113 615.8984)"><tspan x="0" y="0">16:9</tspan></text>
    </g>
    <rect class="cls-1" x="1041.43" y="576" width="80" height="80"/>
  </g>
  <text class="cls-7" transform="translate(639.88 246.33)"><tspan x="0" y="0">Ethernet</tspan></text>
  <text class="cls-7" transform="translate(474.95 246.33)"><tspan x="0" y="0">Webpage/Browser</tspan></text>
  <text class="cls-7" transform="translate(912.96 246.33)"><tspan x="0" y="0">Power cord</tspan></text>
  <text class="cls-7" transform="translate(760.5 246.33)"><tspan x="0" y="0">Line cord (PSTN)</tspan></text>
  <text class="cls-7" transform="translate(1069.775 246.3257)"><tspan x="0" y="0">GSM</tspan></text>
  <text class="cls-7" transform="translate(1203.6013 246.3257)"><tspan x="0" y="0">Laptop</tspan></text>
  <text class="cls-7" transform="translate(1341.3392 246.3257)"><tspan x="0" y="0">Monitor</tspan></text>
  <text class="cls-7" transform="translate(1469.1174 246.3257)"><tspan x="0" y="0">Wireless/Wifi</tspan></text>
  <text class="cls-7" transform="translate(1459.8055 386.3257)"><tspan x="0" y="0">Security/Firewall</tspan></text>
  <g>
    <path d="M1067.89,378.35c.46-.1,1.17-.17,1.91-.17,1.04,0,1.72.18,2.22.59.42.31.67.79.67,1.43,0,.78-.52,1.46-1.37,1.77v.02c.77.19,1.67.83,1.67,2.03,0,.7-.28,1.22-.68,1.62-.56.52-1.47.76-2.79.76-.72,0-1.27-.05-1.62-.1v-7.95ZM1068.93,381.66h.95c1.1,0,1.75-.58,1.75-1.35,0-.95-.72-1.32-1.77-1.32-.48,0-.76.04-.92.07v2.6ZM1068.93,385.53c.2.04.5.05.88.05,1.08,0,2.07-.4,2.07-1.57,0-1.1-.95-1.56-2.09-1.56h-.86v3.08Z"/>
    <path d="M1075.92,379.13h-2.46v-.89h5.98v.89h-2.47v7.2h-1.05v-7.2Z"/>
    <path d="M1082.78,385.11c.3.19,1,.49,1.73.49,1.36,0,1.78-.86,1.76-1.51-.01-1.09-1-1.56-2.02-1.56h-.59v-.79h.59c.77,0,1.74-.4,1.74-1.32,0-.62-.4-1.18-1.37-1.18-.62,0-1.22.28-1.56.52l-.28-.77c.41-.3,1.2-.6,2.04-.6,1.54,0,2.23.91,2.23,1.86,0,.8-.48,1.49-1.44,1.83v.02c.96.19,1.74.91,1.74,2,0,1.25-.97,2.34-2.84,2.34-.88,0-1.64-.28-2.03-.53l.29-.82Z"/>
    <path d="M1095.2,385.97c-.47.17-1.39.44-2.48.44-1.22,0-2.23-.31-3.02-1.07-.7-.67-1.13-1.75-1.13-3.01.01-2.41,1.67-4.17,4.38-4.17.94,0,1.67.2,2.01.37l-.25.85c-.43-.19-.97-.35-1.79-.35-1.97,0-3.25,1.22-3.25,3.25s1.24,3.26,3.12,3.26c.68,0,1.15-.1,1.39-.22v-2.41h-1.64v-.84h2.66v3.89Z"/>
    <path d="M1061.92,392.4c-.88,1.18-1.51,2.73-1.51,4.91s.66,3.67,1.51,4.87h-.83c-.76-1-1.57-2.53-1.57-4.87.01-2.36.82-3.9,1.57-4.91h.83Z"/>
    <path d="M1069.22,400.37c-.47.17-1.39.44-2.48.44-1.22,0-2.23-.31-3.02-1.07-.7-.67-1.13-1.75-1.13-3.01.01-2.41,1.67-4.17,4.38-4.17.94,0,1.67.2,2.02.37l-.25.85c-.43-.19-.97-.35-1.79-.35-1.97,0-3.25,1.22-3.25,3.25s1.24,3.26,3.12,3.26c.68,0,1.15-.1,1.39-.22v-2.41h-1.64v-.84h2.66v3.89Z"/>
    <path d="M1071.38,398.02c.02,1.43.94,2.02,1.99,2.02.75,0,1.21-.13,1.61-.3l.18.76c-.37.17-1.01.36-1.93.36-1.79,0-2.85-1.18-2.85-2.93s1.03-3.13,2.72-3.13c1.9,0,2.4,1.67,2.4,2.73,0,.22-.02.38-.04.49h-4.08ZM1074.47,397.26c.01-.67-.28-1.72-1.46-1.72-1.07,0-1.54.98-1.62,1.72h3.08Z"/>
    <path d="M1076.8,396.49c0-.6-.01-1.09-.05-1.57h.94l.06.96h.02c.29-.55.96-1.09,1.92-1.09.8,0,2.05.48,2.05,2.47v3.47h-1.05v-3.35c0-.94-.35-1.71-1.34-1.71-.7,0-1.24.49-1.42,1.08-.05.13-.07.31-.07.49v3.49h-1.06v-4.23Z"/>
    <path d="M1084.05,398.02c.02,1.43.94,2.02,1.99,2.02.75,0,1.21-.13,1.61-.3l.18.76c-.37.17-1.01.36-1.93.36-1.79,0-2.85-1.18-2.85-2.93s1.03-3.13,2.72-3.13c1.9,0,2.4,1.67,2.4,2.73,0,.22-.02.38-.04.49h-4.08ZM1087.14,397.26c.01-.67-.28-1.72-1.46-1.72-1.07,0-1.54.98-1.62,1.72h3.08Z"/>
    <path d="M1089.47,396.73c0-.68-.01-1.27-.05-1.81h.92l.04,1.14h.05c.26-.78.9-1.27,1.61-1.27.12,0,.2.01.3.04v1c-.11-.02-.22-.04-.36-.04-.74,0-1.27.56-1.42,1.36-.02.14-.05.31-.05.49v3.09h-1.04v-3.99Z"/>
    <path d="M1094.57,393.29c.01.36-.25.65-.67.65-.37,0-.64-.29-.64-.65s.28-.66.66-.66.65.29.65.66ZM1093.4,400.73v-5.8h1.06v5.8h-1.06Z"/>
    <path d="M1100.34,400.51c-.28.14-.89.34-1.67.34-1.75,0-2.89-1.19-2.89-2.96s1.22-3.08,3.12-3.08c.62,0,1.18.16,1.46.3l-.24.82c-.25-.14-.65-.28-1.22-.28-1.33,0-2.05.98-2.05,2.19,0,1.34.86,2.17,2.01,2.17.6,0,1-.16,1.3-.29l.18.79Z"/>
    <path d="M1100.94,402.18c.85-1.19,1.51-2.75,1.51-4.91s-.65-3.68-1.51-4.87h.82c.77.98,1.57,2.52,1.57,4.88s-.8,3.87-1.57,4.89h-.82Z"/>
    <path class="cls-12" d="M1056.22,415.13v-8.08h1.14l2.59,4.09c.6.95,1.07,1.8,1.45,2.63h.02c-.1-1.09-.12-2.07-.12-3.33v-3.38h.98v8.08h-1.06l-2.57-4.1c-.56-.9-1.1-1.82-1.51-2.7h-.04c.06,1.03.08,2,.08,3.35v3.45h-.98Z"/>
    <path class="cls-12" d="M1071.02,411c0,2.78-1.69,4.26-3.75,4.26s-3.63-1.66-3.63-4.1c0-2.57,1.59-4.25,3.75-4.25s3.63,1.69,3.63,4.09ZM1064.75,411.13c0,1.73.94,3.27,2.58,3.27s2.59-1.52,2.59-3.36c0-1.61-.84-3.29-2.58-3.29s-2.59,1.6-2.59,3.37Z"/>
    <path class="cls-12" d="M1073.92,407.93h-2.46v-.89h5.98v.89h-2.47v7.2h-1.05v-7.2Z"/>
    <path class="cls-12" d="M1081.94,407.04v4.79c0,1.81.8,2.58,1.88,2.58,1.2,0,1.97-.79,1.97-2.58v-4.79h1.06v4.71c0,2.48-1.31,3.5-3.06,3.5-1.65,0-2.9-.95-2.9-3.45v-4.76h1.06Z"/>
    <path class="cls-12" d="M1088.51,413.85c.47.29,1.15.53,1.87.53,1.07,0,1.69-.56,1.69-1.38,0-.76-.43-1.19-1.52-1.61-1.32-.47-2.13-1.15-2.13-2.29,0-1.26,1.04-2.19,2.61-2.19.83,0,1.43.19,1.79.4l-.29.85c-.26-.14-.8-.38-1.54-.38-1.1,0-1.52.66-1.52,1.21,0,.76.49,1.13,1.61,1.56,1.37.53,2.06,1.19,2.06,2.37,0,1.25-.92,2.33-2.83,2.33-.78,0-1.63-.23-2.06-.52l.26-.88Z"/>
    <path class="cls-12" d="M1098.76,411.34h-3.14v2.91h3.5v.88h-4.54v-8.08h4.37v.88h-3.32v2.55h3.14v.86Z"/>
    <path class="cls-12" d="M1100.48,407.15c.64-.1,1.39-.17,2.22-.17,1.5,0,2.57.35,3.27,1.01.72.66,1.14,1.6,1.14,2.9s-.41,2.4-1.16,3.14c-.76.76-2,1.16-3.57,1.16-.74,0-1.37-.04-1.9-.1v-7.95ZM1101.52,414.3c.26.05.65.06,1.06.06,2.23,0,3.44-1.25,3.44-3.43.01-1.91-1.07-3.12-3.27-3.12-.54,0-.95.05-1.22.11v6.38Z"/>
  </g>
  <text class="cls-7" transform="translate(1198.7893 386.3257)"><tspan x="0" y="0">Other 3G</tspan><tspan class="cls-12"><tspan x="-3.48" y="14.4">NOT USED</tspan></tspan></text>
  <g>
    <path d="M1332.76,385.11c.3.19,1,.49,1.73.49,1.36,0,1.78-.86,1.76-1.51-.01-1.09-1-1.56-2.02-1.56h-.59v-.79h.59c.77,0,1.74-.4,1.74-1.32,0-.62-.4-1.18-1.37-1.18-.62,0-1.22.28-1.56.52l-.28-.77c.41-.3,1.2-.6,2.04-.6,1.54,0,2.23.91,2.23,1.86,0,.8-.48,1.49-1.44,1.83v.02c.96.19,1.74.91,1.74,2,0,1.25-.97,2.34-2.84,2.34-.88,0-1.64-.28-2.03-.53l.29-.82Z"/>
    <path d="M1345.19,385.97c-.47.17-1.39.44-2.48.44-1.22,0-2.23-.31-3.02-1.07-.7-.67-1.13-1.75-1.13-3.01.01-2.41,1.67-4.17,4.38-4.17.94,0,1.67.2,2.01.37l-.25.85c-.43-.19-.97-.35-1.79-.35-1.97,0-3.25,1.22-3.25,3.25s1.24,3.26,3.12,3.26c.68,0,1.15-.1,1.39-.22v-2.41h-1.64v-.84h2.66v3.89Z"/>
    <path d="M1349.29,382.33c0-.68-.01-1.27-.05-1.81h.92l.04,1.14h.05c.26-.78.9-1.27,1.61-1.27.12,0,.2.01.3.04v1c-.11-.02-.22-.04-.36-.04-.74,0-1.27.56-1.42,1.36-.02.14-.05.31-.05.49v3.09h-1.04v-3.99Z"/>
    <path d="M1358.47,383.38c0,2.15-1.49,3.08-2.89,3.08-1.57,0-2.78-1.15-2.78-2.99,0-1.94,1.27-3.08,2.88-3.08s2.79,1.21,2.79,2.99ZM1353.87,383.44c0,1.27.73,2.23,1.76,2.23s1.76-.95,1.76-2.25c0-.98-.49-2.23-1.74-2.23s-1.79,1.15-1.79,2.25Z"/>
    <path d="M1363.02,386.33l-.08-.73h-.04c-.32.46-.95.86-1.78.86-1.17,0-1.77-.83-1.77-1.67,0-1.4,1.25-2.17,3.49-2.16v-.12c0-.48-.13-1.34-1.32-1.34-.54,0-1.1.17-1.51.43l-.24-.7c.48-.31,1.17-.52,1.91-.52,1.78,0,2.21,1.21,2.21,2.37v2.17c0,.5.02,1,.1,1.39h-.96ZM1362.86,383.36c-1.15-.02-2.46.18-2.46,1.31,0,.68.46,1.01,1,1.01.76,0,1.24-.48,1.4-.97.04-.11.06-.23.06-.34v-1.01Z"/>
    <path d="M1365.59,382.09c0-.6-.01-1.09-.05-1.57h.92l.05.94h.04c.32-.55.86-1.07,1.82-1.07.79,0,1.39.48,1.64,1.16h.02c.18-.32.41-.58.65-.76.35-.26.73-.41,1.28-.41.77,0,1.91.5,1.91,2.52v3.42h-1.03v-3.29c0-1.12-.41-1.79-1.26-1.79-.6,0-1.07.44-1.25.96-.05.14-.08.34-.08.53v3.59h-1.03v-3.48c0-.92-.41-1.6-1.21-1.6-.66,0-1.14.53-1.31,1.06-.06.16-.08.34-.08.52v3.5h-1.03v-4.23Z"/>
    <path d="M1376.77,378.89c.01.36-.25.65-.67.65-.37,0-.64-.29-.64-.65s.28-.66.66-.66.65.29.65.66ZM1375.6,386.33v-5.8h1.06v5.8h-1.06Z"/>
    <path d="M1378.41,382.09c0-.6-.01-1.09-.05-1.57h.94l.06.96h.02c.29-.55.96-1.09,1.92-1.09.8,0,2.05.48,2.05,2.47v3.47h-1.06v-3.35c0-.94-.35-1.71-1.34-1.71-.7,0-1.24.49-1.42,1.08-.05.13-.07.31-.07.49v3.49h-1.05v-4.23Z"/>
    <path d="M1390.07,380.52c-.02.42-.05.89-.05,1.6v3.37c0,1.33-.26,2.15-.83,2.65-.56.53-1.38.7-2.11.7s-1.46-.17-1.93-.48l.26-.8c.38.24.98.46,1.7.46,1.08,0,1.87-.56,1.87-2.03v-.65h-.02c-.32.54-.95.97-1.85.97-1.44,0-2.47-1.22-2.47-2.83,0-1.97,1.28-3.08,2.61-3.08,1.01,0,1.56.53,1.81,1.01h.02l.05-.88h.92ZM1388.98,382.81c0-.18-.01-.34-.06-.48-.19-.61-.71-1.12-1.48-1.12-1.01,0-1.73.85-1.73,2.19,0,1.14.58,2.09,1.71,2.09.65,0,1.24-.41,1.46-1.08.06-.18.08-.38.08-.56v-1.04Z"/>
    <path d="M1334.47,400.73l-.08-.73h-.04c-.32.46-.95.86-1.77.86-1.18,0-1.78-.83-1.78-1.67,0-1.4,1.25-2.17,3.49-2.16v-.12c0-.48-.13-1.34-1.32-1.34-.54,0-1.1.17-1.51.43l-.24-.7c.48-.31,1.17-.52,1.91-.52,1.77,0,2.21,1.21,2.21,2.37v2.17c0,.5.02,1,.1,1.39h-.96ZM1334.31,397.76c-1.15-.02-2.46.18-2.46,1.31,0,.68.46,1.01,1,1.01.76,0,1.24-.48,1.4-.97.04-.11.06-.23.06-.34v-1.01Z"/>
    <path d="M1341.17,400.51c-.28.14-.89.34-1.67.34-1.75,0-2.89-1.19-2.89-2.96s1.22-3.08,3.12-3.08c.62,0,1.17.16,1.46.3l-.24.82c-.25-.14-.65-.28-1.22-.28-1.33,0-2.05.98-2.05,2.19,0,1.34.86,2.17,2.01,2.17.6,0,1-.16,1.29-.29l.18.79Z"/>
    <path d="M1343.68,393.25v1.67h1.51v.8h-1.51v3.13c0,.72.2,1.13.79,1.13.28,0,.48-.04.61-.07l.05.79c-.2.08-.53.14-.94.14-.49,0-.89-.16-1.14-.44-.3-.31-.41-.83-.41-1.51v-3.17h-.9v-.8h.9v-1.39l1.03-.28Z"/>
    <path d="M1347.56,393.29c.01.36-.25.65-.67.65-.37,0-.63-.29-.63-.65s.28-.66.66-.66.65.29.65.66ZM1346.39,400.73v-5.8h1.05v5.8h-1.05Z"/>
    <path d="M1349.6,394.92l1.14,3.26c.19.53.35,1.01.47,1.49h.04c.13-.48.3-.96.49-1.49l1.13-3.26h1.1l-2.28,5.8h-1.01l-2.21-5.8h1.13Z"/>
    <path d="M1355.55,398.02c.02,1.43.94,2.02,1.99,2.02.76,0,1.21-.13,1.61-.3l.18.76c-.37.17-1.01.36-1.93.36-1.79,0-2.85-1.18-2.85-2.93s1.03-3.13,2.72-3.13c1.9,0,2.4,1.67,2.4,2.73,0,.22-.02.38-.04.49h-4.08ZM1358.65,397.26c.01-.67-.28-1.72-1.46-1.72-1.07,0-1.54.98-1.62,1.72h3.08Z"/>
    <path d="M1363.38,399.65c.31.2.86.42,1.39.42.77,0,1.13-.38,1.13-.86,0-.5-.3-.78-1.08-1.07-1.04-.37-1.54-.95-1.54-1.64,0-.94.76-1.7,2-1.7.59,0,1.1.17,1.43.36l-.26.77c-.23-.14-.65-.34-1.19-.34-.62,0-.97.36-.97.79,0,.48.35.7,1.1.98,1.01.38,1.52.89,1.52,1.75,0,1.02-.79,1.74-2.17,1.74-.64,0-1.22-.16-1.63-.4l.26-.8Z"/>
    <path d="M1369.54,393.25v1.67h1.51v.8h-1.51v3.13c0,.72.2,1.13.79,1.13.28,0,.48-.04.61-.07l.05.79c-.2.08-.53.14-.94.14-.49,0-.89-.16-1.14-.44-.3-.31-.41-.83-.41-1.51v-3.17h-.9v-.8h.9v-1.39l1.03-.28Z"/>
    <path d="M1375.46,400.73l-.08-.73h-.04c-.32.46-.95.86-1.77.86-1.18,0-1.78-.83-1.78-1.67,0-1.4,1.25-2.17,3.49-2.16v-.12c0-.48-.13-1.34-1.32-1.34-.54,0-1.1.17-1.51.43l-.24-.7c.48-.31,1.17-.52,1.91-.52,1.77,0,2.21,1.21,2.21,2.37v2.17c0,.5.02,1,.1,1.39h-.96ZM1375.3,397.76c-1.15-.02-2.46.18-2.46,1.31,0,.68.46,1.01,1,1.01.76,0,1.24-.48,1.4-.97.04-.11.06-.23.06-.34v-1.01Z"/>
    <path d="M1379.3,393.25v1.67h1.51v.8h-1.51v3.13c0,.72.2,1.13.79,1.13.28,0,.48-.04.61-.07l.05.79c-.2.08-.53.14-.94.14-.49,0-.89-.16-1.14-.44-.3-.31-.41-.83-.41-1.51v-3.17h-.9v-.8h.9v-1.39l1.03-.28Z"/>
    <path d="M1386.86,399.14c0,.6.01,1.13.05,1.58h-.94l-.06-.95h-.02c-.28.47-.89,1.08-1.92,1.08-.91,0-2-.5-2-2.54v-3.39h1.06v3.21c0,1.1.34,1.85,1.29,1.85.71,0,1.2-.49,1.39-.96.06-.16.1-.35.1-.54v-3.56h1.06v4.22Z"/>
    <path d="M1388.47,399.65c.31.2.86.42,1.39.42.77,0,1.13-.38,1.13-.86,0-.5-.3-.78-1.08-1.07-1.04-.37-1.54-.95-1.54-1.64,0-.94.75-1.7,2-1.7.59,0,1.1.17,1.43.36l-.26.77c-.23-.14-.65-.34-1.19-.34-.62,0-.97.36-.97.79,0,.48.35.7,1.1.98,1.01.38,1.52.89,1.52,1.75,0,1.02-.79,1.74-2.17,1.74-.64,0-1.22-.16-1.63-.4l.26-.8Z"/>
    <path class="cls-12" d="M1336.22,415.13v-8.08h1.14l2.59,4.09c.6.95,1.07,1.8,1.45,2.63h.02c-.1-1.09-.12-2.07-.12-3.33v-3.38h.98v8.08h-1.06l-2.57-4.1c-.56-.9-1.1-1.82-1.51-2.7h-.04c.06,1.03.08,2,.08,3.35v3.45h-.98Z"/>
    <path class="cls-12" d="M1351.02,411c0,2.78-1.69,4.26-3.75,4.26s-3.63-1.66-3.63-4.1c0-2.57,1.59-4.25,3.75-4.25s3.63,1.69,3.63,4.09ZM1344.75,411.13c0,1.73.94,3.27,2.58,3.27s2.59-1.52,2.59-3.36c0-1.61-.84-3.29-2.58-3.29s-2.59,1.6-2.59,3.37Z"/>
    <path class="cls-12" d="M1353.92,407.93h-2.46v-.89h5.98v.89h-2.47v7.2h-1.05v-7.2Z"/>
    <path class="cls-12" d="M1361.94,407.04v4.79c0,1.81.8,2.58,1.88,2.58,1.2,0,1.97-.79,1.97-2.58v-4.79h1.06v4.71c0,2.48-1.31,3.5-3.06,3.5-1.65,0-2.9-.95-2.9-3.45v-4.76h1.06Z"/>
    <path class="cls-12" d="M1368.51,413.85c.47.29,1.15.53,1.87.53,1.07,0,1.69-.56,1.69-1.38,0-.76-.43-1.19-1.52-1.61-1.32-.47-2.13-1.15-2.13-2.29,0-1.26,1.04-2.19,2.61-2.19.83,0,1.43.19,1.79.4l-.29.85c-.26-.14-.8-.38-1.54-.38-1.1,0-1.52.66-1.52,1.21,0,.76.49,1.13,1.61,1.56,1.37.53,2.06,1.19,2.06,2.37,0,1.25-.92,2.33-2.83,2.33-.78,0-1.63-.23-2.06-.52l.26-.88Z"/>
    <path class="cls-12" d="M1378.76,411.34h-3.14v2.91h3.5v.88h-4.54v-8.08h4.37v.88h-3.32v2.55h3.14v.86Z"/>
    <path class="cls-12" d="M1380.48,407.15c.64-.1,1.39-.17,2.22-.17,1.5,0,2.57.35,3.27,1.01.72.66,1.14,1.6,1.14,2.9s-.41,2.4-1.16,3.14c-.76.76-2,1.16-3.57,1.16-.74,0-1.37-.04-1.9-.1v-7.95ZM1381.52,414.3c.26.05.65.06,1.06.06,2.23,0,3.44-1.25,3.44-3.43.01-1.91-1.07-3.12-3.27-3.12-.54,0-.95.05-1.22.11v6.38Z"/>
  </g>
  <text class="cls-7" transform="translate(493.63 386.33)"><tspan x="0" y="0">Broadband</tspan></text>
  <text class="cls-7" transform="translate(612.74 386.33)"><tspan x="0" y="0">Broadband (stencil)</tspan><tspan class="cls-12"><tspan x="-32.64" y="14.4">No need to put in spreadsheet – </tspan></tspan><tspan class="cls-12"><tspan x="-40.27" y="28.8">need to add note explaining where </tspan></tspan><tspan class="cls-12"><tspan x="-15.14" y="43.2">and when to use this icon</tspan></tspan></text>
  <text class="cls-7" transform="translate(929.67 386.33)"><tspan x="0" y="0">Data</tspan></text>
  <text class="cls-7" transform="translate(781.39 386.33)"><tspan x="0" y="0">Internet</tspan></text>
  <text class="cls-7" transform="translate(1447.9319 526.3262)"><tspan x="0" y="0">Integrated public wifi</tspan><tspan class="cls-12"><tspan x="27.38" y="14.4">NOT USED</tspan></tspan><tspan class="cls-12"><tspan x="-23.02" y="28.8">Have created new, larger icon. </tspan></tspan><tspan class="cls-12"><tspan x="8.2" y="43.2">Not yet artworked</tspan></tspan></text>
  <text class="cls-7" transform="translate(1195.9692 526.3262)"><tspan x="0" y="0">Home wifi</tspan><tspan class="cls-12"><tspan x="-.66" y="14.4">NOT USED</tspan></tspan></text>
  <text class="cls-7" transform="translate(907.85 526.33)"><tspan x="0" y="0">BT Openzone</tspan><tspan class="cls-12"><tspan x="7.46" y="14.4">NOT USED</tspan></tspan></text>
  <text class="cls-7" transform="translate(622.7 526.33)"><tspan x="0" y="0">Dial-up (global)</tspan><tspan class="cls-12"><tspan x="12.61" y="14.4">NOT USED</tspan></tspan></text>
  <text class="cls-7" transform="translate(783.16 526.33)"><tspan x="0" y="0">Dial-up</tspan></text>
  <text class="cls-7" transform="translate(493.43 526.33)"><tspan x="0" y="0">VPN profile</tspan><tspan class="cls-12"><tspan x="1.88" y="14.4">NOT USED</tspan></tspan></text>
  <text class="cls-7" transform="translate(1309.1018 526.3262)"><tspan x="0" y="0">Office/Corporate wifi</tspan><tspan class="cls-12"><tspan x="26.21" y="14.4">NOT USED</tspan></tspan></text>
  <g>
    <path d="M1046.81,522.2c0,2.78-1.69,4.26-3.75,4.26s-3.63-1.66-3.63-4.1c0-2.57,1.6-4.25,3.75-4.25s3.63,1.69,3.63,4.09ZM1040.54,522.33c0,1.73.94,3.27,2.58,3.27s2.59-1.52,2.59-3.36c0-1.61-.84-3.29-2.58-3.29s-2.59,1.6-2.59,3.37Z"/>
    <path d="M1049.4,518.85v1.67h1.51v.8h-1.51v3.13c0,.72.2,1.13.79,1.13.28,0,.48-.04.61-.07l.05.79c-.2.08-.53.14-.94.14-.49,0-.89-.16-1.14-.44-.3-.31-.41-.83-.41-1.51v-3.17h-.9v-.8h.9v-1.39l1.03-.28Z"/>
    <path d="M1052.1,517.81h1.06v3.62h.02c.17-.3.43-.56.75-.74.31-.18.68-.3,1.08-.3.78,0,2.03.48,2.03,2.48v3.45h-1.06v-3.33c0-.94-.35-1.73-1.34-1.73-.68,0-1.22.48-1.42,1.06-.06.14-.07.3-.07.5v3.5h-1.06v-8.52Z"/>
    <path d="M1059.35,523.62c.02,1.43.94,2.02,1.99,2.02.76,0,1.21-.13,1.61-.3l.18.75c-.37.17-1.01.36-1.93.36-1.79,0-2.85-1.18-2.85-2.93s1.03-3.13,2.72-3.13c1.89,0,2.4,1.67,2.4,2.73,0,.22-.02.38-.04.49h-4.08ZM1062.45,522.86c.01-.67-.28-1.72-1.46-1.72-1.07,0-1.54.98-1.62,1.72h3.08Z"/>
    <path d="M1064.78,522.33c0-.68-.01-1.27-.05-1.81h.92l.04,1.14h.05c.26-.78.9-1.27,1.61-1.27.12,0,.2.01.3.04v1c-.11-.02-.22-.04-.36-.04-.74,0-1.27.56-1.42,1.36-.02.14-.05.31-.05.49v3.09h-1.04v-3.99Z"/>
    <path d="M1073.54,518c-.88,1.17-1.51,2.73-1.51,4.91s.66,3.67,1.51,4.87h-.83c-.76-1-1.57-2.53-1.57-4.87.01-2.36.82-3.9,1.57-4.91h.83Z"/>
    <path d="M1074.57,525.12c.3.19,1,.49,1.73.49,1.35,0,1.77-.86,1.76-1.51-.01-1.09-1-1.56-2.01-1.56h-.59v-.79h.59c.77,0,1.74-.4,1.74-1.32,0-.62-.4-1.18-1.37-1.18-.62,0-1.22.28-1.56.52l-.28-.77c.41-.3,1.2-.6,2.04-.6,1.54,0,2.23.91,2.23,1.86,0,.8-.48,1.49-1.44,1.83v.02c.96.19,1.74.91,1.74,2,0,1.25-.97,2.34-2.84,2.34-.88,0-1.64-.28-2.03-.53l.29-.82Z"/>
    <path d="M1080.81,522.33c0-.68-.01-1.27-.05-1.81h.92l.04,1.14h.05c.26-.78.9-1.27,1.61-1.27.12,0,.2.01.3.04v1c-.11-.02-.22-.04-.36-.04-.74,0-1.27.56-1.42,1.36-.02.14-.05.31-.05.49v3.09h-1.04v-3.99Z"/>
    <path d="M1089.75,517.81v7.02c0,.52.01,1.1.05,1.5h-.95l-.05-1.01h-.02c-.32.65-1.03,1.14-1.98,1.14-1.4,0-2.48-1.19-2.48-2.95-.01-1.93,1.19-3.12,2.6-3.12.89,0,1.49.42,1.75.89h.02v-3.47h1.06ZM1088.69,522.88c0-.13-.01-.31-.05-.44-.16-.67-.73-1.22-1.52-1.22-1.09,0-1.74.96-1.74,2.24,0,1.17.58,2.15,1.71,2.15.71,0,1.36-.47,1.55-1.26.04-.14.05-.29.05-.46v-1.01Z"/>
    <path d="M1093.95,522.69v.78h-2.96v-.78h2.96Z"/>
    <path d="M1095.18,522.42c0-.74-.02-1.34-.05-1.89h.95l.05,1h.02c.43-.71,1.12-1.13,2.06-1.13,1.4,0,2.46,1.19,2.46,2.95,0,2.09-1.27,3.12-2.64,3.12-.77,0-1.44-.34-1.79-.91h-.02v3.15h-1.04v-6.29ZM1096.23,523.96c0,.16.02.3.05.43.19.73.83,1.24,1.58,1.24,1.12,0,1.76-.91,1.76-2.24,0-1.16-.61-2.16-1.73-2.16-.72,0-1.39.52-1.59,1.31-.04.13-.07.29-.07.43v1Z"/>
    <path d="M1105.23,526.33l-.08-.73h-.04c-.32.46-.95.86-1.78.86-1.18,0-1.78-.83-1.78-1.67,0-1.4,1.25-2.17,3.49-2.16v-.12c0-.48-.13-1.34-1.32-1.34-.54,0-1.1.17-1.51.43l-.24-.7c.48-.31,1.18-.52,1.91-.52,1.78,0,2.21,1.21,2.21,2.37v2.17c0,.5.02,1,.1,1.39h-.96ZM1105.07,523.36c-1.15-.02-2.46.18-2.46,1.31,0,.68.46,1.01,1,1.01.76,0,1.24-.48,1.4-.97.04-.11.06-.23.06-.34v-1.01Z"/>
    <path d="M1107.8,522.33c0-.68-.01-1.27-.05-1.81h.92l.04,1.14h.05c.26-.78.9-1.27,1.61-1.27.12,0,.2.01.3.04v1c-.11-.02-.22-.04-.36-.04-.74,0-1.27.56-1.42,1.36-.02.14-.05.31-.05.49v3.09h-1.04v-3.99Z"/>
    <path d="M1112.99,518.85v1.67h1.51v.8h-1.51v3.13c0,.72.2,1.13.79,1.13.28,0,.48-.04.61-.07l.05.79c-.2.08-.53.14-.94.14-.49,0-.89-.16-1.14-.44-.3-.31-.41-.83-.41-1.51v-3.17h-.9v-.8h.9v-1.39l1.03-.28Z"/>
    <path d="M1116.08,520.52l1.27,3.43c.13.38.28.84.37,1.19h.02c.11-.35.23-.79.37-1.21l1.15-3.41h1.12l-1.58,4.14c-.76,1.99-1.27,3.01-1.99,3.63-.52.46-1.03.64-1.29.68l-.26-.89c.26-.08.61-.25.92-.52.29-.23.65-.64.89-1.17.05-.11.08-.19.08-.25s-.02-.14-.07-.28l-2.15-5.35h1.15Z"/>
    <path d="M1120.71,527.78c.85-1.19,1.51-2.75,1.51-4.91s-.65-3.68-1.51-4.87h.82c.77.98,1.57,2.52,1.57,4.88s-.8,3.87-1.57,4.89h-.82Z"/>
    <path d="M1046.39,532.21h1.06v3.62h.02c.17-.3.43-.56.76-.74.31-.18.68-.3,1.08-.3.78,0,2.03.48,2.03,2.48v3.45h-1.06v-3.33c0-.94-.35-1.73-1.34-1.73-.68,0-1.22.48-1.42,1.06-.06.14-.07.3-.07.5v3.5h-1.06v-8.52Z"/>
    <path d="M1058.31,537.78c0,2.15-1.49,3.08-2.89,3.08-1.57,0-2.78-1.15-2.78-2.99,0-1.94,1.27-3.08,2.88-3.08s2.79,1.21,2.79,2.99ZM1053.7,537.84c0,1.27.73,2.23,1.76,2.23s1.76-.95,1.76-2.25c0-.98-.49-2.23-1.74-2.23s-1.79,1.15-1.79,2.25Z"/>
    <path d="M1060.91,533.25v1.67h1.51v.8h-1.51v3.13c0,.72.2,1.13.79,1.13.28,0,.48-.04.61-.07l.05.79c-.2.08-.53.14-.94.14-.49,0-.89-.16-1.14-.44-.3-.31-.41-.83-.41-1.51v-3.17h-.9v-.8h.9v-1.39l1.03-.28Z"/>
    <path d="M1064.2,538.02c.02,1.43.94,2.01,1.99,2.01.75,0,1.21-.13,1.61-.3l.18.76c-.37.17-1.01.36-1.93.36-1.79,0-2.85-1.17-2.85-2.93s1.03-3.13,2.72-3.13c1.9,0,2.4,1.67,2.4,2.74,0,.22-.02.38-.04.49h-4.08ZM1067.3,537.26c.01-.67-.28-1.71-1.46-1.71-1.07,0-1.54.98-1.62,1.71h3.08Z"/>
    <path d="M1069.62,532.21h1.06v8.52h-1.06v-8.52Z"/>
    <path d="M1075.59,538.02c.02,1.43.94,2.01,1.99,2.01.75,0,1.21-.13,1.61-.3l.18.76c-.37.17-1.01.36-1.93.36-1.79,0-2.85-1.17-2.85-2.93s1.03-3.13,2.72-3.13c1.9,0,2.4,1.67,2.4,2.74,0,.22-.02.38-.04.49h-4.08ZM1078.68,537.26c.01-.67-.28-1.71-1.46-1.71-1.07,0-1.54.98-1.62,1.71h3.08Z"/>
    <path d="M1082.28,533.25v1.67h1.51v.8h-1.51v3.13c0,.72.2,1.13.79,1.13.28,0,.48-.04.61-.07l.05.79c-.2.08-.53.14-.94.14-.49,0-.89-.16-1.14-.44-.3-.31-.41-.83-.41-1.51v-3.17h-.9v-.8h.9v-1.39l1.03-.28Z"/>
    <path d="M1084.98,532.21h1.05v3.62h.02c.17-.3.43-.56.76-.74.31-.18.68-.3,1.08-.3.78,0,2.03.48,2.03,2.48v3.45h-1.06v-3.33c0-.94-.35-1.73-1.34-1.73-.68,0-1.22.48-1.42,1.06-.06.14-.07.3-.07.5v3.5h-1.05v-8.52Z"/>
    <path d="M1092.23,538.02c.02,1.43.94,2.01,1.99,2.01.76,0,1.21-.13,1.61-.3l.18.76c-.37.17-1.01.36-1.93.36-1.79,0-2.85-1.17-2.85-2.93s1.03-3.13,2.72-3.13c1.9,0,2.4,1.67,2.4,2.74,0,.22-.02.38-.04.49h-4.08ZM1095.33,537.26c.01-.67-.28-1.71-1.46-1.71-1.07,0-1.54.98-1.62,1.71h3.08Z"/>
    <path d="M1097.66,536.73c0-.68-.01-1.27-.05-1.81h.92l.04,1.14h.05c.26-.78.9-1.27,1.61-1.27.12,0,.2.01.3.04v1c-.11-.02-.22-.04-.36-.04-.74,0-1.27.56-1.42,1.36-.02.14-.05.31-.05.49v3.09h-1.04v-3.99Z"/>
    <path d="M1101.58,536.49c0-.6-.01-1.09-.05-1.57h.94l.06.96h.02c.29-.55.96-1.09,1.92-1.09.8,0,2.05.48,2.05,2.47v3.47h-1.06v-3.35c0-.94-.35-1.71-1.34-1.71-.7,0-1.24.49-1.42,1.08-.05.13-.07.31-.07.49v3.49h-1.05v-4.23Z"/>
    <path d="M1108.83,538.02c.02,1.43.94,2.01,1.99,2.01.76,0,1.21-.13,1.61-.3l.18.76c-.37.17-1.01.36-1.93.36-1.79,0-2.85-1.17-2.85-2.93s1.03-3.13,2.72-3.13c1.9,0,2.4,1.67,2.4,2.74,0,.22-.02.38-.04.49h-4.08ZM1111.92,537.26c.01-.67-.28-1.71-1.46-1.71-1.07,0-1.54.98-1.62,1.71h3.08Z"/>
    <path d="M1115.52,533.25v1.67h1.51v.8h-1.51v3.13c0,.72.2,1.13.79,1.13.28,0,.48-.04.61-.07l.05.79c-.2.08-.53.14-.93.14-.49,0-.89-.16-1.14-.44-.3-.31-.41-.83-.41-1.51v-3.17h-.9v-.8h.9v-1.39l1.03-.28Z"/>
    <path class="cls-12" d="M1056.22,555.13v-8.08h1.14l2.59,4.09c.6.95,1.07,1.8,1.45,2.63h.02c-.1-1.09-.12-2.08-.12-3.33v-3.38h.98v8.08h-1.06l-2.57-4.1c-.56-.9-1.1-1.82-1.51-2.7h-.04c.06,1.03.08,2,.08,3.35v3.45h-.98Z"/>
    <path class="cls-12" d="M1071.02,551c0,2.78-1.69,4.26-3.75,4.26s-3.63-1.66-3.63-4.1c0-2.57,1.59-4.25,3.75-4.25s3.63,1.69,3.63,4.09ZM1064.75,551.13c0,1.73.94,3.27,2.58,3.27s2.59-1.52,2.59-3.36c0-1.61-.84-3.29-2.58-3.29s-2.59,1.59-2.59,3.37Z"/>
    <path class="cls-12" d="M1073.92,547.93h-2.46v-.89h5.98v.89h-2.47v7.2h-1.05v-7.2Z"/>
    <path class="cls-12" d="M1081.94,547.04v4.79c0,1.81.8,2.58,1.88,2.58,1.2,0,1.97-.79,1.97-2.58v-4.79h1.06v4.71c0,2.48-1.31,3.5-3.06,3.5-1.65,0-2.9-.95-2.9-3.45v-4.76h1.06Z"/>
    <path class="cls-12" d="M1088.51,553.85c.47.29,1.15.53,1.87.53,1.07,0,1.69-.56,1.69-1.38,0-.75-.43-1.19-1.52-1.61-1.32-.47-2.13-1.15-2.13-2.29,0-1.26,1.04-2.19,2.61-2.19.83,0,1.43.19,1.79.4l-.29.85c-.26-.14-.8-.38-1.54-.38-1.1,0-1.52.66-1.52,1.21,0,.76.49,1.13,1.61,1.56,1.37.53,2.06,1.19,2.06,2.37,0,1.25-.92,2.33-2.83,2.33-.78,0-1.63-.23-2.06-.52l.26-.88Z"/>
    <path class="cls-12" d="M1098.76,551.34h-3.14v2.92h3.5v.88h-4.54v-8.08h4.37v.88h-3.32v2.55h3.14v.86Z"/>
    <path class="cls-12" d="M1100.48,547.15c.64-.1,1.39-.17,2.22-.17,1.5,0,2.57.35,3.27,1.01.72.66,1.14,1.59,1.14,2.9s-.41,2.4-1.16,3.14c-.76.75-2,1.16-3.57,1.16-.74,0-1.37-.04-1.9-.1v-7.95ZM1101.52,554.3c.26.05.65.06,1.06.06,2.23,0,3.44-1.25,3.44-3.43.01-1.91-1.07-3.12-3.27-3.12-.54,0-.95.05-1.22.11v6.38Z"/>
  </g>
  <text class="cls-7" transform="translate(468.74 666.33)"><tspan x="0" y="0">Other (3rd-party) wifi</tspan><tspan class="cls-12"><tspan x="26.57" y="14.4">NOT USED</tspan></tspan></text>
  <text class="cls-7" transform="translate(631.34 666.33)"><tspan x="0" y="0">In-flight wifi</tspan><tspan class="cls-12"><tspan x="3.97" y="14.4">NOT USED</tspan></tspan></text>
  <text class="cls-7" transform="translate(766.79 666.33)"><tspan x="0" y="0">Unknown wifi</tspan><tspan class="cls-12"><tspan x="8.52" y="14.4">NOT USED</tspan></tspan></text>
  <text class="cls-7" transform="translate(911.04 666.33)"><tspan x="0" y="0">Standard TV</tspan></text>
  <text class="cls-7" transform="translate(1044.5934 666.3262)"><tspan x="0" y="0">Widescreen TV</tspan></text>
  <text class="cls-7" transform="translate(1197.8353 666.3262)"><tspan x="0" y="0">Anti virus</tspan></text>
  <g>
    <g>
      <path class="cls-2" d="M513.95,211.18c2.26,1.11,4.79,1.75,7.49,1.75,2.87,0,5.58-.72,7.95-1.98"/>
      <path class="cls-2" d="M536.45,203.89c1.26-2.37,1.98-5.08,1.98-7.95,0-2.69-.64-5.22-1.76-7.49,5.1-6.73,7.6-12.1,5.97-13.73-1.63-1.63-6.99.87-13.73,5.97-2.26-1.11-4.79-1.75-7.48-1.75-9.39,0-17,7.61-17,17,0,2.69.64,5.22,1.75,7.49h0c-5.1,6.73-7.6,12.1-5.97,13.73,2.54,2.54,14.09-4.9,25.81-16.62.82-.82,1.62-1.65,2.4-2.47h-10"/>
    </g>
    <rect class="cls-1" x="481.43" y="156" width="80" height="80"/>
  </g>
  <g>
    <rect class="cls-1" x="621.43" y="296" width="80" height="80"/>
    <g>
      <path class="cls-2" d="M666.43,345c0,2.76-2.24,5-5,5s-5-2.24-5-5v-28c0-2.76-2.24-5-5-5s-5,2.24-5,5"/>
      <path class="cls-2" d="M666.43,359.13c5.82-2.06,10-7.6,10-14.13s-4.18-12.07-10-14.13"/>
      <path class="cls-2" d="M646.43,327v18c0,6.53,4.18,12.07,10,14.13"/>
    </g>
  </g>
  <g>
    <g>
      <line class="cls-2" x1="1230.43" y1="616" x2="1245.43" y2="616"/>
      <line class="cls-2" x1="1197.43" y1="616" x2="1212.43" y2="616"/>
      <line class="cls-2" x1="1221.43" y1="625" x2="1221.43" y2="640"/>
      <line class="cls-2" x1="1221.43" y1="592" x2="1221.43" y2="607"/>
      <circle class="cls-2" cx="1221.43" cy="616" r="9"/>
      <path class="cls-2" d="M1237.92,625.42c1.59-2.78,2.51-5.99,2.51-9.42,0-10.49-8.51-19-19-19s-19,8.51-19,19,8.51,19,19,19c3.43,0,6.64-.92,9.42-2.51"/>
    </g>
    <rect class="cls-1" x="1181.43" y="576" width="80" height="80"/>
  </g>
  <text class="cls-7" transform="translate(1328.8415 666.3262)"><tspan x="0" y="0">SIM (top-left)</tspan></text>
  <text class="cls-7" transform="translate(1464.9655 666.3262)"><tspan x="0" y="0">SIM (top-right)</tspan></text>
  <text class="cls-7" transform="translate(478.56 806.33)"><tspan x="0" y="0">SIM (bottom-left)</tspan></text>
  <text class="cls-7" transform="translate(614.68 806.33)"><tspan x="0" y="0">SIM (bottom-right)</tspan></text>
  <text class="cls-7" transform="translate(1200.0076 806.3262)"><tspan x="0" y="0">Network</tspan></text>
  <text class="cls-7" transform="translate(1350.9812 806.3262)"><tspan x="0" y="0">LAN</tspan></text>
  <text class="cls-7" transform="translate(909.04 806.33)"><tspan x="0" y="0">Internal flash</tspan></text>
  <text class="cls-7" transform="translate(768.32 806.33)"><tspan x="0" y="0">Memory card</tspan></text>
  <g>
    <g>
      <polyline class="cls-2" points="789.43 779 789.43 768 813.43 768 813.43 779"/>
      <line class="cls-2" x1="787.43" y1="733" x2="787.43" y2="737"/>
      <line class="cls-2" x1="797.43" y1="733" x2="797.43" y2="737"/>
      <line class="cls-2" x1="807.43" y1="733" x2="807.43" y2="737"/>
      <path class="cls-2" d="M820.43,779h-38c-2.76,0-5-2.24-5-5v-36c0-2.76,2.24-5,5-5h31c1.66,0,2.83.33,4.5,2l5.5,5.5c1.67,1.67,2,2.83,2,4.5v25"/>
    </g>
    <rect class="cls-1" x="761.43" y="716" width="80" height="80"/>
  </g>
  <g>
    <g>
      <line class="cls-2" x1="918.43" y1="733" x2="964.43" y2="733"/>
      <line class="cls-2" x1="931.43" y1="733" x2="931.43" y2="737"/>
      <line class="cls-2" x1="941.43" y1="733" x2="941.43" y2="737"/>
      <line class="cls-2" x1="951.43" y1="733" x2="951.43" y2="737"/>
      <path class="cls-2" d="M956.43,779h-30c-2.76,0-5-2.24-5-5v-41h40v37"/>
      <polyline class="cls-2" points="933.43 779 933.43 768 949.43 768 949.43 779"/>
      <circle class="cls-2" cx="941.43" cy="752" r="6"/>
    </g>
    <rect class="cls-1" x="901.43" y="716" width="80" height="80"/>
  </g>
  <g>
    <g>
      <rect class="cls-2" x="1236.43" y="771" width="10" height="10"/>
      <rect class="cls-2" x="1216.43" y="771" width="10" height="10"/>
      <rect class="cls-2" x="1196.43" y="771" width="10" height="10"/>
      <path class="cls-2" d="M1201.43,762c0-2.76,2.24-5,5-5h30c2.76,0,5,2.24,5,5"/>
      <line class="cls-2" x1="1221.43" y1="757" x2="1221.43" y2="747"/>
      <rect class="cls-2" x="1210.43" y="731" width="22" height="16"/>
    </g>
    <rect class="cls-1" x="1181.43" y="716" width="80" height="80"/>
  </g>
  <g>
    <g>
      <circle class="cls-3" cx="1056.43" cy="755.5" r="3"/>
      <polyline class="cls-2" points="1102.43 750.5 1109.43 755.5 1102.43 760.5"/>
      <line class="cls-2" x1="1109.43" y1="755.5" x2="1059.43" y2="755.5"/>
      <rect class="cls-4" x="1088.43" y="765.5" width="6" height="6"/>
      <path class="cls-2" d="M1069.43,755.5l11.59,11.59c.78.78,2.31,1.41,3.41,1.41h4"/>
      <circle class="cls-3" cx="1085.43" cy="743.5" r="3"/>
      <path class="cls-2" d="M1064.43,755.5l10.59-10.59c.78-.78,2.31-1.41,3.41-1.41h4"/>
    </g>
    <rect class="cls-1" x="1041.43" y="716" width="80" height="80"/>
  </g>
  <g>
    <rect class="cls-1" x="1321.43" y="716" width="80" height="80"/>
    <g>
      <circle class="cls-2" cx="1361.43" cy="756" r="6"/>
      <rect class="cls-2" x="1376.43" y="751" width="10" height="10"/>
      <rect class="cls-2" x="1336.43" y="751" width="10" height="10"/>
      <circle class="cls-2" cx="1361.43" cy="756" r="6"/>
      <path class="cls-2" d="M1380.78,751c-2.22-8.62-10.03-15-19.35-15-5.59,0-10.64,2.3-14.27,6"/>
      <path class="cls-2" d="M1375.7,770c-3.63,3.7-8.68,6-14.27,6-9.32,0-17.12-6.38-19.34-15"/>
    </g>
  </g>
  <text class="cls-7" transform="translate(1071.3416 806.3262)"><tspan x="0" y="0">USB</tspan></text>
  <g>
    <g>
      <path class="cls-2" d="M1517.22,768.5l8.48,9.2c1.55,1.55.56,2.8-2.2,2.8h-44.13c-2.76,0-3.75-1.25-2.2-2.8l8.48-9.2h31.57Z"/>
      <path class="cls-2" d="M1482.43,736.5v17c0,2.76,2.24,5,5,5h28c2.76,0,5-2.24,5-5v-17c0-2.76-2.24-5-5-5h-23"/>
      <line class="cls-2" x1="1501.43" y1="758.5" x2="1501.43" y2="768.5"/>
    </g>
    <rect class="cls-1" x="1461.43" y="716" width="80" height="80"/>
  </g>
  <text class="cls-7" transform="translate(1446.1077 806.3262)"><tspan x="0" y="0">Hardware and devices</tspan></text>
  <g>
    <g>
      <path class="cls-2" d="M1380.43,632h-38c-2.76,0-5-2.24-5-5v-15c0-1.67.33-2.83,2-4.5l5.5-5.5c1.67-1.67,2.83-2,4.5-2h31c2.76,0,5,2.24,5,5v17"/>
      <text class="cls-11" transform="translate(1348.8451 621.4316)"><tspan x="0" y="0">SIM</tspan></text>
    </g>
    <rect class="cls-1" x="1321.43" y="576" width="80" height="80"/>
  </g>
  <g>
    <g>
      <text class="cls-11" transform="translate(1487.8451 621.4316)"><tspan x="0" y="0">SIM</tspan></text>
      <path class="cls-2" d="M1482.43,632h38c2.76,0,5-2.24,5-5v-15c0-1.67-.33-2.83-2-4.5l-5.5-5.5c-1.67-1.67-2.83-2-4.5-2h-31c-2.76,0-5,2.24-5,5v17"/>
    </g>
    <rect class="cls-1" x="1461.43" y="576" width="80" height="80"/>
  </g>
  <g>
    <g>
      <text class="cls-11" transform="translate(647.85 761.43)"><tspan x="0" y="0">SIM</tspan></text>
      <path class="cls-2" d="M642.43,740h38c2.76,0,5,2.24,5,5v15c0,1.67-.33,2.83-2,4.5l-5.5,5.5c-1.67,1.67-2.83,2-4.5,2h-31c-2.76,0-5-2.24-5-5v-17"/>
    </g>
    <rect class="cls-1" x="621.43" y="716" width="80" height="80"/>
  </g>
  <g>
    <g>
      <text class="cls-11" transform="translate(508.85 761.43)"><tspan x="0" y="0">SIM</tspan></text>
      <path class="cls-2" d="M540.43,740h-38c-2.76,0-5,2.24-5,5v15c0,1.67.33,2.83,2,4.5l5.5,5.5c1.67,1.67,2.83,2,4.5,2h31c2.76,0,5-2.24,5-5v-17"/>
    </g>
    <rect class="cls-1" x="481.43" y="716" width="80" height="80"/>
  </g>
</svg>