<?xml version="1.0" encoding="UTF-8"?>
<svg id="Status" xmlns="http://www.w3.org/2000/svg" viewBox="0 0 1601.98 1320.17">
  <defs>
    <style>
      .cls-1, .cls-2, .cls-3, .cls-4, .cls-5, .cls-6, .cls-7, .cls-8, .cls-9, .cls-10, .cls-11, .cls-12 {
        fill: none;
      }

      .cls-2, .cls-3, .cls-4, .cls-5, .cls-13, .cls-6, .cls-7, .cls-8, .cls-9, .cls-10, .cls-11, .cls-12 {
        stroke-linejoin: round;
      }

      .cls-2, .cls-3, .cls-4, .cls-5, .cls-13, .cls-7, .cls-8, .cls-9, .cls-11, .cls-12 {
        stroke-linecap: round;
      }

      .cls-2, .cls-4, .cls-6, .cls-8, .cls-10, .cls-11 {
        stroke-width: 5px;
      }

      .cls-2, .cls-5, .cls-13, .cls-6, .cls-9, .cls-10 {
        stroke: #000;
      }

      .cls-3, .cls-11 {
        stroke: #1a862d;
      }

      .cls-4, .cls-12 {
        stroke: #83847a;
      }

      .cls-14 {
        font-size: 12px;
      }

      .cls-14, .cls-15 {
        font-family: NewBT-Regular, 'FXCWX H+ New BT';
      }

      .cls-15 {
        font-size: 24px;
      }

      .cls-16 {
        fill: #83847a;
      }

      .cls-13, .cls-9 {
        stroke-width: 1.8px;
      }

      .cls-17 {
        fill: #fff;
      }

      .cls-7, .cls-8 {
        stroke: red;
      }

      .cls-18 {
        opacity: .3;
      }

      .cls-19 {
        fill: red;
      }

      .cls-10 {
        stroke-linecap: square;
      }
    </style>
  </defs>
  <rect class="cls-17" x="411.43" width="1190.55" height="1320.17"/>
  <g>
    <rect class="cls-1" x="761.43" y="576" width="80" height="80"/>
    <g>
      <g>
        <path class="cls-2" d="M803.84,622.7c1.61-1.77,2.59-4.12,2.59-6.7s-.99-4.93-2.59-6.7"/>
        <path class="cls-2" d="M810.91,629.78c3.41-3.59,5.52-8.43,5.52-13.78s-2.11-10.19-5.52-13.78"/>
        <path class="cls-2" d="M818,595.14c5.22,5.4,8.44,12.75,8.44,20.86s-3.22,15.46-8.44,20.86"/>
      </g>
      <path class="cls-2" d="M804.93,638l-10-10c-1.67-1.67-2.83-2-4.5-2h-9c-2.76,0-5-2.24-5-5v-10c0-2.76,2.24-5,5-5h9c1.67,0,2.83-.33,4.5-2l10-10"/>
    </g>
  </g>
  <g>
    <g>
      <path class="cls-2" d="M533.84,622.7c1.61-1.77,2.59-4.12,2.59-6.7s-.99-4.93-2.59-6.7"/>
      <path class="cls-2" d="M534.93,638l-10-10c-1.67-1.67-2.83-2-4.5-2h-9c-2.76,0-5-2.24-5-5v-10c0-2.76,2.24-5,5-5h9c1.67,0,2.83-.33,4.5-2l10-10"/>
    </g>
    <rect class="cls-1" x="481.43" y="576" width="80" height="80"/>
  </g>
  <g>
    <g>
      <g>
        <path class="cls-2" d="M668.81,622.7c1.61-1.77,2.59-4.12,2.59-6.7s-.99-4.93-2.59-6.7"/>
        <path class="cls-2" d="M675.88,629.78c3.41-3.59,5.52-8.43,5.52-13.78s-2.11-10.19-5.52-13.78"/>
      </g>
      <path class="cls-2" d="M669.97,638l-10-10c-1.67-1.67-2.83-2-4.5-2h-9c-2.76,0-5-2.24-5-5v-10c0-2.76,2.24-5,5-5h9c1.67,0,2.83-.33,4.5-2l10-10"/>
    </g>
    <rect class="cls-1" x="621.43" y="576" width="80" height="80"/>
  </g>
  <g>
    <rect class="cls-1" x="901.43" y="576" width="80" height="80"/>
    <g>
      <g>
        <line class="cls-2" x1="949.43" y1="622" x2="961.43" y2="610"/>
        <line class="cls-2" x1="961.43" y1="622" x2="949.43" y2="610"/>
      </g>
      <path class="cls-2" d="M949.93,638l-10-10c-1.67-1.67-2.83-2-4.5-2h-9c-2.76,0-5-2.24-5-5v-10c0-2.76,2.24-5,5-5h9c1.67,0,2.83-.33,4.5-2l10-10"/>
    </g>
  </g>
  <g>
    <rect class="cls-1" x="1461.43" y="436" width="80" height="80"/>
    <g>
      <path class="cls-2" d="M1491.91,481.5c-.94-1.62-1.48-3.49-1.48-5.5s.54-3.88,1.48-5.5"/>
      <path class="cls-2" d="M1510.95,470.5c.94,1.62,1.48,3.49,1.48,5.5s-.54,3.88-1.48,5.5"/>
      <path class="cls-2" d="M1483.26,486.49c-1.79-3.09-2.82-6.67-2.82-10.49s1.04-7.4,2.82-10.49"/>
      <path class="cls-2" d="M1519.61,465.51c1.79,3.09,2.82,6.67,2.82,10.49s-1.04,7.4-2.82,10.49"/>
      <path class="cls-2" d="M1528.28,460.5c2.64,4.56,4.15,9.85,4.15,15.5s-1.52,10.94-4.15,15.5"/>
      <path class="cls-2" d="M1474.58,491.5c-2.64-4.56-4.15-9.85-4.15-15.5s1.52-10.94,4.15-15.5"/>
      <circle class="cls-2" cx="1501.43" cy="476" r="1"/>
    </g>
  </g>
  <g>
    <rect class="cls-1" x="1181.43" y="436" width="80" height="80"/>
    <g>
      <path class="cls-2" d="M1211.91,481.5c-.94-1.62-1.48-3.49-1.48-5.5s.54-3.88,1.48-5.5"/>
      <path class="cls-2" d="M1230.95,470.5c.94,1.62,1.48,3.49,1.48,5.5s-.54,3.88-1.48,5.5"/>
      <circle class="cls-2" cx="1221.43" cy="476" r="1"/>
    </g>
  </g>
  <g>
    <rect class="cls-1" x="1321.43" y="436" width="80" height="80"/>
    <g>
      <path class="cls-2" d="M1351.91,481.5c-.94-1.62-1.48-3.49-1.48-5.5s.54-3.88,1.48-5.5"/>
      <path class="cls-2" d="M1370.95,470.5c.94,1.62,1.48,3.49,1.48,5.5s-.54,3.88-1.48,5.5"/>
      <path class="cls-2" d="M1343.26,486.49c-1.79-3.09-2.82-6.67-2.82-10.49s1.04-7.4,2.82-10.49"/>
      <path class="cls-2" d="M1379.61,465.51c1.79,3.09,2.82,6.67,2.82,10.49s-1.04,7.4-2.82,10.49"/>
      <circle class="cls-2" cx="1361.43" cy="476" r="1"/>
    </g>
  </g>
  <g>
    <polyline class="cls-2" points="1094.43 611 1101.43 616 1094.43 621"/>
    <g>
      <line class="cls-2" x1="1081.43" y1="616" x2="1101.43" y2="616"/>
      <path class="cls-2" d="M1089.93,638l-10-10c-1.67-1.67-2.83-2-4.5-2h-9c-2.76,0-5-2.24-5-5v-10c0-2.76,2.24-5,5-5h9c1.67,0,2.83-.33,4.5-2l10-10"/>
    </g>
  </g>
  <g>
    <g>
      <polyline class="cls-2" points="641.43 206 681.43 206 681.43 201 686.43 201 686.43 191 681.43 191 681.43 186 636.43 186 636.43 196"/>
      <line class="cls-2" x1="646.43" y1="196" x2="666.43" y2="196"/>
    </g>
    <rect class="cls-1" x="621.43" y="156" width="80" height="80"/>
  </g>
  <g>
    <polyline class="cls-2" points="776.43 206 826.43 206 826.43 201 831.43 201 831.43 191 826.43 191 826.43 186 771.43 186 771.43 196"/>
    <rect class="cls-1" x="761.43" y="156" width="80" height="80"/>
  </g>
  <g>
    <g>
      <polyline class="cls-2" points="916.43 206 966.43 206 966.43 201 971.43 201 971.43 191 966.43 191 966.43 186 911.43 186 911.43 196"/>
      <line class="cls-2" x1="921.43" y1="196" x2="926.43" y2="196"/>
    </g>
    <rect class="cls-1" x="901.43" y="156" width="80" height="80"/>
  </g>
  <g>
    <g>
      <polyline class="cls-2" points="1056.43 206 1106.43 206 1106.43 201 1111.43 201 1111.43 191 1106.43 191 1106.43 186 1051.43 186 1051.43 196"/>
      <line class="cls-2" x1="1061.43" y1="196" x2="1076.43" y2="196"/>
    </g>
    <rect class="cls-1" x="1041.43" y="156" width="80" height="80"/>
  </g>
  <g>
    <g>
      <polyline class="cls-2" points="1196.43 206 1246.43 206 1246.43 201 1251.43 201 1251.43 191 1246.43 191 1246.43 186 1191.43 186 1191.43 196"/>
      <line class="cls-2" x1="1201.43" y1="196" x2="1226.43" y2="196"/>
    </g>
    <rect class="cls-1" x="1181.43" y="156" width="80" height="80"/>
  </g>
  <g>
    <g>
      <polyline class="cls-2" points="1336.43 206 1386.43 206 1386.43 201 1391.43 201 1391.43 191 1386.43 191 1386.43 186 1331.43 186 1331.43 196"/>
      <line class="cls-2" x1="1341.43" y1="196" x2="1376.43" y2="196"/>
    </g>
    <rect class="cls-1" x="1321.43" y="156" width="80" height="80"/>
  </g>
  <text class="cls-15" transform="translate(441.43 74.77)"><tspan x="0" y="0">Status</tspan></text>
  <g>
    <g>
      <g>
        <line class="cls-2" x1="501.43" y1="173" x2="541.43" y2="173"/>
        <line class="cls-2" x1="501.43" y1="219" x2="541.43" y2="219"/>
        <path class="cls-2" d="M507.43,219v-7c0-2.2,1.25-5.87,2.77-8.16l5.23-7.84-5.23-7.84c-1.53-2.29-2.77-5.96-2.77-8.16v-7"/>
        <path class="cls-2" d="M535.82,173v7c0,2.2-1.25,5.87-2.77,8.16l-5.23,7.84,5.23,7.84c.94,1.42,1.78,3.36,2.28,5.16"/>
      </g>
      <rect class="cls-1" x="481.43" y="156" width="80" height="80"/>
    </g>
    <rect class="cls-1" x="481.43" y="156" width="80" height="80"/>
  </g>
  <text class="cls-14" transform="translate(1477.5893 246.3257)"><tspan x="0" y="0">My status</tspan></text>
  <g>
    <g>
      <path class="cls-2" d="M1499.53,190.2c-1.12-2.26-3.21-4.11-5.84-5.18,1.68-1.47,2.74-3.62,2.74-6.02,0-4.42-3.58-8-8-8s-8,3.58-8,8c0,2.4,1.06,4.55,2.74,6.02-3.99,1.62-6.74,5.03-6.74,8.98v7"/>
      <circle class="cls-2" cx="1509.43" cy="204" r="17"/>
    </g>
    <rect class="cls-1" x="1461.43" y="156" width="80" height="80"/>
  </g>
  <g>
    <path class="cls-2" d="M533.43,356v-7c0-3.95-2.75-7.35-6.74-8.98,1.68-1.47,2.74-3.62,2.74-6.02,0-4.42-3.58-8-8-8s-8,3.58-8,8c0,2.4,1.07,4.55,2.74,6.02-3.99,1.62-6.74,5.03-6.74,8.98v7h-5c-2.76,0-5-2.24-5-5v-30c0-2.76,2.24-5,5-5h34c2.76,0,5,2.24,5,5v35"/>
    <rect class="cls-1" x="481.43" y="296" width="80" height="80"/>
  </g>
  <g>
    <g>
      <path class="cls-2" d="M659.53,330.2c-1.12-2.26-3.21-4.11-5.84-5.18,1.68-1.47,2.74-3.62,2.74-6.02,0-4.42-3.58-8-8-8s-8,3.58-8,8c0,2.4,1.06,4.55,2.74,6.02-3.99,1.62-6.74,5.03-6.74,8.98v7"/>
      <circle class="cls-2" cx="669.43" cy="344" r="17"/>
      <polyline class="cls-2" points="663.43 344 667.43 348 675.43 340"/>
    </g>
    <rect class="cls-1" x="621.43" y="296" width="80" height="80"/>
  </g>
  <g>
    <g>
      <path class="cls-2" d="M939.53,330.2c-1.12-2.26-3.21-4.11-5.84-5.18,1.68-1.47,2.74-3.62,2.74-6.02,0-4.42-3.58-8-8-8s-8,3.58-8,8c0,2.4,1.07,4.55,2.74,6.02-3.99,1.62-6.74,5.03-6.74,8.98v7"/>
      <circle class="cls-2" cx="949.43" cy="344" r="17"/>
      <line class="cls-2" x1="943.43" y1="344" x2="955.43" y2="344"/>
    </g>
    <rect class="cls-1" x="901.43" y="296" width="80" height="80"/>
  </g>
  <g>
    <g>
      <path class="cls-2" d="M1219.53,330.2c-1.12-2.26-3.21-4.11-5.84-5.18,1.68-1.47,2.74-3.62,2.74-6.02,0-4.42-3.58-8-8-8s-8,3.58-8,8c0,2.4,1.07,4.55,2.74,6.02-3.99,1.62-6.74,5.03-6.74,8.98v7"/>
      <circle class="cls-2" cx="1229.43" cy="344" r="17"/>
      <g>
        <line class="cls-2" x1="1224.43" y1="349" x2="1234.43" y2="339"/>
        <line class="cls-2" x1="1234.43" y1="349" x2="1224.43" y2="339"/>
      </g>
    </g>
    <rect class="cls-1" x="1181.43" y="296" width="80" height="80"/>
  </g>
  <g>
    <g>
      <path class="cls-2" d="M1499.53,330.2c-1.12-2.26-3.21-4.11-5.84-5.18,1.68-1.47,2.74-3.62,2.74-6.02,0-4.42-3.58-8-8-8s-8,3.58-8,8c0,2.4,1.07,4.55,2.74,6.02-3.99,1.62-6.74,5.03-6.74,8.98v7"/>
      <path class="cls-2" d="M1519.43,357.73c4.24-3.09,7-8.08,7-13.73,0-9.39-7.61-17-17-17s-17,7.61-17,17c0,5.65,2.76,10.63,7,13.73"/>
      <g>
        <circle class="cls-2" cx="1509.43" cy="360" r="1"/>
        <path class="cls-2" d="M1509.43,351v-1c0-1.93,2.56-3.49,3.54-4.46,1.95-1.95,1.95-5.12,0-7.07-1.95-1.95-5.12-1.95-7.07,0-.72.72-1.17,1.61-1.36,2.54"/>
      </g>
    </g>
    <rect class="cls-1" x="1461.43" y="296" width="80" height="80"/>
  </g>
  <g>
    <g>
      <circle class="cls-5" cx="989.43" cy="304" r="5"/>
      <line class="cls-5" x1="987.43" y1="304" x2="991.43" y2="304"/>
    </g>
    <rect class="cls-1" x="981.43" y="296" width="16" height="16"/>
  </g>
  <g>
    <g>
      <circle class="cls-7" cx="1129.43" cy="304" r="5"/>
      <line class="cls-7" x1="1127.43" y1="304" x2="1131.43" y2="304"/>
    </g>
    <rect class="cls-1" x="1121.43" y="296" width="16" height="16"/>
  </g>
  <g>
    <rect class="cls-1" x="1541.43" y="296" width="16" height="16"/>
    <g>
      <path class="cls-5" d="M1552.43,307.98c1.21-.91,2-2.35,2-3.98,0-2.76-2.24-5-5-5s-5,2.24-5,5c0,1.63.79,3.06,2,3.98"/>
      <g>
        <path class="cls-5" d="M1549.73,308.7c0,.17-.13.3-.3.3s-.3-.13-.3-.3.13-.3.3-.3.3.13.3.3Z"/>
        <path class="cls-5" d="M1549.43,306v-.3c0-.58.77-1.05,1.06-1.34.59-.59.59-1.54,0-2.12-.59-.59-1.54-.59-2.12,0-.22.22-.35.48-.41.76"/>
      </g>
    </g>
  </g>
  <path class="cls-2" d="M1228.31,631v-12.1l.58.58c1.95,1.95,5.12,1.95,7.07,0,1.95-1.95,1.95-5.12,0-7.07l-7.07-7.07c-1.54-1.54-3.55-2.32-5.57-2.34,1.3-1.27,2.11-3.04,2.11-5,0-3.87-3.13-7-7-7s-7,3.13-7,7c0,1.96.81,3.73,2.11,5-2.02.02-4.03.8-5.57,2.34l-7.07,7.07c-1.95,1.95-1.95,5.12,0,7.07,1.95,1.95,5.12,1.95,7.07,0l3.24-3.24-7.55,18.22c-1.06,2.55.15,5.48,2.71,6.53,2.55,1.06,5.48-.15,6.53-2.71l5.41-13.07v10.78c0,2.76,2.24,5,5,5h20.12"/>
  <g>
    <polyline class="cls-10" points="1182 1020.89 1172.37 1013.69 1182.16 1007.06"/>
    <line class="cls-6" x1="1199.55" y1="1013.69" x2="1172.37" y2="1013.69"/>
  </g>
  <path class="cls-10" d="M1213.55,1039c2.76,0,5-2.24,5-5v-10.78l5.41,13.07c1.06,2.55,3.98,3.76,6.53,2.71,2.55-1.06,3.76-3.98,2.71-6.53l-7.55-18.22,3.24,3.24c1.95,1.95,5.12,1.95,7.07,0,1.95-1.95,1.95-5.12,0-7.07l-7.07-7.07c-1.54-1.54-3.55-2.32-5.57-2.34,1.3-1.27,2.11-3.04,2.11-5,0-3.87-3.13-7-7-7s-7,3.13-7,7c0,1.96.81,3.73,2.11,5-2.02.02-4.03.8-5.57,2.34l-7.07,7.07c-1.95,1.95-1.95,5.12,0,7.07,1.95,1.95,5.12,1.95,7.07,0l.58-.58v12.1"/>
  <g class="cls-18">
    <rect class="cls-1" x="1461.43" y="576" width="80" height="80"/>
    <g>
      <g>
        <path class="cls-2" d="M1511.43,638.5h3c2.76,0,5-2.24,5-5v-18c0-1.38-.56-2.63-1.46-3.54"/>
        <path class="cls-2" d="M1511.43,604.27l-10-11.77-16.54,19.46c-.9.9-1.46,2.15-1.46,3.54v18c0,2.76,2.24,5,5,5h3"/>
      </g>
      <g>
        <path class="cls-2" d="M1495.43,616.5c0-1.54.59-3.07,1.77-4.24,2.36-2.34,6.18-2.34,8.53,0,2.35,2.34,2.19,6.65,0,8.48-3.28,2.76-4.3,4.76-4.3,5.76v2"/>
        <circle class="cls-2" cx="1501.43" cy="638.5" r="1"/>
      </g>
    </g>
  </g>
  <g>
    <rect class="cls-1" x="481.43" y="716" width="80" height="80"/>
    <g>
      <g>
        <path class="cls-2" d="M515.43,751.5c0-1.54.59-3.07,1.76-4.24,2.35-2.34,6.16-2.34,8.51,0,2.35,2.34,2.25,6.73,0,8.48s-4.28,2.76-4.28,5.27v2.48"/>
        <circle class="cls-2" cx="521.43" cy="773.5" r="1"/>
      </g>
      <g>
        <path class="cls-2" d="M499.43,761.5v7c0,2.76,2.24,5,5,5h7"/>
        <path class="cls-2" d="M543.43,761.5v7c0,2.76-2.24,5-5,5h-7"/>
        <path class="cls-2" d="M499.43,749.5v-7c0-2.76,2.24-5,5-5h7"/>
        <path class="cls-2" d="M543.43,749.5v-7c0-2.76-2.24-5-5-5h-7"/>
      </g>
    </g>
  </g>
  <text class="cls-14" transform="translate(643.52 246.33)"><tspan x="0" y="0">Battery</tspan><tspan x="-4.25" y="14.4">(generic)</tspan></text>
  <g>
    <path d="M760.56,238.35c.46-.1,1.18-.17,1.91-.17,1.04,0,1.71.18,2.22.59.42.31.67.79.67,1.43,0,.78-.52,1.46-1.37,1.77v.02c.77.19,1.67.83,1.67,2.03,0,.7-.28,1.22-.68,1.62-.56.52-1.48.76-2.79.76-.72,0-1.27-.05-1.62-.1v-7.95ZM761.6,241.66h.95c1.1,0,1.75-.58,1.75-1.35,0-.95-.72-1.32-1.77-1.32-.48,0-.76.04-.92.07v2.6ZM761.6,245.53c.2.04.5.05.88.05,1.08,0,2.07-.4,2.07-1.57,0-1.1-.95-1.56-2.09-1.56h-.86v3.08Z"/>
    <path d="M770.24,246.33l-.08-.73h-.04c-.32.46-.95.86-1.77.86-1.18,0-1.77-.83-1.77-1.67,0-1.4,1.25-2.17,3.49-2.16v-.12c0-.48-.13-1.34-1.32-1.34-.54,0-1.1.17-1.51.43l-.24-.7c.48-.31,1.18-.52,1.91-.52,1.77,0,2.21,1.21,2.21,2.37v2.17c0,.5.02,1,.1,1.39h-.96ZM770.09,243.36c-1.15-.02-2.46.18-2.46,1.31,0,.68.46,1.01,1,1.01.76,0,1.24-.48,1.4-.97.04-.11.06-.23.06-.34v-1.01Z"/>
    <path d="M774.08,238.85v1.67h1.51v.8h-1.51v3.13c0,.72.2,1.13.79,1.13.28,0,.48-.04.61-.07l.05.79c-.2.08-.53.14-.94.14-.49,0-.89-.16-1.14-.44-.3-.31-.41-.83-.41-1.51v-3.17h-.9v-.8h.9v-1.39l1.03-.28Z"/>
    <path d="M778.06,238.85v1.67h1.51v.8h-1.51v3.13c0,.72.2,1.13.79,1.13.28,0,.48-.04.61-.07l.05.79c-.2.08-.53.14-.94.14-.49,0-.89-.16-1.14-.44-.3-.31-.41-.83-.41-1.51v-3.17h-.9v-.8h.9v-1.39l1.03-.28Z"/>
    <path d="M781.34,243.62c.02,1.43.94,2.01,1.99,2.01.76,0,1.21-.13,1.61-.3l.18.76c-.37.17-1.01.36-1.93.36-1.79,0-2.85-1.18-2.85-2.93s1.03-3.13,2.72-3.13c1.9,0,2.4,1.67,2.4,2.73,0,.22-.02.38-.04.49h-4.08ZM784.44,242.86c.01-.67-.28-1.71-1.46-1.71-1.07,0-1.54.98-1.62,1.71h3.08Z"/>
    <path d="M786.77,242.33c0-.68-.01-1.27-.05-1.81h.92l.04,1.14h.05c.26-.78.9-1.27,1.61-1.27.12,0,.2.01.3.04v1c-.11-.02-.22-.04-.36-.04-.74,0-1.27.56-1.42,1.36-.02.14-.05.31-.05.49v3.09h-1.04v-3.99Z"/>
    <path d="M791.08,240.52l1.27,3.43c.13.38.28.84.37,1.19h.02c.11-.35.23-.79.37-1.21l1.15-3.41h1.12l-1.58,4.14c-.76,1.99-1.27,3.01-1.99,3.63-.52.46-1.03.64-1.29.68l-.26-.89c.26-.08.61-.25.92-.52.29-.23.65-.64.89-1.18.05-.11.08-.19.08-.25s-.02-.14-.07-.28l-2.15-5.35h1.15Z"/>
    <path d="M798.74,245.25c.31.2.86.42,1.39.42.77,0,1.13-.38,1.13-.86,0-.5-.3-.78-1.08-1.07-1.04-.37-1.54-.95-1.54-1.64,0-.94.76-1.7,2-1.7.59,0,1.1.17,1.43.36l-.26.77c-.23-.14-.65-.34-1.19-.34-.62,0-.97.36-.97.79,0,.48.35.7,1.1.98,1.01.38,1.52.89,1.52,1.75,0,1.02-.79,1.74-2.17,1.74-.64,0-1.22-.16-1.63-.4l.26-.8Z"/>
    <path d="M804.91,238.85v1.67h1.51v.8h-1.51v3.13c0,.72.2,1.13.79,1.13.28,0,.48-.04.61-.07l.05.79c-.2.08-.53.14-.94.14-.49,0-.89-.16-1.14-.44-.3-.31-.41-.83-.41-1.51v-3.17h-.9v-.8h.9v-1.39l1.03-.28Z"/>
    <path d="M807.61,242.33c0-.68-.01-1.27-.05-1.81h.92l.04,1.14h.05c.26-.78.9-1.27,1.61-1.27.12,0,.2.01.3.04v1c-.11-.02-.22-.04-.36-.04-.74,0-1.27.56-1.42,1.36-.02.14-.05.31-.05.49v3.09h-1.04v-3.99Z"/>
    <path d="M812.12,243.62c.02,1.43.94,2.01,1.99,2.01.76,0,1.21-.13,1.61-.3l.18.76c-.37.17-1.01.36-1.93.36-1.79,0-2.85-1.18-2.85-2.93s1.03-3.13,2.72-3.13c1.9,0,2.4,1.67,2.4,2.73,0,.22-.02.38-.04.49h-4.08ZM815.22,242.86c.01-.67-.28-1.71-1.46-1.71-1.07,0-1.54.98-1.62,1.71h3.08Z"/>
    <path d="M817.55,242.09c0-.6-.01-1.09-.05-1.57h.94l.06.96h.02c.29-.55.96-1.09,1.92-1.09.8,0,2.05.48,2.05,2.47v3.47h-1.06v-3.35c0-.94-.35-1.71-1.34-1.71-.7,0-1.24.49-1.42,1.08-.05.13-.07.31-.07.49v3.49h-1.06v-4.23Z"/>
    <path d="M829.21,240.52c-.02.42-.05.89-.05,1.6v3.37c0,1.33-.26,2.15-.83,2.65-.56.53-1.38.7-2.11.7s-1.46-.17-1.93-.48l.26-.8c.38.24.98.46,1.7.46,1.08,0,1.87-.56,1.87-2.03v-.65h-.02c-.32.54-.95.97-1.85.97-1.44,0-2.47-1.22-2.47-2.83,0-1.97,1.28-3.08,2.61-3.08,1.01,0,1.56.53,1.81,1.01h.02l.05-.88h.92ZM828.12,242.81c0-.18-.01-.34-.06-.48-.19-.61-.71-1.12-1.48-1.12-1.01,0-1.73.85-1.73,2.19,0,1.14.58,2.09,1.71,2.09.65,0,1.24-.41,1.46-1.08.06-.18.08-.38.08-.56v-1.04Z"/>
    <path d="M832.19,238.85v1.67h1.51v.8h-1.51v3.13c0,.72.2,1.13.79,1.13.28,0,.48-.04.61-.07l.05.79c-.2.08-.53.14-.94.14-.49,0-.89-.16-1.14-.44-.3-.31-.41-.83-.41-1.51v-3.17h-.9v-.8h.9v-1.39l1.03-.28Z"/>
    <path d="M834.89,237.81h1.06v3.62h.02c.17-.3.43-.56.76-.74.31-.18.68-.3,1.08-.3.78,0,2.03.48,2.03,2.48v3.45h-1.06v-3.33c0-.94-.35-1.73-1.34-1.73-.68,0-1.22.48-1.42,1.06-.06.14-.07.3-.07.5v3.5h-1.06v-8.52Z"/>
    <path d="M784.96,252.4c-.88,1.18-1.51,2.73-1.51,4.91s.66,3.67,1.51,4.87h-.83c-.76-1-1.57-2.53-1.57-4.87.01-2.36.82-3.9,1.57-4.91h.83Z"/>
    <path d="M786.66,258.02c.02,1.43.94,2.02,1.99,2.02.76,0,1.21-.13,1.61-.3l.18.76c-.37.17-1.01.36-1.93.36-1.79,0-2.85-1.18-2.85-2.93s1.03-3.13,2.72-3.13c1.9,0,2.4,1.67,2.4,2.73,0,.22-.02.38-.04.49h-4.08ZM789.75,257.26c.01-.67-.28-1.72-1.46-1.72-1.07,0-1.54.98-1.62,1.72h3.08Z"/>
    <path d="M792.08,256.49c0-.6-.01-1.09-.05-1.57h.92l.05.94h.04c.32-.55.86-1.07,1.82-1.07.79,0,1.39.48,1.64,1.16h.02c.18-.32.41-.58.65-.76.35-.26.73-.41,1.28-.41.77,0,1.91.5,1.91,2.52v3.42h-1.03v-3.29c0-1.12-.41-1.79-1.26-1.79-.6,0-1.07.44-1.25.96-.05.14-.08.34-.08.53v3.59h-1.03v-3.48c0-.92-.41-1.6-1.21-1.6-.66,0-1.14.53-1.31,1.06-.06.16-.08.34-.08.52v3.5h-1.03v-4.23Z"/>
    <path d="M802.09,256.82c0-.74-.02-1.34-.05-1.9h.95l.05,1h.02c.43-.71,1.12-1.13,2.06-1.13,1.4,0,2.46,1.19,2.46,2.95,0,2.09-1.27,3.12-2.64,3.12-.77,0-1.44-.34-1.79-.91h-.02v3.15h-1.04v-6.28ZM803.14,258.36c0,.16.02.3.05.43.19.73.83,1.24,1.58,1.24,1.12,0,1.76-.91,1.76-2.24,0-1.16-.61-2.16-1.73-2.16-.72,0-1.39.52-1.6,1.31-.04.13-.07.29-.07.43v1Z"/>
    <path d="M810.19,253.25v1.67h1.51v.8h-1.51v3.13c0,.72.2,1.13.79,1.13.28,0,.48-.04.61-.07l.05.79c-.2.08-.53.14-.94.14-.49,0-.89-.16-1.14-.44-.3-.31-.41-.83-.41-1.51v-3.17h-.9v-.8h.9v-1.39l1.03-.28Z"/>
    <path d="M813.28,254.92l1.27,3.43c.13.38.28.84.37,1.19h.02c.11-.35.23-.79.37-1.21l1.15-3.41h1.12l-1.58,4.14c-.76,1.99-1.27,3.01-1.99,3.63-.52.46-1.03.64-1.3.68l-.26-.89c.26-.08.61-.25.92-.52.29-.23.65-.64.89-1.18.05-.11.08-.19.08-.25s-.02-.14-.07-.28l-2.15-5.35h1.15Z"/>
    <path d="M817.91,262.18c.85-1.19,1.51-2.75,1.51-4.91s-.65-3.68-1.51-4.87h.82c.77.98,1.57,2.52,1.57,4.88s-.8,3.87-1.57,4.89h-.82Z"/>
  </g>
  <g>
    <path d="M900.56,238.35c.46-.1,1.18-.17,1.91-.17,1.04,0,1.71.18,2.22.59.42.31.67.79.67,1.43,0,.78-.52,1.46-1.37,1.77v.02c.77.19,1.67.83,1.67,2.03,0,.7-.28,1.22-.68,1.62-.56.52-1.48.76-2.79.76-.72,0-1.27-.05-1.62-.1v-7.95ZM901.6,241.66h.95c1.1,0,1.75-.58,1.75-1.35,0-.95-.72-1.32-1.77-1.32-.48,0-.76.04-.92.07v2.6ZM901.6,245.53c.2.04.5.05.88.05,1.08,0,2.07-.4,2.07-1.57,0-1.1-.95-1.56-2.09-1.56h-.86v3.08Z"/>
    <path d="M910.24,246.33l-.08-.73h-.04c-.32.46-.95.86-1.77.86-1.18,0-1.77-.83-1.77-1.67,0-1.4,1.25-2.17,3.49-2.16v-.12c0-.48-.13-1.34-1.32-1.34-.54,0-1.1.17-1.51.43l-.24-.7c.48-.31,1.18-.52,1.91-.52,1.77,0,2.21,1.21,2.21,2.37v2.17c0,.5.02,1,.1,1.39h-.96ZM910.09,243.36c-1.15-.02-2.46.18-2.46,1.31,0,.68.46,1.01,1,1.01.76,0,1.24-.48,1.4-.97.04-.11.06-.23.06-.34v-1.01Z"/>
    <path d="M914.08,238.85v1.67h1.51v.8h-1.51v3.13c0,.72.2,1.13.79,1.13.28,0,.48-.04.61-.07l.05.79c-.2.08-.53.14-.94.14-.49,0-.89-.16-1.14-.44-.3-.31-.41-.83-.41-1.51v-3.17h-.9v-.8h.9v-1.39l1.03-.28Z"/>
    <path d="M918.06,238.85v1.67h1.51v.8h-1.51v3.13c0,.72.2,1.13.79,1.13.28,0,.48-.04.61-.07l.05.79c-.2.08-.53.14-.94.14-.49,0-.89-.16-1.14-.44-.3-.31-.41-.83-.41-1.51v-3.17h-.9v-.8h.9v-1.39l1.03-.28Z"/>
    <path d="M921.34,243.62c.02,1.43.94,2.01,1.99,2.01.76,0,1.21-.13,1.61-.3l.18.76c-.37.17-1.01.36-1.93.36-1.79,0-2.85-1.18-2.85-2.93s1.03-3.13,2.72-3.13c1.9,0,2.4,1.67,2.4,2.73,0,.22-.02.38-.04.49h-4.08ZM924.44,242.86c.01-.67-.28-1.71-1.46-1.71-1.07,0-1.54.98-1.62,1.71h3.08Z"/>
    <path d="M926.77,242.33c0-.68-.01-1.27-.05-1.81h.92l.04,1.14h.05c.26-.78.9-1.27,1.61-1.27.12,0,.2.01.3.04v1c-.11-.02-.22-.04-.36-.04-.74,0-1.27.56-1.42,1.36-.02.14-.05.31-.05.49v3.09h-1.04v-3.99Z"/>
    <path d="M931.08,240.52l1.27,3.43c.13.38.28.84.37,1.19h.02c.11-.35.23-.79.37-1.21l1.15-3.41h1.12l-1.58,4.14c-.76,1.99-1.27,3.01-1.99,3.63-.52.46-1.03.64-1.29.68l-.26-.89c.26-.08.61-.25.92-.52.29-.23.65-.64.89-1.18.05-.11.08-.19.08-.25s-.02-.14-.07-.28l-2.15-5.35h1.15Z"/>
    <path d="M938.74,245.25c.31.2.86.42,1.39.42.77,0,1.13-.38,1.13-.86,0-.5-.3-.78-1.08-1.07-1.04-.37-1.54-.95-1.54-1.64,0-.94.76-1.7,2-1.7.59,0,1.1.17,1.43.36l-.26.77c-.23-.14-.65-.34-1.19-.34-.62,0-.97.36-.97.79,0,.48.35.7,1.1.98,1.01.38,1.52.89,1.52,1.75,0,1.02-.79,1.74-2.17,1.74-.64,0-1.22-.16-1.63-.4l.26-.8Z"/>
    <path d="M944.91,238.85v1.67h1.51v.8h-1.51v3.13c0,.72.2,1.13.79,1.13.28,0,.48-.04.61-.07l.05.79c-.2.08-.53.14-.94.14-.49,0-.89-.16-1.14-.44-.3-.31-.41-.83-.41-1.51v-3.17h-.9v-.8h.9v-1.39l1.03-.28Z"/>
    <path d="M947.61,242.33c0-.68-.01-1.27-.05-1.81h.92l.04,1.14h.05c.26-.78.9-1.27,1.61-1.27.12,0,.2.01.3.04v1c-.11-.02-.22-.04-.36-.04-.74,0-1.27.56-1.42,1.36-.02.14-.05.31-.05.49v3.09h-1.04v-3.99Z"/>
    <path d="M952.12,243.62c.02,1.43.94,2.01,1.99,2.01.76,0,1.21-.13,1.61-.3l.18.76c-.37.17-1.01.36-1.93.36-1.79,0-2.85-1.18-2.85-2.93s1.03-3.13,2.72-3.13c1.9,0,2.4,1.67,2.4,2.73,0,.22-.02.38-.04.49h-4.08ZM955.22,242.86c.01-.67-.28-1.71-1.46-1.71-1.07,0-1.54.98-1.62,1.71h3.08Z"/>
    <path d="M957.55,242.09c0-.6-.01-1.09-.05-1.57h.94l.06.96h.02c.29-.55.96-1.09,1.92-1.09.8,0,2.05.48,2.05,2.47v3.47h-1.06v-3.35c0-.94-.35-1.71-1.34-1.71-.7,0-1.24.49-1.42,1.08-.05.13-.07.31-.07.49v3.49h-1.06v-4.23Z"/>
    <path d="M969.21,240.52c-.02.42-.05.89-.05,1.6v3.37c0,1.33-.26,2.15-.83,2.65-.56.53-1.38.7-2.11.7s-1.46-.17-1.93-.48l.26-.8c.38.24.98.46,1.7.46,1.08,0,1.87-.56,1.87-2.03v-.65h-.02c-.32.54-.95.97-1.85.97-1.44,0-2.47-1.22-2.47-2.83,0-1.97,1.28-3.08,2.61-3.08,1.01,0,1.56.53,1.81,1.01h.02l.05-.88h.92ZM968.12,242.81c0-.18-.01-.34-.06-.48-.19-.61-.71-1.12-1.48-1.12-1.01,0-1.73.85-1.73,2.19,0,1.14.58,2.09,1.71,2.09.65,0,1.24-.41,1.46-1.08.06-.18.08-.38.08-.56v-1.04Z"/>
    <path d="M972.19,238.85v1.67h1.51v.8h-1.51v3.13c0,.72.2,1.13.79,1.13.28,0,.48-.04.61-.07l.05.79c-.2.08-.53.14-.94.14-.49,0-.89-.16-1.14-.44-.3-.31-.41-.83-.41-1.51v-3.17h-.9v-.8h.9v-1.39l1.03-.28Z"/>
    <path d="M974.89,237.81h1.06v3.62h.02c.17-.3.43-.56.76-.74.31-.18.68-.3,1.08-.3.78,0,2.03.48,2.03,2.48v3.45h-1.06v-3.33c0-.94-.35-1.73-1.34-1.73-.68,0-1.22.48-1.42,1.06-.06.14-.07.3-.07.5v3.5h-1.06v-8.52Z"/>
    <path d="M928.06,252.4c-.88,1.18-1.51,2.73-1.51,4.91s.66,3.67,1.51,4.87h-.83c-.76-1-1.57-2.53-1.57-4.87.01-2.36.82-3.9,1.57-4.91h.83Z"/>
    <path d="M929.6,254.92l.77,2.95c.17.65.32,1.25.43,1.85h.04c.13-.59.32-1.21.52-1.83l.95-2.96h.89l.9,2.9c.22.7.38,1.31.52,1.9h.04c.1-.59.25-1.2.44-1.88l.83-2.91h1.04l-1.87,5.8h-.96l-.89-2.77c-.2-.65-.37-1.22-.52-1.91h-.02c-.14.7-.32,1.3-.53,1.92l-.94,2.76h-.96l-1.75-5.8h1.08Z"/>
    <path d="M938.6,258.02c.02,1.43.94,2.02,1.99,2.02.76,0,1.21-.13,1.61-.3l.18.76c-.37.17-1.01.36-1.93.36-1.79,0-2.85-1.18-2.85-2.93s1.03-3.13,2.72-3.13c1.9,0,2.4,1.67,2.4,2.73,0,.22-.02.38-.04.49h-4.08ZM941.69,257.26c.01-.67-.28-1.72-1.46-1.72-1.07,0-1.54.98-1.62,1.72h3.08Z"/>
    <path d="M947.24,260.73l-.08-.73h-.04c-.32.46-.95.86-1.77.86-1.18,0-1.77-.83-1.77-1.67,0-1.4,1.25-2.17,3.49-2.16v-.12c0-.48-.13-1.34-1.32-1.34-.54,0-1.1.17-1.51.43l-.24-.7c.48-.31,1.18-.52,1.91-.52,1.77,0,2.21,1.21,2.21,2.37v2.17c0,.5.02,1,.1,1.39h-.96ZM947.08,257.76c-1.15-.02-2.46.18-2.46,1.31,0,.68.46,1.01,1,1.01.76,0,1.24-.48,1.4-.97.04-.11.06-.23.06-.34v-1.01Z"/>
    <path d="M950.85,257.58h.02c.14-.2.35-.46.52-.66l1.7-2h1.27l-2.24,2.39,2.55,3.42h-1.28l-2-2.78-.54.6v2.18h-1.04v-8.52h1.04v5.37Z"/>
    <path d="M954.8,262.18c.85-1.19,1.51-2.75,1.51-4.91s-.65-3.68-1.51-4.87h.82c.77.98,1.57,2.52,1.57,4.88s-.8,3.87-1.57,4.89h-.82Z"/>
  </g>
  <g>
    <path d="M1040.56,238.35c.46-.1,1.18-.17,1.91-.17,1.04,0,1.71.18,2.22.59.42.31.67.79.67,1.43,0,.78-.52,1.46-1.37,1.77v.02c.77.19,1.67.83,1.67,2.03,0,.7-.28,1.22-.68,1.62-.56.52-1.48.76-2.79.76-.72,0-1.27-.05-1.62-.1v-7.95ZM1041.6,241.66h.95c1.1,0,1.75-.58,1.75-1.35,0-.95-.72-1.32-1.78-1.32-.48,0-.75.04-.92.07v2.6ZM1041.6,245.53c.2.04.5.05.88.05,1.08,0,2.08-.4,2.08-1.57,0-1.1-.95-1.56-2.09-1.56h-.86v3.08Z"/>
    <path d="M1050.24,246.33l-.08-.73h-.04c-.32.46-.95.86-1.78.86-1.17,0-1.77-.83-1.77-1.67,0-1.4,1.25-2.17,3.49-2.16v-.12c0-.48-.13-1.34-1.32-1.34-.54,0-1.1.17-1.51.43l-.24-.7c.48-.31,1.17-.52,1.91-.52,1.78,0,2.21,1.21,2.21,2.37v2.17c0,.5.02,1,.1,1.39h-.96ZM1050.09,243.36c-1.15-.02-2.46.18-2.46,1.31,0,.68.46,1.01,1,1.01.76,0,1.24-.48,1.4-.97.04-.11.06-.23.06-.34v-1.01Z"/>
    <path d="M1054.08,238.85v1.67h1.51v.8h-1.51v3.13c0,.72.2,1.13.79,1.13.28,0,.48-.04.61-.07l.05.79c-.2.08-.53.14-.94.14-.49,0-.89-.16-1.14-.44-.3-.31-.41-.83-.41-1.51v-3.17h-.9v-.8h.9v-1.39l1.03-.28Z"/>
    <path d="M1058.06,238.85v1.67h1.51v.8h-1.51v3.13c0,.72.2,1.13.79,1.13.28,0,.48-.04.61-.07l.05.79c-.2.08-.53.14-.94.14-.49,0-.89-.16-1.14-.44-.3-.31-.41-.83-.41-1.51v-3.17h-.9v-.8h.9v-1.39l1.03-.28Z"/>
    <path d="M1061.34,243.62c.02,1.43.94,2.01,1.99,2.01.76,0,1.21-.13,1.61-.3l.18.76c-.37.17-1.01.36-1.93.36-1.79,0-2.85-1.18-2.85-2.93s1.03-3.13,2.72-3.13c1.89,0,2.4,1.67,2.4,2.73,0,.22-.02.38-.04.49h-4.08ZM1064.44,242.86c.01-.67-.28-1.71-1.46-1.71-1.07,0-1.54.98-1.62,1.71h3.08Z"/>
    <path d="M1066.77,242.33c0-.68-.01-1.27-.05-1.81h.92l.04,1.14h.05c.26-.78.9-1.27,1.61-1.27.12,0,.2.01.3.04v1c-.11-.02-.22-.04-.36-.04-.74,0-1.27.56-1.42,1.36-.02.14-.05.31-.05.49v3.09h-1.04v-3.99Z"/>
    <path d="M1071.08,240.52l1.27,3.43c.13.38.28.84.37,1.19h.02c.11-.35.23-.79.37-1.21l1.15-3.41h1.12l-1.58,4.14c-.76,1.99-1.27,3.01-1.99,3.63-.52.46-1.03.64-1.29.68l-.26-.89c.26-.08.61-.25.92-.52.29-.23.65-.64.89-1.18.05-.11.08-.19.08-.25s-.02-.14-.07-.28l-2.15-5.35h1.15Z"/>
    <path d="M1078.74,245.25c.31.2.86.42,1.39.42.77,0,1.13-.38,1.13-.86,0-.5-.3-.78-1.08-1.07-1.04-.37-1.54-.95-1.54-1.64,0-.94.76-1.7,2-1.7.59,0,1.1.17,1.43.36l-.26.77c-.23-.14-.65-.34-1.19-.34-.62,0-.97.36-.97.79,0,.48.35.7,1.1.98,1.01.38,1.52.89,1.52,1.75,0,1.02-.79,1.74-2.17,1.74-.64,0-1.22-.16-1.63-.4l.26-.8Z"/>
    <path d="M1084.91,238.85v1.67h1.51v.8h-1.51v3.13c0,.72.2,1.13.79,1.13.28,0,.48-.04.61-.07l.05.79c-.2.08-.53.14-.94.14-.49,0-.89-.16-1.14-.44-.3-.31-.41-.83-.41-1.51v-3.17h-.9v-.8h.9v-1.39l1.03-.28Z"/>
    <path d="M1087.61,242.33c0-.68-.01-1.27-.05-1.81h.92l.04,1.14h.05c.26-.78.9-1.27,1.61-1.27.12,0,.2.01.3.04v1c-.11-.02-.22-.04-.36-.04-.74,0-1.27.56-1.42,1.36-.02.14-.05.31-.05.49v3.09h-1.04v-3.99Z"/>
    <path d="M1092.12,243.62c.02,1.43.94,2.01,1.99,2.01.76,0,1.21-.13,1.61-.3l.18.76c-.37.17-1.01.36-1.93.36-1.79,0-2.85-1.18-2.85-2.93s1.03-3.13,2.72-3.13c1.89,0,2.4,1.67,2.4,2.73,0,.22-.02.38-.04.49h-4.08ZM1095.22,242.86c.01-.67-.28-1.71-1.46-1.71-1.07,0-1.54.98-1.62,1.71h3.08Z"/>
    <path d="M1097.55,242.09c0-.6-.01-1.09-.05-1.57h.94l.06.96h.02c.29-.55.96-1.09,1.92-1.09.8,0,2.05.48,2.05,2.47v3.47h-1.06v-3.35c0-.94-.35-1.71-1.34-1.71-.7,0-1.24.49-1.42,1.08-.05.13-.07.31-.07.49v3.49h-1.06v-4.23Z"/>
    <path d="M1109.21,240.52c-.02.42-.05.89-.05,1.6v3.37c0,1.33-.26,2.15-.83,2.65-.56.53-1.38.7-2.11.7s-1.46-.17-1.93-.48l.26-.8c.38.24.98.46,1.7.46,1.08,0,1.87-.56,1.87-2.03v-.65h-.02c-.32.54-.95.97-1.85.97-1.44,0-2.47-1.22-2.47-2.83,0-1.97,1.28-3.08,2.61-3.08,1.01,0,1.56.53,1.81,1.01h.02l.05-.88h.92ZM1108.12,242.81c0-.18-.01-.34-.06-.48-.19-.61-.71-1.12-1.47-1.12-1.01,0-1.73.85-1.73,2.19,0,1.14.58,2.09,1.71,2.09.65,0,1.24-.41,1.46-1.08.06-.18.08-.38.08-.56v-1.04Z"/>
    <path d="M1112.19,238.85v1.67h1.51v.8h-1.51v3.13c0,.72.2,1.13.79,1.13.28,0,.48-.04.61-.07l.05.79c-.2.08-.53.14-.94.14-.49,0-.89-.16-1.14-.44-.3-.31-.41-.83-.41-1.51v-3.17h-.9v-.8h.9v-1.39l1.03-.28Z"/>
    <path d="M1114.89,237.81h1.06v3.62h.02c.17-.3.43-.56.76-.74.31-.18.68-.3,1.08-.3.78,0,2.03.48,2.03,2.48v3.45h-1.06v-3.33c0-.94-.35-1.73-1.34-1.73-.68,0-1.22.48-1.42,1.06-.06.14-.07.3-.07.5v3.5h-1.06v-8.52Z"/>
    <path d="M1048.82,252.4c-.88,1.18-1.51,2.73-1.51,4.91s.66,3.67,1.51,4.87h-.83c-.76-1-1.57-2.53-1.57-4.87.01-2.36.82-3.9,1.57-4.91h.83Z"/>
    <path d="M1051.11,253.29c.01.36-.25.65-.67.65-.37,0-.64-.29-.64-.65s.28-.66.66-.66.65.29.65.66ZM1049.94,260.73v-5.8h1.06v5.8h-1.06Z"/>
    <path d="M1052.75,256.49c0-.6-.01-1.09-.05-1.57h.94l.06.96h.02c.29-.55.96-1.09,1.92-1.09.8,0,2.05.48,2.05,2.47v3.47h-1.05v-3.35c0-.94-.35-1.71-1.34-1.71-.7,0-1.24.49-1.42,1.08-.05.13-.07.31-.07.49v3.49h-1.06v-4.23Z"/>
    <path d="M1060.68,253.25v1.67h1.51v.8h-1.51v3.13c0,.72.2,1.13.79,1.13.28,0,.48-.04.61-.07l.05.79c-.2.08-.53.14-.94.14-.49,0-.89-.16-1.14-.44-.3-.31-.41-.83-.41-1.51v-3.17h-.9v-.8h.9v-1.39l1.03-.28Z"/>
    <path d="M1063.97,258.02c.02,1.43.94,2.02,1.99,2.02.76,0,1.21-.13,1.61-.3l.18.76c-.37.17-1.01.36-1.93.36-1.79,0-2.85-1.18-2.85-2.93s1.03-3.13,2.72-3.13c1.9,0,2.4,1.67,2.4,2.73,0,.22-.02.38-.04.49h-4.08ZM1067.06,257.26c.01-.67-.28-1.72-1.46-1.72-1.07,0-1.54.98-1.62,1.72h3.08Z"/>
    <path d="M1069.39,256.73c0-.68-.01-1.27-.05-1.81h.92l.04,1.14h.05c.26-.78.9-1.27,1.61-1.27.12,0,.2.01.3.04v1c-.11-.02-.22-.04-.36-.04-.74,0-1.27.56-1.42,1.36-.02.14-.05.31-.05.49v3.09h-1.04v-3.99Z"/>
    <path d="M1073.31,256.49c0-.6-.01-1.09-.05-1.57h.92l.05.94h.04c.32-.55.86-1.07,1.82-1.07.79,0,1.39.48,1.64,1.16h.02c.18-.32.41-.58.65-.76.35-.26.73-.41,1.28-.41.77,0,1.91.5,1.91,2.52v3.42h-1.03v-3.29c0-1.12-.41-1.79-1.26-1.79-.6,0-1.07.44-1.25.96-.05.14-.08.34-.08.53v3.59h-1.03v-3.48c0-.92-.41-1.6-1.21-1.6-.66,0-1.14.53-1.31,1.06-.06.16-.08.34-.08.52v3.5h-1.03v-4.23Z"/>
    <path d="M1083.91,258.02c.02,1.43.94,2.02,1.99,2.02.76,0,1.21-.13,1.61-.3l.18.76c-.37.17-1.01.36-1.93.36-1.79,0-2.85-1.18-2.85-2.93s1.03-3.13,2.72-3.13c1.89,0,2.4,1.67,2.4,2.73,0,.22-.02.38-.04.49h-4.08ZM1087,257.26c.01-.67-.28-1.72-1.46-1.72-1.07,0-1.54.98-1.62,1.72h3.08Z"/>
    <path d="M1094.35,252.21v7.02c0,.52.01,1.1.05,1.5h-.95l-.05-1.01h-.02c-.32.65-1.03,1.14-1.98,1.14-1.4,0-2.48-1.19-2.48-2.95-.01-1.93,1.19-3.12,2.6-3.12.89,0,1.49.42,1.75.89h.02v-3.47h1.06ZM1093.29,257.28c0-.13-.01-.31-.05-.44-.16-.67-.73-1.22-1.52-1.22-1.09,0-1.74.96-1.74,2.24,0,1.18.58,2.15,1.71,2.15.71,0,1.36-.47,1.55-1.26.04-.14.05-.29.05-.46v-1.01Z"/>
    <path d="M1097.28,253.29c.01.36-.25.65-.67.65-.37,0-.64-.29-.64-.65s.28-.66.66-.66.65.29.65.66ZM1096.1,260.73v-5.8h1.06v5.8h-1.06Z"/>
    <path d="M1102.12,260.73l-.08-.73h-.04c-.32.46-.95.86-1.77.86-1.18,0-1.78-.83-1.78-1.67,0-1.4,1.25-2.17,3.49-2.16v-.12c0-.48-.13-1.34-1.32-1.34-.54,0-1.1.17-1.51.43l-.24-.7c.48-.31,1.18-.52,1.91-.52,1.77,0,2.21,1.21,2.21,2.37v2.17c0,.5.02,1,.1,1.39h-.96ZM1101.97,257.76c-1.15-.02-2.46.18-2.46,1.31,0,.68.46,1.01,1,1.01.76,0,1.24-.48,1.4-.97.04-.11.06-.23.06-.34v-1.01Z"/>
    <path d="M1105.97,253.25v1.67h1.51v.8h-1.51v3.13c0,.72.2,1.13.79,1.13.28,0,.48-.04.61-.07l.05.79c-.2.08-.53.14-.94.14-.49,0-.89-.16-1.14-.44-.3-.31-.41-.83-.41-1.51v-3.17h-.9v-.8h.9v-1.39l1.03-.28Z"/>
    <path d="M1109.25,258.02c.02,1.43.93,2.02,1.99,2.02.76,0,1.21-.13,1.61-.3l.18.76c-.37.17-1.01.36-1.93.36-1.79,0-2.85-1.18-2.85-2.93s1.03-3.13,2.72-3.13c1.89,0,2.4,1.67,2.4,2.73,0,.22-.02.38-.04.49h-4.08ZM1112.35,257.26c.01-.67-.28-1.72-1.46-1.72-1.07,0-1.54.98-1.62,1.72h3.08Z"/>
    <path d="M1114.04,262.18c.85-1.19,1.51-2.75,1.51-4.91s-.65-3.68-1.51-4.87h.82c.77.98,1.57,2.52,1.57,4.88s-.8,3.87-1.57,4.89h-.82Z"/>
  </g>
  <g>
    <path d="M1180.56,238.35c.46-.1,1.18-.17,1.91-.17,1.04,0,1.71.18,2.22.59.42.31.67.79.67,1.43,0,.78-.52,1.46-1.37,1.77v.02c.77.19,1.67.83,1.67,2.03,0,.7-.28,1.22-.68,1.62-.56.52-1.48.76-2.79.76-.72,0-1.27-.05-1.62-.1v-7.95ZM1181.6,241.66h.95c1.1,0,1.75-.58,1.75-1.35,0-.95-.72-1.32-1.78-1.32-.48,0-.75.04-.92.07v2.6ZM1181.6,245.53c.2.04.5.05.88.05,1.08,0,2.08-.4,2.08-1.57,0-1.1-.95-1.56-2.09-1.56h-.86v3.08Z"/>
    <path d="M1190.24,246.33l-.08-.73h-.04c-.32.46-.95.86-1.78.86-1.17,0-1.77-.83-1.77-1.67,0-1.4,1.25-2.17,3.49-2.16v-.12c0-.48-.13-1.34-1.32-1.34-.54,0-1.1.17-1.51.43l-.24-.7c.48-.31,1.17-.52,1.91-.52,1.78,0,2.21,1.21,2.21,2.37v2.17c0,.5.02,1,.1,1.39h-.96ZM1190.09,243.36c-1.15-.02-2.46.18-2.46,1.31,0,.68.46,1.01,1,1.01.76,0,1.24-.48,1.4-.97.04-.11.06-.23.06-.34v-1.01Z"/>
    <path d="M1194.08,238.85v1.67h1.51v.8h-1.51v3.13c0,.72.2,1.13.79,1.13.28,0,.48-.04.61-.07l.05.79c-.2.08-.53.14-.94.14-.49,0-.89-.16-1.14-.44-.3-.31-.41-.83-.41-1.51v-3.17h-.9v-.8h.9v-1.39l1.03-.28Z"/>
    <path d="M1198.06,238.85v1.67h1.51v.8h-1.51v3.13c0,.72.2,1.13.79,1.13.28,0,.48-.04.61-.07l.05.79c-.2.08-.53.14-.94.14-.49,0-.89-.16-1.14-.44-.3-.31-.41-.83-.41-1.51v-3.17h-.9v-.8h.9v-1.39l1.03-.28Z"/>
    <path d="M1201.34,243.62c.02,1.43.94,2.01,1.99,2.01.76,0,1.21-.13,1.61-.3l.18.76c-.37.17-1.01.36-1.93.36-1.79,0-2.85-1.18-2.85-2.93s1.03-3.13,2.72-3.13c1.89,0,2.4,1.67,2.4,2.73,0,.22-.02.38-.04.49h-4.08ZM1204.44,242.86c.01-.67-.28-1.71-1.46-1.71-1.07,0-1.54.98-1.62,1.71h3.08Z"/>
    <path d="M1206.77,242.33c0-.68-.01-1.27-.05-1.81h.92l.04,1.14h.05c.26-.78.9-1.27,1.61-1.27.12,0,.2.01.3.04v1c-.11-.02-.22-.04-.36-.04-.74,0-1.27.56-1.42,1.36-.02.14-.05.31-.05.49v3.09h-1.04v-3.99Z"/>
    <path d="M1211.08,240.52l1.27,3.43c.13.38.28.84.37,1.19h.02c.11-.35.23-.79.37-1.21l1.15-3.41h1.12l-1.58,4.14c-.76,1.99-1.27,3.01-1.99,3.63-.52.46-1.03.64-1.29.68l-.26-.89c.26-.08.61-.25.92-.52.29-.23.65-.64.89-1.18.05-.11.08-.19.08-.25s-.02-.14-.07-.28l-2.15-5.35h1.15Z"/>
    <path d="M1218.74,245.25c.31.2.86.42,1.39.42.77,0,1.13-.38,1.13-.86,0-.5-.3-.78-1.08-1.07-1.04-.37-1.54-.95-1.54-1.64,0-.94.76-1.7,2-1.7.59,0,1.1.17,1.43.36l-.26.77c-.23-.14-.65-.34-1.19-.34-.62,0-.97.36-.97.79,0,.48.35.7,1.1.98,1.01.38,1.52.89,1.52,1.75,0,1.02-.79,1.74-2.17,1.74-.64,0-1.22-.16-1.63-.4l.26-.8Z"/>
    <path d="M1224.91,238.85v1.67h1.51v.8h-1.51v3.13c0,.72.2,1.13.79,1.13.28,0,.48-.04.61-.07l.05.79c-.2.08-.53.14-.94.14-.49,0-.89-.16-1.14-.44-.3-.31-.41-.83-.41-1.51v-3.17h-.9v-.8h.9v-1.39l1.03-.28Z"/>
    <path d="M1227.61,242.33c0-.68-.01-1.27-.05-1.81h.92l.04,1.14h.05c.26-.78.9-1.27,1.61-1.27.12,0,.2.01.3.04v1c-.11-.02-.22-.04-.36-.04-.74,0-1.27.56-1.42,1.36-.02.14-.05.31-.05.49v3.09h-1.04v-3.99Z"/>
    <path d="M1232.12,243.62c.02,1.43.94,2.01,1.99,2.01.76,0,1.21-.13,1.61-.3l.18.76c-.37.17-1.01.36-1.93.36-1.79,0-2.85-1.18-2.85-2.93s1.03-3.13,2.72-3.13c1.89,0,2.4,1.67,2.4,2.73,0,.22-.02.38-.04.49h-4.08ZM1235.22,242.86c.01-.67-.28-1.71-1.46-1.71-1.07,0-1.54.98-1.62,1.71h3.08Z"/>
    <path d="M1237.55,242.09c0-.6-.01-1.09-.05-1.57h.94l.06.96h.02c.29-.55.96-1.09,1.92-1.09.8,0,2.05.48,2.05,2.47v3.47h-1.06v-3.35c0-.94-.35-1.71-1.34-1.71-.7,0-1.24.49-1.42,1.08-.05.13-.07.31-.07.49v3.49h-1.06v-4.23Z"/>
    <path d="M1249.21,240.52c-.02.42-.05.89-.05,1.6v3.37c0,1.33-.26,2.15-.83,2.65-.56.53-1.38.7-2.11.7s-1.46-.17-1.93-.48l.26-.8c.38.24.98.46,1.7.46,1.08,0,1.87-.56,1.87-2.03v-.65h-.02c-.32.54-.95.97-1.85.97-1.44,0-2.47-1.22-2.47-2.83,0-1.97,1.28-3.08,2.61-3.08,1.01,0,1.56.53,1.81,1.01h.02l.05-.88h.92ZM1248.12,242.81c0-.18-.01-.34-.06-.48-.19-.61-.71-1.12-1.47-1.12-1.01,0-1.73.85-1.73,2.19,0,1.14.58,2.09,1.71,2.09.65,0,1.24-.41,1.46-1.08.06-.18.08-.38.08-.56v-1.04Z"/>
    <path d="M1252.19,238.85v1.67h1.51v.8h-1.51v3.13c0,.72.2,1.13.79,1.13.28,0,.48-.04.61-.07l.05.79c-.2.08-.53.14-.94.14-.49,0-.89-.16-1.14-.44-.3-.31-.41-.83-.41-1.51v-3.17h-.9v-.8h.9v-1.39l1.03-.28Z"/>
    <path d="M1254.89,237.81h1.06v3.62h.02c.17-.3.43-.56.76-.74.31-.18.68-.3,1.08-.3.78,0,2.03.48,2.03,2.48v3.45h-1.06v-3.33c0-.94-.35-1.73-1.34-1.73-.68,0-1.22.48-1.42,1.06-.06.14-.07.3-.07.5v3.5h-1.06v-8.52Z"/>
    <path d="M1204.89,252.4c-.88,1.18-1.51,2.73-1.51,4.91s.66,3.67,1.51,4.87h-.83c-.76-1-1.57-2.53-1.57-4.87.01-2.36.82-3.9,1.57-4.91h.83Z"/>
    <path d="M1205.86,259.65c.31.2.86.42,1.39.42.77,0,1.13-.38,1.13-.86,0-.5-.3-.78-1.08-1.07-1.04-.37-1.54-.95-1.54-1.64,0-.94.76-1.7,2-1.7.59,0,1.1.17,1.43.36l-.26.77c-.23-.14-.65-.34-1.19-.34-.62,0-.97.36-.97.79,0,.48.35.7,1.1.98,1.01.38,1.52.89,1.52,1.75,0,1.02-.79,1.74-2.17,1.74-.64,0-1.22-.16-1.63-.4l.26-.8Z"/>
    <path d="M1212.03,253.25v1.67h1.51v.8h-1.51v3.13c0,.72.2,1.13.79,1.13.28,0,.48-.04.61-.07l.05.79c-.2.08-.53.14-.94.14-.49,0-.89-.16-1.14-.44-.3-.31-.41-.83-.41-1.51v-3.17h-.9v-.8h.9v-1.39l1.03-.28Z"/>
    <path d="M1214.73,256.73c0-.68-.01-1.27-.05-1.81h.92l.04,1.14h.05c.26-.78.9-1.27,1.61-1.27.12,0,.2.01.3.04v1c-.11-.02-.22-.04-.36-.04-.74,0-1.27.56-1.42,1.36-.02.14-.05.31-.05.49v3.09h-1.04v-3.99Z"/>
    <path d="M1223.91,257.78c0,2.15-1.49,3.08-2.89,3.08-1.57,0-2.78-1.15-2.78-2.99,0-1.94,1.27-3.08,2.88-3.08s2.79,1.21,2.79,2.99ZM1219.3,257.84c0,1.27.73,2.23,1.76,2.23s1.76-.95,1.76-2.25c0-.98-.49-2.23-1.74-2.23s-1.79,1.15-1.79,2.25Z"/>
    <path d="M1225.24,256.49c0-.6-.01-1.09-.05-1.57h.94l.06.96h.02c.29-.55.96-1.09,1.92-1.09.8,0,2.05.48,2.05,2.47v3.47h-1.06v-3.35c0-.94-.35-1.71-1.34-1.71-.7,0-1.24.49-1.42,1.08-.05.13-.07.31-.07.49v3.49h-1.06v-4.23Z"/>
    <path d="M1236.9,254.92c-.02.42-.05.89-.05,1.6v3.37c0,1.33-.26,2.15-.83,2.65-.56.53-1.38.7-2.11.7s-1.46-.17-1.93-.48l.26-.8c.38.24.98.46,1.7.46,1.08,0,1.87-.56,1.87-2.03v-.65h-.02c-.32.54-.95.97-1.85.97-1.44,0-2.47-1.22-2.47-2.83,0-1.97,1.28-3.08,2.61-3.08,1.01,0,1.56.53,1.81,1.01h.02l.05-.88h.92ZM1235.81,257.21c0-.18-.01-.34-.06-.48-.19-.61-.71-1.12-1.48-1.12-1.01,0-1.73.85-1.73,2.19,0,1.14.58,2.09,1.71,2.09.65,0,1.24-.41,1.46-1.08.06-.18.08-.38.08-.56v-1.04Z"/>
    <path d="M1237.97,262.18c.85-1.19,1.51-2.75,1.51-4.91s-.65-3.68-1.51-4.87h.82c.77.98,1.57,2.52,1.57,4.88s-.8,3.87-1.57,4.89h-.82Z"/>
  </g>
  <g>
    <path d="M1320.56,238.35c.46-.1,1.18-.17,1.91-.17,1.04,0,1.71.18,2.22.59.42.31.67.79.67,1.43,0,.78-.52,1.46-1.37,1.77v.02c.77.19,1.67.83,1.67,2.03,0,.7-.28,1.22-.68,1.62-.56.52-1.48.76-2.79.76-.72,0-1.27-.05-1.62-.1v-7.95ZM1321.6,241.66h.95c1.1,0,1.75-.58,1.75-1.35,0-.95-.72-1.32-1.78-1.32-.48,0-.75.04-.92.07v2.6ZM1321.6,245.53c.2.04.5.05.88.05,1.08,0,2.08-.4,2.08-1.57,0-1.1-.95-1.56-2.09-1.56h-.86v3.08Z"/>
    <path d="M1330.24,246.33l-.08-.73h-.04c-.32.46-.95.86-1.78.86-1.17,0-1.77-.83-1.77-1.67,0-1.4,1.25-2.17,3.49-2.16v-.12c0-.48-.13-1.34-1.32-1.34-.54,0-1.1.17-1.51.43l-.24-.7c.48-.31,1.17-.52,1.91-.52,1.78,0,2.21,1.21,2.21,2.37v2.17c0,.5.02,1,.1,1.39h-.96ZM1330.09,243.36c-1.15-.02-2.46.18-2.46,1.31,0,.68.46,1.01,1,1.01.76,0,1.24-.48,1.4-.97.04-.11.06-.23.06-.34v-1.01Z"/>
    <path d="M1334.08,238.85v1.67h1.51v.8h-1.51v3.13c0,.72.2,1.13.79,1.13.28,0,.48-.04.61-.07l.05.79c-.2.08-.53.14-.94.14-.49,0-.89-.16-1.14-.44-.3-.31-.41-.83-.41-1.51v-3.17h-.9v-.8h.9v-1.39l1.03-.28Z"/>
    <path d="M1338.06,238.85v1.67h1.51v.8h-1.51v3.13c0,.72.2,1.13.79,1.13.28,0,.48-.04.61-.07l.05.79c-.2.08-.53.14-.94.14-.49,0-.89-.16-1.14-.44-.3-.31-.41-.83-.41-1.51v-3.17h-.9v-.8h.9v-1.39l1.03-.28Z"/>
    <path d="M1341.34,243.62c.02,1.43.94,2.01,1.99,2.01.76,0,1.21-.13,1.61-.3l.18.76c-.37.17-1.01.36-1.93.36-1.79,0-2.85-1.18-2.85-2.93s1.03-3.13,2.72-3.13c1.89,0,2.4,1.67,2.4,2.73,0,.22-.02.38-.04.49h-4.08ZM1344.44,242.86c.01-.67-.28-1.71-1.46-1.71-1.07,0-1.54.98-1.62,1.71h3.08Z"/>
    <path d="M1346.77,242.33c0-.68-.01-1.27-.05-1.81h.92l.04,1.14h.05c.26-.78.9-1.27,1.61-1.27.12,0,.2.01.3.04v1c-.11-.02-.22-.04-.36-.04-.74,0-1.27.56-1.42,1.36-.02.14-.05.31-.05.49v3.09h-1.04v-3.99Z"/>
    <path d="M1351.08,240.52l1.27,3.43c.13.38.28.84.37,1.19h.02c.11-.35.23-.79.37-1.21l1.15-3.41h1.12l-1.58,4.14c-.76,1.99-1.27,3.01-1.99,3.63-.52.46-1.03.64-1.29.68l-.26-.89c.26-.08.61-.25.92-.52.29-.23.65-.64.89-1.18.05-.11.08-.19.08-.25s-.02-.14-.07-.28l-2.15-5.35h1.15Z"/>
    <path d="M1358.74,245.25c.31.2.86.42,1.39.42.77,0,1.13-.38,1.13-.86,0-.5-.3-.78-1.08-1.07-1.04-.37-1.54-.95-1.54-1.64,0-.94.76-1.7,2-1.7.59,0,1.1.17,1.43.36l-.26.77c-.23-.14-.65-.34-1.19-.34-.62,0-.97.36-.97.79,0,.48.35.7,1.1.98,1.01.38,1.52.89,1.52,1.75,0,1.02-.79,1.74-2.17,1.74-.64,0-1.22-.16-1.63-.4l.26-.8Z"/>
    <path d="M1364.91,238.85v1.67h1.51v.8h-1.51v3.13c0,.72.2,1.13.79,1.13.28,0,.48-.04.61-.07l.05.79c-.2.08-.53.14-.94.14-.49,0-.89-.16-1.14-.44-.3-.31-.41-.83-.41-1.51v-3.17h-.9v-.8h.9v-1.39l1.03-.28Z"/>
    <path d="M1367.61,242.33c0-.68-.01-1.27-.05-1.81h.92l.04,1.14h.05c.26-.78.9-1.27,1.61-1.27.12,0,.2.01.3.04v1c-.11-.02-.22-.04-.36-.04-.74,0-1.27.56-1.42,1.36-.02.14-.05.31-.05.49v3.09h-1.04v-3.99Z"/>
    <path d="M1372.12,243.62c.02,1.43.94,2.01,1.99,2.01.76,0,1.21-.13,1.61-.3l.18.76c-.37.17-1.01.36-1.93.36-1.79,0-2.85-1.18-2.85-2.93s1.03-3.13,2.72-3.13c1.89,0,2.4,1.67,2.4,2.73,0,.22-.02.38-.04.49h-4.08ZM1375.22,242.86c.01-.67-.28-1.71-1.46-1.71-1.07,0-1.54.98-1.62,1.71h3.08Z"/>
    <path d="M1377.55,242.09c0-.6-.01-1.09-.05-1.57h.94l.06.96h.02c.29-.55.96-1.09,1.92-1.09.8,0,2.05.48,2.05,2.47v3.47h-1.06v-3.35c0-.94-.35-1.71-1.34-1.71-.7,0-1.24.49-1.42,1.08-.05.13-.07.31-.07.49v3.49h-1.06v-4.23Z"/>
    <path d="M1389.21,240.52c-.02.42-.05.89-.05,1.6v3.37c0,1.33-.26,2.15-.83,2.65-.56.53-1.38.7-2.11.7s-1.46-.17-1.93-.48l.26-.8c.38.24.98.46,1.7.46,1.08,0,1.87-.56,1.87-2.03v-.65h-.02c-.32.54-.95.97-1.85.97-1.44,0-2.47-1.22-2.47-2.83,0-1.97,1.28-3.08,2.61-3.08,1.01,0,1.56.53,1.81,1.01h.02l.05-.88h.92ZM1388.12,242.81c0-.18-.01-.34-.06-.48-.19-.61-.71-1.12-1.47-1.12-1.01,0-1.73.85-1.73,2.19,0,1.14.58,2.09,1.71,2.09.65,0,1.24-.41,1.46-1.08.06-.18.08-.38.08-.56v-1.04Z"/>
    <path d="M1392.19,238.85v1.67h1.51v.8h-1.51v3.13c0,.72.2,1.13.79,1.13.28,0,.48-.04.61-.07l.05.79c-.2.08-.53.14-.94.14-.49,0-.89-.16-1.14-.44-.3-.31-.41-.83-.41-1.51v-3.17h-.9v-.8h.9v-1.39l1.03-.28Z"/>
    <path d="M1394.89,237.81h1.06v3.62h.02c.17-.3.43-.56.76-.74.31-.18.68-.3,1.08-.3.78,0,2.03.48,2.03,2.48v3.45h-1.06v-3.33c0-.94-.35-1.73-1.34-1.73-.68,0-1.22.48-1.42,1.06-.06.14-.07.3-.07.5v3.5h-1.06v-8.52Z"/>
    <path d="M1353.3,252.4c-.88,1.18-1.51,2.73-1.51,4.91s.66,3.67,1.51,4.87h-.83c-.76-1-1.57-2.53-1.57-4.87.01-2.36.82-3.9,1.57-4.91h.83Z"/>
    <path d="M1354.53,260.73v-5h-.82v-.8h.82v-.28c0-.82.18-1.56.67-2.03.4-.38.92-.54,1.42-.54.37,0,.7.08.9.17l-.14.82c-.16-.07-.37-.13-.67-.13-.9,0-1.13.79-1.13,1.68v.31h1.4v.8h-1.4v5h-1.04Z"/>
    <path d="M1362.78,259.14c0,.6.01,1.13.05,1.58h-.94l-.06-.95h-.02c-.28.47-.89,1.08-1.92,1.08-.91,0-2-.5-2-2.54v-3.39h1.06v3.21c0,1.1.34,1.85,1.3,1.85.71,0,1.2-.49,1.39-.96.06-.16.1-.35.1-.54v-3.56h1.06v4.22Z"/>
    <path d="M1364.53,252.21h1.06v8.52h-1.06v-8.52Z"/>
    <path d="M1367.37,252.21h1.06v8.52h-1.06v-8.52Z"/>
    <path d="M1369.56,262.18c.85-1.19,1.51-2.75,1.51-4.91s-.65-3.68-1.51-4.87h.82c.77.98,1.57,2.52,1.57,4.88s-.8,3.87-1.57,4.89h-.82Z"/>
  </g>
  <text class="cls-14" transform="translate(485.57 246.33)"><tspan x="0" y="0">Timer/Waiting</tspan></text>
  <text class="cls-14" transform="translate(446.31 386.33)"><tspan x="0" y="0">Generic person/Default avatar</tspan></text>
  <text class="cls-14" transform="translate(611.11 386.33)"><tspan x="0" y="0">Presence – available</tspan><tspan class="cls-16"><tspan x="10.48" y="14.4">(incl. small icon)</tspan></tspan></text>
  <g>
    <g>
      <path class="cls-2" d="M799.53,330.2c-1.12-2.26-3.21-4.11-5.84-5.18,1.68-1.47,2.74-3.62,2.74-6.02,0-4.42-3.58-8-8-8s-8,3.58-8,8c0,2.4,1.06,4.55,2.74,6.02-3.99,1.62-6.74,5.03-6.74,8.98v7"/>
      <circle class="cls-11" cx="809.43" cy="344" r="17"/>
      <polyline class="cls-11" points="803.43 344 807.43 348 815.43 340"/>
    </g>
    <rect class="cls-1" x="761.43" y="296" width="80" height="80"/>
  </g>
  <text class="cls-14" transform="translate(730.47 386.33)"><tspan x="0" y="0">Presence – available (colour)</tspan><tspan class="cls-16"><tspan x="31.12" y="14.4">(incl. small icon)</tspan></tspan></text>
  <text class="cls-14" transform="translate(901.4 386.33)"><tspan x="0" y="0">Presence – busy</tspan><tspan class="cls-16"><tspan x=".18" y="14.4">(incl. small icon)</tspan></tspan></text>
  <g>
    <g>
      <path class="cls-2" d="M1079.53,330.2c-1.12-2.26-3.21-4.11-5.84-5.18,1.68-1.47,2.74-3.62,2.74-6.02,0-4.42-3.58-8-8-8s-8,3.58-8,8c0,2.4,1.07,4.55,2.74,6.02-3.99,1.62-6.74,5.03-6.74,8.98v7"/>
      <circle class="cls-8" cx="1089.43" cy="344" r="17"/>
      <line class="cls-8" x1="1083.43" y1="344" x2="1095.43" y2="344"/>
    </g>
    <rect class="cls-1" x="1041.43" y="296" width="80" height="80"/>
  </g>
  <text class="cls-14" transform="translate(1020.7617 386.3257)"><tspan x="0" y="0">Presence – busy (colour)</tspan><tspan class="cls-16"><tspan x="20.82" y="14.4">(incl. small icon)</tspan></tspan></text>
  <text class="cls-14" transform="translate(1177.3696 386.3257)"><tspan x="0" y="0">Presence – offline</tspan><tspan class="cls-16"><tspan x="4.21" y="14.4">(incl. small icon)</tspan></tspan></text>
  <g>
    <g>
      <path class="cls-2" d="M1359.53,330.2c-1.12-2.26-3.21-4.11-5.84-5.18,1.68-1.47,2.74-3.62,2.74-6.02,0-4.42-3.58-8-8-8s-8,3.58-8,8c0,2.4,1.07,4.55,2.74,6.02-3.99,1.62-6.74,5.03-6.74,8.98v7"/>
      <circle class="cls-4" cx="1369.43" cy="344" r="17"/>
      <g>
        <line class="cls-4" x1="1364.43" y1="349" x2="1374.43" y2="339"/>
        <line class="cls-4" x1="1374.43" y1="349" x2="1364.43" y2="339"/>
      </g>
    </g>
    <rect class="cls-1" x="1321.43" y="296" width="80" height="80"/>
  </g>
  <text class="cls-14" transform="translate(1296.7298 386.3257)"><tspan x="0" y="0">Presence – offline (colour)</tspan><tspan class="cls-16"><tspan x="24.85" y="14.4">(incl. small icon)</tspan></tspan></text>
  <text class="cls-14" transform="translate(1449.5035 386.3257)"><tspan x="0" y="0">Presence – unknown</tspan><tspan class="cls-16"><tspan x="12.08" y="14.4">(incl. small icon)</tspan></tspan></text>
  <g>
    <path class="cls-2" d="M519.53,470.2c-1.12-2.26-3.21-4.11-5.84-5.18,1.68-1.47,2.74-3.62,2.74-6.02,0-4.42-3.58-8-8-8s-8,3.58-8,8c0,2.4,1.07,4.55,2.74,6.02-3.99,1.62-6.74,5.03-6.74,8.98v7"/>
    <path class="cls-4" d="M539.43,497.73c4.24-3.09,7-8.08,7-13.73,0-9.39-7.61-17-17-17s-17,7.61-17,17c0,5.65,2.76,10.63,7,13.73"/>
    <g>
      <circle class="cls-4" cx="529.43" cy="500" r="1"/>
      <path class="cls-4" d="M529.43,491v-1c0-1.93,2.56-3.49,3.54-4.46,1.95-1.95,1.95-5.12,0-7.07-1.95-1.95-5.12-1.95-7.07,0-.72.72-1.17,1.61-1.36,2.54"/>
    </g>
  </g>
  <g>
    <rect class="cls-1" x="513.43" y="436" width="16" height="16"/>
    <g>
      <path class="cls-12" d="M524.43,447.98c1.21-.91,2-2.35,2-3.98,0-2.76-2.24-5-5-5s-5,2.24-5,5c0,1.63.79,3.06,2,3.98"/>
      <g>
        <path class="cls-12" d="M521.73,448.7c0,.17-.13.3-.3.3s-.3-.13-.3-.3.13-.3.3-.3.3.13.3.3Z"/>
        <path class="cls-12" d="M521.43,446v-.3c0-.58.77-1.05,1.06-1.34.59-.59.59-1.54,0-2.12-.59-.59-1.54-.59-2.12,0-.22.22-.35.48-.41.76"/>
      </g>
    </g>
  </g>
  <text class="cls-14" transform="translate(448.86 526.33)"><tspan x="0" y="0">Presence – unknown (colour)</tspan><tspan class="cls-16"><tspan x="32.72" y="14.4">(incl. small icon)</tspan></tspan></text>
  <g>
    <rect class="cls-1" x="621.43" y="436" width="80" height="80"/>
    <g>
      <path class="cls-2" d="M659.53,470.2c-1.12-2.26-3.21-4.11-5.84-5.18,1.68-1.47,2.74-3.62,2.74-6.02,0-4.42-3.58-8-8-8s-8,3.58-8,8c0,2.4,1.07,4.55,2.74,6.02-3.99,1.62-6.74,5.03-6.74,8.98v7"/>
      <circle class="cls-2" cx="669.43" cy="484" r="17"/>
      <polyline class="cls-2" points="668.43 477 668.43 485 674.43 485"/>
    </g>
  </g>
  <g>
    <rect class="cls-1" x="901.43" y="436" width="80" height="80"/>
    <g>
      <path class="cls-2" d="M939.53,470.2c-1.12-2.26-3.21-4.11-5.84-5.18,1.68-1.47,2.74-3.62,2.74-6.02,0-4.42-3.58-8-8-8s-8,3.58-8,8c0,2.4,1.07,4.55,2.74,6.02-3.99,1.62-6.74,5.03-6.74,8.98v7"/>
      <g>
        <circle class="cls-2" cx="949.43" cy="484" r="17"/>
        <line class="cls-2" x1="937.41" y1="496.02" x2="961.45" y2="471.98"/>
      </g>
    </g>
  </g>
  <g>
    <g>
      <circle class="cls-5" cx="709.43" cy="444" r="5"/>
      <polyline class="cls-5" points="709.14 441.79 709.14 444.29 711.14 444.29"/>
    </g>
    <rect class="cls-1" x="701.43" y="436" width="16" height="16"/>
  </g>
  <g>
    <g>
      <circle class="cls-7" cx="849.43" cy="444" r="5"/>
      <polyline class="cls-7" points="849.14 441.79 849.14 444.29 851.14 444.29"/>
    </g>
    <rect class="cls-1" x="841.43" y="436" width="16" height="16"/>
  </g>
  <g>
    <g>
      <circle class="cls-5" cx="709.43" cy="304" r="5"/>
      <polyline class="cls-5" points="707.48 304 708.78 305.3 711.38 302.7"/>
    </g>
    <rect class="cls-1" x="701.43" y="296" width="16" height="16"/>
  </g>
  <g>
    <g>
      <circle class="cls-3" cx="849.43" cy="304" r="5"/>
      <polyline class="cls-3" points="847.48 304 848.78 305.3 851.38 302.7"/>
    </g>
    <rect class="cls-1" x="841.43" y="296" width="16" height="16"/>
  </g>
  <g>
    <g>
      <circle class="cls-5" cx="1269.43" cy="304" r="5"/>
      <g>
        <line class="cls-5" x1="1267.68" y1="305.75" x2="1271.18" y2="302.25"/>
        <line class="cls-5" x1="1271.18" y1="305.75" x2="1267.68" y2="302.25"/>
      </g>
    </g>
    <rect class="cls-1" x="1261.43" y="296" width="16" height="16"/>
  </g>
  <g>
    <g>
      <circle class="cls-12" cx="1409.43" cy="304" r="5"/>
      <g>
        <line class="cls-12" x1="1407.68" y1="305.75" x2="1411.18" y2="302.25"/>
        <line class="cls-12" x1="1411.18" y1="305.75" x2="1407.68" y2="302.25"/>
      </g>
    </g>
    <rect class="cls-1" x="1401.43" y="296" width="16" height="16"/>
  </g>
  <g>
    <rect class="cls-1" x="981.43" y="436" width="16" height="16"/>
    <g>
      <circle class="cls-5" cx="989.43" cy="444" r="5"/>
      <line class="cls-5" x1="985.9" y1="447.54" x2="992.97" y2="440.46"/>
    </g>
  </g>
  <text class="cls-14" transform="translate(620.3 526.33)"><tspan x="0" y="0">Presence – away</tspan><tspan class="cls-16"><tspan x="1.28" y="14.4">(incl. small icon)</tspan></tspan></text>
  <text class="cls-14" transform="translate(893.31 526.33)"><tspan x="0" y="0">Presence – blocked</tspan><tspan class="cls-16"><tspan x="8.27" y="14.4">(incl. small icon)</tspan></tspan></text>
  <g>
    <rect class="cls-1" x="761.43" y="436" width="80" height="80"/>
    <g>
      <path class="cls-2" d="M799.53,470.2c-1.12-2.26-3.21-4.11-5.84-5.18,1.68-1.47,2.74-3.62,2.74-6.02,0-4.42-3.58-8-8-8s-8,3.58-8,8c0,2.4,1.07,4.55,2.74,6.02-3.99,1.62-6.74,5.03-6.74,8.98v7"/>
      <circle class="cls-8" cx="809.43" cy="484" r="17"/>
      <polyline class="cls-8" points="808.43 477 808.43 485 814.43 485"/>
    </g>
  </g>
  <g>
    <rect class="cls-1" x="1041.43" y="436" width="80" height="80"/>
    <g>
      <path class="cls-2" d="M1079.53,470.2c-1.12-2.26-3.21-4.11-5.84-5.18,1.68-1.47,2.74-3.62,2.74-6.02,0-4.42-3.58-8-8-8s-8,3.58-8,8c0,2.4,1.07,4.55,2.74,6.02-3.99,1.62-6.74,5.03-6.74,8.98v7"/>
      <g>
        <circle class="cls-4" cx="1089.43" cy="484" r="17"/>
        <line class="cls-4" x1="1077.41" y1="496.02" x2="1101.45" y2="471.98"/>
      </g>
    </g>
  </g>
  <g>
    <rect class="cls-1" x="1121.43" y="436" width="16" height="16"/>
    <g>
      <circle class="cls-12" cx="1129.43" cy="444" r="5"/>
      <line class="cls-12" x1="1125.9" y1="447.54" x2="1132.97" y2="440.46"/>
    </g>
  </g>
  <text class="cls-14" transform="translate(739.66 526.33)"><tspan x="0" y="0">Presence – away (colour)</tspan><tspan class="cls-16"><tspan x="21.92" y="14.4">(incl. small icon)</tspan></tspan></text>
  <text class="cls-14" transform="translate(1012.6678 526.3262)"><tspan x="0" y="0">Presence – blocked (colour)</tspan><tspan class="cls-16"><tspan x="28.91" y="14.4">(incl. small icon)</tspan></tspan></text>
  <text class="cls-14" transform="translate(483.71 666.33)"><tspan x="0" y="0">Sound volume </tspan><tspan x="21.24" y="14.4">(quiet)</tspan></text>
  <text class="cls-14" transform="translate(645.16 666.33)"><tspan x="0" y="0">Sound</tspan><tspan x="-60.5" y="14.4">(generic/intermediate volume)</tspan></text>
  <text class="cls-14" transform="translate(763.71 666.33)"><tspan x="0" y="0">Sound volume </tspan><tspan x="22.92" y="14.4">(loud)</tspan></text>
  <text class="cls-14" transform="translate(925.16 666.33)"><tspan x="0" y="0">Sound</tspan><tspan x="-.44" y="14.4">(mute)</tspan></text>
  <text class="cls-14" transform="translate(1065.161 666.3262)"><tspan x="0" y="0">Sound</tspan><tspan x="-51.92" y="14.4">(hands-free/speakerphone)</tspan></text>
  <g>
    <path d="M1182.97,525.05c.47.29,1.15.53,1.87.53,1.07,0,1.69-.56,1.69-1.38,0-.76-.43-1.19-1.52-1.61-1.32-.47-2.13-1.15-2.13-2.29,0-1.26,1.04-2.2,2.61-2.2.83,0,1.43.19,1.79.4l-.29.85c-.26-.14-.8-.38-1.54-.38-1.1,0-1.52.66-1.52,1.21,0,.76.49,1.13,1.61,1.56,1.37.53,2.06,1.19,2.06,2.37,0,1.25-.92,2.33-2.83,2.33-.78,0-1.63-.23-2.06-.52l.26-.88Z"/>
    <path d="M1190.17,518.89c.01.36-.25.65-.67.65-.37,0-.64-.29-.64-.65s.28-.66.66-.66.65.29.65.66ZM1189,526.33v-5.8h1.05v5.8h-1.05Z"/>
    <path d="M1196.81,520.52c-.02.42-.05.89-.05,1.59v3.37c0,1.33-.26,2.15-.83,2.65-.56.53-1.38.7-2.11.7s-1.46-.17-1.93-.48l.26-.8c.38.24.98.46,1.7.46,1.08,0,1.87-.56,1.87-2.03v-.65h-.02c-.32.54-.95.97-1.85.97-1.44,0-2.47-1.22-2.47-2.83,0-1.97,1.28-3.08,2.61-3.08,1.01,0,1.56.53,1.81,1.01h.02l.05-.88h.92ZM1195.72,522.81c0-.18-.01-.34-.06-.48-.19-.61-.71-1.12-1.47-1.12-1.01,0-1.73.85-1.73,2.2,0,1.14.58,2.09,1.71,2.09.65,0,1.24-.41,1.46-1.08.06-.18.08-.38.08-.56v-1.04Z"/>
    <path d="M1198.51,522.09c0-.6-.01-1.09-.05-1.57h.94l.06.96h.02c.29-.55.96-1.09,1.92-1.09.8,0,2.05.48,2.05,2.47v3.47h-1.06v-3.35c0-.94-.35-1.72-1.34-1.72-.7,0-1.24.49-1.42,1.08-.05.13-.07.31-.07.49v3.49h-1.06v-4.23Z"/>
    <path d="M1208.39,526.33l-.08-.73h-.04c-.32.46-.95.86-1.77.86-1.18,0-1.78-.83-1.78-1.67,0-1.4,1.25-2.17,3.49-2.16v-.12c0-.48-.13-1.34-1.32-1.34-.54,0-1.1.17-1.51.43l-.24-.7c.48-.31,1.17-.52,1.91-.52,1.77,0,2.21,1.21,2.21,2.37v2.17c0,.5.02,1,.1,1.39h-.96ZM1208.23,523.36c-1.15-.02-2.46.18-2.46,1.31,0,.68.46,1.01,1,1.01.76,0,1.24-.48,1.4-.97.04-.11.06-.23.06-.34v-1.01Z"/>
    <path d="M1210.96,517.81h1.06v8.52h-1.06v-8.52Z"/>
    <path d="M1216.19,525.25c.31.2.86.42,1.39.42.77,0,1.13-.38,1.13-.86s-.3-.78-1.08-1.07c-1.04-.37-1.54-.95-1.54-1.64,0-.94.75-1.7,2-1.7.59,0,1.1.17,1.43.36l-.26.77c-.23-.14-.65-.34-1.19-.34-.62,0-.97.36-.97.79,0,.48.35.7,1.1.98,1.01.38,1.52.89,1.52,1.75,0,1.02-.79,1.74-2.17,1.74-.64,0-1.22-.16-1.63-.4l.26-.8Z"/>
    <path d="M1222.36,518.85v1.67h1.51v.8h-1.51v3.13c0,.72.2,1.13.79,1.13.28,0,.48-.04.61-.07l.05.79c-.2.08-.53.14-.94.14-.49,0-.89-.16-1.14-.44-.3-.31-.41-.83-.41-1.51v-3.17h-.9v-.8h.9v-1.39l1.03-.28Z"/>
    <path d="M1225.06,522.33c0-.68-.01-1.27-.05-1.81h.92l.04,1.14h.05c.26-.78.9-1.27,1.61-1.27.12,0,.2.01.3.04v1c-.11-.02-.22-.04-.36-.04-.74,0-1.27.56-1.42,1.36-.02.14-.05.31-.05.49v3.09h-1.04v-3.99Z"/>
    <path d="M1229.57,523.62c.02,1.43.94,2.02,1.99,2.02.76,0,1.21-.13,1.61-.3l.18.75c-.37.17-1.01.36-1.93.36-1.79,0-2.85-1.18-2.85-2.93s1.03-3.13,2.72-3.13c1.89,0,2.4,1.67,2.4,2.73,0,.22-.02.38-.04.49h-4.08ZM1232.66,522.86c.01-.67-.28-1.72-1.46-1.72-1.07,0-1.54.98-1.62,1.72h3.08Z"/>
    <path d="M1234.99,522.09c0-.6-.01-1.09-.05-1.57h.94l.06.96h.02c.29-.55.96-1.09,1.92-1.09.8,0,2.05.48,2.05,2.47v3.47h-1.06v-3.35c0-.94-.35-1.72-1.34-1.72-.7,0-1.24.49-1.42,1.08-.05.13-.07.31-.07.49v3.49h-1.06v-4.23Z"/>
    <path d="M1246.65,520.52c-.02.42-.05.89-.05,1.59v3.37c0,1.33-.26,2.15-.83,2.65-.56.53-1.38.7-2.11.7s-1.46-.17-1.93-.48l.26-.8c.38.24.98.46,1.7.46,1.08,0,1.87-.56,1.87-2.03v-.65h-.02c-.32.54-.95.97-1.85.97-1.44,0-2.47-1.22-2.47-2.83,0-1.97,1.28-3.08,2.61-3.08,1.01,0,1.56.53,1.81,1.01h.02l.05-.88h.92ZM1245.56,522.81c0-.18-.01-.34-.06-.48-.19-.61-.71-1.12-1.48-1.12-1.01,0-1.73.85-1.73,2.2,0,1.14.58,2.09,1.71,2.09.65,0,1.24-.41,1.46-1.08.06-.18.08-.38.08-.56v-1.04Z"/>
    <path d="M1249.63,518.85v1.67h1.51v.8h-1.51v3.13c0,.72.2,1.13.79,1.13.28,0,.48-.04.61-.07l.05.79c-.2.08-.53.14-.94.14-.49,0-.89-.16-1.14-.44-.3-.31-.41-.83-.41-1.51v-3.17h-.9v-.8h.9v-1.39l1.03-.28Z"/>
    <path d="M1252.33,517.81h1.05v3.62h.02c.17-.3.43-.56.76-.74.31-.18.68-.3,1.08-.3.78,0,2.03.48,2.03,2.48v3.45h-1.05v-3.33c0-.94-.35-1.73-1.34-1.73-.68,0-1.22.48-1.42,1.06-.06.14-.07.3-.07.5v3.5h-1.05v-8.52Z"/>
    <path d="M1208.06,532.4c-.88,1.18-1.51,2.74-1.51,4.91s.66,3.67,1.51,4.87h-.83c-.76-1-1.57-2.53-1.57-4.87.01-2.36.82-3.9,1.57-4.91h.83Z"/>
    <path d="M1209.6,534.92l.77,2.95c.17.65.32,1.25.43,1.85h.04c.13-.59.32-1.21.52-1.83l.95-2.96h.89l.9,2.9c.22.7.38,1.31.52,1.89h.04c.1-.59.25-1.2.44-1.88l.83-2.92h1.04l-1.87,5.81h-.96l-.89-2.77c-.2-.65-.37-1.22-.52-1.91h-.02c-.14.7-.32,1.29-.53,1.92l-.94,2.76h-.96l-1.75-5.81h1.08Z"/>
    <path d="M1218.6,538.02c.02,1.43.94,2.01,1.99,2.01.76,0,1.21-.13,1.61-.3l.18.76c-.37.17-1.01.36-1.93.36-1.79,0-2.85-1.17-2.85-2.93s1.03-3.13,2.72-3.13c1.89,0,2.4,1.67,2.4,2.74,0,.22-.02.38-.04.49h-4.08ZM1221.69,537.26c.01-.67-.28-1.71-1.46-1.71-1.07,0-1.54.98-1.62,1.71h3.08Z"/>
    <path d="M1227.24,540.73l-.08-.73h-.04c-.32.46-.95.86-1.77.86-1.18,0-1.78-.83-1.78-1.67,0-1.4,1.25-2.17,3.49-2.16v-.12c0-.48-.13-1.34-1.32-1.34-.54,0-1.1.17-1.51.43l-.24-.7c.48-.31,1.17-.52,1.91-.52,1.77,0,2.21,1.21,2.21,2.38v2.17c0,.5.02,1,.1,1.39h-.96ZM1227.08,537.76c-1.15-.02-2.46.18-2.46,1.31,0,.68.46,1.01,1,1.01.76,0,1.24-.48,1.4-.97.04-.11.06-.23.06-.34v-1.01Z"/>
    <path d="M1230.85,537.58h.02c.14-.2.35-.46.52-.66l1.7-2h1.27l-2.24,2.39,2.55,3.42h-1.28l-2-2.78-.54.6v2.18h-1.04v-8.52h1.04v5.37Z"/>
    <path d="M1234.8,542.18c.85-1.19,1.51-2.75,1.51-4.91s-.65-3.68-1.51-4.87h.82c.77.98,1.57,2.52,1.57,4.88s-.8,3.87-1.57,4.89h-.82Z"/>
  </g>
  <g>
    <path d="M1462.97,525.05c.47.29,1.15.53,1.87.53,1.07,0,1.69-.56,1.69-1.38,0-.76-.43-1.19-1.52-1.61-1.32-.47-2.13-1.15-2.13-2.29,0-1.26,1.04-2.2,2.61-2.2.83,0,1.43.19,1.79.4l-.29.85c-.26-.14-.8-.38-1.54-.38-1.1,0-1.52.66-1.52,1.21,0,.76.49,1.13,1.61,1.56,1.37.53,2.06,1.19,2.06,2.37,0,1.25-.92,2.33-2.83,2.33-.78,0-1.63-.23-2.06-.52l.26-.88Z"/>
    <path d="M1470.17,518.89c.01.36-.25.65-.67.65-.37,0-.64-.29-.64-.65s.28-.66.66-.66.65.29.65.66ZM1469,526.33v-5.8h1.05v5.8h-1.05Z"/>
    <path d="M1476.81,520.52c-.02.42-.05.89-.05,1.59v3.37c0,1.33-.26,2.15-.83,2.65-.56.53-1.38.7-2.11.7s-1.46-.17-1.93-.48l.26-.8c.38.24.98.46,1.7.46,1.08,0,1.87-.56,1.87-2.03v-.65h-.02c-.32.54-.95.97-1.85.97-1.44,0-2.47-1.22-2.47-2.83,0-1.97,1.28-3.08,2.61-3.08,1.01,0,1.56.53,1.81,1.01h.02l.05-.88h.92ZM1475.72,522.81c0-.18-.01-.34-.06-.48-.19-.61-.71-1.12-1.47-1.12-1.01,0-1.73.85-1.73,2.2,0,1.14.58,2.09,1.71,2.09.65,0,1.24-.41,1.46-1.08.06-.18.08-.38.08-.56v-1.04Z"/>
    <path d="M1478.51,522.09c0-.6-.01-1.09-.05-1.57h.94l.06.96h.02c.29-.55.96-1.09,1.92-1.09.8,0,2.05.48,2.05,2.47v3.47h-1.06v-3.35c0-.94-.35-1.72-1.34-1.72-.7,0-1.24.49-1.42,1.08-.05.13-.07.31-.07.49v3.49h-1.06v-4.23Z"/>
    <path d="M1488.39,526.33l-.08-.73h-.04c-.32.46-.95.86-1.77.86-1.18,0-1.78-.83-1.78-1.67,0-1.4,1.25-2.17,3.49-2.16v-.12c0-.48-.13-1.34-1.32-1.34-.54,0-1.1.17-1.51.43l-.24-.7c.48-.31,1.17-.52,1.91-.52,1.77,0,2.21,1.21,2.21,2.37v2.17c0,.5.02,1,.1,1.39h-.96ZM1488.23,523.36c-1.15-.02-2.46.18-2.46,1.31,0,.68.46,1.01,1,1.01.76,0,1.24-.48,1.4-.97.04-.11.06-.23.06-.34v-1.01Z"/>
    <path d="M1490.96,517.81h1.06v8.52h-1.06v-8.52Z"/>
    <path d="M1496.19,525.25c.31.2.86.42,1.39.42.77,0,1.13-.38,1.13-.86s-.3-.78-1.08-1.07c-1.04-.37-1.54-.95-1.54-1.64,0-.94.75-1.7,2-1.7.59,0,1.1.17,1.43.36l-.26.77c-.23-.14-.65-.34-1.19-.34-.62,0-.97.36-.97.79,0,.48.35.7,1.1.98,1.01.38,1.52.89,1.52,1.75,0,1.02-.79,1.74-2.17,1.74-.64,0-1.22-.16-1.63-.4l.26-.8Z"/>
    <path d="M1502.36,518.85v1.67h1.51v.8h-1.51v3.13c0,.72.2,1.13.79,1.13.28,0,.48-.04.61-.07l.05.79c-.2.08-.53.14-.94.14-.49,0-.89-.16-1.14-.44-.3-.31-.41-.83-.41-1.51v-3.17h-.9v-.8h.9v-1.39l1.03-.28Z"/>
    <path d="M1505.06,522.33c0-.68-.01-1.27-.05-1.81h.92l.04,1.14h.05c.26-.78.9-1.27,1.61-1.27.12,0,.2.01.3.04v1c-.11-.02-.22-.04-.36-.04-.74,0-1.27.56-1.42,1.36-.02.14-.05.31-.05.49v3.09h-1.04v-3.99Z"/>
    <path d="M1509.57,523.62c.02,1.43.94,2.02,1.99,2.02.76,0,1.21-.13,1.61-.3l.18.75c-.37.17-1.01.36-1.93.36-1.79,0-2.85-1.18-2.85-2.93s1.03-3.13,2.72-3.13c1.89,0,2.4,1.67,2.4,2.73,0,.22-.02.38-.04.49h-4.08ZM1512.66,522.86c.01-.67-.28-1.72-1.46-1.72-1.07,0-1.54.98-1.62,1.72h3.08Z"/>
    <path d="M1514.99,522.09c0-.6-.01-1.09-.05-1.57h.94l.06.96h.02c.29-.55.96-1.09,1.92-1.09.8,0,2.05.48,2.05,2.47v3.47h-1.06v-3.35c0-.94-.35-1.72-1.34-1.72-.7,0-1.24.49-1.42,1.08-.05.13-.07.31-.07.49v3.49h-1.06v-4.23Z"/>
    <path d="M1526.65,520.52c-.02.42-.05.89-.05,1.59v3.37c0,1.33-.26,2.15-.83,2.65-.56.53-1.38.7-2.11.7s-1.46-.17-1.93-.48l.26-.8c.38.24.98.46,1.7.46,1.08,0,1.87-.56,1.87-2.03v-.65h-.02c-.32.54-.95.97-1.85.97-1.44,0-2.47-1.22-2.47-2.83,0-1.97,1.28-3.08,2.61-3.08,1.01,0,1.56.53,1.81,1.01h.02l.05-.88h.92ZM1525.56,522.81c0-.18-.01-.34-.06-.48-.19-.61-.71-1.12-1.48-1.12-1.01,0-1.73.85-1.73,2.2,0,1.14.58,2.09,1.71,2.09.65,0,1.24-.41,1.46-1.08.06-.18.08-.38.08-.56v-1.04Z"/>
    <path d="M1529.63,518.85v1.67h1.51v.8h-1.51v3.13c0,.72.2,1.13.79,1.13.28,0,.48-.04.61-.07l.05.79c-.2.08-.53.14-.94.14-.49,0-.89-.16-1.14-.44-.3-.31-.41-.83-.41-1.51v-3.17h-.9v-.8h.9v-1.39l1.03-.28Z"/>
    <path d="M1532.33,517.81h1.05v3.62h.02c.17-.3.43-.56.76-.74.31-.18.68-.3,1.08-.3.78,0,2.03.48,2.03,2.48v3.45h-1.05v-3.33c0-.94-.35-1.73-1.34-1.73-.68,0-1.22.48-1.42,1.06-.06.14-.07.3-.07.5v3.5h-1.05v-8.52Z"/>
    <path d="M1484.89,532.4c-.88,1.18-1.51,2.74-1.51,4.91s.66,3.67,1.51,4.87h-.83c-.76-1-1.57-2.53-1.57-4.87.01-2.36.82-3.9,1.57-4.91h.83Z"/>
    <path d="M1485.86,539.65c.31.2.86.42,1.39.42.77,0,1.13-.38,1.13-.86,0-.5-.3-.78-1.08-1.07-1.04-.37-1.54-.95-1.54-1.64,0-.94.76-1.7,2-1.7.59,0,1.1.17,1.43.36l-.26.77c-.23-.14-.65-.34-1.19-.34-.62,0-.97.36-.97.79,0,.48.35.7,1.1.98,1.01.38,1.52.89,1.52,1.75,0,1.02-.79,1.74-2.17,1.74-.64,0-1.22-.16-1.63-.4l.26-.8Z"/>
    <path d="M1492.03,533.25v1.67h1.51v.8h-1.51v3.13c0,.72.2,1.13.79,1.13.28,0,.48-.04.61-.07l.05.79c-.2.08-.53.14-.94.14-.49,0-.89-.16-1.14-.44-.3-.31-.41-.83-.41-1.51v-3.17h-.9v-.8h.9v-1.39l1.03-.28Z"/>
    <path d="M1494.73,536.73c0-.68-.01-1.27-.05-1.81h.92l.04,1.14h.05c.26-.78.9-1.27,1.61-1.27.12,0,.2.01.3.04v1c-.11-.02-.22-.04-.36-.04-.74,0-1.27.56-1.42,1.36-.02.14-.05.31-.05.49v3.09h-1.04v-3.99Z"/>
    <path d="M1503.91,537.78c0,2.15-1.49,3.08-2.89,3.08-1.57,0-2.78-1.15-2.78-2.99,0-1.94,1.27-3.08,2.88-3.08s2.79,1.21,2.79,2.99ZM1499.3,537.84c0,1.27.73,2.23,1.76,2.23s1.76-.95,1.76-2.25c0-.98-.49-2.23-1.74-2.23s-1.79,1.15-1.79,2.25Z"/>
    <path d="M1505.24,536.49c0-.6-.01-1.09-.05-1.57h.94l.06.96h.02c.29-.55.96-1.09,1.92-1.09.8,0,2.05.48,2.05,2.47v3.47h-1.06v-3.35c0-.94-.35-1.71-1.34-1.71-.7,0-1.24.49-1.42,1.08-.05.13-.07.31-.07.49v3.49h-1.06v-4.23Z"/>
    <path d="M1516.9,534.92c-.02.42-.05.89-.05,1.6v3.37c0,1.33-.26,2.15-.83,2.65-.56.53-1.38.7-2.11.7s-1.46-.17-1.93-.48l.26-.8c.38.24.98.46,1.7.46,1.08,0,1.87-.56,1.87-2.03v-.65h-.02c-.32.54-.95.97-1.85.97-1.44,0-2.47-1.22-2.47-2.83,0-1.97,1.28-3.08,2.61-3.08,1.01,0,1.56.53,1.81,1.01h.02l.05-.88h.92ZM1515.81,537.21c0-.18-.01-.34-.06-.48-.19-.61-.71-1.12-1.48-1.12-1.01,0-1.73.85-1.73,2.19,0,1.14.58,2.09,1.71,2.09.65,0,1.24-.41,1.46-1.08.06-.18.08-.38.08-.56v-1.04Z"/>
    <path d="M1517.97,542.18c.85-1.19,1.51-2.75,1.51-4.91s-.65-3.68-1.51-4.87h.82c.77.98,1.57,2.52,1.57,4.88s-.8,3.87-1.57,4.89h-.82Z"/>
  </g>
  <text class="cls-14" transform="translate(1346.0791 526.3262)"><tspan x="0" y="0">Signal</tspan><tspan x="-63.83" y="14.4">(generic/intermediate strength)</tspan></text>
  <text class="cls-14" transform="translate(1179.0916 666.3262)"><tspan x="0" y="0">Mobile (location)</tspan></text>
  <text class="cls-14" transform="translate(1329.9635 666.3262)"><tspan x="0" y="0">Centre point</tspan></text>
  <g class="cls-18">
    <g>
      <path d="M1478.99,658.24v4.79c0,1.81.8,2.58,1.88,2.58,1.2,0,1.97-.79,1.97-2.58v-4.79h1.06v4.71c0,2.48-1.31,3.5-3.06,3.5-1.66,0-2.9-.95-2.9-3.45v-4.76h1.06Z"/>
      <path d="M1485.68,662.09c0-.6-.01-1.09-.05-1.57h.94l.06.96h.02c.29-.55.96-1.09,1.92-1.09.8,0,2.05.48,2.05,2.47v3.47h-1.05v-3.35c0-.94-.35-1.72-1.34-1.72-.7,0-1.24.49-1.42,1.08-.05.13-.07.31-.07.49v3.49h-1.05v-4.23Z"/>
      <path d="M1493.38,663.18h.02c.14-.2.35-.46.52-.66l1.7-2h1.27l-2.24,2.39,2.55,3.42h-1.28l-2-2.78-.54.6v2.18h-1.04v-8.52h1.04v5.37Z"/>
      <path d="M1497.96,662.09c0-.6-.01-1.09-.05-1.57h.94l.06.96h.02c.29-.55.96-1.09,1.92-1.09.8,0,2.05.48,2.05,2.47v3.47h-1.06v-3.35c0-.94-.35-1.72-1.34-1.72-.7,0-1.24.49-1.42,1.08-.05.13-.07.31-.07.49v3.49h-1.06v-4.23Z"/>
      <path d="M1509.88,663.38c0,2.15-1.49,3.08-2.89,3.08-1.57,0-2.78-1.15-2.78-2.99,0-1.94,1.27-3.08,2.88-3.08s2.79,1.21,2.79,2.99ZM1505.27,663.44c0,1.27.73,2.23,1.76,2.23s1.76-.95,1.76-2.25c0-.98-.49-2.23-1.74-2.23s-1.79,1.15-1.79,2.25Z"/>
      <path d="M1511.63,660.52l.77,2.95c.17.65.32,1.25.43,1.85h.04c.13-.59.32-1.21.52-1.83l.95-2.96h.89l.9,2.9c.22.7.38,1.31.52,1.89h.04c.1-.59.25-1.2.44-1.88l.83-2.91h1.04l-1.87,5.8h-.96l-.89-2.77c-.2-.65-.37-1.22-.52-1.91h-.02c-.14.7-.32,1.3-.53,1.92l-.94,2.76h-.96l-1.75-5.8h1.08Z"/>
      <path d="M1520.04,662.09c0-.6-.01-1.09-.05-1.57h.94l.06.96h.02c.29-.55.96-1.09,1.92-1.09.8,0,2.05.48,2.05,2.47v3.47h-1.06v-3.35c0-.94-.35-1.72-1.34-1.72-.7,0-1.24.49-1.42,1.08-.05.13-.07.31-.07.49v3.49h-1.06v-4.23Z"/>
      <path d="M1482.01,672.21h1.05v8.52h-1.05v-8.52Z"/>
      <path d="M1490.09,677.78c0,2.15-1.49,3.08-2.89,3.08-1.57,0-2.78-1.15-2.78-2.99,0-1.94,1.27-3.08,2.88-3.08s2.79,1.21,2.79,2.99ZM1485.48,677.84c0,1.27.73,2.23,1.76,2.23s1.76-.95,1.76-2.25c0-.98-.49-2.23-1.74-2.23s-1.79,1.15-1.79,2.25Z"/>
      <path d="M1495.56,680.51c-.28.14-.89.33-1.67.33-1.75,0-2.89-1.19-2.89-2.96s1.22-3.08,3.12-3.08c.62,0,1.17.16,1.46.3l-.24.82c-.25-.14-.65-.28-1.22-.28-1.33,0-2.05.98-2.05,2.2,0,1.34.86,2.17,2.01,2.17.6,0,1-.16,1.29-.29l.18.79Z"/>
      <path d="M1500.01,680.73l-.08-.73h-.04c-.32.46-.95.86-1.78.86-1.17,0-1.77-.83-1.77-1.67,0-1.4,1.25-2.17,3.49-2.16v-.12c0-.48-.13-1.34-1.32-1.34-.54,0-1.1.17-1.51.43l-.24-.7c.48-.31,1.17-.52,1.91-.52,1.78,0,2.21,1.21,2.21,2.38v2.17c0,.5.02,1,.1,1.39h-.96ZM1499.86,677.76c-1.15-.02-2.46.18-2.46,1.31,0,.68.46,1.01,1,1.01.76,0,1.24-.48,1.4-.97.04-.11.06-.23.06-.34v-1.01Z"/>
      <path d="M1503.86,673.25v1.67h1.51v.8h-1.51v3.13c0,.72.2,1.13.79,1.13.28,0,.48-.04.61-.07l.05.79c-.2.08-.53.14-.94.14-.49,0-.89-.16-1.14-.44-.3-.31-.41-.83-.41-1.51v-3.17h-.9v-.8h.9v-1.39l1.03-.28Z"/>
      <path d="M1507.73,673.29c.01.36-.25.65-.67.65-.37,0-.64-.29-.64-.65s.28-.66.66-.66.65.29.65.66ZM1506.56,680.73v-5.81h1.06v5.81h-1.06Z"/>
      <path d="M1514.62,677.78c0,2.15-1.49,3.08-2.89,3.08-1.57,0-2.78-1.15-2.78-2.99,0-1.94,1.27-3.08,2.88-3.08s2.79,1.21,2.79,2.99ZM1510.01,677.84c0,1.27.73,2.23,1.76,2.23s1.76-.95,1.76-2.25c0-.98-.49-2.23-1.74-2.23s-1.79,1.15-1.79,2.25Z"/>
      <path d="M1515.95,676.49c0-.6-.01-1.09-.05-1.57h.94l.06.96h.02c.29-.55.96-1.09,1.92-1.09.8,0,2.05.48,2.05,2.47v3.47h-1.06v-3.35c0-.94-.35-1.71-1.34-1.71-.7,0-1.24.49-1.42,1.08-.05.13-.07.31-.07.49v3.49h-1.06v-4.23Z"/>
      <path class="cls-19" d="M1476.22,695.13v-8.08h1.14l2.59,4.09c.6.95,1.07,1.8,1.45,2.63h.02c-.1-1.09-.12-2.08-.12-3.33v-3.38h.98v8.08h-1.06l-2.57-4.1c-.56-.9-1.1-1.82-1.51-2.7h-.04c.06,1.03.08,2,.08,3.35v3.45h-.98Z"/>
      <path class="cls-19" d="M1491.02,691c0,2.78-1.69,4.26-3.75,4.26s-3.63-1.66-3.63-4.1c0-2.57,1.59-4.25,3.75-4.25s3.63,1.69,3.63,4.09ZM1484.75,691.13c0,1.73.94,3.27,2.58,3.27s2.59-1.52,2.59-3.36c0-1.61-.84-3.29-2.58-3.29s-2.59,1.59-2.59,3.37Z"/>
      <path class="cls-19" d="M1493.92,687.93h-2.46v-.89h5.98v.89h-2.47v7.2h-1.05v-7.2Z"/>
      <path class="cls-19" d="M1501.94,687.04v4.79c0,1.81.8,2.58,1.88,2.58,1.2,0,1.97-.79,1.97-2.58v-4.79h1.06v4.71c0,2.48-1.31,3.5-3.06,3.5-1.65,0-2.9-.95-2.9-3.45v-4.76h1.06Z"/>
      <path class="cls-19" d="M1508.51,693.85c.47.29,1.15.53,1.87.53,1.07,0,1.69-.56,1.69-1.38,0-.75-.43-1.19-1.52-1.61-1.32-.47-2.13-1.15-2.13-2.29,0-1.26,1.04-2.19,2.61-2.19.83,0,1.43.19,1.79.4l-.29.85c-.26-.14-.8-.38-1.54-.38-1.1,0-1.52.66-1.52,1.21,0,.76.49,1.13,1.61,1.56,1.37.53,2.06,1.19,2.06,2.37,0,1.25-.92,2.33-2.83,2.33-.78,0-1.63-.23-2.06-.52l.26-.88Z"/>
      <path class="cls-19" d="M1518.76,691.34h-3.14v2.92h3.5v.88h-4.54v-8.08h4.37v.88h-3.32v2.55h3.14v.86Z"/>
      <path class="cls-19" d="M1520.48,687.15c.64-.1,1.39-.17,2.22-.17,1.5,0,2.57.35,3.27,1.01.72.66,1.14,1.59,1.14,2.9s-.41,2.4-1.16,3.14c-.76.75-2,1.16-3.57,1.16-.74,0-1.37-.04-1.9-.1v-7.95ZM1521.52,694.3c.26.05.65.06,1.06.06,2.23,0,3.44-1.25,3.44-3.43.01-1.91-1.07-3.12-3.27-3.12-.54,0-.95.05-1.22.11v6.38Z"/>
    </g>
  </g>
  <text class="cls-14" transform="translate(497.04 806.33)"><tspan x="0" y="0">Unknown</tspan></text>
  <text class="cls-14" transform="translate(615.88 806.33)"><tspan x="0" y="0">Rating star – good</tspan></text>
  <text class="cls-14" transform="translate(759.52 806.33)"><tspan x="0" y="0">Rating star – bad</tspan></text>
  <text class="cls-14" transform="translate(930.85 806.33)"><tspan x="0" y="0">Flag</tspan></text>
  <polygon class="cls-13" points="661.43 753.9 657.32 756.81 658.82 752 654.78 748.99 659.82 748.93 661.43 744.15 663.05 748.93 668.09 748.99 664.05 752 665.55 756.81 661.43 753.9"/>
  <polygon class="cls-9" points="801.43 753.9 797.32 756.81 798.82 752 794.78 748.99 799.82 748.93 801.43 744.15 803.05 748.93 808.09 748.99 804.05 752 805.55 756.81 801.43 753.9"/>
  <g>
    <rect class="cls-1" x="901.43" y="716" width="80" height="80"/>
    <g>
      <g>
        <path class="cls-2" d="M961.43,742h-9c-2.75,0-7.05-.93-9.55-2.07l-1.9-.86c-2.5-1.14-6.8-2.07-9.55-2.07h-10"/>
        <path class="cls-2" d="M931.43,759h2.5c1.38,0,4.55.93,7.05,2.07l1.9.86c2.5,1.14,6.8,2.07,9.55,2.07h9"/>
      </g>
      <line class="cls-2" x1="921.43" y1="737.15" x2="921.43" y2="777.15"/>
      <line class="cls-2" x1="961.43" y1="742" x2="961.43" y2="764"/>
    </g>
  </g>
  <text class="cls-14" transform="translate(1033.4456 806.3262)"><tspan x="0" y="0">Status – affirmative</tspan></text>
  <text class="cls-14" transform="translate(1182.4875 806.3262)"><tspan x="0" y="0">Status – neutral</tspan></text>
  <text class="cls-14" transform="translate(1318.5216 806.3262)"><tspan x="0" y="0">Status – negative</tspan></text>
  <g>
    <g>
      <path class="cls-2" d="M1100.12,767.61c2.1-3.37,3.32-7.35,3.32-11.61,0-12.15-9.85-22-22-22s-22,9.85-22,22,9.85,22,22,22c4.26,0,8.24-1.22,11.61-3.32"/>
      <polyline class="cls-2" points="1072.43 756 1078.43 762 1090.43 750"/>
    </g>
    <rect class="cls-1" x="1041.43" y="716" width="80" height="80"/>
  </g>
  <g>
    <g>
      <path class="cls-2" d="M1240.12,767.61c2.1-3.37,3.32-7.35,3.32-11.61,0-12.15-9.85-22-22-22s-22,9.85-22,22,9.85,22,22,22c4.26,0,8.24-1.22,11.61-3.32"/>
      <line class="cls-2" x1="1212.43" y1="756" x2="1230.43" y2="756"/>
    </g>
    <rect class="cls-1" x="1181.43" y="716" width="80" height="80"/>
  </g>
  <g>
    <g>
      <path class="cls-2" d="M1380.12,767.61c2.1-3.37,3.32-7.35,3.32-11.61,0-12.15-9.85-22-22-22s-22,9.85-22,22,9.85,22,22,22c4.26,0,8.24-1.22,11.61-3.32"/>
      <g>
        <line class="cls-2" x1="1354.43" y1="749" x2="1368.43" y2="763"/>
        <line class="cls-2" x1="1368.43" y1="749" x2="1354.43" y2="763"/>
      </g>
    </g>
    <rect class="cls-1" x="1321.43" y="716" width="80" height="80"/>
  </g>
  <text class="cls-14" transform="translate(1491.545 806.3262)"><tspan x="0" y="0">Tick</tspan></text>
  <g>
    <polyline class="cls-2" points="1484.43 757.06 1495.06 767.69 1518.43 744.31"/>
    <rect class="cls-1" x="1461.43" y="716" width="80" height="80"/>
  </g>
  <g>
    <g>
      <circle class="cls-2" cx="1361.43" cy="616" r="9"/>
      <path class="cls-2" d="M1339.43,605v-6c0-2.76,2.24-5,5-5h6"/>
      <path class="cls-2" d="M1350.43,638h-6c-2.76,0-5-2.24-5-5v-6"/>
      <path class="cls-2" d="M1383.43,627v6c0,2.76-2.24,5-5,5h-6"/>
      <path class="cls-2" d="M1372.43,594h6c2.76,0,5,2.24,5,5v6"/>
    </g>
    <rect class="cls-1" x="1321.43" y="576" width="80" height="80"/>
  </g>
</svg>