<?xml version="1.0" encoding="UTF-8"?>
<svg id="Tools" xmlns="http://www.w3.org/2000/svg" viewBox="0 0 1601.98 1320.17">
  <defs>
    <style>
      .cls-1, .cls-2, .cls-3, .cls-4, .cls-5, .cls-6 {
        fill: none;
      }

      .cls-2 {
        stroke-width: 5.07px;
      }

      .cls-2, .cls-3, .cls-4, .cls-7, .cls-5, .cls-8 {
        stroke-linejoin: round;
      }

      .cls-2, .cls-3, .cls-4, .cls-7, .cls-5, .cls-8, .cls-6 {
        stroke: #000;
      }

      .cls-2, .cls-3, .cls-4, .cls-7, .cls-8 {
        stroke-linecap: round;
      }

      .cls-3 {
        stroke-width: 4.9px;
      }

      .cls-4, .cls-7, .cls-5, .cls-6 {
        stroke-width: 5px;
      }

      .cls-9 {
        font-family: BTVision-Bold, 'FXCWX H+ BT Vision';
        font-size: 20px;
      }

      .cls-9, .cls-8 {
        font-weight: 700;
      }

      .cls-10 {
        font-size: 12px;
      }

      .cls-10, .cls-11 {
        font-family: NewBT-Regular, 'FXCWX H+ New BT';
      }

      .cls-7, .cls-12 {
        fill: #fff;
      }

      .cls-13 {
        font-size: 14px;
      }

      .cls-14 {
        font-size: 24px;
      }

      .cls-8 {
        font-family: NewBT-Bold, 'FXCWX H+ New BT';
        font-size: 21px;
      }

      .cls-15 {
        fill: red;
      }
    </style>
  </defs>
  <rect class="cls-12" x="411.43" width="1190.55" height="1320.17"/>
  <g>
    <rect class="cls-1" x="1041.43" y="156" width="80" height="80"/>
    <g>
      <circle class="cls-4" cx="1080.43" cy="217" r="1"/>
      <path class="cls-4" d="M1080.43,207v-5c0-4,3.87-5,8.62-9.22s4.27-11.26,0-15.56c-4.27-4.3-11.19-4.3-15.46,0-2.39,2.4-3.44,5.64-3.15,8.78"/>
    </g>
  </g>
  <g>
    <g>
      <g>
        <path class="cls-4" d="M1367.43,201c0,3.31-2.69,6-6,6s-6-2.69-6-6v-12c0-3.31,2.69-6,6-6s6,2.69,6,6v12Z"/>
        <line class="cls-4" x1="1361.43" y1="207" x2="1361.43" y2="221"/>
        <line class="cls-4" x1="1368.43" y1="221" x2="1354.43" y2="221"/>
      </g>
      <path class="cls-4" d="M1343.43,196c0-3.87-.9-7-2-7s-2,3.13-2,7,.9,7,2,7h2v-14c0-9.94,8.06-18,18-18s18,8.06,18,18v14h2c1.1,0,2-3.13,2-7s-.9-7-2-7-2,3.13-2,7"/>
    </g>
    <rect class="cls-1" x="1321.43" y="156" width="80" height="80"/>
  </g>
  <g>
    <rect class="cls-1" x="1321.43" y="996" width="80" height="80"/>
    <g>
      <g>
        <circle class="cls-4" cx="1361.43" cy="1039" r="2"/>
        <line class="cls-4" x1="1361.43" y1="1039" x2="1361.43" y2="1047"/>
      </g>
      <path class="cls-4" d="M1377.43,1047v-11c0-2.76-2.24-5-5-5h-1v-6c0-5.52-4.48-10-10-10s-10,4.48-10,10v6h-1c-2.76,0-5,2.24-5,5v16c0,2.76,2.24,5,5,5h22"/>
    </g>
  </g>
  <g>
    <rect class="cls-1" x="621.43" y="156" width="80" height="80"/>
    <g>
      <g>
        <path class="cls-4" d="M680.43,215.5h-38c-2.76,0-5-2.24-5-5v-24c0-2.76,2.24-5,5-5h38c2.76,0,5,2.24,5,5v19"/>
        <text class="cls-9" transform="translate(651.17 205.5)"><tspan x="0" y="0">17</tspan></text>
      </g>
      <g>
        <line class="cls-4" x1="641.43" y1="181.5" x2="641.43" y2="176.5"/>
        <line class="cls-4" x1="651.43" y1="181.5" x2="651.43" y2="176.5"/>
        <line class="cls-4" x1="661.43" y1="181.5" x2="661.43" y2="176.5"/>
        <line class="cls-4" x1="671.43" y1="181.5" x2="671.43" y2="176.5"/>
        <line class="cls-4" x1="681.43" y1="181.5" x2="681.43" y2="176.5"/>
      </g>
    </g>
  </g>
  <g>
    <path class="cls-4" d="M802.43,209c-6.63,0-12-5.37-12-12s5.37-12,12-12h12c6.63,0,12,5.37,12,12s-5.37,12-12,12h-2c0,6.63-5.37,12-12,12"/>
    <path class="cls-4" d="M812.25,185c.11-.65.18-1.32.18-2,0-6.63-5.37-12-12-12h-12c-6.63,0-12,5.37-12,12s5.37,12,12,12h2.18"/>
  </g>
  <path class="cls-4" d="M170.43,466c-6.63,0-12-5.37-12-12s5.37-12,12-12h12c6.63,0,12,5.37,12,12s-5.37,12-12,12h-2c0,6.63-5.37,12-12,12"/>
  <g>
    <path class="cls-4" d="M1516.43,213.15v-17.7c0-2.75-.83-7.08-1.96-9.6-1.13-2.52-2.04-5.3-2.04-8.3s-2.24-5-5-5-5,2-5,5,.08,5.75,1.08,8.28c1.01,2.53.11,4.62-2.09,4.62h-5c-6,0-10,4-10,11v5.7c0,8.25,6.75,13.65,15,12l5-1"/>
    <rect class="cls-1" x="1461.43" y="156" width="80" height="80"/>
  </g>
  <g>
    <g>
      <path class="cls-4" d="M658.97,360.02l17.02-17.02v-13.38c0-2.76-2.24-5-5-5h-13.38l-17.02,17.02c-1.95,1.95-1.95,5.12,0,7.07l7.78,7.78"/>
      <path class="cls-4" d="M665.7,324.62c2.18-10.25,6.93-12.64,6.93-12.64"/>
      <path class="cls-4" d="M666.04,334.56c.78.78.78,2.05,0,2.83-.78.78-2.05.78-2.83,0-.78-.78-.78-2.05,0-2.83.78-.78,2.05-.78,2.83,0Z"/>
      <path class="cls-4" d="M666.04,334.56c.78.78.78,2.05,0,2.83s-2.05.78-2.83,0c-.78-.78-.78-2.05,0-2.83.78-.78,2.05-.78,2.83,0Z"/>
      <path class="cls-4" d="M664.63,335.98c18.48-7.65,19.11-16.58,19.11-16.58"/>
    </g>
    <rect class="cls-1" x="621.43" y="296" width="80" height="80"/>
  </g>
  <g>
    <g>
      <line class="cls-4" x1="498.43" y1="183" x2="536.43" y2="183"/>
      <path class="cls-4" d="M528.43,223c5.52,0,10-4.48,10-10,5.52,0,10-4.48,10-10s-4.48-10-10-10h-10c-5.52,0-10,4.48-10,10s4.48,10,10,10"/>
      <path class="cls-4" d="M536.43,193v-20h-38v27c0,2.76,2.24,5,5,5h15.2"/>
    </g>
    <rect class="cls-1" x="481.43" y="156" width="80" height="80"/>
  </g>
  <g>
    <g>
      <line class="cls-4" x1="1057.43" y1="1026" x2="1105.43" y2="1026"/>
      <line class="cls-4" x1="1089.43" y1="1026" x2="1089.43" y2="1056"/>
      <line class="cls-4" x1="1073.43" y1="1026" x2="1073.43" y2="1056"/>
      <path class="cls-4" d="M1062.43,1056h38c2.76,0,5-2.24,5-5v-35h-48v30"/>
      <line class="cls-2" x1="1073.43" y1="1036" x2="1105.43" y2="1036"/>
      <line class="cls-2" x1="1073.43" y1="1046" x2="1105.43" y2="1046"/>
    </g>
    <rect class="cls-1" x="1041.43" y="996" width="80" height="80"/>
  </g>
  <text class="cls-11" transform="translate(441.43 74.77)"><tspan class="cls-14"><tspan x="0" y="0">Tools</tspan></tspan><tspan class="cls-13"><tspan x="0" y="16.8">Represents something that helps you in anyway or provides information</tspan></tspan></text>
  <g>
    <g>
      <circle class="cls-4" cx="1081.43" cy="338.5" r="6"/>
      <path class="cls-4" d="M1101.43,353.5h-40c-2.76,0-5-2.24-5-5v-20c0-2.76,2.24-5,5-5h12c0-2.76,2.24-5,5-5h6c2.76,0,5,2.24,5,5h12c2.76,0,5,2.24,5,5v15"/>
    </g>
    <rect class="cls-1" x="1041.43" y="296" width="80" height="80"/>
  </g>
  <g>
    <polyline class="cls-4" points="1228.43 338 1219.43 338 1219.43 326"/>
    <path class="cls-4" d="M1240.12,347.61c2.1-3.37,3.32-7.35,3.32-11.61,0-12.15-9.85-22-22-22s-22,9.85-22,22,9.85,22,22,22c4.26,0,8.24-1.22,11.61-3.32"/>
  </g>
  <g>
    <rect class="cls-1" x="1321.43" y="296" width="80" height="80"/>
    <path class="cls-4" d="M1344.43,357v-7.5c0-6.51,4.71-12.04,11.29-14.11-3.17-1.93-5.29-5.41-5.29-9.39,0-6.07,4.92-11,11-11s11,4.93,11,11c0,3.98-2.12,7.46-5.29,9.39,6.57,2.07,11.29,7.6,11.29,14.11v7.5"/>
  </g>
  <g>
    <rect class="cls-1" x="481.43" y="436" width="80" height="80"/>
    <g>
      <path class="cls-4" d="M535.43,453v16c0,5,5,5,5,10v15c0,2.76-2.24,5-5,5s-5-2.24-5-5v-13"/>
      <g>
        <path class="cls-4" d="M504.48,499c-2.73-2.73-2.73-7.17,0-9.9s7.17-2.73,9.9,0c2.73,2.73,2.73,7.17,0,9.9"/>
        <path class="cls-4" d="M504.48,453c-2.73,2.73-2.73,7.17,0,9.9,2.73,2.73,7.17,2.73,9.9,0s2.73-7.17,0-9.9"/>
        <line class="cls-6" x1="509.43" y1="464.95" x2="509.43" y2="487.05"/>
      </g>
    </g>
  </g>
  <g>
    <rect class="cls-1" x="621.43" y="436" width="80" height="80"/>
    <g>
      <g>
        <circle class="cls-4" cx="652.43" cy="466" r="1"/>
        <circle class="cls-4" cx="652.43" cy="476" r="1"/>
        <circle class="cls-4" cx="652.43" cy="486" r="1"/>
      </g>
      <path class="cls-4" d="M675.43,496h-28c-2.76,0-5-2.24-5-5v-30c0-2.76,2.24-5,5-5h28c2.76,0,5,2.24,5,5v25"/>
      <g>
        <line class="cls-4" x1="662.43" y1="466" x2="670.43" y2="466"/>
        <line class="cls-4" x1="662.43" y1="476" x2="670.43" y2="476"/>
        <line class="cls-4" x1="662.43" y1="486" x2="670.43" y2="486"/>
      </g>
    </g>
  </g>
  <g>
    <rect class="cls-1" x="761.43" y="436" width="80" height="80"/>
    <g>
      <line class="cls-4" x1="776.43" y1="462" x2="800.43" y2="462"/>
      <circle class="cls-4" cx="800.43" cy="462" r="2"/>
      <circle class="cls-4" cx="812.43" cy="476" r="2"/>
      <polyline class="cls-4" points="812.43 476 788.43 476 788.43 462"/>
      <circle class="cls-4" cx="824.43" cy="490" r="2"/>
      <polyline class="cls-4" points="824.43 490 800.43 490 800.43 476"/>
    </g>
  </g>
  <g>
    <g>
      <path class="cls-4" d="M954.43,496h-26c-2.76,0-5-2.24-5-5v-30c0-2.76,2.24-5,5-5h26c2.76,0,5,2.24,5,5v25"/>
      <line class="cls-4" x1="935.43" y1="482" x2="947.43" y2="482"/>
      <line class="cls-4" x1="935.43" y1="470" x2="947.43" y2="470"/>
    </g>
    <rect class="cls-1" x="901.43" y="436" width="80" height="80"/>
  </g>
  <g>
    <g>
      <g>
        <path class="cls-4" d="M1093.48,499c-2.73-2.73-2.73-7.17,0-9.9s7.17-2.73,9.9,0c2.73,2.73,2.73,7.17,0,9.9"/>
        <path class="cls-4" d="M1093.48,453c-2.73,2.73-2.73,7.17,0,9.9,2.73,2.73,7.17,2.73,9.9,0s2.73-7.17,0-9.9"/>
        <line class="cls-4" x1="1098.43" y1="464.95" x2="1098.43" y2="487.05"/>
      </g>
      <path class="cls-4" d="M1069.43,501c-7,0-12-9-12-25s5-25,12-25h3c2.76,0,5,2.24,5,5v5c0,2.76-2.24,5-5,5-3,0-5,2-5,10s2,10,5,10c2.76,0,5,2.24,5,5v5"/>
    </g>
    <rect class="cls-1" x="1041.43" y="436" width="80" height="80"/>
  </g>
  <g>
    <rect class="cls-1" x="1181.43" y="436" width="80" height="80"/>
    <g>
      <path class="cls-4" d="M1235.43,498.5h-28c-2.76,0-5-2.24-5-5v-30c0-2.76,2.24-5,5-5h5c0-2.76,2.24-5,5-5h8c2.76,0,5,2.24,5,5h5c2.76,0,5,2.24,5,5v25"/>
      <g>
        <circle class="cls-4" cx="1212.43" cy="476.5" r="1"/>
        <circle class="cls-4" cx="1212.43" cy="486.5" r="1"/>
        <line class="cls-4" x1="1222.43" y1="476.5" x2="1230.43" y2="476.5"/>
        <line class="cls-4" x1="1222.43" y1="486.5" x2="1230.43" y2="486.5"/>
      </g>
      <polyline class="cls-4" points="1212.43 458.5 1212.43 463.5 1230.43 463.5 1230.43 458.5"/>
    </g>
  </g>
  <g>
    <rect class="cls-1" x="1321.43" y="436" width="80" height="80"/>
    <g>
      <polyline class="cls-4" points="1365.2 474 1365.2 482 1371.2 482"/>
      <path class="cls-4" d="M1381.22,488.95c1.26-2.37,1.98-5.08,1.98-7.95,0-9.39-7.61-17-17-17s-17,7.61-17,17,7.61,17,17,17c2.87,0,5.58-.72,7.95-1.98"/>
      <path class="cls-4" d="M1366.2,454c-13.2,0-24.18,9.48-26.53,22v-10"/>
    </g>
  </g>
  <g>
    <line class="cls-4" x1="521.43" y1="625" x2="521.43" y2="639"/>
    <line class="cls-4" x1="530.43" y1="639" x2="512.43" y2="639"/>
    <path class="cls-4" d="M529.43,617c0,4.42-3.58,8-8,8s-8-3.58-8-8v-16c0-4.42,3.58-8,8-8s8,3.58,8,8v16Z"/>
  </g>
  <g>
    <line class="cls-4" x1="152.19" y1="505.73" x2="152.19" y2="519.73"/>
    <line class="cls-4" x1="161.19" y1="519.73" x2="143.19" y2="519.73"/>
    <path class="cls-4" d="M160.19,497.73c0,4.42-3.58,8-8,8s-8-3.58-8-8v-16c0-4.42,3.58-8,8-8s8,3.58,8,8v16Z"/>
  </g>
  <g>
    <line class="cls-4" x1="35.1" y1="505.73" x2="35.1" y2="519.73"/>
    <line class="cls-4" x1="44.1" y1="519.73" x2="26.1" y2="519.73"/>
    <path class="cls-4" d="M43.1,497.73c0,4.42-3.58,8-8,8s-8-3.58-8-8v-16c0-4.42,3.58-8,8-8s8,3.58,8,8v16Z"/>
  </g>
  <g>
    <g>
      <g>
        <path class="cls-4" d="M783.43,621c0,9.94,8.06,18,18,18"/>
        <path class="cls-4" d="M783.43,616c0-3.87-.9-7-2-7s-2,3.13-2,7,.9,7,2,7h2v-14c0-9.94,8.06-18,18-18s18,8.06,18,18v14h2c1.1,0,2-3.13,2-7s-.9-7-2-7-2,3.13-2,7"/>
        <circle class="cls-4" cx="801.43" cy="639" r="2"/>
      </g>
      <path class="cls-4" d="M794.43,623s3,3,7,3,7-3,7-3"/>
      <circle class="cls-4" cx="794.43" cy="609" r="1"/>
      <circle class="cls-4" cx="808.43" cy="609" r="1"/>
    </g>
    <rect class="cls-1" x="761.43" y="576" width="80" height="80"/>
  </g>
  <g>
    <g>
      <circle class="cls-4" cx="941.93" cy="597" r="6"/>
      <path class="cls-4" d="M943.93,641c-2.76,0-5-2.24-5-5v-14c-2.76,0-5-2.24-5-5s2.24-5,5-5h5c2.76,0,5,2.24,5,5v16"/>
    </g>
    <rect class="cls-1" x="901.43" y="576" width="80" height="80"/>
  </g>
  <g>
    <g>
      <g>
        <circle class="cls-4" cx="1066.43" cy="606" r="1"/>
        <circle class="cls-4" cx="1066.43" cy="616" r="1"/>
        <circle class="cls-4" cx="1066.43" cy="626" r="1"/>
      </g>
      <path class="cls-4" d="M1101.43,636h-40c-2.76,0-5-2.24-5-5v-30c0-2.76,2.24-5,5-5h40c2.76,0,5,2.24,5,5v26"/>
      <g>
        <line class="cls-4" x1="1091.43" y1="606" x2="1096.43" y2="606"/>
        <line class="cls-4" x1="1091.43" y1="616" x2="1096.43" y2="616"/>
        <line class="cls-4" x1="1091.43" y1="626" x2="1096.43" y2="626"/>
      </g>
      <g>
        <line class="cls-4" x1="1076.43" y1="606" x2="1081.43" y2="606"/>
        <line class="cls-4" x1="1076.43" y1="616" x2="1081.43" y2="616"/>
        <line class="cls-4" x1="1076.43" y1="626" x2="1081.43" y2="626"/>
      </g>
    </g>
    <rect class="cls-1" x="1041.43" y="576" width="80" height="80"/>
  </g>
  <g>
    <g>
      <path class="cls-4" d="M1240.43,636h-38c-2.76,0-5-2.24-5-5v-30c0-2.76,2.24-5,5-5h38c2.76,0,5,2.24,5,5v26"/>
      <line class="cls-4" x1="1207.43" y1="606" x2="1215.43" y2="606"/>
      <line class="cls-4" x1="1207.43" y1="616" x2="1235.43" y2="616"/>
      <line class="cls-4" x1="1207.43" y1="626" x2="1235.43" y2="626"/>
    </g>
    <rect class="cls-1" x="1181.43" y="576" width="80" height="80"/>
  </g>
  <text class="cls-10" transform="translate(1050.1134 1086.3262)"><tspan x="0" y="0">Spreadsheet</tspan></text>
  <text class="cls-10" transform="translate(1195.9214 1086.3262)"><tspan x="0" y="0">Nightlight</tspan></text>
  <text class="cls-10" transform="translate(647.54 386.33)"><tspan x="0" y="0">Tag it</tspan></text>
  <text class="cls-10" transform="translate(496.48 386.33)"><tspan x="0" y="0">Lock (key)</tspan><tspan class="cls-15"><tspan x="-46.29" y="14.4">Appears in spreadsheet, but </tspan></tspan><tspan class="cls-15"><tspan x="-49.66" y="28.8">should not appear on website</tspan></tspan></text>
  <text class="cls-10" transform="translate(779.4 386.33)"><tspan x="0" y="0">Contacts</tspan></text>
  <text class="cls-10" transform="translate(910.74 386.33)"><tspan x="0" y="0">PC back-ups</tspan></text>
  <text class="cls-10" transform="translate(1042.6674 386.3257)"><tspan x="0" y="0">Camera/Photos</tspan></text>
  <text class="cls-10" transform="translate(1207.7411 386.3257)"><tspan x="0" y="0">Clock</tspan></text>
  <text class="cls-10" transform="translate(1336.4853 386.3257)"><tspan x="0" y="0">My Profile</tspan></text>
  <text class="cls-10" transform="translate(1069.6851 246.3257)"><tspan x="0" y="0">Help</tspan></text>
  <text class="cls-10" transform="translate(1209.6851 246.3257)"><tspan x="0" y="0">Help</tspan><tspan class="cls-15"><tspan x="-102.59" y="14.4">2nd option to be used at designer’s discretion</tspan></tspan><tspan class="cls-15"><tspan x="-77.31" y="28.8">Not yet signed off or in spreadsheet</tspan></tspan></text>
  <text class="cls-10" transform="translate(1326.3754 1086.3262)"><tspan x="0" y="0">Lock (generic)</tspan></text>
  <g>
    <path d="M1476.86,1082.78c-.06-1.13-.13-2.48-.12-3.49h-.04c-.28.95-.61,1.96-1.02,3.07l-1.43,3.92h-.79l-1.31-3.85c-.38-1.14-.71-2.18-.94-3.14h-.02c-.02,1.01-.08,2.36-.16,3.57l-.22,3.47h-1l.56-8.08h1.33l1.38,3.91c.33,1,.61,1.88.82,2.72h.04c.2-.82.49-1.7.85-2.72l1.44-3.91h1.33l.5,8.08h-1.02l-.2-3.55Z"/>
    <path d="M1480.25,1083.62c.02,1.43.94,2.02,1.99,2.02.76,0,1.21-.13,1.61-.3l.18.75c-.37.17-1.01.36-1.93.36-1.79,0-2.85-1.18-2.85-2.93s1.03-3.13,2.72-3.13c1.9,0,2.4,1.67,2.4,2.73,0,.22-.02.38-.04.49h-4.08ZM1483.34,1082.86c.01-.67-.28-1.72-1.46-1.72-1.07,0-1.54.98-1.62,1.72h3.08Z"/>
    <path d="M1490.68,1077.81v7.02c0,.52.01,1.1.05,1.5h-.95l-.05-1.01h-.02c-.32.65-1.03,1.14-1.98,1.14-1.4,0-2.48-1.19-2.48-2.95-.01-1.93,1.19-3.12,2.6-3.12.89,0,1.49.42,1.75.89h.02v-3.47h1.06ZM1489.63,1082.88c0-.13-.01-.31-.05-.44-.16-.67-.73-1.22-1.52-1.22-1.09,0-1.74.96-1.74,2.24,0,1.17.58,2.15,1.71,2.15.71,0,1.36-.47,1.55-1.26.04-.14.05-.29.05-.46v-1.01Z"/>
    <path d="M1493.61,1078.89c.01.36-.25.65-.67.65-.37,0-.64-.29-.64-.65s.28-.66.66-.66.65.29.65.66ZM1492.44,1086.33v-5.8h1.06v5.8h-1.06Z"/>
    <path d="M1498.46,1086.33l-.08-.73h-.04c-.32.46-.95.86-1.78.86-1.17,0-1.77-.83-1.77-1.67,0-1.4,1.25-2.17,3.49-2.16v-.12c0-.48-.13-1.34-1.32-1.34-.54,0-1.1.17-1.51.43l-.24-.7c.48-.31,1.18-.52,1.91-.52,1.78,0,2.21,1.21,2.21,2.37v2.17c0,.5.02,1,.1,1.39h-.96ZM1498.3,1083.36c-1.15-.02-2.46.18-2.46,1.31,0,.68.46,1.01,1,1.01.75,0,1.24-.48,1.4-.97.04-.11.06-.23.06-.34v-1.01Z"/>
    <path d="M1503.57,1082.42c0-.74-.02-1.34-.05-1.89h.95l.05,1h.02c.43-.71,1.12-1.13,2.06-1.13,1.4,0,2.46,1.19,2.46,2.95,0,2.09-1.27,3.12-2.64,3.12-.77,0-1.44-.34-1.79-.91h-.02v3.15h-1.04v-6.29ZM1504.62,1083.96c0,.16.02.3.05.43.19.73.83,1.24,1.58,1.24,1.12,0,1.76-.91,1.76-2.24,0-1.16-.61-2.16-1.73-2.16-.72,0-1.39.52-1.59,1.31-.04.13-.07.29-.07.43v1Z"/>
    <path d="M1510.4,1077.81h1.05v8.52h-1.05v-8.52Z"/>
    <path d="M1516.45,1086.33l-.08-.73h-.04c-.32.46-.95.86-1.78.86-1.17,0-1.77-.83-1.77-1.67,0-1.4,1.25-2.17,3.49-2.16v-.12c0-.48-.13-1.34-1.32-1.34-.54,0-1.1.17-1.51.43l-.24-.7c.48-.31,1.17-.52,1.91-.52,1.78,0,2.21,1.21,2.21,2.37v2.17c0,.5.02,1,.1,1.39h-.96ZM1516.29,1083.36c-1.15-.02-2.46.18-2.46,1.31,0,.68.46,1.01,1,1.01.76,0,1.24-.48,1.4-.97.04-.11.06-.23.06-.34v-1.01Z"/>
    <path d="M1519.4,1080.52l1.27,3.43c.13.38.28.84.37,1.19h.02c.11-.35.23-.79.37-1.21l1.15-3.41h1.12l-1.58,4.14c-.76,1.99-1.27,3.01-1.99,3.63-.52.46-1.03.64-1.29.68l-.26-.89c.26-.08.61-.25.92-.52.29-.23.65-.64.89-1.17.05-.11.08-.19.08-.25s-.02-.14-.07-.28l-2.15-5.35h1.15Z"/>
    <path d="M1525.26,1083.62c.02,1.43.93,2.02,1.99,2.02.76,0,1.21-.13,1.61-.3l.18.75c-.37.17-1.01.36-1.93.36-1.79,0-2.85-1.18-2.85-2.93s1.03-3.13,2.72-3.13c1.89,0,2.4,1.67,2.4,2.73,0,.22-.02.38-.04.49h-4.08ZM1528.35,1082.86c.01-.67-.28-1.72-1.46-1.72-1.07,0-1.54.98-1.62,1.72h3.08Z"/>
    <path d="M1530.68,1082.33c0-.68-.01-1.27-.05-1.81h.92l.04,1.14h.05c.26-.78.9-1.27,1.61-1.27.12,0,.2.01.3.04v1c-.11-.02-.22-.04-.36-.04-.74,0-1.27.56-1.42,1.36-.02.14-.05.31-.05.49v3.09h-1.04v-3.99Z"/>
    <path class="cls-15" d="M1456.56,1100.73v-8.08h1.14l2.59,4.09c.6.95,1.07,1.8,1.45,2.63h.02c-.1-1.09-.12-2.08-.12-3.33v-3.38h.98v8.08h-1.06l-2.57-4.1c-.56-.9-1.1-1.82-1.51-2.7h-.04c.06,1.03.08,2,.08,3.35v3.45h-.98Z"/>
    <path class="cls-15" d="M1469.67,1097.78c0,2.15-1.49,3.08-2.89,3.08-1.57,0-2.78-1.15-2.78-2.99,0-1.94,1.27-3.08,2.88-3.08s2.79,1.21,2.79,2.99ZM1465.07,1097.84c0,1.27.73,2.23,1.76,2.23s1.76-.95,1.76-2.25c0-.98-.49-2.23-1.74-2.23s-1.79,1.15-1.79,2.25Z"/>
    <path class="cls-15" d="M1472.28,1093.25v1.67h1.51v.8h-1.51v3.13c0,.72.2,1.13.79,1.13.28,0,.48-.04.61-.07l.05.79c-.2.08-.53.14-.94.14-.49,0-.89-.16-1.14-.44-.3-.31-.41-.83-.41-1.51v-3.17h-.9v-.8h.9v-1.39l1.03-.28Z"/>
    <path class="cls-15" d="M1477.91,1094.92l1.27,3.43c.13.38.28.84.37,1.19h.02c.11-.35.23-.79.37-1.21l1.15-3.41h1.12l-1.58,4.14c-.76,1.99-1.27,3.01-1.99,3.63-.52.46-1.03.64-1.29.68l-.26-.89c.26-.08.61-.25.92-.52.29-.23.65-.64.89-1.18.05-.11.08-.19.08-.25s-.02-.14-.07-.28l-2.15-5.35h1.15Z"/>
    <path class="cls-15" d="M1483.76,1098.02c.02,1.43.93,2.01,1.99,2.01.76,0,1.21-.13,1.61-.3l.18.76c-.37.17-1.01.36-1.93.36-1.79,0-2.85-1.17-2.85-2.93s1.03-3.13,2.72-3.13c1.89,0,2.4,1.67,2.4,2.74,0,.22-.02.38-.04.49h-4.08ZM1486.86,1097.26c.01-.67-.28-1.71-1.46-1.71-1.07,0-1.54.98-1.62,1.71h3.08Z"/>
    <path class="cls-15" d="M1490.46,1093.25v1.67h1.51v.8h-1.51v3.13c0,.72.2,1.13.79,1.13.28,0,.48-.04.61-.07l.05.79c-.2.08-.53.14-.94.14-.49,0-.89-.16-1.14-.44-.3-.31-.41-.83-.41-1.51v-3.17h-.9v-.8h.9v-1.39l1.03-.28Z"/>
    <path class="cls-15" d="M1495.56,1099.65c.31.2.86.42,1.39.42.77,0,1.13-.38,1.13-.86,0-.5-.3-.78-1.08-1.07-1.04-.37-1.54-.95-1.54-1.64,0-.94.76-1.7,2-1.7.59,0,1.1.17,1.43.36l-.26.77c-.23-.14-.65-.34-1.19-.34-.62,0-.97.36-.97.79,0,.48.35.7,1.1.98,1.01.38,1.52.89,1.52,1.75,0,1.02-.79,1.74-2.17,1.74-.64,0-1.22-.16-1.63-.4l.26-.8Z"/>
    <path class="cls-15" d="M1501.63,1093.29c.01.36-.25.65-.67.65-.37,0-.64-.29-.64-.65s.28-.66.66-.66.65.29.65.66ZM1500.45,1100.73v-5.81h1.06v5.81h-1.06Z"/>
    <path class="cls-15" d="M1508.26,1094.92c-.02.42-.05.89-.05,1.6v3.37c0,1.33-.26,2.15-.83,2.65-.56.53-1.38.7-2.11.7s-1.46-.17-1.93-.48l.26-.8c.38.24.98.46,1.7.46,1.08,0,1.87-.56,1.87-2.03v-.65h-.02c-.32.54-.95.97-1.85.97-1.44,0-2.47-1.22-2.47-2.83,0-1.97,1.28-3.08,2.61-3.08,1.01,0,1.56.53,1.81,1.01h.02l.05-.88h.92ZM1507.17,1097.21c0-.18-.01-.34-.06-.48-.19-.61-.71-1.12-1.48-1.12-1.01,0-1.73.85-1.73,2.19,0,1.14.58,2.09,1.71,2.09.65,0,1.24-.41,1.46-1.08.06-.18.08-.38.08-.56v-1.04Z"/>
    <path class="cls-15" d="M1509.97,1096.49c0-.6-.01-1.09-.05-1.57h.94l.06.96h.02c.29-.55.96-1.09,1.92-1.09.8,0,2.05.48,2.05,2.47v3.47h-1.06v-3.35c0-.94-.35-1.71-1.34-1.71-.7,0-1.24.49-1.42,1.08-.05.13-.07.31-.07.49v3.49h-1.06v-4.23Z"/>
    <path class="cls-15" d="M1517.22,1098.02c.02,1.43.94,2.01,1.99,2.01.76,0,1.21-.13,1.61-.3l.18.76c-.37.17-1.01.36-1.93.36-1.79,0-2.85-1.17-2.85-2.93s1.03-3.13,2.72-3.13c1.89,0,2.4,1.67,2.4,2.74,0,.22-.02.38-.04.49h-4.08ZM1520.31,1097.26c.01-.67-.28-1.71-1.46-1.71-1.07,0-1.54.98-1.62,1.71h3.08Z"/>
    <path class="cls-15" d="M1527.66,1092.21v7.02c0,.52.01,1.1.05,1.5h-.95l-.05-1.01h-.02c-.32.65-1.03,1.14-1.98,1.14-1.4,0-2.48-1.19-2.48-2.95-.01-1.93,1.19-3.12,2.6-3.12.89,0,1.49.42,1.75.89h.02v-3.47h1.06ZM1526.6,1097.28c0-.13-.01-.31-.05-.44-.16-.67-.73-1.22-1.52-1.22-1.09,0-1.74.96-1.74,2.24,0,1.18.58,2.15,1.72,2.15.71,0,1.35-.47,1.55-1.26.04-.14.05-.29.05-.46v-1.01Z"/>
    <path class="cls-15" d="M1537.21,1097.78c0,2.15-1.49,3.08-2.89,3.08-1.57,0-2.78-1.15-2.78-2.99,0-1.94,1.27-3.08,2.88-3.08s2.79,1.21,2.79,2.99ZM1532.6,1097.84c0,1.27.73,2.23,1.76,2.23s1.76-.95,1.76-2.25c0-.98-.49-2.23-1.74-2.23s-1.79,1.15-1.79,2.25Z"/>
    <path class="cls-15" d="M1538.65,1100.73v-5h-.82v-.8h.82v-.28c0-.82.18-1.56.67-2.03.4-.38.92-.54,1.42-.54.37,0,.7.08.9.17l-.14.82c-.16-.07-.37-.13-.67-.13-.9,0-1.13.79-1.13,1.68v.31h1.4v.8h-1.4v5h-1.04Z"/>
    <path class="cls-15" d="M1542.15,1100.73v-5h-.82v-.8h.82v-.28c0-.82.18-1.56.67-2.03.4-.38.92-.54,1.42-.54.37,0,.7.08.9.17l-.14.82c-.16-.07-.37-.13-.67-.13-.9,0-1.13.79-1.13,1.68v.31h1.4v.8h-1.4v5h-1.04Z"/>
    <path class="cls-15" d="M1464.29,1112.18c0,2.15-1.49,3.08-2.89,3.08-1.57,0-2.78-1.15-2.78-2.99,0-1.94,1.27-3.08,2.88-3.08s2.79,1.21,2.79,2.99ZM1459.68,1112.24c0,1.27.73,2.23,1.76,2.23s1.76-.95,1.76-2.25c0-.98-.49-2.23-1.74-2.23s-1.79,1.15-1.79,2.25Z"/>
    <path class="cls-15" d="M1465.63,1111.13c0-.68-.01-1.27-.05-1.81h.92l.04,1.14h.05c.26-.78.9-1.27,1.61-1.27.12,0,.2.01.3.04v1c-.11-.02-.22-.04-.36-.04-.74,0-1.27.56-1.42,1.36-.02.14-.05.31-.05.49v3.09h-1.04v-3.99Z"/>
    <path class="cls-15" d="M1473.27,1107.69c.01.36-.25.65-.67.65-.37,0-.64-.29-.64-.65s.28-.66.66-.66.65.29.65.66ZM1472.09,1115.13v-5.8h1.06v5.8h-1.06Z"/>
    <path class="cls-15" d="M1474.9,1110.89c0-.6-.01-1.09-.05-1.57h.94l.06.96h.02c.29-.55.96-1.09,1.92-1.09.8,0,2.05.48,2.05,2.47v3.47h-1.06v-3.35c0-.94-.35-1.71-1.34-1.71-.7,0-1.24.49-1.42,1.08-.05.13-.07.31-.07.49v3.49h-1.06v-4.23Z"/>
    <path class="cls-15" d="M1483.96,1114.05c.31.2.86.42,1.39.42.77,0,1.13-.38,1.13-.86s-.3-.78-1.08-1.07c-1.04-.37-1.54-.95-1.54-1.64,0-.94.76-1.7,2-1.7.59,0,1.1.17,1.43.36l-.26.77c-.23-.14-.65-.33-1.19-.33-.62,0-.97.36-.97.79,0,.48.35.7,1.1.98,1.01.38,1.52.89,1.52,1.75,0,1.02-.79,1.74-2.17,1.74-.64,0-1.22-.16-1.63-.4l.26-.8Z"/>
    <path class="cls-15" d="M1488.86,1111.22c0-.74-.02-1.34-.05-1.9h.95l.05,1h.02c.43-.71,1.12-1.13,2.06-1.13,1.4,0,2.46,1.19,2.46,2.95,0,2.09-1.27,3.12-2.64,3.12-.77,0-1.44-.34-1.79-.91h-.02v3.15h-1.04v-6.28ZM1489.9,1112.76c0,.16.02.3.05.43.19.73.83,1.24,1.58,1.24,1.12,0,1.76-.91,1.76-2.24,0-1.16-.61-2.16-1.73-2.16-.72,0-1.39.52-1.59,1.31-.04.13-.07.29-.07.43v1Z"/>
    <path class="cls-15" d="M1495.68,1111.13c0-.68-.01-1.27-.05-1.81h.92l.04,1.14h.05c.26-.78.9-1.27,1.61-1.27.12,0,.2.01.3.04v1c-.11-.02-.22-.04-.36-.04-.74,0-1.27.56-1.42,1.36-.02.14-.05.31-.05.49v3.09h-1.04v-3.99Z"/>
    <path class="cls-15" d="M1500.2,1112.42c.02,1.43.94,2.01,1.99,2.01.76,0,1.21-.13,1.61-.3l.18.76c-.37.17-1.01.36-1.93.36-1.79,0-2.85-1.18-2.85-2.93s1.03-3.13,2.72-3.13c1.89,0,2.4,1.67,2.4,2.73,0,.22-.02.38-.04.49h-4.08ZM1503.29,1111.66c.01-.67-.28-1.71-1.46-1.71-1.07,0-1.54.98-1.62,1.71h3.08Z"/>
    <path class="cls-15" d="M1508.83,1115.13l-.08-.73h-.04c-.32.46-.95.86-1.77.86-1.18,0-1.78-.83-1.78-1.67,0-1.4,1.25-2.17,3.49-2.16v-.12c0-.48-.13-1.34-1.32-1.34-.54,0-1.1.17-1.51.43l-.24-.7c.48-.31,1.18-.52,1.91-.52,1.77,0,2.21,1.21,2.21,2.38v2.17c0,.5.02,1,.1,1.39h-.96ZM1508.68,1112.16c-1.15-.02-2.46.18-2.46,1.31,0,.68.46,1.01,1,1.01.76,0,1.24-.48,1.4-.97.04-.11.06-.23.06-.34v-1.01Z"/>
    <path class="cls-15" d="M1516.42,1106.61v7.02c0,.52.01,1.1.05,1.5h-.95l-.05-1.01h-.02c-.32.65-1.03,1.14-1.98,1.14-1.4,0-2.48-1.19-2.48-2.95-.01-1.93,1.19-3.12,2.6-3.12.89,0,1.49.42,1.75.89h.02v-3.47h1.06ZM1515.36,1111.68c0-.13-.01-.31-.05-.44-.16-.67-.73-1.22-1.52-1.22-1.09,0-1.74.96-1.74,2.24,0,1.18.58,2.15,1.71,2.15.71,0,1.36-.47,1.55-1.26.04-.14.05-.29.05-.46v-1.01Z"/>
    <path class="cls-15" d="M1518.03,1114.05c.31.2.86.42,1.39.42.77,0,1.13-.38,1.13-.86s-.3-.78-1.08-1.07c-1.04-.37-1.54-.95-1.54-1.64,0-.94.76-1.7,2-1.7.59,0,1.1.17,1.43.36l-.26.77c-.23-.14-.65-.33-1.19-.33-.62,0-.97.36-.97.79,0,.48.35.7,1.1.98,1.01.38,1.52.89,1.52,1.75,0,1.02-.79,1.74-2.17,1.74-.64,0-1.22-.16-1.63-.4l.26-.8Z"/>
    <path class="cls-15" d="M1522.92,1106.61h1.06v3.62h.02c.17-.3.43-.56.76-.74.31-.18.68-.3,1.08-.3.78,0,2.03.48,2.03,2.48v3.45h-1.06v-3.33c0-.94-.35-1.73-1.34-1.73-.68,0-1.22.48-1.42,1.05-.06.14-.07.3-.07.5v3.5h-1.06v-8.51Z"/>
    <path class="cls-15" d="M1530.17,1112.42c.02,1.43.94,2.01,1.99,2.01.76,0,1.21-.13,1.61-.3l.18.76c-.37.17-1.01.36-1.93.36-1.79,0-2.85-1.18-2.85-2.93s1.03-3.13,2.72-3.13c1.89,0,2.4,1.67,2.4,2.73,0,.22-.02.38-.04.49h-4.08ZM1533.27,1111.66c.01-.67-.28-1.71-1.46-1.71-1.07,0-1.54.98-1.62,1.71h3.08Z"/>
    <path class="cls-15" d="M1536.18,1112.42c.02,1.43.94,2.01,1.99,2.01.76,0,1.21-.13,1.61-.3l.18.76c-.37.17-1.01.36-1.93.36-1.79,0-2.85-1.18-2.85-2.93s1.03-3.13,2.72-3.13c1.89,0,2.4,1.67,2.4,2.73,0,.22-.02.38-.04.49h-4.08ZM1539.28,1111.66c.01-.67-.28-1.71-1.46-1.71-1.07,0-1.54.98-1.62,1.71h3.08Z"/>
    <path class="cls-15" d="M1542.88,1107.65v1.67h1.51v.8h-1.51v3.13c0,.72.2,1.13.79,1.13.28,0,.48-.04.61-.07l.05.79c-.2.08-.53.14-.94.14-.49,0-.89-.16-1.14-.44-.3-.31-.41-.83-.41-1.51v-3.17h-.9v-.8h.9v-1.39l1.03-.28Z"/>
  </g>
  <g>
    <path d="M1429.14,1257.24v8.08h-1.04v-8.08h1.04Z"/>
    <path d="M1430.93,1261.09c0-.6-.01-1.09-.05-1.57h.94l.06.96h.02c.29-.55.96-1.09,1.92-1.09.8,0,2.05.48,2.05,2.47v3.47h-1.06v-3.35c0-.94-.35-1.72-1.34-1.72-.7,0-1.24.49-1.42,1.08-.05.13-.07.31-.07.49v3.49h-1.06v-4.23Z"/>
    <path d="M1438.86,1257.85v1.67h1.51v.8h-1.51v3.13c0,.72.2,1.13.79,1.13.28,0,.48-.04.61-.07l.05.79c-.2.08-.53.14-.94.14-.49,0-.89-.16-1.14-.44-.3-.31-.41-.83-.41-1.51v-3.17h-.9v-.8h.9v-1.39l1.03-.28Z"/>
    <path d="M1442.15,1262.62c.02,1.43.94,2.02,1.99,2.02.76,0,1.21-.13,1.61-.3l.18.75c-.37.17-1.01.36-1.93.36-1.79,0-2.85-1.18-2.85-2.93s1.03-3.13,2.72-3.13c1.89,0,2.4,1.67,2.4,2.73,0,.22-.02.38-.04.49h-4.08ZM1445.24,1261.86c.01-.67-.28-1.72-1.46-1.72-1.07,0-1.54.98-1.62,1.72h3.08Z"/>
    <path d="M1447.57,1261.33c0-.68-.01-1.27-.05-1.81h.92l.04,1.14h.05c.26-.78.9-1.27,1.61-1.27.12,0,.2.01.3.04v1c-.11-.02-.22-.04-.36-.04-.74,0-1.27.56-1.42,1.36-.02.14-.05.31-.05.49v3.09h-1.04v-3.99Z"/>
    <path d="M1451.5,1261.09c0-.6-.01-1.09-.05-1.57h.94l.06.96h.02c.29-.55.96-1.09,1.92-1.09.8,0,2.05.48,2.05,2.47v3.47h-1.06v-3.35c0-.94-.35-1.72-1.34-1.72-.7,0-1.24.49-1.42,1.08-.05.13-.07.31-.07.49v3.49h-1.06v-4.23Z"/>
    <path d="M1458.74,1262.62c.02,1.43.94,2.02,1.99,2.02.76,0,1.21-.13,1.61-.3l.18.75c-.37.17-1.01.36-1.93.36-1.79,0-2.85-1.18-2.85-2.93s1.03-3.13,2.72-3.13c1.89,0,2.4,1.67,2.4,2.73,0,.22-.02.38-.04.49h-4.08ZM1461.84,1261.86c.01-.67-.28-1.72-1.46-1.72-1.07,0-1.54.98-1.62,1.72h3.08Z"/>
    <path d="M1465.44,1257.85v1.67h1.51v.8h-1.51v3.13c0,.72.2,1.13.79,1.13.28,0,.48-.04.61-.07l.05.79c-.2.08-.53.14-.94.14-.49,0-.89-.16-1.14-.44-.3-.31-.41-.83-.41-1.51v-3.17h-.9v-.8h.9v-1.39l1.03-.28Z"/>
    <path d="M1470.68,1261.33c0-.68-.01-1.27-.05-1.81h.92l.04,1.14h.05c.26-.78.9-1.27,1.61-1.27.12,0,.2.01.3.04v1c-.11-.02-.22-.04-.36-.04-.74,0-1.27.56-1.42,1.36-.02.14-.05.31-.05.49v3.09h-1.04v-3.99Z"/>
    <path d="M1477.82,1265.33l-.08-.73h-.04c-.32.46-.95.86-1.78.86-1.17,0-1.77-.83-1.77-1.67,0-1.4,1.25-2.17,3.49-2.16v-.12c0-.48-.13-1.34-1.32-1.34-.54,0-1.1.17-1.51.43l-.24-.7c.48-.31,1.17-.52,1.91-.52,1.78,0,2.21,1.21,2.21,2.37v2.17c0,.5.02,1,.1,1.39h-.96ZM1477.67,1262.36c-1.15-.02-2.46.18-2.46,1.31,0,.68.46,1.01,1,1.01.76,0,1.24-.48,1.4-.97.04-.11.06-.23.06-.34v-1.01Z"/>
    <path d="M1485.41,1256.81v7.02c0,.52.01,1.1.05,1.5h-.95l-.05-1.01h-.02c-.32.65-1.03,1.14-1.98,1.14-1.4,0-2.48-1.19-2.48-2.95-.01-1.93,1.19-3.12,2.6-3.12.89,0,1.49.42,1.75.89h.02v-3.47h1.06ZM1484.35,1261.88c0-.13-.01-.31-.05-.44-.16-.67-.73-1.22-1.52-1.22-1.09,0-1.74.96-1.74,2.24,0,1.17.58,2.15,1.72,2.15.71,0,1.35-.47,1.55-1.26.04-.14.05-.29.05-.46v-1.01Z"/>
    <path d="M1488.34,1257.89c.01.36-.25.65-.67.65-.37,0-.63-.29-.63-.65s.28-.66.66-.66.65.29.65.66ZM1487.16,1265.33v-5.8h1.05v5.8h-1.05Z"/>
    <path d="M1495.22,1262.38c0,2.15-1.49,3.08-2.89,3.08-1.57,0-2.78-1.15-2.78-2.99,0-1.94,1.27-3.08,2.88-3.08s2.79,1.21,2.79,2.99ZM1490.62,1262.44c0,1.27.73,2.23,1.76,2.23s1.76-.95,1.76-2.25c0-.98-.49-2.23-1.74-2.23s-1.79,1.15-1.79,2.25Z"/>
    <path class="cls-15" d="M1424.77,1271.64v8.08h-1.04v-8.08h1.04Z"/>
    <path class="cls-15" d="M1430.7,1279.51c-.28.14-.89.33-1.67.33-1.75,0-2.89-1.19-2.89-2.96s1.22-3.08,3.12-3.08c.62,0,1.18.16,1.46.3l-.24.82c-.25-.14-.65-.28-1.22-.28-1.33,0-2.05.98-2.05,2.2,0,1.34.86,2.17,2.02,2.17.6,0,1-.16,1.29-.29l.18.79Z"/>
    <path class="cls-15" d="M1437.19,1276.78c0,2.15-1.49,3.08-2.89,3.08-1.57,0-2.78-1.15-2.78-2.99,0-1.94,1.27-3.08,2.88-3.08s2.79,1.21,2.79,2.99ZM1432.58,1276.84c0,1.27.73,2.23,1.76,2.23s1.76-.95,1.76-2.25c0-.98-.49-2.23-1.74-2.23s-1.79,1.15-1.79,2.25Z"/>
    <path class="cls-15" d="M1438.52,1275.49c0-.6-.01-1.09-.05-1.57h.94l.06.96h.02c.29-.55.96-1.09,1.92-1.09.8,0,2.05.48,2.05,2.47v3.47h-1.06v-3.35c0-.94-.35-1.71-1.34-1.71-.7,0-1.24.49-1.42,1.08-.05.13-.07.31-.07.49v3.49h-1.06v-4.23Z"/>
    <path class="cls-15" d="M1447.97,1279.73l.31-2.35h-.98v-.71h1.09l.23-1.74h-1.03v-.71h1.14l.31-2.29h.7l-.3,2.29h1.25l.31-2.29h.71l-.3,2.29h.98v.71h-1.09l-.22,1.74h1.03v.71h-1.14l-.31,2.35h-.72l.31-2.35h-1.25l-.31,2.35h-.72ZM1450.36,1276.67l.23-1.74h-1.25l-.23,1.74h1.25Z"/>
    <path class="cls-15" d="M1453.61,1278.51c.3.19,1,.49,1.73.49,1.35,0,1.77-.86,1.76-1.51-.01-1.09-1-1.56-2.01-1.56h-.59v-.79h.59c.77,0,1.74-.4,1.74-1.32,0-.62-.4-1.17-1.37-1.17-.62,0-1.22.28-1.56.52l-.28-.77c.41-.3,1.2-.6,2.04-.6,1.54,0,2.23.91,2.23,1.86,0,.8-.48,1.49-1.44,1.83v.02c.96.19,1.74.91,1.74,2,0,1.25-.97,2.34-2.84,2.34-.88,0-1.64-.28-2.03-.53l.29-.82Z"/>
    <path class="cls-15" d="M1466.53,1279.51c-.28.14-.89.33-1.67.33-1.75,0-2.89-1.19-2.89-2.96s1.22-3.08,3.12-3.08c.62,0,1.17.16,1.46.3l-.24.82c-.25-.14-.65-.28-1.22-.28-1.33,0-2.05.98-2.05,2.2,0,1.34.86,2.17,2.01,2.17.6,0,1-.16,1.29-.29l.18.79Z"/>
    <path class="cls-15" d="M1467.77,1271.21h1.05v3.62h.02c.17-.3.43-.56.76-.74.31-.18.68-.3,1.08-.3.78,0,2.03.48,2.03,2.48v3.45h-1.05v-3.33c0-.94-.35-1.73-1.34-1.73-.68,0-1.22.48-1.42,1.06-.06.14-.07.3-.07.5v3.5h-1.05v-8.52Z"/>
    <path class="cls-15" d="M1479.68,1276.78c0,2.15-1.49,3.08-2.89,3.08-1.57,0-2.78-1.15-2.78-2.99,0-1.94,1.27-3.08,2.88-3.08s2.79,1.21,2.79,2.99ZM1475.08,1276.84c0,1.27.73,2.23,1.76,2.23s1.76-.95,1.76-2.25c0-.98-.49-2.23-1.74-2.23s-1.79,1.15-1.79,2.25Z"/>
    <path class="cls-15" d="M1480.87,1278.65c.31.2.86.42,1.39.42.77,0,1.13-.38,1.13-.86,0-.5-.3-.78-1.08-1.07-1.04-.37-1.54-.95-1.54-1.64,0-.94.75-1.7,2-1.7.59,0,1.1.17,1.43.36l-.26.77c-.23-.14-.65-.34-1.19-.34-.62,0-.97.36-.97.79,0,.48.35.7,1.1.98,1.01.38,1.52.89,1.52,1.75,0,1.02-.79,1.74-2.17,1.74-.64,0-1.22-.16-1.63-.4l.26-.8Z"/>
    <path class="cls-15" d="M1486.36,1277.02c.02,1.43.94,2.01,1.99,2.01.76,0,1.21-.13,1.61-.3l.18.76c-.37.17-1.01.36-1.93.36-1.79,0-2.85-1.17-2.85-2.93s1.03-3.13,2.72-3.13c1.9,0,2.4,1.67,2.4,2.74,0,.22-.02.38-.04.49h-4.08ZM1489.45,1276.26c.01-.67-.28-1.71-1.46-1.71-1.07,0-1.54.98-1.62,1.71h3.08Z"/>
    <path class="cls-15" d="M1491.78,1275.49c0-.6-.01-1.09-.05-1.57h.94l.06.96h.02c.29-.55.96-1.09,1.92-1.09.8,0,2.05.48,2.05,2.47v3.47h-1.05v-3.35c0-.94-.35-1.71-1.34-1.71-.7,0-1.24.49-1.42,1.08-.05.13-.07.31-.07.49v3.49h-1.05v-4.23Z"/>
    <path class="cls-15" d="M1498.19,1279.1c0-.44.3-.76.72-.76s.71.31.71.76-.28.76-.72.76c-.42,0-.71-.32-.71-.76Z"/>
    <path class="cls-15" d="M1406.01,1294.13v-8.08h1.14l2.59,4.09c.6.95,1.07,1.8,1.45,2.63h.02c-.1-1.09-.12-2.08-.12-3.33v-3.38h.98v8.08h-1.06l-2.57-4.1c-.56-.9-1.1-1.82-1.51-2.7h-.04c.06,1.03.08,2,.08,3.35v3.45h-.98Z"/>
    <path class="cls-15" d="M1419.12,1291.18c0,2.15-1.49,3.08-2.89,3.08-1.57,0-2.78-1.15-2.78-2.99,0-1.94,1.27-3.08,2.88-3.08s2.79,1.21,2.79,2.99ZM1414.52,1291.24c0,1.27.73,2.23,1.76,2.23s1.76-.95,1.76-2.25c0-.98-.49-2.23-1.74-2.23s-1.79,1.15-1.79,2.25Z"/>
    <path class="cls-15" d="M1421.73,1286.65v1.67h1.51v.8h-1.51v3.13c0,.72.2,1.13.79,1.13.28,0,.48-.04.61-.07l.05.79c-.2.08-.53.14-.94.14-.49,0-.89-.16-1.14-.44-.3-.31-.41-.83-.41-1.51v-3.17h-.9v-.8h.9v-1.39l1.03-.28Z"/>
    <path class="cls-15" d="M1427.36,1288.32l1.27,3.43c.13.38.28.84.37,1.19h.02c.11-.35.23-.79.37-1.21l1.15-3.41h1.12l-1.58,4.14c-.76,1.99-1.27,3.01-1.99,3.63-.52.46-1.03.64-1.29.68l-.26-.89c.26-.08.61-.25.92-.52.29-.23.65-.63.89-1.17.05-.11.08-.19.08-.25s-.02-.14-.07-.28l-2.15-5.35h1.15Z"/>
    <path class="cls-15" d="M1433.21,1291.42c.02,1.43.94,2.01,1.99,2.01.76,0,1.21-.13,1.61-.3l.18.76c-.37.17-1.01.36-1.93.36-1.79,0-2.85-1.18-2.85-2.93s1.03-3.13,2.72-3.13c1.89,0,2.4,1.67,2.4,2.73,0,.22-.02.38-.04.49h-4.08ZM1436.31,1290.66c.01-.67-.28-1.71-1.46-1.71-1.07,0-1.54.98-1.62,1.71h3.08Z"/>
    <path class="cls-15" d="M1439.91,1286.65v1.67h1.51v.8h-1.51v3.13c0,.72.2,1.13.79,1.13.28,0,.48-.04.61-.07l.05.79c-.2.08-.53.14-.94.14-.49,0-.89-.16-1.14-.44-.3-.31-.41-.83-.41-1.51v-3.17h-.9v-.8h.9v-1.39l1.03-.28Z"/>
    <path class="cls-15" d="M1446.33,1286.69c.01.36-.25.65-.67.65-.37,0-.64-.29-.64-.65s.28-.66.66-.66.65.29.65.66ZM1445.15,1294.13v-5.8h1.06v5.8h-1.06Z"/>
    <path class="cls-15" d="M1447.96,1289.89c0-.6-.01-1.09-.05-1.57h.94l.06.96h.02c.29-.55.96-1.09,1.92-1.09.8,0,2.05.48,2.05,2.47v3.47h-1.05v-3.35c0-.94-.35-1.71-1.34-1.71-.7,0-1.24.49-1.42,1.08-.05.13-.07.31-.07.49v3.49h-1.06v-4.23Z"/>
    <path class="cls-15" d="M1457.02,1293.05c.31.2.86.42,1.39.42.77,0,1.13-.38,1.13-.86s-.3-.78-1.08-1.07c-1.04-.37-1.54-.95-1.54-1.64,0-.94.76-1.7,2-1.7.59,0,1.1.17,1.43.36l-.26.77c-.23-.14-.65-.33-1.19-.33-.62,0-.97.36-.97.79,0,.48.35.7,1.1.98,1.01.38,1.52.89,1.52,1.75,0,1.02-.79,1.74-2.17,1.74-.64,0-1.22-.16-1.63-.4l.26-.8Z"/>
    <path class="cls-15" d="M1461.92,1290.22c0-.74-.02-1.34-.05-1.9h.95l.05,1h.02c.43-.71,1.12-1.13,2.06-1.13,1.4,0,2.46,1.19,2.46,2.95,0,2.09-1.27,3.12-2.64,3.12-.77,0-1.44-.34-1.79-.91h-.02v3.15h-1.04v-6.28ZM1462.96,1291.76c0,.16.02.3.05.43.19.73.83,1.24,1.58,1.24,1.12,0,1.76-.91,1.76-2.24,0-1.16-.61-2.16-1.73-2.16-.72,0-1.39.52-1.6,1.31-.04.13-.07.29-.07.43v1Z"/>
    <path class="cls-15" d="M1468.75,1290.13c0-.68-.01-1.27-.05-1.81h.92l.04,1.14h.05c.26-.78.9-1.27,1.61-1.27.12,0,.2.01.3.04v1c-.11-.02-.22-.04-.36-.04-.74,0-1.27.56-1.42,1.36-.02.14-.05.31-.05.49v3.09h-1.04v-3.99Z"/>
    <path class="cls-15" d="M1473.26,1291.42c.02,1.43.94,2.01,1.99,2.01.76,0,1.21-.13,1.61-.3l.18.76c-.37.17-1.01.36-1.93.36-1.79,0-2.85-1.18-2.85-2.93s1.03-3.13,2.72-3.13c1.89,0,2.4,1.67,2.4,2.73,0,.22-.02.38-.04.49h-4.08ZM1476.35,1290.66c.01-.67-.28-1.71-1.46-1.71-1.07,0-1.54.98-1.62,1.71h3.08Z"/>
    <path class="cls-15" d="M1481.9,1294.13l-.08-.73h-.04c-.32.46-.95.86-1.78.86-1.18,0-1.78-.83-1.78-1.67,0-1.4,1.25-2.17,3.49-2.16v-.12c0-.48-.13-1.34-1.32-1.34-.54,0-1.1.17-1.51.43l-.24-.7c.48-.31,1.18-.52,1.91-.52,1.78,0,2.21,1.21,2.21,2.38v2.17c0,.5.02,1,.1,1.39h-.96ZM1481.74,1291.16c-1.15-.02-2.46.18-2.46,1.31,0,.68.46,1.01,1,1.01.76,0,1.24-.48,1.4-.97.04-.11.06-.23.06-.34v-1.01Z"/>
    <path class="cls-15" d="M1489.48,1285.61v7.02c0,.52.01,1.1.05,1.5h-.95l-.05-1.01h-.02c-.32.65-1.03,1.14-1.98,1.14-1.4,0-2.48-1.19-2.48-2.95-.01-1.93,1.19-3.12,2.6-3.12.89,0,1.49.42,1.75.89h.02v-3.47h1.05ZM1488.42,1290.68c0-.13-.01-.31-.05-.44-.16-.67-.73-1.22-1.52-1.22-1.09,0-1.74.96-1.74,2.24,0,1.18.58,2.15,1.71,2.15.71,0,1.36-.47,1.55-1.26.04-.14.05-.29.05-.46v-1.01Z"/>
    <path class="cls-15" d="M1491.09,1293.05c.31.2.86.42,1.39.42.77,0,1.13-.38,1.13-.86s-.3-.78-1.08-1.07c-1.04-.37-1.54-.95-1.54-1.64,0-.94.75-1.7,2-1.7.59,0,1.1.17,1.43.36l-.26.77c-.23-.14-.65-.33-1.19-.33-.62,0-.97.36-.97.79,0,.48.35.7,1.1.98,1.01.38,1.52.89,1.52,1.75,0,1.02-.79,1.74-2.17,1.74-.64,0-1.22-.16-1.63-.4l.26-.8Z"/>
    <path class="cls-15" d="M1495.99,1285.61h1.06v3.62h.02c.17-.3.43-.56.75-.74.31-.18.68-.3,1.08-.3.78,0,2.03.48,2.03,2.48v3.45h-1.06v-3.33c0-.94-.35-1.73-1.34-1.73-.68,0-1.22.48-1.42,1.05-.06.14-.07.3-.07.5v3.5h-1.06v-8.51Z"/>
    <path class="cls-15" d="M1503.23,1291.42c.02,1.43.94,2.01,1.99,2.01.76,0,1.21-.13,1.61-.3l.18.76c-.37.17-1.01.36-1.93.36-1.79,0-2.85-1.18-2.85-2.93s1.03-3.13,2.72-3.13c1.89,0,2.4,1.67,2.4,2.73,0,.22-.02.38-.04.49h-4.08ZM1506.33,1290.66c.01-.67-.28-1.71-1.46-1.71-1.07,0-1.54.98-1.62,1.71h3.08Z"/>
    <path class="cls-15" d="M1509.25,1291.42c.02,1.43.94,2.01,1.99,2.01.75,0,1.21-.13,1.61-.3l.18.76c-.37.17-1.01.36-1.93.36-1.79,0-2.85-1.18-2.85-2.93s1.03-3.13,2.72-3.13c1.9,0,2.4,1.67,2.4,2.73,0,.22-.02.38-.04.49h-4.08ZM1512.34,1290.66c.01-.67-.28-1.71-1.46-1.71-1.07,0-1.54.98-1.62,1.71h3.08Z"/>
    <path class="cls-15" d="M1515.94,1286.65v1.67h1.51v.8h-1.51v3.13c0,.72.2,1.13.79,1.13.28,0,.48-.04.61-.07l.05.79c-.2.08-.53.14-.94.14-.49,0-.89-.16-1.14-.44-.3-.31-.41-.83-.41-1.51v-3.17h-.9v-.8h.9v-1.39l1.03-.28Z"/>
  </g>
  <text class="cls-10" transform="translate(1341.6211 246.3257)"><tspan x="0" y="0">Podcast</tspan></text>
  <text class="cls-10" transform="translate(924.94 246.33)"><tspan x="0" y="0">Forum</tspan></text>
  <text class="cls-10" transform="translate(639.07 246.33)"><tspan x="0" y="0">Calendar</tspan></text>
  <text class="cls-10" transform="translate(510.12 246.33)"><tspan x="0" y="0">Blog</tspan></text>
  <text class="cls-10" transform="translate(776.33 246.33)"><tspan x="0" y="0">Comment</tspan></text>
  <text class="cls-10" transform="translate(1485.6592 246.3257)"><tspan x="0" y="0">Rate it</tspan></text>
  <text class="cls-10" transform="translate(501.03 526.33)"><tspan x="0" y="0">Settings</tspan></text>
  <text class="cls-10" transform="translate(646.97 526.33)"><tspan x="0" y="0">Menu</tspan></text>
  <text class="cls-10" transform="translate(761.77 526.33)"><tspan x="0" y="0">Message thread</tspan></text>
  <text class="cls-10" transform="translate(916.44 526.33)"><tspan x="0" y="0">Transcript</tspan></text>
  <text class="cls-10" transform="translate(1039.4575 526.3262)"><tspan x="0" y="0">Handset settings</tspan></text>
  <text class="cls-10" transform="translate(1204.4891 526.3262)"><tspan x="0" y="0">Survey</tspan></text>
  <text class="cls-10" transform="translate(1343.6731 526.3262)"><tspan x="0" y="0">History</tspan></text>
  <text class="cls-10" transform="translate(1450.1516 526.3262)"><tspan x="0" y="0">Options/Preferences</tspan></text>
  <text class="cls-10" transform="translate(490.89 666.33)"><tspan x="0" y="0">Microphone</tspan></text>
  <text class="cls-10" transform="translate(612.91 666.33)"><tspan x="0" y="0">Microphone (mute)</tspan></text>
  <text class="cls-10" transform="translate(756.04 666.33)"><tspan x="0" y="0">Customer services</tspan></text>
  <text class="cls-10" transform="translate(931.62 666.33)"><tspan x="0" y="0">Info</tspan></text>
  <text class="cls-10" transform="translate(1023.0658 666.3262)"><tspan x="0" y="0">Guide style (guide grid)</tspan></text>
  <text class="cls-10" transform="translate(1165.9878 666.3262)"><tspan x="0" y="0">Guide style (guide list)</tspan></text>
  <text class="cls-10" transform="translate(1282.4262 666.3262)"><tspan x="0" y="0">Research/Reports/White papers</tspan></text>
  <text class="cls-10" transform="translate(1477.9732 666.3262)"><tspan x="0" y="0">Webinars</tspan></text>
  <g>
    <g>
      <g>
        <line class="cls-4" x1="1360.93" y1="609" x2="1371.93" y2="609"/>
        <line class="cls-4" x1="1360.93" y1="619" x2="1371.93" y2="619"/>
      </g>
      <path class="cls-4" d="M1340.93,628v-24h5c2.76,0,5,2.24,5,5v14c0,2.76-2.24,5-5,5h-5Z"/>
      <path class="cls-4" d="M1345.93,628v7c0,2.76,2.24,5,5,5h26"/>
      <path class="cls-4" d="M1381.93,630v-33c0-2.76-2.24-5-5-5h-26c-2.76,0-5,2.24-5,5v7"/>
    </g>
    <rect class="cls-1" x="1321.43" y="576" width="80" height="80"/>
  </g>
  <g>
    <g>
      <polyline class="cls-4" points="1506.43 629 1506.43 636 1514.43 636"/>
      <polyline class="cls-4" points="1500.7 616.34 1499.29 607.86 1507.77 609.27"/>
      <path class="cls-4" d="M1488.43,636h8v-10h-11c-2.76,0-5-2.24-5-5v-20c0-2.76,2.24-5,5-5h32c2.76,0,5,2.24,5,5v20c0,2.76-2.24,5-5,5l-18.14-18.14"/>
    </g>
    <rect class="cls-1" x="1461.43" y="576" width="80" height="80"/>
  </g>
  <g>
    <g>
      <line class="cls-4" x1="670.43" y1="639" x2="652.43" y2="639"/>
      <line class="cls-4" x1="661.43" y1="625" x2="661.43" y2="639"/>
      <g>
        <line class="cls-4" x1="663.43" y1="615" x2="675.43" y2="603"/>
        <line class="cls-4" x1="675.43" y1="615" x2="663.43" y2="603"/>
      </g>
      <path class="cls-4" d="M665.28,594c-1.14-.63-2.45-1-3.85-1-4.42,0-8,3.58-8,8v16c0,4.42,3.58,8,8,8,2.02,0,3.86-.76,5.27-2"/>
    </g>
    <rect class="cls-1" x="621.43" y="576" width="80" height="80"/>
  </g>
  <g>
    <g>
      <path class="cls-4" d="M496.43,773v-7c0-4.91,3.44-9.12,8.37-10.98-2.05-1.65-3.37-4.18-3.37-7.02,0-4.97,4.03-9,9-9s9,4.03,9,9c0,2.84-1.32,5.37-3.37,7.02,4.93,1.86,8.37,6.07,8.37,10.98v7"/>
      <path class="cls-4" d="M524.43,773v-5.5c0-3.73,2.49-6.94,6.11-8.5-1.3-1.27-2.11-3.04-2.11-5,0-3.87,3.13-7,7-7s7,3.13,7,7c0,1.96-.81,3.73-2.11,5,3.62,1.56,6.11,4.77,6.11,8.5v5.5"/>
    </g>
    <rect class="cls-1" x="481.43" y="716" width="80" height="80"/>
  </g>
  <g>
    <g>
      <path class="cls-4" d="M639.93,755.5v-12c0-2.76,2.24-5,5-5h36c2.76,0,5,2.24,5,5v22c0,2.76-2.24,5-5,5h-48"/>
      <text class="cls-8" transform="translate(657.05 761.97)"><tspan x="0" y="0">£</tspan></text>
      <polyline class="cls-4" points="639.93 765.5 632.93 770.5 639.93 775.5"/>
    </g>
    <rect class="cls-1" x="621.43" y="716" width="80" height="80"/>
  </g>
  <text class="cls-10" transform="translate(475.61 806.33)"><tspan x="0" y="0">Friends and family</tspan></text>
  <text class="cls-10" transform="translate(643.43 806.33)"><tspan x="0" y="0">Refund</tspan></text>
  <text class="cls-10" transform="translate(782 806.33)"><tspan x="0" y="0">Scissors</tspan></text>
  <text class="cls-10" transform="translate(933.45 806.33)"><tspan x="0" y="0">Bin</tspan></text>
  <text class="cls-10" transform="translate(1063.4391 806.3262)"><tspan x="0" y="0">Find us</tspan></text>
  <text class="cls-10" transform="translate(1327.7793 806.3262)"><tspan x="0" y="0">Total amount</tspan></text>
  <g>
    <rect class="cls-1" x="901.43" y="716" width="80" height="80"/>
    <path class="cls-4" d="M961.43,738l-5.48,31.08c-.48,2.71-3.12,4.92-5.87,4.92h-17.3c-2.75,0-5.39-2.22-5.87-4.92l-5.48-31.08"/>
  </g>
  <g>
    <g>
      <line class="cls-4" x1="1069.93" y1="781" x2="1069.93" y2="762"/>
      <line class="cls-4" x1="1079.93" y1="762" x2="1079.93" y2="781"/>
      <path class="cls-4" d="M1069.93,742v-6c0-2.76,2.24-5,5-5h0c2.76,0,5,2.24,5,5v6"/>
      <path class="cls-4" d="M1062.93,762c-2.76,0-5-2.24-5-5v-10c0-2.76,2.24-5,5-5h35l10,10-10,10h-35Z"/>
    </g>
    <rect class="cls-1" x="1041.43" y="716" width="80" height="80"/>
  </g>
  <g>
    <rect class="cls-1" x="1461.43" y="716" width="80" height="80"/>
    <g>
      <circle class="cls-4" cx="1516.43" cy="765" r="7"/>
      <circle class="cls-4" cx="1486.43" cy="747" r="7"/>
      <line class="cls-4" x1="1494.54" y1="772.63" x2="1508.32" y2="739.37"/>
    </g>
  </g>
  <g>
    <rect class="cls-1" x="621.43" y="856" width="80" height="80"/>
    <g>
      <path class="cls-7" d="M677.43,916h-32c-2.76,0-5-2.24-5-5v-22c0-2.76,2.24-5,5-5h32c2.76,0,5,2.24,5,5v17"/>
      <path class="cls-4" d="M675.5,884l1.46-1.46c1.95-1.95,1.95-5.12,0-7.07-1.95-1.95-5.12-1.95-7.07,0l-8.54,8.54"/>
      <path class="cls-4" d="M661.5,884l-8.54-8.54c-1.95-1.95-5.12-1.95-7.07,0-1.95,1.95-1.95,5.12,0,7.07l1.46,1.46"/>
      <line class="cls-4" x1="661.43" y1="916" x2="661.43" y2="884"/>
    </g>
  </g>
  <g>
    <rect class="cls-1" x="761.43" y="856" width="80" height="80"/>
    <g>
      <path class="cls-4" d="M826.43,892v-7c0-2.76-2.24-5-5-5h-40c-2.76,0-5,2.24-5,5v20c0,2.76,2.24,5,5,5h14"/>
      <text class="cls-8" transform="translate(783.43 902.47)"><tspan x="0" y="0">£</tspan></text>
      <g>
        <circle class="cls-7" cx="811.43" cy="904.5" r="7"/>
        <circle class="cls-7" cx="820.43" cy="908" r="7"/>
      </g>
    </g>
  </g>
  <g>
    <rect class="cls-1" x="1041.43" y="856" width="80" height="80"/>
    <g>
      <path class="cls-4" d="M1104.15,886.18c2.75,0,2.92-.86.38-1.91l-18.48-7.65c-2.54-1.05-6.7-1.05-9.24,0l-18.48,7.65c-2.54,1.05-2.37,1.91.38,1.91h45.43Z"/>
      <line class="cls-4" x1="1063.43" y1="911.18" x2="1063.43" y2="886.18"/>
      <line class="cls-4" x1="1075.43" y1="901.18" x2="1075.43" y2="886.18"/>
      <line class="cls-4" x1="1087.43" y1="896.18" x2="1087.43" y2="886.18"/>
      <line class="cls-4" x1="1099.43" y1="896.18" x2="1099.43" y2="886.18"/>
      <g>
        <polyline class="cls-4" points="1099.43 906.18 1106.43 911.18 1099.43 916.18"/>
        <polyline class="cls-4" points="1087.43 906.18 1080.43 911.18 1087.43 916.18"/>
        <line class="cls-4" x1="1080.43" y1="911.18" x2="1106.43" y2="911.18"/>
      </g>
      <line class="cls-4" x1="1059.43" y1="911.18" x2="1070.43" y2="911.18"/>
    </g>
  </g>
  <g>
    <rect class="cls-1" x="1181.43" y="856" width="80" height="80"/>
    <g>
      <path class="cls-4" d="M1244.43,896.5v-12c0-2.76-2.24-5-5-5h-36c-2.76,0-5,2.24-5,5v21c0,2.76,2.24,5,5,5h8"/>
      <g>
        <polyline class="cls-4" points="1240.43 905.5 1247.43 910.5 1240.43 915.5"/>
        <polyline class="cls-4" points="1228.43 905.5 1221.43 910.5 1228.43 915.5"/>
        <line class="cls-4" x1="1221.43" y1="910.5" x2="1247.43" y2="910.5"/>
      </g>
      <line class="cls-4" x1="1198.43" y1="890.5" x2="1244.43" y2="890.5"/>
    </g>
  </g>
  <g>
    <rect class="cls-1" x="901.43" y="856" width="80" height="80"/>
    <g>
      <path class="cls-4" d="M966.43,891v-5c0-2.76-2.24-5-5-5h-40c-2.76,0-5,2.24-5,5v20c0,2.76,2.24,5,5,5h25"/>
      <text class="cls-8" transform="translate(923.43 903.47)"><tspan x="0" y="0">£</tspan></text>
      <g>
        <line class="cls-4" x1="960.43" y1="899" x2="960.43" y2="911"/>
        <line class="cls-4" x1="966.43" y1="905" x2="954.43" y2="905"/>
      </g>
    </g>
  </g>
  <text class="cls-10" transform="translate(1482.2631 806.3262)"><tspan x="0" y="0">Percent</tspan></text>
  <text class="cls-10" transform="translate(479.76 946.33)"><tspan x="0" y="0">Shopping trolley</tspan></text>
  <text class="cls-10" transform="translate(495.8492 1086.3262)"><tspan x="0" y="0">Slideshow</tspan></text>
  <text class="cls-10" transform="translate(652.42 946.33)"><tspan x="0" y="0">Gift</tspan></text>
  <text class="cls-10" transform="translate(762.73 946.33)"><tspan x="0" y="0">Available credit</tspan></text>
  <text class="cls-10" transform="translate(893.85 946.33)"><tspan x="0" y="0">Credit line increase</tspan></text>
  <text class="cls-10" transform="translate(1028.9217 946.3262)"><tspan x="0" y="0">ACH balance transfer</tspan></text>
  <text class="cls-10" transform="translate(1168.2678 946.3262)"><tspan x="0" y="0">Card balance transfer</tspan></text>
  <text class="cls-10" transform="translate(1333.6895 946.3262)"><tspan x="0" y="0">Display pin</tspan></text>
  <text class="cls-10" transform="translate(1480.8712 946.3262)"><tspan x="0" y="0">Headset</tspan></text>
  <g>
    <g>
      <path class="cls-4" d="M1484.43,902.5h-2c-1.1,0-2-3.13-2-7s.9-7,2-7,2,3.13,2,7"/>
      <circle class="cls-4" cx="1501.43" cy="917.5" r="3"/>
      <path class="cls-4" d="M1501.43,917.5c-9.39,0-17-7.61-17-17v-12c0-9.39,7.61-17,17-17s17,7.61,17,17v14h2c1.1,0,2-3.13,2-7s-.9-7-2-7-2,3.13-2,7"/>
    </g>
    <rect class="cls-1" x="1461.43" y="856" width="80" height="80"/>
  </g>
  <g>
    <g>
      <path class="cls-4" d="M953.43,327v-6c0-2.76-2.24-5-5-5h-16c0-2.76-2.24-5-5-5h-5c-2.76,0-5,2.24-5,5v20c0,2.76,2.24,5,5,5h9"/>
      <g>
        <rect class="cls-4" x="931.43" y="327" width="34" height="34" rx="5" ry="5"/>
        <polyline class="cls-4" points="955.43 327 955.43 337 941.43 337 941.43 327"/>
        <circle class="cls-4" cx="948.43" cy="349" r="2"/>
      </g>
    </g>
    <rect class="cls-1" x="901.43" y="296" width="80" height="80"/>
  </g>
  <g>
    <rect class="cls-1" x="481.43" y="996" width="80" height="80"/>
    <g>
      <line class="cls-4" x1="536.43" y1="1056" x2="506.43" y2="1056"/>
      <rect class="cls-5" x="501.43" y="1016" width="40" height="30" rx="5" ry="5"/>
    </g>
  </g>
  <g>
    <g>
      <path class="cls-4" d="M773.43,353v-7c0-4.91,3.44-9.12,8.37-10.98-2.05-1.65-3.37-4.18-3.37-7.02,0-4.97,4.03-9,9-9s9,4.03,9,9c0,2.84-1.32,5.37-3.37,7.02,4.93,1.86,8.37,6.07,8.37,10.98v7"/>
      <path class="cls-4" d="M801.43,353v-7c0-4.91,3.44-9.12,8.37-10.98-2.05-1.65-3.37-4.18-3.37-7.02,0-4.97,4.03-9,9-9s9,4.03,9,9c0,2.84-1.32,5.37-3.37,7.02,4.93,1.86,8.37,6.07,8.37,10.98v7"/>
    </g>
    <rect class="cls-1" x="761.43" y="296" width="80" height="80"/>
  </g>
  <g>
    <path class="cls-4" d="M1218.98,771.28c-1.28,0-2.56-.49-3.54-1.46-1.95-1.95-1.95-5.12,0-7.07l.71-.71-10.61-13.43c-1.95,1.95-5.12,1.95-7.07,0-1.95-1.95-1.95-5.12,0-7.07l8.49-8.49c1.95-1.95,5.12-1.95,7.07,0,1.95,1.95,1.95,5.12,0,7.07l13.44,10.61.71-.71c1.95-1.95,5.12-1.95,7.07,0,1.95,1.95,1.95,5.12,0,7.07l-6.36,6.36,16.97,16.97"/>
    <rect class="cls-1" x="1181.43" y="716" width="80" height="80"/>
  </g>
  <text class="cls-10" transform="translate(1213.507 806.3262)"><tspan x="0" y="0">Pin</tspan></text>
  <g>
    <g>
      <g>
        <path class="cls-4" d="M1507.43,468c0,7.73-6.27,14-14,14s-14-6.27-14-14,6.27-14,14-14,14,6.27,14,14Z"/>
        <path class="cls-4" d="M1494.48,468c0,.58-.47,1.04-1.04,1.04s-1.04-.47-1.04-1.04.47-1.04,1.04-1.04,1.04.47,1.04,1.04Z"/>
        <line class="cls-4" x1="1493.43" y1="454" x2="1493.43" y2="451"/>
        <line class="cls-4" x1="1493.43" y1="485" x2="1493.43" y2="482"/>
        <line class="cls-4" x1="1507.43" y1="468" x2="1510.43" y2="468"/>
        <line class="cls-4" x1="1476.43" y1="468" x2="1479.43" y2="468"/>
        <line class="cls-4" x1="1486.43" y1="455.88" x2="1484.93" y2="453.28"/>
        <line class="cls-4" x1="1501.93" y1="482.72" x2="1500.43" y2="480.12"/>
        <line class="cls-4" x1="1505.56" y1="461" x2="1508.16" y2="459.5"/>
        <line class="cls-4" x1="1478.71" y1="476.5" x2="1481.31" y2="475"/>
        <line class="cls-4" x1="1481.31" y1="461" x2="1478.71" y2="459.5"/>
        <line class="cls-4" x1="1508.16" y1="476.5" x2="1505.56" y2="475"/>
        <line class="cls-4" x1="1500.43" y1="455.88" x2="1501.93" y2="453.28"/>
        <line class="cls-4" x1="1484.93" y1="482.72" x2="1486.43" y2="480.12"/>
      </g>
      <g>
        <path class="cls-4" d="M1524.43,492c0,3.87-3.13,7-7,7s-7-3.13-7-7,3.13-7,7-7,7,3.13,7,7Z"/>
        <line class="cls-4" x1="1511.07" y1="485.64" x2="1512.48" y2="487.05"/>
        <line class="cls-4" x1="1522.38" y1="496.95" x2="1523.8" y2="498.36"/>
        <line class="cls-4" x1="1511.07" y1="498.36" x2="1512.48" y2="496.95"/>
        <line class="cls-4" x1="1522.38" y1="487.05" x2="1523.8" y2="485.64"/>
        <line class="cls-4" x1="1508.43" y1="492" x2="1510.43" y2="492"/>
        <line class="cls-4" x1="1524.43" y1="492" x2="1526.43" y2="492"/>
        <line class="cls-4" x1="1517.43" y1="501" x2="1517.43" y2="499"/>
        <line class="cls-4" x1="1517.43" y1="485" x2="1517.43" y2="483"/>
      </g>
    </g>
    <rect class="cls-1" x="1461.43" y="436" width="80" height="80"/>
  </g>
  <g>
    <rect class="cls-1" x="761.43" y="716" width="80" height="80"/>
    <g>
      <line class="cls-4" x1="794.82" y1="772.06" x2="810.18" y2="735"/>
      <path class="cls-4" d="M815.43,761c4.42,0,8,3.58,8,8s-3.58,8-8,8c-3.33,0-6.19-2.04-7.39-4.94l-15.35-37.06"/>
      <circle class="cls-4" cx="787.43" cy="769" r="8"/>
    </g>
  </g>
  <g>
    <g>
      <path class="cls-4" d="M496.43,879h3.5c1.92,0,3.98,2.2,4.57,4.88l5.93,27.12"/>
      <path class="cls-4" d="M515.43,879h26c2.75,0,3.95,1.99,2.67,4.42l-5.34,10.15c-1.28,2.43-4.58,4.42-7.33,4.42h-23.84"/>
      <circle class="cls-4" cx="536.43" cy="911" r="2"/>
      <circle class="cls-4" cx="510.43" cy="911" r="2"/>
      <line class="cls-4" x1="510.43" y1="911" x2="536.43" y2="911"/>
    </g>
    <rect class="cls-1" x="481.43" y="856" width="80" height="80"/>
  </g>
  <g>
    <path d="M1357.16,771.46h15.95c.58,0,.87.29.87.87v3.94c0,.58-.29.87-.87.87h-26.33c-.58,0-.87-.29-.87-.87v-3.94c0-.58.29-.87.87-.87h3.13l2.09-13.34h-3.3c-.52,0-.81-.29-.81-.93v-3.65c0-.46.29-.93.81-.93h4.18l.46-2.67c1.74-9.98,5.86-15.08,14.44-15.08,2.38,0,4.81.41,6.44,1.1.52.29.75.58.75.93,0,.41-.12.81-.17,1.22l-.64,2.78c-.12.52-.35.81-.75.81-.99,0-1.97-.7-4.47-.7-4.52,0-6.61,1.57-8,8.35l-.64,3.25h10.09c.52,0,.81.29.81.93v3.65c0,.64-.29.93-.93.93h-11.02l-2.09,13.34Z"/>
    <rect class="cls-1" x="1321.43" y="716" width="80" height="80"/>
  </g>
  <g>
    <rect class="cls-1" x="761.43" y="996" width="80" height="80"/>
    <path class="cls-4" d="M811.43,1013v11.77l-10-11.77-16.54,19.46c-.91.9-1.46,2.15-1.46,3.54v18c0,2.76,2.24,5,5,5h8v-16h10v16h8c2.76,0,5-2.24,5-5v-18c0-1.38-.56-2.63-1.46-3.54"/>
  </g>
  <text class="cls-10" transform="translate(786.217 1086.3262)"><tspan x="0" y="0">Home</tspan></text>
  <text class="cls-10" transform="translate(631.4933 1086.3262)"><tspan x="0" y="0">Office/Work</tspan></text>
  <g>
    <g>
      <line class="cls-4" x1="665.43" y1="1029" x2="651.43" y2="1029"/>
      <polyline class="cls-4" points="665.43 1061 665.43 1020 673.43 1012 681.43 1020 681.43 1051"/>
      <path class="cls-4" d="M651.43,1061v-50h-10v45c0,5,5,5,5,5h30"/>
    </g>
    <rect class="cls-1" x="621.43" y="996" width="80" height="80"/>
  </g>
  <text class="cls-10" transform="translate(913.7311 1086.3262)"><tspan x="0" y="0">Bookmarks</tspan></text>
  <g>
    <g>
      <line class="cls-4" x1="951.43" y1="1043" x2="939.43" y2="1043"/>
      <line class="cls-4" x1="951.43" y1="1032" x2="939.43" y2="1032"/>
      <line class="cls-4" x1="951.43" y1="1021" x2="939.43" y2="1021"/>
      <path class="cls-4" d="M949.43,1053h7s5,0,5-5v-32c0-2.76-2.24-5-5-5h-30c-5,0-5,5-5,5v45l9-9,9,9v-45c0-5,5-5,5-5"/>
    </g>
    <rect class="cls-1" x="901.43" y="996" width="80" height="80"/>
  </g>
  <g>
    <g>
      <path class="cls-4" d="M1504.43,355.5c0,1.66-1.34,3-3,3s-3-1.34-3-3"/>
      <path class="cls-4" d="M1501.43,313.5c-7.18,0-13,5.82-13,13v5c0,5.5-2.25,12.25-5,15l-5,5c7.33,2,15.04,3.08,23,3.08s15.67-1.08,23-3.08l-5-5c-2.75-2.75-5-9.5-5-15v-5c0-3.16-1.13-6.05-3-8.3"/>
    </g>
    <rect class="cls-1" x="1461.43" y="296" width="80" height="80"/>
  </g>
  <text class="cls-10" transform="translate(1492.3431 386.3257)"><tspan x="0" y="0">Bell</tspan></text>
  <g>
    <rect class="cls-1" x="1321.43" y="856" width="80" height="80"/>
    <g>
      <circle class="cls-4" cx="1347.43" cy="884.5" r="1"/>
      <circle class="cls-4" cx="1347.43" cy="896.5" r="1"/>
      <circle class="cls-4" cx="1361.43" cy="884.5" r="1"/>
      <circle class="cls-4" cx="1375.43" cy="884.5" r="1"/>
      <circle class="cls-4" cx="1375.43" cy="896.5" r="1"/>
      <path class="cls-4" d="M1375.43,915.5l.69-3.11c.72-4.34-2.29-7.89-6.69-7.89h-3v-6c0-2.76-2.24-5-5-5s-5,2.24-5,5v13l-1.46-1.46c-1.95-1.95-5.12-1.95-7.07,0-1.95,1.95-1.95,5.12,0,7.07l3.86,3.86c1.95,1.95,5.79,3.54,8.54,3.54h10.14"/>
      <path class="cls-4" d="M1376.21,911.5h5.22c2.76,0,5-2.24,5-5v-28c0-2.76-2.24-5-5-5h-40c-2.76,0-5,2.24-5,5v28c0,2.76,2.24,5,5,5h5.47"/>
    </g>
  </g>
  <g>
    <rect class="cls-1" x="901.43" y="156" width="80" height="80"/>
    <g>
      <path class="cls-4" d="M965.43,204v-7c0-3.95-2.76-7.35-6.74-8.98,1.68-1.47,2.74-3.62,2.74-6.02,0-4.42-3.58-8-8-8s-8,3.58-8,8c0,1.2.27,2.34.74,3.36"/>
      <path class="cls-4" d="M936.69,185.36c.48-1.02.74-2.16.74-3.36,0-4.42-3.58-8-8-8s-8,3.58-8,8c0,2.4,1.06,4.55,2.74,6.02-3.99,1.62-6.74,5.03-6.74,8.98v7"/>
      <path class="cls-4" d="M927.43,218v-7c0-4.91,3.44-9.12,8.37-10.98-2.05-1.65-3.37-4.18-3.37-7.02,0-4.97,4.03-9,9-9s9,4.03,9,9c0,2.84-1.32,5.37-3.37,7.02,4.93,1.86,8.37,6.07,8.37,10.98v7"/>
    </g>
  </g>
  <g>
    <rect class="cls-1" x="481.43" y="296" width="80" height="80"/>
    <g>
      <circle class="cls-6" cx="503.43" cy="335" r="7"/>
      <polyline class="cls-4" points="510.43 335 546.43 335 546.43 344"/>
      <line class="cls-4" x1="534.43" y1="335" x2="534.43" y2="344"/>
    </g>
  </g>
  <g>
    <rect class="cls-1" x="1181.43" y="996" width="80" height="80"/>
    <g>
      <g>
        <circle class="cls-4" cx="1221.43" cy="1012.5" r="1"/>
        <circle class="cls-4" cx="1207.67" cy="1016.84" r="1"/>
        <circle class="cls-4" cx="1198.88" cy="1028.29" r="1"/>
        <circle class="cls-4" cx="1235.2" cy="1016.84" r="1"/>
        <circle class="cls-4" cx="1243.99" cy="1028.29" r="1"/>
      </g>
      <path class="cls-4" d="M1228.43,1055.5c0,2.76-2.24,5-5,5h-4c-2.76,0-5-2.24-5-5v-3.1c0-1.71-.65-3.75-1.45-4.55-.8-.8-1.45-1.45-1.45-1.45-2.54-2.53-4.1-6.03-4.1-9.9,0-7.73,6.27-14,14-14s14,6.27,14,14c0,3.87-1.57,7.37-4.1,9.9,0,0-.65.65-1.45,1.45-.8.8-1.45,2.84-1.45,4.55v3.1Z"/>
      <line class="cls-4" x1="1228.96" y1="1049.5" x2="1213.91" y2="1049.5"/>
    </g>
  </g>
  <g>
    <g>
      <g>
        <path class="cls-4" d="M1215.43,187.5c0-1.54.59-3.07,1.76-4.24,2.35-2.34,6.16-2.34,8.51,0,2.35,2.34,2.25,6.73,0,8.48s-4.28,2.76-4.28,5.27v2.48"/>
        <circle class="cls-4" cx="1221.43" cy="209.5" r="1"/>
      </g>
      <path class="cls-4" d="M1241.56,209.06c2.44-3.76,3.87-8.24,3.87-13.06,0-13.25-10.75-24-24-24s-24,10.75-24,24,10.75,24,24,24c4.82,0,9.3-1.42,13.06-3.87"/>
    </g>
    <rect class="cls-1" x="1181.43" y="156" width="80" height="80"/>
  </g>
  <g>
    <g>
      <polygon class="cls-4" points="1496.43 1048 1512.43 1036 1496.43 1024 1496.43 1048"/>
      <path class="cls-4" d="M1521.56,1049.06c2.44-3.76,3.87-8.24,3.87-13.06,0-13.25-10.75-24-24-24s-24,10.75-24,24,10.75,24,24,24c4.82,0,9.3-1.42,13.06-3.87"/>
    </g>
    <rect class="cls-1" x="1461.43" y="996" width="80" height="80"/>
  </g>
  <g>
    <g>
      <g>
        <path class="cls-4" d="M1376.43,1230h-36c-2.76,0-5-2.24-5-5v-21c0-2.76,2.24-5,5-5h36c2.76,0,5,2.24,5,5v17"/>
        <line class="cls-4" x1="1345.43" y1="1199" x2="1345.43" y2="1190"/>
        <line class="cls-4" x1="1371.43" y1="1221" x2="1371.43" y2="1208"/>
        <circle class="cls-4" cx="1345.43" cy="1209" r="1"/>
        <circle class="cls-4" cx="1345.43" cy="1220" r="1"/>
        <circle class="cls-4" cx="1356.43" cy="1209" r="1"/>
        <circle class="cls-4" cx="1356.43" cy="1220" r="1"/>
      </g>
      <rect class="cls-1" x="1318.43" y="1173" width="80" height="80"/>
    </g>
    <g>
      <g>
        <path class="cls-4" d="M1476.43,1230h-36c-2.76,0-5-2.24-5-5v-20c0-2.76,2.24-5,5-5h36c2.76,0,5,2.24,5,5v16"/>
        <line class="cls-4" x1="1445.43" y1="1200" x2="1445.43" y2="1190"/>
        <line class="cls-4" x1="1465.43" y1="1200" x2="1465.43" y2="1230"/>
        <line class="cls-4" x1="1445.43" y1="1210" x2="1455.43" y2="1210"/>
        <line class="cls-4" x1="1445.43" y1="1220" x2="1455.43" y2="1220"/>
      </g>
      <rect class="cls-1" x="1418.43" y="1173" width="80" height="80"/>
    </g>
    <g>
      <g>
        <path class="cls-4" d="M1578.43,1230h-38c-2.76,0-5-2.24-5-5v-22c0-2.76,2.24-5,5-5h38c2.76,0,5,2.24,5,5v18"/>
        <line class="cls-4" x1="1545.43" y1="1198" x2="1545.43" y2="1188"/>
        <line class="cls-4" x1="1545.43" y1="1209" x2="1552.43" y2="1209"/>
        <line class="cls-4" x1="1545.43" y1="1219" x2="1552.43" y2="1219"/>
        <circle class="cls-4" cx="1567.43" cy="1214" r="6"/>
      </g>
      <rect class="cls-1" x="1518.43" y="1173" width="80" height="80"/>
    </g>
  </g>
  <path class="cls-4" d="M15.1,483.03c0-12.57,8.96-22.76,20-22.76s20,10.19,20,22.76"/>
  <path class="cls-3" d="M2.45,483.03c0-20.03,14.62-36.26,32.65-36.26s32.65,16.24,32.65,36.26"/>
</svg>