<?xml version="1.0" encoding="UTF-8"?>
<svg id="BT_products_services" data-name="BT products &amp;amp; services" xmlns="http://www.w3.org/2000/svg" viewBox="0 0 1601.98 1320.17">
  <defs>
    <style>
      .cls-1, .cls-2, .cls-3 {
        fill: none;
      }

      .cls-2, .cls-4 {
        stroke-linecap: round;
        stroke-linejoin: round;
      }

      .cls-2, .cls-4, .cls-3 {
        stroke: #000;
        stroke-width: 5px;
      }

      .cls-5 {
        font-size: 12px;
      }

      .cls-5, .cls-6 {
        font-family: NewBT-Regular, 'FXCWX H+ New BT';
      }

      .cls-6, .cls-7 {
        font-size: 24px;
      }

      .cls-4, .cls-8 {
        fill: #fff;
      }

      .cls-9 {
        fill-rule: evenodd;
      }

      .cls-10 {
        fill: red;
        font-size: 18px;
      }

      .cls-11 {
        font-family: BTMedium, 'FXCWX H+ BT';
      }
    </style>
  </defs>
  <rect class="cls-8" x="411.43" width="1190.55" height="1320.17"/>
  <text class="cls-5" transform="translate(914.31 246.33)"><tspan x="0" y="0">Home Hub</tspan></text>
  <g>
    <g>
      <rect class="cls-2" x="936.43" y="187" width="10" height="24"/>
      <path class="cls-2" d="M951.43,221h-20v-5c0-2.76,2.24-5,5-5h10c2.76,0,5,2.24,5,5v5Z"/>
      <path class="cls-2" d="M951.43,216h6c2.76,0,5-2.24,5-5v-30"/>
      <path class="cls-2" d="M957.43,171h-32c-2.76,0-5,2.24-5,5v35c0,2.76,2.24,5,5,5h6"/>
    </g>
    <rect class="cls-1" x="901.43" y="156" width="80" height="80"/>
  </g>
  <text class="cls-5" transform="translate(1031.8196 246.3257)"><tspan x="0" y="0">Printed Phone Book</tspan></text>
  <g>
    <g>
      <path class="cls-2" d="M1081.43,215s-4.5-5-20-5c-2.76,0-5-2.24-5-5v-23c0-2.76,2.24-5,5-5,15.5,0,20,5,20,5v33Z"/>
      <path class="cls-2" d="M1066.43,188.19c1.87.15,3.53.38,5,.65"/>
      <path class="cls-2" d="M1066.43,198.19c1.87.15,3.53.38,5,.65"/>
      <path class="cls-2" d="M1096.43,188.19c-1.87.15-3.53.38-5,.65"/>
      <path class="cls-2" d="M1096.43,198.19c-1.87.15-3.53.38-5,.65"/>
      <path class="cls-2" d="M1106.43,200v-18c0-2.76-2.24-5-5-5-15.5,0-20,5-20,5v33s4.5-5,20-5"/>
    </g>
    <rect class="cls-1" x="1041.43" y="156" width="80" height="80"/>
  </g>
  <text class="cls-6" transform="translate(441.43 74.77)"><tspan x="0" y="0">BT products &amp; services</tspan></text>
  <text class="cls-5" transform="translate(456.81 246.33)"><tspan x="0" y="0">Digital Vault/Auto Backup</tspan></text>
  <g>
    <g>
      <path class="cls-2" d="M538.43,212h-34c-2.76,0-5-2.24-5-5v-26c0-2.76,2.24-5,5-5h8c2.76,0,5,2.24,5,5h21c2.76,0,5,2.24,5,5v16"/>
      <g>
        <circle class="cls-2" cx="521.43" cy="194" r="2"/>
        <line class="cls-2" x1="521.43" y1="194" x2="521.43" y2="202"/>
      </g>
    </g>
    <rect class="cls-1" x="481.43" y="156" width="80" height="80"/>
  </g>
  <text class="cls-5" transform="translate(622.48 246.33)"><tspan x="0" y="0">BT Snap &amp; Send</tspan></text>
  <g>
    <g>
      <circle class="cls-2" cx="661.43" cy="198.5" r="6"/>
      <polyline class="cls-2" points="681.43 183.5 686.43 176.5 691.43 183.5"/>
      <path class="cls-2" d="M686.43,176.5v27c0,5.52-4.48,10-10,10h-35c-2.76,0-5-2.24-5-5v-20c0-2.76,2.24-5,5-5h12c0-2.76,2.24-5,5-5h6c2.76,0,5,2.24,5,5h3"/>
    </g>
    <rect class="cls-1" x="621.43" y="156" width="80" height="80"/>
  </g>
  <text class="cls-5" transform="translate(762.25 246.33)"><tspan x="0" y="0">Broadband Talk</tspan></text>
  <g>
    <rect class="cls-1" x="761.43" y="156" width="80" height="80"/>
    <g>
      <g>
        <line class="cls-2" x1="806.43" y1="189" x2="806.43" y2="171"/>
        <circle class="cls-2" cx="813.43" cy="189" r="7"/>
      </g>
      <path class="cls-2" d="M814.76,209.89l-1.41-1.41c-1.95-1.95-5.12-1.95-7.07,0-1.56,1.56-5.36.3-8.49-2.83-3.12-3.12-4.39-6.92-2.83-8.49,1.95-1.95,1.95-5.12,0-7.07l-1.41-1.41c-1.95-1.95-5.12-1.95-7.07,0l-2.12,2.12c-4.29,4.3-1.45,14.11,6.37,21.92,7.81,7.81,17.62,10.66,21.92,6.36"/>
    </g>
  </g>
  <text class="cls-5" transform="translate(1178.7496 246.3257)"><tspan x="0" y="0">My Mobile World</tspan></text>
  <g>
    <g>
      <path class="cls-4" d="M1211.43,191c0-2.76,2.24-5,5-5h25c2.76,0,5,2.24,5,5v7"/>
      <path class="cls-4" d="M1196.43,206v-7c0-3.95,2.75-7.35,6.74-8.98-1.68-1.47-2.74-3.62-2.74-6.02,0-4.42,3.58-8,8-8s8,3.58,8,8c0,2.4-1.07,4.55-2.74,6.02,3.99,1.62,6.74,5.03,6.74,8.98v12c0,2.76,2.24,5,5,5"/>
      <polyline class="cls-2" points="1234.43 212 1238.43 216 1246.43 208"/>
    </g>
    <rect class="cls-1" x="1181.43" y="156" width="80" height="80"/>
  </g>
  <text class="cls-5" transform="translate(1315.6054 246.3257)"><tspan x="0" y="0">One Address Book</tspan></text>
  <text class="cls-5" transform="translate(1456.3136 246.3257)"><tspan x="0" y="0">BT Yahoo Services</tspan></text>
  <g>
    <path class="cls-2" d="M1361.43,215s-4.5-5-20-5c-2.76,0-5-2.24-5-5v-23c0-2.76,2.24-5,5-5,15.5,0,20,5,20,5v33Z"/>
    <path class="cls-2" d="M1386.43,200v-18c0-2.76-2.24-5-5-5-15.5,0-20,5-20,5v33s4.5-5,20-5"/>
  </g>
  <g>
    <g>
      <path class="cls-9" d="M1513.6,208.8l6.14-6.34h3.34v-1.75h-8.78v1.75h2.35l-3.84,4.09-4.54-6.19h3.14v-1.45h-10.33v1.45h3.34l6.14,8.28v3.34h-3.49v1.85h10.23v-1.85h-3.69v-3.19h0ZM1524.81,212.71h2.29v-2.05h-2.29v2.05h0ZM1525.51,199.38l-.25,9.43,1.85.15,2.39-9.33-3.99-.25h0Z"/>
      <path class="cls-2" d="M1498.08,208.16h-13.71c-2.76,0-5-2.24-5-5v-25h38v13.68"/>
      <line class="cls-2" x1="1479.36" y1="188.16" x2="1507.36" y2="188.16"/>
    </g>
    <rect class="cls-1" x="1461.43" y="156" width="80" height="80"/>
  </g>
  <g>
    <g>
      <path d="M510.68,317.97c2.77,0,5.02.53,6.75,1.6,1.27.77,2.3,1.81,3.1,3.13.8,1.32,1.2,2.86,1.2,4.63,0,1.67-.43,3.21-1.3,4.63-.87,1.42-2.07,2.5-3.6,3.23,1.9.77,3.36,1.89,4.37,3.37,1.02,1.48,1.52,3.09,1.52,4.82,0,1.6-.27,3.05-.82,4.34-.55,1.3-1.32,2.41-2.32,3.34-1,.93-2.2,1.66-3.6,2.17-1.4.52-2.95.77-4.65.77h-11.15c-.53,0-.8-.25-.8-.75v-34.55c0-.5.27-.75.8-.75h10.5ZM515.18,328.02c0-1.55-.44-2.75-1.33-3.61-.88-.86-2.04-1.29-3.47-1.29h-4.65v9.9h4.8c1.4,0,2.53-.44,3.37-1.31.85-.88,1.28-2.1,1.28-3.69ZM516.18,343.42c0-1.67-.54-2.96-1.62-3.88-1.08-.92-2.39-1.38-3.93-1.38h-4.9v10.5h4.6c.8,0,1.56-.09,2.27-.28.72-.18,1.33-.48,1.85-.9.52-.42.93-.96,1.25-1.62.32-.67.47-1.48.47-2.45Z"/>
      <path d="M538.23,323.38v29.9c0,.5-.27.75-.8.75h-4.7c-.53,0-.8-.25-.8-.75v-29.9h-7.45c-.5,0-.75-.27-.75-.8v-3.8c0-.53.25-.8.75-.8h21.25c.5,0,.75.27.75.8v3.8c0,.53-.25.8-.75.8h-7.5Z"/>
    </g>
    <rect class="cls-1" x="481.43" y="296" width="80" height="80"/>
  </g>
  <g>
    <rect class="cls-1" x="621.43" y="296" width="80" height="80"/>
    <g>
      <g>
        <path class="cls-2" d="M663,350h-24c-2.76,0-5-2.24-5-5v-20c0-2.76,2.24-5,5-5h40c2.76,0,5,2.24,5,5v5"/>
        <polyline class="cls-2" points="639 320 659 337 679 320"/>
      </g>
      <path class="cls-9" d="M680.16,348.88l6.45-6.66h3.51v-1.84h-9.23v1.84h2.46l-4.04,4.3-4.77-6.5h3.3v-1.52h-10.85v1.52h3.51l6.45,8.7v3.51h-3.67v1.94h10.75v-1.94h-3.88v-3.35h0ZM691.94,352.98h2.41v-2.15h-2.41v2.15h0ZM692.67,338.98l-.26,9.91,1.94.16,2.52-9.8-4.19-.26h0Z"/>
    </g>
  </g>
  <text class="cls-5" transform="translate(493.64 386.33)"><tspan x="0" y="0">BT Services</tspan></text>
  <text class="cls-5" transform="translate(630.44 386.33)"><tspan x="0" y="0">Yahoo Email</tspan></text>
  <text class="cls-5" transform="translate(723.86 386.33)"><tspan x="0" y="0">BT Managed Secure Messaging</tspan></text>
  <g>
    <g>
      <g>
        <path class="cls-2" d="M962.93,341v6.79c0,4.14-1.68,6.89-4.39,9.61l-9.61,8.61-9.61-8.61c-2.71-2.71-4.39-5.46-4.39-9.61v-11.79h0c0-2.76,2.24-5,5-5h19"/>
        <g>
          <line class="cls-2" x1="948.93" y1="341" x2="948.93" y2="351"/>
          <line class="cls-2" x1="953.93" y1="346" x2="943.93" y2="346"/>
        </g>
      </g>
      <g>
        <path class="cls-2" d="M919.93,312v7-13,6Z"/>
        <path class="cls-2" d="M946.93,331v-11c0-2.76-2.24-5-5-5h-17c-2.76,0-5,2.24-5,5v30c0,2.76,2.24,5,5,5h12.33"/>
      </g>
    </g>
    <rect class="cls-1" x="901.43" y="296" width="80" height="80"/>
  </g>
  <text class="cls-5" transform="translate(902.67 386.33)"><tspan x="0" y="0">Mobile Security</tspan></text>
  <text class="cls-5" transform="translate(1014.7801 386.3257)"><tspan x="0" y="0">BT Mobile Device Manager</tspan></text>
  <text class="cls-5" transform="translate(1175.3116 386.3257)"><tspan x="0" y="0">BT NetProtect Plus</tspan></text>
  <g>
    <g>
      <g>
        <path class="cls-2" d="M1067.48,359c-2.73-2.73-2.73-7.17,0-9.9s7.17-2.73,9.9,0c2.73,2.73,2.73,7.17,0,9.9"/>
        <path class="cls-2" d="M1067.48,313c-2.73,2.73-2.73,7.17,0,9.9,2.73,2.73,7.17,2.73,9.9,0s2.73-7.17,0-9.9"/>
        <line class="cls-3" x1="1072.43" y1="324.95" x2="1072.43" y2="347.05"/>
      </g>
      <path class="cls-2" d="M1088.21,343.78c1.99-1.99,3.22-4.74,3.22-7.78s-1.23-5.79-3.22-7.78"/>
      <path class="cls-2" d="M1095.28,350.85c3.8-3.8,6.15-9.05,6.15-14.85s-2.35-11.05-6.15-14.85"/>
    </g>
    <rect class="cls-1" x="1041.43" y="296" width="80" height="80"/>
  </g>
  <g>
    <g>
      <polyline class="cls-2" points="782.43 354.5 775.43 347.5 788.43 347.5"/>
      <polyline class="cls-2" points="820.43 327.5 827.43 334.5 814.43 334.5"/>
      <g>
        <g>
          <circle class="cls-2" cx="801.43" cy="337.5" r="2"/>
          <line class="cls-2" x1="801.43" y1="337.5" x2="801.43" y2="343.5"/>
        </g>
        <path class="cls-2" d="M814.43,344.5v-10c0-2.76-2.24-5-5-5v-4c0-4.42-3.58-8-8-8s-8,3.58-8,8v4c-2.76,0-5,2.24-5,5v13c0,2.76,2.24,5,5,5h16"/>
      </g>
    </g>
    <rect class="cls-1" x="761.43" y="296" width="80" height="80"/>
  </g>
  <g>
    <rect class="cls-1" x="1181.43" y="296" width="80" height="80"/>
    <path class="cls-2" d="M1234.43,313h-26c-2.76,0-5,2.24-5,5v13.57c0,8.28,3.36,13.78,8.79,19.21l9.21,8.21,9.21-8.21c5.43-5.43,8.79-10.93,8.79-19.21v-8.57"/>
  </g>
  <text class="cls-11" transform="translate(958.93 669.99)"><tspan class="cls-7"><tspan x="0" y="0">Mobile broadband (dongle)</tspan></tspan><tspan class="cls-10"><tspan x="0" y="21.6">This has been created by LBi and tweaked by us. </tspan></tspan><tspan class="cls-10"><tspan x="0" y="43.2">Not sure if it’s a procuduct/service or technology.</tspan></tspan><tspan class="cls-10"><tspan x="0" y="64.8">Also hasn’t been signed off yet.</tspan></tspan><tspan class="cls-10"><tspan x="0" y="86.4">EPS has bee ncreated but no PNG artwork yet.</tspan></tspan></text>
  <g>
    <g>
      <polyline class="cls-2" points="1075.43 576.5 1075.43 564.5 1065.43 564.5 1065.43 598.5 1085.43 598.5 1085.43 569.5"/>
      <g>
        <path class="cls-2" d="M1084.43,558.5c6.08,0,11,4.92,11,11"/>
        <path class="cls-2" d="M1084.43,548.5c11.61,0,21,9.39,21,21"/>
      </g>
    </g>
    <rect class="cls-1" x="1043.43" y="534.5" width="80" height="80"/>
  </g>
</svg>