<?xml version="1.0" encoding="UTF-8"?>
<svg id="Communications" xmlns="http://www.w3.org/2000/svg" viewBox="0 0 1601.98 1320.17">
  <defs>
    <style>
      .cls-1, .cls-2, .cls-3, .cls-4 {
        fill: none;
      }

      .cls-2 {
        stroke: #000;
      }

      .cls-2, .cls-3, .cls-4 {
        stroke-linecap: round;
        stroke-linejoin: round;
        stroke-width: 5px;
      }

      .cls-5 {
        font-size: 12px;
      }

      .cls-5, .cls-6 {
        font-family: NewBT-Regular, 'FXCWX H+ New BT';
      }

      .cls-6 {
        font-size: 24px;
      }

      .cls-7 {
        font-family: NewBT-Bold, 'FXCWX H+ New BT';
        font-size: 16px;
        font-weight: 700;
        letter-spacing: .05em;
      }

      .cls-8 {
        fill: #fff;
      }

      .cls-3 {
        stroke: red;
      }

      .cls-9 {
        fill: red;
      }

      .cls-4 {
        stroke: #1a862d;
      }
    </style>
  </defs>
  <rect class="cls-8" x="411.43" width="1190.55" height="1320.17"/>
  <g>
    <rect class="cls-1" x="901.43" y="716" width="80" height="80"/>
    <g>
      <path class="cls-2" d="M957.03,776.76c-4.95,4.95-14.85,2.12-26.16-9.19-11.31-11.31-14.14-21.21-9.19-26.16l2.12-2.12c1.95-1.95,5.12-1.95,7.07,0l3.54,3.54c1.95,1.95,1.95,5.12,0,7.07-2.12,2.12-2.12,4.95,3.54,10.61,5.66,5.66,8.48,5.66,10.61,3.54,1.95-1.95,5.12-1.95,7.07,0l3.54,3.54"/>
      <g>
        <line class="cls-2" x1="955.83" y1="733" x2="955.83" y2="741"/>
        <line class="cls-2" x1="948.22" y1="738.53" x2="955.83" y2="741"/>
        <line class="cls-2" x1="951.12" y1="747.47" x2="955.83" y2="741"/>
        <line class="cls-2" x1="960.53" y1="747.47" x2="955.83" y2="741"/>
        <line class="cls-2" x1="963.43" y1="738.53" x2="955.83" y2="741"/>
      </g>
    </g>
  </g>
  <g>
    <g>
      <g>
        <line class="cls-2" x1="680.43" y1="775" x2="680.43" y2="765"/>
        <line class="cls-2" x1="670.43" y1="775" x2="670.43" y2="765"/>
      </g>
      <path class="cls-2" d="M653.54,769.32l1.41-1.41c1.95-1.95,1.95-5.12,0-7.07-1.56-1.56-.29-5.36,2.83-8.48,3.12-3.12,6.92-4.39,8.49-2.83,1.95,1.95,5.12,1.95,7.07,0l1.41-1.41c1.95-1.95,1.95-5.12,0-7.07l-2.12-2.12c-4.3-4.29-14.11-1.45-21.92,6.37-7.81,7.81-10.66,17.62-6.36,21.92"/>
    </g>
    <rect class="cls-1" x="621.43" y="716" width="80" height="80"/>
  </g>
  <g>
    <g>
      <g>
        <circle class="cls-2" cx="522.43" cy="772" r="1"/>
        <circle class="cls-2" cx="533.43" cy="772" r="1"/>
        <circle class="cls-2" cx="544.43" cy="772" r="1"/>
      </g>
      <path class="cls-2" d="M508.54,771.32l1.41-1.41c1.95-1.95,1.95-5.12,0-7.07-1.56-1.56-.29-5.36,2.83-8.49,3.12-3.12,6.92-4.39,8.49-2.83,1.95,1.95,5.12,1.95,7.07,0l1.41-1.41c1.95-1.95,1.95-5.12,0-7.07l-2.12-2.12c-4.3-4.29-14.11-1.45-21.92,6.37-7.81,7.81-10.66,17.62-6.36,21.92"/>
    </g>
    <rect class="cls-1" x="481.43" y="716" width="80" height="80"/>
  </g>
  <g>
    <g>
      <path class="cls-2" d="M791.54,770.32l1.41-1.41c1.95-1.95,1.95-5.12,0-7.07-1.56-1.56-.29-5.36,2.83-8.49,3.12-3.12,6.92-4.39,8.49-2.83,1.95,1.95,5.12,1.95,7.07,0l1.41-1.41c1.95-1.95,1.95-5.12,0-7.07l-2.12-2.12c-4.3-4.29-14.11-1.45-21.92,6.37-7.81,7.81-10.66,17.62-6.36,21.92"/>
      <g>
        <polyline class="cls-2" points="815.43 764 822.43 769 815.43 774"/>
        <line class="cls-2" x1="806.43" y1="769" x2="822.43" y2="769"/>
      </g>
    </g>
    <rect class="cls-1" x="761.43" y="716" width="80" height="80"/>
  </g>
  <g>
    <g>
      <path class="cls-3" d="M1074.54,770.32l1.41-1.41c1.95-1.95,1.95-5.12,0-7.07-1.56-1.56-.29-5.36,2.83-8.49,3.12-3.12,6.92-4.39,8.49-2.83,1.95,1.95,5.12,1.95,7.07,0l1.41-1.41c1.95-1.95,1.95-5.12,0-7.07l-2.12-2.12c-4.3-4.29-14.11-1.45-21.92,6.37-7.81,7.81-10.66,17.62-6.36,21.92"/>
      <g>
        <line class="cls-3" x1="1089.43" y1="764" x2="1099.43" y2="774"/>
        <line class="cls-3" x1="1089.43" y1="774" x2="1099.43" y2="764"/>
      </g>
    </g>
    <rect class="cls-1" x="1041.43" y="716" width="80" height="80"/>
  </g>
  <g>
    <g>
      <path class="cls-4" d="M1213.54,771.32l1.41-1.41c1.95-1.95,1.95-5.12,0-7.07-1.56-1.56-.29-5.36,2.83-8.49,3.12-3.12,6.92-4.39,8.49-2.83,1.95,1.95,5.12,1.95,7.07,0l1.41-1.41c1.95-1.95,1.95-5.12,0-7.07l-2.12-2.12c-4.29-4.29-14.11-1.45-21.92,6.37-7.81,7.81-10.66,17.62-6.36,21.92"/>
      <polyline class="cls-4" points="1226.93 768.5 1231.43 773 1240.43 764"/>
    </g>
    <rect class="cls-1" x="1181.43" y="716" width="80" height="80"/>
  </g>
  <g>
    <rect class="cls-1" x="1461.43" y="156" width="80" height="80"/>
    <path class="cls-2" d="M1481.43,211h28c2.76,0,5-2.24,5-5v-3l12,8v-30l-12,8v-3c0-2.76-2.24-5-5-5h-28c-2.76,0-5,2.24-5,5v15"/>
  </g>
  <g>
    <rect class="cls-1" x="1041.43" y="156" width="80" height="80"/>
    <path class="cls-2" d="M1091.43,211c0,5.52-4.48,10-10,10s-10-4.48-10-10v-30c0-5.52,4.48-10,10-10s10,4.48,10,10v16c0,2.76-2.24,5-5,5s-5-2.24-5-5v-10"/>
  </g>
  <g>
    <rect class="cls-1" x="621.43" y="296" width="80" height="80"/>
    <polyline class="cls-2" points="677.43 315.05 656.48 336 645.43 324.95 645.43 356.95 677.43 356.95 666.38 345.9 677.43 334.85"/>
  </g>
  <g>
    <rect class="cls-1" x="481.43" y="296" width="80" height="80"/>
    <polyline class="cls-2" points="505.43 356.95 526.38 336 537.43 347.05 537.43 315.05 505.43 315.05 516.48 326.1 505.43 337.15"/>
  </g>
  <g>
    <rect class="cls-1" x="1181.43" y="156" width="80" height="80"/>
    <g>
      <path class="cls-2" d="M1229.43,221h-16c-2.76,0-5-2.24-5-5v-45"/>
      <path class="cls-2" d="M1208.43,186c0-2.76,2.24-5,5-5h16c2.76,0,5,2.24,5,5v25"/>
    </g>
  </g>
  <g>
    <rect class="cls-1" x="761.43" y="576" width="80" height="80"/>
    <g>
      <path class="cls-2" d="M821.43,633h-40c-2.76,0-5-2.24-5-5v-24c0-2.76,2.24-5,5-5h40c2.76,0,5,2.24,5,5v19"/>
      <circle class="cls-2" cx="815.43" cy="610" r="1"/>
      <g>
        <line class="cls-2" x1="790.43" y1="613" x2="804.43" y2="613"/>
        <line class="cls-2" x1="790.43" y1="623" x2="804.43" y2="623"/>
      </g>
    </g>
  </g>
  <g>
    <rect class="cls-1" x="1321.43" y="436" width="80" height="80"/>
    <g>
      <polyline class="cls-2" points="1356.43 466 1356.43 452 1378.43 452 1378.43 466"/>
      <g>
        <g>
          <circle class="cls-2" cx="1361.43" cy="477" r="1"/>
          <circle class="cls-2" cx="1373.43" cy="477" r="1"/>
          <circle class="cls-2" cx="1361.43" cy="489" r="1"/>
          <circle class="cls-2" cx="1373.43" cy="489" r="1"/>
        </g>
        <path class="cls-2" d="M1379.43,500h-24c-2.76,0-5-2.24-5-5v-24c0-2.76,2.24-5,5-5h24c2.76,0,5,2.24,5,5v19"/>
      </g>
      <rect class="cls-2" x="1338.43" y="466" width="12" height="34" rx="5" ry="5"/>
    </g>
  </g>
  <g>
    <g>
      <path class="cls-2" d="M796.43,339h-23c-2.76,0-5-2.24-5-5v-9"/>
      <path class="cls-2" d="M801.43,315l-14,13-14-13h28c2.76,0,5,2.24,5,5v12"/>
      <path class="cls-2" d="M796.43,347v-10c0-2.76,2.24-5,5-5h19c2.76,0,5,2.24,5,5v1.5l9-6.5v25l-9-6.5v1.5c0,2.76-2.24,5-5,5h-19"/>
    </g>
    <rect class="cls-1" x="761.43" y="296" width="80" height="80"/>
  </g>
  <g>
    <g>
      <path class="cls-2" d="M523.43,631h-22c-2.76,0-5-2.24-5-5v-20c0-2.76,2.24-5,5-5h40c2.76,0,5,2.24,5,5v3"/>
      <polyline class="cls-2" points="501.43 601 521.43 618 541.43 601"/>
      <path d="M548.87,623.77c0,.71-.11,1.39-.32,2.06-.22.67-.54,1.26-.96,1.77-.42.51-.94.93-1.56,1.24-.62.31-1.32.47-2.12.47-.22,0-.46-.02-.72-.06-.26-.04-.51-.1-.77-.19-.26-.09-.5-.21-.73-.36-.23-.15-.43-.34-.59-.56-.32.26-.66.47-1.02.65-.36.18-.81.27-1.36.27-1.01,0-1.76-.32-2.26-.95-.5-.63-.74-1.43-.74-2.41,0-.67.11-1.28.32-1.83s.56-1.07,1.02-1.55c.91-.93,2.09-1.39,3.53-1.39.35,0,.73.02,1.14.07.41.05.87.13,1.38.26l-.43,4.37c-.02.11-.03.24-.04.37,0,.14-.01.24-.01.32,0,.43.13.71.41.84.27.13.58.19.94.19.45,0,.83-.09,1.15-.28.32-.18.59-.44.79-.77.21-.33.36-.71.46-1.14.1-.43.14-.91.14-1.42,0-.91-.16-1.73-.47-2.44-.31-.71-.75-1.32-1.31-1.81-.56-.5-1.24-.87-2.04-1.13-.8-.26-1.69-.38-2.66-.38s-1.87.17-2.69.5c-.81.34-1.51.81-2.1,1.42-.58.61-1.04,1.34-1.36,2.2-.32.86-.48,1.8-.48,2.82,0,1.09.15,2.07.46,2.94.3.87.74,1.61,1.31,2.22.57.61,1.26,1.08,2.08,1.41.82.33,1.74.49,2.76.49.54,0,1.05-.03,1.51-.08.46-.06.96-.14,1.49-.25v2.12c-.38.1-.84.17-1.37.23-.53.05-1.1.08-1.71.08-1.29,0-2.49-.19-3.58-.58s-2.03-.96-2.83-1.73c-.8-.77-1.43-1.72-1.88-2.86-.45-1.14-.68-2.47-.68-3.99,0-1.31.22-2.53.67-3.65.45-1.12,1.07-2.09,1.87-2.89.8-.81,1.76-1.44,2.89-1.9,1.13-.46,2.37-.68,3.73-.68,1.17,0,2.27.16,3.32.49,1.05.33,1.97.83,2.77,1.49.8.67,1.44,1.5,1.91,2.49.47,1,.71,2.16.71,3.49ZM540.84,622.76c-.08-.02-.16-.02-.23-.02h-.23c-.75,0-1.35.26-1.79.78-.44.52-.66,1.18-.66,1.98,0,.46.08.85.24,1.15.16.3.49.46.98.46.26,0,.49-.04.71-.11.21-.07.4-.16.54-.28l.43-3.97Z"/>
    </g>
    <rect class="cls-1" x="481.43" y="576" width="80" height="80"/>
  </g>
  <g>
    <path class="cls-2" d="M1381.43,181l-20,17-20-17h40c2.76,0,5,2.24,5,5v20c0,2.76-2.24,5-5,5h-40c-2.76,0-5-2.24-5-5v-15"/>
    <rect class="cls-1" x="1321.43" y="156" width="80" height="80"/>
  </g>
  <g>
    <rect class="cls-1" x="481.43" y="156" width="80" height="80"/>
    <path class="cls-2" d="M539.17,214.35c-4.95,4.95-14.85,2.12-26.16-9.19-11.31-11.31-14.14-21.21-9.19-26.16l2.12-2.12c1.95-1.95,5.12-1.95,7.07,0l3.54,3.54c1.95,1.95,1.95,5.12,0,7.07-2.12,2.12-2.12,4.95,3.54,10.61,5.66,5.66,8.48,5.66,10.61,3.54,1.95-1.95,5.12-1.95,7.07,0l3.54,3.54"/>
  </g>
  <g>
    <g>
      <path class="cls-2" d="M961.43,493h-40c-2.76,0-5-2.24-5-5v-24c0-2.76,2.24-5,5-5h40c2.76,0,5,2.24,5,5v20"/>
      <circle class="cls-2" cx="931.43" cy="476" r="5"/>
      <circle class="cls-2" cx="951.43" cy="476" r="5"/>
      <line class="cls-2" x1="931.43" y1="481" x2="951.43" y2="481"/>
    </g>
    <rect class="cls-1" x="901.43" y="436" width="80" height="80"/>
  </g>
  <g>
    <rect class="cls-1" x="1181.43" y="436" width="80" height="80"/>
    <g>
      <path class="cls-2" d="M1212.27,480.37c-1.56,1.56-5.36.29-8.49-2.83-3.12-3.12-4.39-6.92-2.83-8.49,1.95-1.95,1.95-5.12,0-7.07l-1.41-1.41c-1.95-1.95-5.12-1.95-7.07,0l-2.12,2.12c-4.3,4.3-1.45,14.11,6.36,21.92,7.81,7.81,17.62,10.66,21.92,6.37l2.12-2.12c1.95-1.95,1.95-5.12,0-7.07l-1.41-1.41c-1.95-1.95-5.12-1.95-7.07,0Z"/>
      <g>
        <path class="cls-2" d="M1254.43,478v-10c0-2.76-2.24-5-5-5h-28c-2.76,0-5,2.24-5,5v5s0,5.97,0,5.97"/>
        <line class="cls-2" x1="1221.91" y1="487" x2="1249.43" y2="487"/>
        <polyline class="cls-2" points="1249.44 463 1235.44 476 1221.44 463"/>
      </g>
    </g>
  </g>
  <g>
    <rect class="cls-1" x="481.43" y="436" width="80" height="80"/>
    <g>
      <path class="cls-2" d="M512.43,477h-19c-2.76,0-5-2.24-5-5v-9"/>
      <path class="cls-2" d="M521.43,453l-14,13-14-13h28c2.76,0,5,2.24,5,5v14"/>
      <g>
        <path class="cls-2" d="M549.43,499h-32c-2.76,0-5-2.24-5-5v-17c0-2.76,2.24-5,5-5h9c0-2.76,2.24-5,5-5h4c2.76,0,5,2.24,5,5h9c2.76,0,5,2.24,5,5v12"/>
        <circle class="cls-2" cx="533.43" cy="485" r="5"/>
      </g>
    </g>
  </g>
  <text class="cls-6" transform="translate(461.43 74.77)"><tspan x="0" y="0">Communications</tspan></text>
  <g>
    <rect class="cls-1" x="761.43" y="156" width="80" height="80"/>
    <g>
      <path class="cls-2" d="M817.08,218.61c-4.95,4.95-14.85,2.12-26.16-9.19-11.31-11.31-14.14-21.21-9.19-26.16l2.12-2.12c1.95-1.95,5.12-1.95,7.07,0l3.54,3.54c1.95,1.95,1.95,5.12,0,7.07-2.12,2.12-2.12,4.95,3.54,10.61,5.66,5.66,8.48,5.66,10.61,3.54,1.95-1.95,5.12-1.95,7.07,0l3.54,3.54"/>
      <path class="cls-2" d="M822.12,198.2c2.66-5.57,1.7-12.44-2.92-17.06-4.62-4.62-11.49-5.58-17.06-2.92l7.07-7.07"/>
    </g>
  </g>
  <g>
    <g>
      <path class="cls-2" d="M674.08,218.71c-4.95,4.95-14.85,2.12-26.16-9.19-11.31-11.31-14.14-21.21-9.19-26.16l2.12-2.12c1.95-1.95,5.12-1.95,7.07,0l3.54,3.54c1.95,1.95,1.95,5.12,0,7.07-2.12,2.12-2.12,4.95,3.54,10.61,5.66,5.66,8.48,5.66,10.61,3.54,1.95-1.95,5.12-1.95,7.07,0l3.54,3.54"/>
      <g>
        <polyline class="cls-2" points="686.48 188.95 666.48 188.95 666.48 170.95"/>
        <polyline class="cls-2" points="679.48 193.95 686.48 188.95 679.48 183.95"/>
      </g>
    </g>
    <rect class="cls-1" x="621.43" y="156" width="80" height="80"/>
  </g>
  <g>
    <rect class="cls-1" x="1041.43" y="576" width="80" height="80"/>
    <g>
      <g>
        <polyline class="cls-2" points="1086.43 608 1081.43 601 1076.43 608"/>
        <line class="cls-2" x1="1081.43" y1="621" x2="1081.43" y2="601"/>
      </g>
      <path class="cls-2" d="M1059.43,621v5c0,2.76,2.24,5,5,5h34c2.76,0,5-2.24,5-5v-5"/>
    </g>
  </g>
  <g>
    <rect class="cls-1" x="901.43" y="576" width="80" height="80"/>
    <g>
      <g>
        <polyline class="cls-2" points="946.43 614 941.43 621 936.43 614"/>
        <line class="cls-2" x1="941.43" y1="601" x2="941.43" y2="621"/>
      </g>
      <path class="cls-2" d="M919.43,621v5c0,2.76,2.24,5,5,5h34c2.76,0,5-2.24,5-5v-5"/>
    </g>
  </g>
  <g>
    <rect class="cls-1" x="1461.43" y="576" width="80" height="80"/>
    <g>
      <line class="cls-2" x1="1496.43" y1="623.5" x2="1506.43" y2="613.5"/>
      <line class="cls-2" x1="1506.43" y1="623.5" x2="1496.43" y2="613.5"/>
      <path class="cls-2" d="M1518.43,634h-34c-2.76,0-5-2.24-5-5v-26c0-2.76,2.24-5,5-5h8c2.76,0,5,2.24,5,5h21c2.76,0,5,2.24,5,5v16"/>
    </g>
  </g>
  <g>
    <rect class="cls-1" x="1321.43" y="576" width="80" height="80"/>
    <g>
      <polyline class="cls-2" points="1353.43 619 1358.43 624 1369.43 613"/>
      <path class="cls-2" d="M1378.43,634h-34c-2.76,0-5-2.24-5-5v-26c0-2.76,2.24-5,5-5h8c2.76,0,5,2.24,5,5h21c2.76,0,5,2.24,5,5v16"/>
    </g>
  </g>
  <g>
    <g>
      <g>
        <polyline class="cls-2" points="1226.43 614 1221.43 621 1216.43 614"/>
        <line class="cls-2" x1="1221.43" y1="601" x2="1221.43" y2="621"/>
      </g>
      <path class="cls-2" d="M1199.43,621v5c0,2.76,2.24,5,5,5h34c2.76,0,5-2.24,5-5v-5"/>
      <g>
        <line class="cls-2" x1="1243.68" y1="601" x2="1243.68" y2="606"/>
        <line class="cls-2" x1="1238.92" y1="604.46" x2="1243.68" y2="606"/>
        <line class="cls-2" x1="1240.74" y1="610.04" x2="1243.68" y2="606"/>
        <line class="cls-2" x1="1246.62" y1="610.04" x2="1243.68" y2="606"/>
        <line class="cls-2" x1="1248.43" y1="604.45" x2="1243.68" y2="606"/>
      </g>
    </g>
    <rect class="cls-1" x="1181.43" y="576" width="80" height="80"/>
  </g>
  <g>
    <g>
      <path class="cls-2" d="M1092.43,493h-31c-2.76,0-5-2.24-5-5v-24c0-2.76,2.24-5,5-5h40c2.76,0,5,2.24,5,5v11"/>
      <g>
        <line class="cls-2" x1="1106.43" y1="483.96" x2="1106.43" y2="488.96"/>
        <line class="cls-2" x1="1101.68" y1="487.41" x2="1106.43" y2="488.96"/>
        <line class="cls-2" x1="1103.49" y1="493" x2="1106.43" y2="488.96"/>
        <line class="cls-2" x1="1109.37" y1="493" x2="1106.43" y2="488.96"/>
        <line class="cls-2" x1="1111.19" y1="487.41" x2="1106.43" y2="488.96"/>
      </g>
      <g>
        <circle class="cls-2" cx="1071.43" cy="476" r="5"/>
        <circle class="cls-2" cx="1091.43" cy="476" r="5"/>
        <line class="cls-2" x1="1071.43" y1="481" x2="1091.43" y2="481"/>
      </g>
    </g>
    <rect class="cls-1" x="1041.43" y="436" width="80" height="80"/>
  </g>
  <text class="cls-5" transform="translate(920.38 806.33)"><tspan x="0" y="0">New call</tspan></text>
  <text class="cls-5" transform="translate(631.64 806.33)"><tspan x="0" y="0">Call on hold</tspan></text>
  <text class="cls-5" transform="translate(771.86 806.33)"><tspan x="0" y="0">Dialled calls</tspan></text>
  <text class="cls-5" transform="translate(1052.0034 806.3262)"><tspan x="0" y="0">Missed calls</tspan></text>
  <text class="cls-5" transform="translate(1186.7655 806.3262)"><tspan x="0" y="0">Received calls</tspan></text>
  <text class="cls-5" transform="translate(492.17 806.33)"><tspan x="0" y="0">Call waiting</tspan></text>
  <text class="cls-5" transform="translate(1318.8754 246.3257)"><tspan x="0" y="0">Generic message</tspan></text>
  <text class="cls-5" transform="translate(1051.5532 246.3257)"><tspan x="0" y="0">Attachment</tspan></text>
  <text class="cls-5" transform="translate(481.11 386.33)"><tspan x="0" y="0">Outgoing/Made</tspan></text>
  <text class="cls-5" transform="translate(612.93 386.33)"><tspan x="0" y="0">Incoming/Received</tspan></text>
  <text class="cls-5" transform="translate(507.77 666.33)"><tspan x="0" y="0">Email</tspan></text>
  <text class="cls-5" transform="translate(1204.0752 246.3262)"><tspan x="0" y="0">Mobile</tspan></text>
  <g>
    <path d="M783.49,663.78l-.84,2.54h-1.08l2.75-8.08h1.26l2.76,8.08h-1.12l-.86-2.54h-2.87ZM786.14,662.97l-.79-2.33c-.18-.53-.3-1.01-.42-1.48h-.02c-.12.48-.25.97-.41,1.46l-.79,2.34h2.43Z"/>
    <path d="M794.51,657.81v7.02c0,.52.01,1.1.05,1.5h-.95l-.05-1.01h-.02c-.32.65-1.03,1.14-1.98,1.14-1.4,0-2.48-1.19-2.48-2.95-.01-1.93,1.19-3.12,2.6-3.12.89,0,1.49.42,1.75.89h.02v-3.47h1.06ZM793.45,662.88c0-.13-.01-.31-.05-.44-.16-.67-.73-1.22-1.52-1.22-1.09,0-1.74.96-1.74,2.24,0,1.17.58,2.15,1.71,2.15.71,0,1.36-.47,1.55-1.26.04-.14.05-.29.05-.46v-1.01Z"/>
    <path d="M801.27,657.81v7.02c0,.52.01,1.1.05,1.5h-.95l-.05-1.01h-.02c-.32.65-1.03,1.14-1.98,1.14-1.4,0-2.48-1.19-2.48-2.95-.01-1.93,1.19-3.12,2.6-3.12.89,0,1.49.42,1.75.89h.02v-3.47h1.06ZM800.22,662.88c0-.13-.01-.31-.05-.44-.16-.67-.73-1.22-1.52-1.22-1.09,0-1.74.96-1.74,2.24,0,1.17.58,2.15,1.72,2.15.71,0,1.35-.47,1.55-1.26.04-.14.05-.29.05-.46v-1.01Z"/>
    <path d="M803.03,662.33c0-.68-.01-1.27-.05-1.81h.92l.04,1.14h.05c.26-.78.9-1.27,1.61-1.27.12,0,.2.01.3.04v1c-.11-.02-.22-.04-.36-.04-.74,0-1.27.56-1.42,1.36-.02.14-.05.31-.05.49v3.09h-1.04v-3.99Z"/>
    <path d="M807.54,663.62c.02,1.43.94,2.02,1.99,2.02.76,0,1.21-.13,1.61-.3l.18.75c-.37.17-1.01.36-1.93.36-1.79,0-2.85-1.18-2.85-2.93s1.03-3.13,2.72-3.13c1.9,0,2.4,1.67,2.4,2.73,0,.22-.02.38-.04.49h-4.08ZM810.63,662.86c.01-.67-.28-1.72-1.46-1.72-1.07,0-1.54.98-1.62,1.72h3.08Z"/>
    <path d="M812.82,665.25c.31.2.86.42,1.39.42.77,0,1.13-.38,1.13-.86s-.3-.78-1.08-1.07c-1.04-.37-1.54-.95-1.54-1.64,0-.94.76-1.7,2-1.7.59,0,1.1.17,1.43.36l-.26.77c-.23-.14-.65-.34-1.19-.34-.62,0-.97.36-.97.79,0,.48.35.7,1.1.98,1.01.38,1.52.89,1.52,1.75,0,1.02-.79,1.74-2.17,1.74-.64,0-1.22-.16-1.63-.4l.26-.8Z"/>
    <path d="M817.57,665.25c.31.2.86.42,1.39.42.77,0,1.13-.38,1.13-.86s-.3-.78-1.08-1.07c-1.04-.37-1.54-.95-1.54-1.64,0-.94.76-1.7,2-1.7.59,0,1.1.17,1.43.36l-.26.77c-.23-.14-.65-.34-1.19-.34-.62,0-.97.36-.97.79,0,.48.35.7,1.1.98,1.01.38,1.52.89,1.52,1.75,0,1.02-.79,1.74-2.17,1.74-.64,0-1.22-.16-1.63-.4l.26-.8Z"/>
    <path d="M785.81,672.4c-.88,1.18-1.51,2.74-1.51,4.91s.66,3.67,1.51,4.87h-.83c-.76-1-1.57-2.53-1.57-4.87.01-2.36.82-3.9,1.57-4.91h.83Z"/>
    <path d="M786.93,676.82c0-.74-.02-1.34-.05-1.9h.95l.05,1h.02c.43-.71,1.12-1.13,2.06-1.13,1.4,0,2.46,1.19,2.46,2.95,0,2.09-1.27,3.12-2.64,3.12-.77,0-1.44-.34-1.79-.91h-.02v3.15h-1.04v-6.28ZM787.97,678.36c0,.16.02.3.05.43.19.73.83,1.24,1.58,1.24,1.12,0,1.76-.91,1.76-2.24,0-1.16-.61-2.16-1.73-2.16-.72,0-1.39.52-1.6,1.31-.04.13-.07.29-.07.43v1Z"/>
    <path d="M799.01,677.78c0,2.15-1.49,3.08-2.89,3.08-1.57,0-2.78-1.15-2.78-2.99,0-1.94,1.27-3.08,2.88-3.08s2.79,1.21,2.79,2.99ZM794.41,677.84c0,1.27.73,2.23,1.76,2.23s1.76-.95,1.76-2.25c0-.98-.49-2.23-1.74-2.23s-1.79,1.15-1.79,2.25Z"/>
    <path d="M800.2,679.65c.31.2.86.42,1.39.42.77,0,1.13-.38,1.13-.86,0-.5-.3-.78-1.08-1.07-1.04-.37-1.54-.95-1.54-1.64,0-.94.76-1.7,2-1.7.59,0,1.1.17,1.43.36l-.26.77c-.23-.14-.65-.34-1.19-.34-.62,0-.97.36-.97.79,0,.48.35.7,1.1.98,1.01.38,1.52.89,1.52,1.75,0,1.02-.79,1.74-2.17,1.74-.64,0-1.22-.16-1.63-.4l.26-.8Z"/>
    <path d="M806.37,673.25v1.67h1.51v.8h-1.51v3.13c0,.72.2,1.13.79,1.13.28,0,.48-.04.61-.07l.05.79c-.2.08-.53.14-.94.14-.49,0-.89-.16-1.14-.44-.3-.31-.41-.83-.41-1.51v-3.17h-.9v-.8h.9v-1.39l1.03-.28Z"/>
    <path d="M812.28,680.73l-.08-.73h-.04c-.32.46-.95.86-1.78.86-1.18,0-1.77-.83-1.77-1.67,0-1.4,1.25-2.17,3.49-2.16v-.12c0-.48-.13-1.34-1.32-1.34-.54,0-1.1.17-1.51.43l-.24-.7c.48-.31,1.18-.52,1.91-.52,1.77,0,2.21,1.21,2.21,2.38v2.17c0,.5.02,1,.1,1.39h-.96ZM812.13,677.76c-1.15-.02-2.46.18-2.46,1.31,0,.68.46,1.01,1,1.01.76,0,1.24-.48,1.4-.97.04-.11.06-.23.06-.34v-1.01Z"/>
    <path d="M814.85,672.21h1.06v8.52h-1.06v-8.52Z"/>
    <path d="M817.05,682.18c.85-1.19,1.51-2.75,1.51-4.91s-.65-3.68-1.51-4.87h.82c.77.98,1.57,2.52,1.57,4.88s-.8,3.87-1.57,4.89h-.82Z"/>
  </g>
  <text class="cls-5" transform="translate(1352.841 526.3262)"><tspan x="0" y="0">Fax</tspan></text>
  <text class="cls-5" transform="translate(1434.2878 386.3257)"><tspan x="0" y="0">Text message – create new</tspan></text>
  <text class="cls-5" transform="translate(895.73 386.33)"><tspan x="0" y="0">Instant messaging</tspan></text>
  <text class="cls-5" transform="translate(1486.997 246.3257)"><tspan x="0" y="0">Video</tspan></text>
  <text class="cls-5" transform="translate(763.71 386.33)"><tspan x="0" y="0">Video message</tspan></text>
  <text class="cls-5" transform="translate(915.71 526.33)"><tspan x="0" y="0">Voice mail</tspan></text>
  <text class="cls-5" transform="translate(474.78 246.33)"><tspan x="0" y="0">Phone/Answer call</tspan></text>
  <text class="cls-5" transform="translate(480.6 526.33)"><tspan x="0" y="0">Picture message</tspan></text>
  <text class="cls-5" transform="translate(728.65 526.33)"><tspan x="0" y="0">Picture message - create new</tspan></text>
  <text class="cls-5" transform="translate(1179.2895 526.3262)"><tspan x="0" y="0">Calls &amp; messages</tspan></text>
  <text class="cls-5" transform="translate(904.65 246.33)"><tspan x="0" y="0">End/Reject call</tspan></text>
  <text class="cls-5" transform="translate(636.51 246.33)"><tspan x="0" y="0">Divert call</tspan></text>
  <text class="cls-5" transform="translate(786.1 246.33)"><tspan x="0" y="0">Redial</tspan></text>
  <text class="cls-5" transform="translate(1335.1053 666.3262)"><tspan x="0" y="0">Sent items</tspan></text>
  <text class="cls-5" transform="translate(1062.5211 666.3262)"><tspan x="0" y="0">Outbox</tspan></text>
  <text class="cls-5" transform="translate(927.18 666.33)"><tspan x="0" y="0">Inbox</tspan></text>
  <text class="cls-5" transform="translate(1451.4537 666.3262)"><tspan x="0" y="0">Unsent items/Drafts</tspan></text>
  <g>
    <path d="M1058.39,526.33l-2.64-8.08h1.13l1.26,3.98c.35,1.09.65,2.07.86,3.02h.02c.23-.94.56-1.96.92-3.01l1.37-3.99h1.12l-2.89,8.08h-1.15Z"/>
    <path d="M1068.53,523.38c0,2.15-1.49,3.08-2.89,3.08-1.57,0-2.78-1.15-2.78-2.99,0-1.94,1.27-3.08,2.88-3.08s2.79,1.21,2.79,2.99ZM1063.92,523.44c0,1.27.73,2.23,1.76,2.23s1.76-.95,1.76-2.25c0-.98-.49-2.23-1.74-2.23s-1.79,1.15-1.79,2.25Z"/>
    <path d="M1071.04,518.89c.01.36-.25.65-.67.65-.37,0-.64-.29-.64-.65s.28-.66.66-.66.65.29.65.66ZM1069.86,526.33v-5.8h1.06v5.8h-1.06Z"/>
    <path d="M1076.81,526.11c-.28.14-.89.34-1.67.34-1.75,0-2.89-1.19-2.89-2.96s1.22-3.08,3.12-3.08c.62,0,1.17.16,1.46.3l-.24.82c-.25-.14-.65-.28-1.22-.28-1.33,0-2.05.98-2.05,2.19,0,1.34.86,2.17,2.01,2.17.6,0,1-.16,1.29-.29l.18.79Z"/>
    <path d="M1078.64,523.62c.02,1.43.94,2.02,1.99,2.02.76,0,1.21-.13,1.61-.3l.18.75c-.37.17-1.01.36-1.93.36-1.79,0-2.85-1.18-2.85-2.93s1.03-3.13,2.72-3.13c1.9,0,2.4,1.67,2.4,2.73,0,.22-.02.38-.04.49h-4.08ZM1081.73,522.86c.01-.67-.28-1.72-1.46-1.72-1.07,0-1.54.98-1.62,1.72h3.08Z"/>
    <path d="M1086.6,522.09c0-.6-.01-1.09-.05-1.57h.92l.05.94h.04c.32-.55.86-1.07,1.82-1.07.79,0,1.39.48,1.64,1.16h.02c.18-.32.41-.58.65-.76.35-.26.73-.41,1.28-.41.77,0,1.91.5,1.91,2.52v3.42h-1.03v-3.29c0-1.12-.41-1.79-1.26-1.79-.6,0-1.07.44-1.25.96-.05.14-.08.33-.08.53v3.59h-1.03v-3.48c0-.92-.41-1.59-1.21-1.59-.66,0-1.14.53-1.31,1.06-.06.16-.08.34-.08.52v3.5h-1.03v-4.23Z"/>
    <path d="M1099.83,526.33l-.08-.73h-.04c-.32.46-.95.86-1.77.86-1.18,0-1.78-.83-1.78-1.67,0-1.4,1.25-2.17,3.49-2.16v-.12c0-.48-.13-1.34-1.32-1.34-.54,0-1.1.17-1.51.43l-.24-.7c.48-.31,1.17-.52,1.91-.52,1.77,0,2.21,1.21,2.21,2.37v2.17c0,.5.02,1,.1,1.39h-.96ZM1099.67,523.36c-1.15-.02-2.46.18-2.46,1.31,0,.68.46,1.01,1,1.01.76,0,1.24-.48,1.4-.97.04-.11.06-.23.06-.34v-1.01Z"/>
    <path d="M1103.57,518.89c.01.36-.25.65-.67.65-.37,0-.64-.29-.64-.65s.28-.66.66-.66.65.29.65.66ZM1102.4,526.33v-5.8h1.06v5.8h-1.06Z"/>
    <path d="M1105.2,517.81h1.06v8.52h-1.06v-8.52Z"/>
    <path d="M1042.98,537.32v.72h-5.28v-.72h5.28Z"/>
    <path d="M1046.76,536.49c0-.6-.01-1.09-.05-1.57h.94l.06.96h.02c.29-.55.96-1.09,1.92-1.09.8,0,2.05.48,2.05,2.47v3.47h-1.06v-3.35c0-.94-.35-1.71-1.34-1.71-.7,0-1.24.49-1.42,1.08-.05.13-.07.31-.07.49v3.49h-1.06v-4.23Z"/>
    <path d="M1054.01,538.02c.02,1.43.94,2.01,1.99,2.01.76,0,1.21-.13,1.61-.3l.18.76c-.37.17-1.01.36-1.93.36-1.79,0-2.85-1.17-2.85-2.93s1.03-3.13,2.72-3.13c1.89,0,2.4,1.67,2.4,2.74,0,.22-.02.38-.04.49h-4.08ZM1057.1,537.26c.01-.67-.28-1.71-1.46-1.71-1.07,0-1.54.98-1.62,1.71h3.08Z"/>
    <path d="M1059.85,534.92l.77,2.95c.17.65.32,1.25.43,1.85h.04c.13-.59.32-1.21.52-1.83l.95-2.96h.89l.9,2.9c.22.7.38,1.31.52,1.89h.04c.1-.59.25-1.2.44-1.88l.83-2.92h1.04l-1.87,5.81h-.96l-.89-2.77c-.2-.65-.37-1.22-.52-1.91h-.02c-.14.7-.32,1.29-.53,1.92l-.94,2.76h-.96l-1.75-5.81h1.08Z"/>
    <path d="M1070.81,536.49c0-.6-.01-1.09-.05-1.57h.92l.05.94h.04c.32-.55.86-1.07,1.82-1.07.79,0,1.39.48,1.64,1.16h.02c.18-.32.41-.58.65-.76.35-.26.73-.41,1.28-.41.77,0,1.91.5,1.91,2.52v3.42h-1.03v-3.29c0-1.12-.41-1.79-1.26-1.79-.6,0-1.07.44-1.25.96-.05.14-.08.34-.08.53v3.59h-1.03v-3.48c0-.92-.41-1.59-1.21-1.59-.66,0-1.14.53-1.31,1.05-.06.16-.08.34-.08.52v3.5h-1.03v-4.23Z"/>
    <path d="M1081.4,538.02c.02,1.43.94,2.01,1.99,2.01.76,0,1.21-.13,1.61-.3l.18.76c-.37.17-1.01.36-1.93.36-1.79,0-2.85-1.17-2.85-2.93s1.03-3.13,2.72-3.13c1.89,0,2.4,1.67,2.4,2.74,0,.22-.02.38-.04.49h-4.08ZM1084.5,537.26c.01-.67-.28-1.71-1.46-1.71-1.07,0-1.54.98-1.62,1.71h3.08Z"/>
    <path d="M1086.68,539.65c.31.2.86.42,1.39.42.77,0,1.13-.38,1.13-.86,0-.5-.3-.78-1.08-1.07-1.04-.37-1.54-.95-1.54-1.64,0-.94.76-1.7,2-1.7.59,0,1.1.17,1.43.36l-.26.77c-.23-.14-.65-.34-1.19-.34-.62,0-.97.36-.97.79,0,.48.35.7,1.1.98,1.01.38,1.52.89,1.52,1.75,0,1.02-.79,1.74-2.17,1.74-.64,0-1.22-.16-1.63-.4l.26-.8Z"/>
    <path d="M1091.43,539.65c.31.2.86.42,1.39.42.77,0,1.13-.38,1.13-.86,0-.5-.3-.78-1.08-1.07-1.04-.37-1.54-.95-1.54-1.64,0-.94.76-1.7,2-1.7.59,0,1.1.17,1.43.36l-.26.77c-.23-.14-.65-.34-1.19-.34-.62,0-.97.36-.97.79,0,.48.35.7,1.1.98,1.01.38,1.52.89,1.52,1.75,0,1.02-.79,1.74-2.17,1.74-.64,0-1.22-.16-1.63-.4l.26-.8Z"/>
    <path d="M1099.54,540.73l-.08-.73h-.04c-.32.46-.95.86-1.77.86-1.18,0-1.78-.83-1.78-1.67,0-1.4,1.25-2.17,3.49-2.16v-.12c0-.48-.13-1.34-1.32-1.34-.54,0-1.1.17-1.51.43l-.24-.7c.48-.31,1.18-.52,1.91-.52,1.77,0,2.21,1.21,2.21,2.38v2.17c0,.5.02,1,.1,1.39h-.96ZM1099.39,537.76c-1.15-.02-2.46.18-2.46,1.31,0,.68.46,1.01,1,1.01.76,0,1.24-.48,1.4-.97.04-.11.06-.23.06-.34v-1.01Z"/>
    <path d="M1107.12,534.92c-.02.42-.05.89-.05,1.6v3.37c0,1.33-.26,2.15-.83,2.65-.56.53-1.38.7-2.11.7s-1.46-.17-1.93-.48l.26-.8c.38.24.98.46,1.7.46,1.08,0,1.87-.56,1.87-2.03v-.65h-.02c-.32.54-.95.97-1.85.97-1.44,0-2.47-1.22-2.47-2.83,0-1.97,1.28-3.08,2.61-3.08,1.01,0,1.56.53,1.81,1.01h.02l.05-.88h.92ZM1106.02,537.21c0-.18-.01-.34-.06-.48-.19-.61-.71-1.12-1.48-1.12-1.01,0-1.73.85-1.73,2.19,0,1.14.58,2.09,1.71,2.09.65,0,1.24-.41,1.46-1.08.06-.18.08-.38.08-.56v-1.04Z"/>
    <path d="M1109.41,538.02c.02,1.43.94,2.01,1.99,2.01.76,0,1.21-.13,1.61-.3l.18.76c-.37.17-1.01.36-1.93.36-1.79,0-2.85-1.17-2.85-2.93s1.03-3.13,2.72-3.13c1.89,0,2.4,1.67,2.4,2.74,0,.22-.02.38-.04.49h-4.08ZM1112.5,537.26c.01-.67-.28-1.71-1.46-1.71-1.07,0-1.54.98-1.62,1.71h3.08Z"/>
    <path d="M1117.12,532.4c-.88,1.18-1.51,2.74-1.51,4.91s.66,3.67,1.51,4.87h-.83c-.76-1-1.57-2.53-1.57-4.87.01-2.36.82-3.9,1.57-4.91h.83Z"/>
    <path d="M1118.1,539.65c.31.2.86.42,1.39.42.77,0,1.13-.38,1.13-.86,0-.5-.3-.78-1.08-1.07-1.04-.37-1.54-.95-1.54-1.64,0-.94.76-1.7,2-1.7.59,0,1.1.17,1.43.36l-.26.77c-.23-.14-.65-.34-1.19-.34-.62,0-.97.36-.97.79,0,.48.35.7,1.1.98,1.01.38,1.52.89,1.52,1.75,0,1.02-.79,1.74-2.17,1.74-.64,0-1.22-.16-1.63-.4l.26-.8Z"/>
    <path d="M1122.36,542.18c.85-1.19,1.51-2.75,1.51-4.91s-.65-3.68-1.51-4.87h.82c.77.98,1.57,2.52,1.57,4.88s-.8,3.87-1.57,4.89h-.82Z"/>
  </g>
  <g>
    <path d="M1037.69,378.24v8.08h-1.04v-8.08h1.04Z"/>
    <path d="M1039.47,382.09c0-.6-.01-1.09-.05-1.57h.94l.06.96h.02c.29-.55.96-1.09,1.92-1.09.8,0,2.05.48,2.05,2.47v3.47h-1.06v-3.35c0-.94-.35-1.71-1.34-1.71-.7,0-1.24.49-1.42,1.08-.05.13-.07.31-.07.49v3.49h-1.06v-4.23Z"/>
    <path d="M1045.99,385.25c.31.2.86.42,1.39.42.77,0,1.13-.38,1.13-.86,0-.5-.3-.78-1.08-1.07-1.04-.37-1.54-.95-1.54-1.64,0-.94.76-1.7,2-1.7.59,0,1.1.17,1.43.36l-.26.77c-.23-.14-.65-.34-1.19-.34-.62,0-.97.36-.97.79,0,.48.35.7,1.1.98,1.01.38,1.52.89,1.52,1.75,0,1.02-.79,1.74-2.17,1.74-.64,0-1.22-.16-1.63-.4l.26-.8Z"/>
    <path d="M1052.16,378.85v1.67h1.51v.8h-1.51v3.13c0,.72.2,1.13.79,1.13.28,0,.48-.04.61-.07l.05.79c-.2.08-.53.14-.94.14-.49,0-.89-.16-1.14-.44-.3-.31-.41-.83-.41-1.51v-3.17h-.9v-.8h.9v-1.39l1.03-.28Z"/>
    <path d="M1058.07,386.33l-.08-.73h-.04c-.32.46-.95.86-1.78.86-1.17,0-1.78-.83-1.78-1.67,0-1.4,1.25-2.17,3.49-2.16v-.12c0-.48-.13-1.34-1.32-1.34-.54,0-1.1.17-1.51.43l-.24-.7c.48-.31,1.18-.52,1.91-.52,1.78,0,2.21,1.21,2.21,2.37v2.17c0,.5.02,1,.1,1.39h-.96ZM1057.92,383.36c-1.15-.02-2.46.18-2.46,1.31,0,.68.46,1.01,1,1.01.75,0,1.23-.48,1.4-.97.04-.11.06-.23.06-.34v-1.01Z"/>
    <path d="M1060.64,382.09c0-.6-.01-1.09-.05-1.57h.94l.06.96h.02c.29-.55.96-1.09,1.92-1.09.8,0,2.05.48,2.05,2.47v3.47h-1.06v-3.35c0-.94-.35-1.71-1.34-1.71-.7,0-1.23.49-1.42,1.08-.05.13-.07.31-.07.49v3.49h-1.06v-4.23Z"/>
    <path d="M1068.57,378.85v1.67h1.51v.8h-1.51v3.13c0,.72.2,1.13.79,1.13.28,0,.48-.04.61-.07l.05.79c-.2.08-.53.14-.93.14-.49,0-.89-.16-1.14-.44-.3-.31-.41-.83-.41-1.51v-3.17h-.9v-.8h.9v-1.39l1.03-.28Z"/>
    <path d="M1073.82,382.09c0-.6-.01-1.09-.05-1.57h.92l.05.94h.04c.32-.55.86-1.07,1.82-1.07.79,0,1.39.48,1.64,1.16h.02c.18-.32.41-.58.65-.76.35-.26.73-.41,1.28-.41.77,0,1.91.5,1.91,2.52v3.42h-1.03v-3.29c0-1.12-.41-1.79-1.26-1.79-.6,0-1.07.44-1.25.96-.05.14-.08.34-.08.53v3.59h-1.03v-3.48c0-.92-.41-1.6-1.21-1.6-.66,0-1.14.53-1.31,1.06-.06.16-.08.34-.08.52v3.5h-1.03v-4.23Z"/>
    <path d="M1084.41,383.62c.02,1.43.94,2.01,1.99,2.01.76,0,1.21-.13,1.61-.3l.18.76c-.37.17-1.01.36-1.93.36-1.79,0-2.85-1.18-2.85-2.93s1.03-3.13,2.72-3.13c1.89,0,2.4,1.67,2.4,2.73,0,.22-.02.38-.04.49h-4.08ZM1087.51,382.86c.01-.67-.28-1.71-1.46-1.71-1.07,0-1.54.98-1.62,1.71h3.08Z"/>
    <path d="M1089.69,385.25c.31.2.86.42,1.39.42.77,0,1.13-.38,1.13-.86,0-.5-.3-.78-1.08-1.07-1.04-.37-1.54-.95-1.54-1.64,0-.94.75-1.7,2-1.7.59,0,1.1.17,1.43.36l-.26.77c-.23-.14-.65-.34-1.19-.34-.62,0-.97.36-.97.79,0,.48.35.7,1.1.98,1.01.38,1.52.89,1.52,1.75,0,1.02-.79,1.74-2.17,1.74-.64,0-1.22-.16-1.63-.4l.26-.8Z"/>
    <path d="M1094.45,385.25c.31.2.86.42,1.39.42.77,0,1.13-.38,1.13-.86,0-.5-.3-.78-1.08-1.07-1.04-.37-1.54-.95-1.54-1.64,0-.94.75-1.7,2-1.7.59,0,1.1.17,1.43.36l-.26.77c-.23-.14-.65-.34-1.19-.34-.62,0-.97.36-.97.79,0,.48.35.7,1.1.98,1.01.38,1.52.89,1.52,1.75,0,1.02-.79,1.74-2.17,1.74-.64,0-1.22-.16-1.63-.4l.26-.8Z"/>
    <path d="M1102.56,386.33l-.08-.73h-.04c-.32.46-.95.86-1.78.86-1.17,0-1.78-.83-1.78-1.67,0-1.4,1.25-2.17,3.49-2.16v-.12c0-.48-.13-1.34-1.32-1.34-.54,0-1.1.17-1.51.43l-.24-.7c.48-.31,1.18-.52,1.91-.52,1.78,0,2.21,1.21,2.21,2.37v2.17c0,.5.02,1,.1,1.39h-.96ZM1102.4,383.36c-1.15-.02-2.46.18-2.46,1.31,0,.68.46,1.01,1,1.01.75,0,1.24-.48,1.4-.97.04-.11.06-.23.06-.34v-1.01Z"/>
    <path d="M1110.13,380.52c-.02.42-.05.89-.05,1.6v3.37c0,1.33-.26,2.15-.83,2.65-.56.53-1.38.7-2.11.7s-1.46-.17-1.93-.48l.26-.8c.38.24.98.46,1.7.46,1.08,0,1.87-.56,1.87-2.03v-.65h-.02c-.32.54-.95.97-1.85.97-1.44,0-2.47-1.22-2.47-2.83,0-1.97,1.28-3.08,2.61-3.08,1.01,0,1.56.53,1.81,1.01h.02l.05-.88h.92ZM1109.04,382.81c0-.18-.01-.34-.06-.48-.19-.61-.71-1.12-1.47-1.12-1.01,0-1.73.85-1.73,2.19,0,1.14.58,2.09,1.71,2.09.65,0,1.24-.41,1.46-1.08.06-.18.08-.38.08-.56v-1.04Z"/>
    <path d="M1113.01,378.89c.01.36-.25.65-.67.65-.37,0-.64-.29-.64-.65s.28-.66.66-.66.65.29.65.66ZM1111.83,386.33v-5.8h1.06v5.8h-1.06Z"/>
    <path d="M1114.64,382.09c0-.6-.01-1.09-.05-1.57h.94l.06.96h.02c.29-.55.96-1.09,1.92-1.09.8,0,2.05.48,2.05,2.47v3.47h-1.06v-3.35c0-.94-.35-1.71-1.34-1.71-.7,0-1.24.49-1.42,1.08-.05.13-.07.31-.07.49v3.49h-1.06v-4.23Z"/>
    <path d="M1126.3,380.52c-.02.42-.05.89-.05,1.6v3.37c0,1.33-.26,2.15-.83,2.65-.56.53-1.38.7-2.11.7s-1.46-.17-1.93-.48l.26-.8c.38.24.98.46,1.7.46,1.08,0,1.87-.56,1.87-2.03v-.65h-.02c-.32.54-.95.97-1.85.97-1.44,0-2.47-1.22-2.47-2.83,0-1.97,1.28-3.08,2.61-3.08,1.01,0,1.56.53,1.81,1.01h.02l.05-.88h.92ZM1125.21,382.81c0-.18-.01-.34-.06-.48-.19-.61-.71-1.12-1.47-1.12-1.01,0-1.73.85-1.73,2.19,0,1.14.58,2.09,1.71,2.09.65,0,1.24-.41,1.46-1.08.06-.18.08-.38.08-.56v-1.04Z"/>
    <path d="M1042.98,397.32v.72h-5.28v-.72h5.28Z"/>
    <path d="M1046.76,396.49c0-.6-.01-1.09-.05-1.57h.94l.06.96h.02c.29-.55.96-1.09,1.92-1.09.8,0,2.05.48,2.05,2.47v3.47h-1.06v-3.35c0-.94-.35-1.71-1.34-1.71-.7,0-1.24.49-1.42,1.08-.05.13-.07.31-.07.49v3.49h-1.06v-4.23Z"/>
    <path d="M1054.01,398.02c.02,1.43.94,2.02,1.99,2.02.76,0,1.21-.13,1.61-.3l.18.76c-.37.17-1.01.36-1.93.36-1.79,0-2.85-1.18-2.85-2.93s1.03-3.13,2.72-3.13c1.89,0,2.4,1.67,2.4,2.73,0,.22-.02.38-.04.49h-4.08ZM1057.1,397.26c.01-.67-.28-1.72-1.46-1.72-1.07,0-1.54.98-1.62,1.72h3.08Z"/>
    <path d="M1059.85,394.92l.77,2.95c.17.65.32,1.25.43,1.85h.04c.13-.59.32-1.21.52-1.83l.95-2.96h.89l.9,2.9c.22.7.38,1.31.52,1.9h.04c.1-.59.25-1.2.44-1.88l.83-2.91h1.04l-1.87,5.8h-.96l-.89-2.77c-.2-.65-.37-1.22-.52-1.91h-.02c-.14.7-.32,1.3-.53,1.92l-.94,2.76h-.96l-1.75-5.8h1.08Z"/>
    <path d="M1070.81,396.49c0-.6-.01-1.09-.05-1.57h.92l.05.94h.04c.32-.55.86-1.07,1.82-1.07.79,0,1.39.48,1.64,1.16h.02c.18-.32.41-.58.65-.76.35-.26.73-.41,1.28-.41.77,0,1.91.5,1.91,2.52v3.42h-1.03v-3.29c0-1.12-.41-1.79-1.26-1.79-.6,0-1.07.44-1.25.96-.05.14-.08.34-.08.53v3.59h-1.03v-3.48c0-.92-.41-1.6-1.21-1.6-.66,0-1.14.53-1.31,1.06-.06.16-.08.34-.08.52v3.5h-1.03v-4.23Z"/>
    <path d="M1081.4,398.02c.02,1.43.94,2.02,1.99,2.02.76,0,1.21-.13,1.61-.3l.18.76c-.37.17-1.01.36-1.93.36-1.79,0-2.85-1.18-2.85-2.93s1.03-3.13,2.72-3.13c1.89,0,2.4,1.67,2.4,2.73,0,.22-.02.38-.04.49h-4.08ZM1084.5,397.26c.01-.67-.28-1.72-1.46-1.72-1.07,0-1.54.98-1.62,1.72h3.08Z"/>
    <path d="M1086.68,399.65c.31.2.86.42,1.39.42.77,0,1.13-.38,1.13-.86,0-.5-.3-.78-1.08-1.07-1.04-.37-1.54-.95-1.54-1.64,0-.94.76-1.7,2-1.7.59,0,1.1.17,1.43.36l-.26.77c-.23-.14-.65-.34-1.19-.34-.62,0-.97.36-.97.79,0,.48.35.7,1.1.98,1.01.38,1.52.89,1.52,1.75,0,1.02-.79,1.74-2.17,1.74-.64,0-1.22-.16-1.63-.4l.26-.8Z"/>
    <path d="M1091.43,399.65c.31.2.86.42,1.39.42.77,0,1.13-.38,1.13-.86,0-.5-.3-.78-1.08-1.07-1.04-.37-1.54-.95-1.54-1.64,0-.94.76-1.7,2-1.7.59,0,1.1.17,1.43.36l-.26.77c-.23-.14-.65-.34-1.19-.34-.62,0-.97.36-.97.79,0,.48.35.7,1.1.98,1.01.38,1.52.89,1.52,1.75,0,1.02-.79,1.74-2.17,1.74-.64,0-1.22-.16-1.63-.4l.26-.8Z"/>
    <path d="M1099.54,400.73l-.08-.73h-.04c-.32.46-.95.86-1.77.86-1.18,0-1.78-.83-1.78-1.67,0-1.4,1.25-2.17,3.49-2.16v-.12c0-.48-.13-1.34-1.32-1.34-.54,0-1.1.17-1.51.43l-.24-.7c.48-.31,1.18-.52,1.91-.52,1.77,0,2.21,1.21,2.21,2.37v2.17c0,.5.02,1,.1,1.39h-.96ZM1099.39,397.76c-1.15-.02-2.46.18-2.46,1.31,0,.68.46,1.01,1,1.01.76,0,1.24-.48,1.4-.97.04-.11.06-.23.06-.34v-1.01Z"/>
    <path d="M1107.12,394.92c-.02.42-.05.89-.05,1.6v3.37c0,1.33-.26,2.15-.83,2.65-.56.53-1.38.7-2.11.7s-1.46-.17-1.93-.48l.26-.8c.38.24.98.46,1.7.46,1.08,0,1.87-.56,1.87-2.03v-.65h-.02c-.32.54-.95.97-1.85.97-1.44,0-2.47-1.22-2.47-2.83,0-1.97,1.28-3.08,2.61-3.08,1.01,0,1.56.53,1.81,1.01h.02l.05-.88h.92ZM1106.02,397.21c0-.18-.01-.34-.06-.48-.19-.61-.71-1.12-1.48-1.12-1.01,0-1.73.85-1.73,2.19,0,1.14.58,2.09,1.71,2.09.65,0,1.24-.41,1.46-1.08.06-.18.08-.38.08-.56v-1.04Z"/>
    <path d="M1109.41,398.02c.02,1.43.94,2.02,1.99,2.02.76,0,1.21-.13,1.61-.3l.18.76c-.37.17-1.01.36-1.93.36-1.79,0-2.85-1.18-2.85-2.93s1.03-3.13,2.72-3.13c1.89,0,2.4,1.67,2.4,2.73,0,.22-.02.38-.04.49h-4.08ZM1112.5,397.26c.01-.67-.28-1.72-1.46-1.72-1.07,0-1.54.98-1.62,1.72h3.08Z"/>
    <path d="M1117.12,392.4c-.88,1.18-1.51,2.73-1.51,4.91s.66,3.67,1.51,4.87h-.83c-.76-1-1.57-2.53-1.57-4.87.01-2.36.82-3.9,1.57-4.91h.83Z"/>
    <path d="M1118.1,399.65c.31.2.86.42,1.39.42.77,0,1.13-.38,1.13-.86,0-.5-.3-.78-1.08-1.07-1.04-.37-1.54-.95-1.54-1.64,0-.94.76-1.7,2-1.7.59,0,1.1.17,1.43.36l-.26.77c-.23-.14-.65-.34-1.19-.34-.62,0-.97.36-.97.79,0,.48.35.7,1.1.98,1.01.38,1.52.89,1.52,1.75,0,1.02-.79,1.74-2.17,1.74-.64,0-1.22-.16-1.63-.4l.26-.8Z"/>
    <path d="M1122.36,402.18c.85-1.19,1.51-2.75,1.51-4.91s-.65-3.68-1.51-4.87h.82c.77.98,1.57,2.52,1.57,4.88s-.8,3.87-1.57,4.89h-.82Z"/>
  </g>
  <g>
    <path d="M1329.84,379.13h-2.46v-.89h5.99v.89h-2.47v7.2h-1.06v-7.2Z"/>
    <path d="M1334.82,383.62c.02,1.43.94,2.01,1.99,2.01.75,0,1.21-.13,1.61-.3l.18.76c-.37.17-1.01.36-1.93.36-1.79,0-2.85-1.18-2.85-2.93s1.03-3.13,2.72-3.13c1.9,0,2.4,1.67,2.4,2.73,0,.22-.02.38-.04.49h-4.08ZM1337.92,382.86c.01-.67-.28-1.71-1.46-1.71-1.07,0-1.54.98-1.62,1.71h3.08Z"/>
    <path d="M1340.74,380.52l.83,1.25c.22.32.4.62.59.95h.04c.19-.35.38-.65.58-.96l.82-1.24h1.14l-1.98,2.81,2.04,3h-1.2l-.85-1.31c-.23-.34-.42-.66-.62-1.01h-.02c-.19.35-.4.66-.61,1.01l-.84,1.31h-1.16l2.06-2.96-1.97-2.84h1.18Z"/>
    <path d="M1347.07,378.85v1.67h1.51v.8h-1.51v3.13c0,.72.2,1.13.79,1.13.28,0,.48-.04.61-.07l.05.79c-.2.08-.53.14-.93.14-.49,0-.89-.16-1.14-.44-.3-.31-.41-.83-.41-1.51v-3.17h-.9v-.8h.9v-1.39l1.03-.28Z"/>
    <path d="M1352.32,382.09c0-.6-.01-1.09-.05-1.57h.92l.05.94h.04c.32-.55.86-1.07,1.82-1.07.79,0,1.39.48,1.64,1.16h.02c.18-.32.41-.58.65-.76.35-.26.73-.41,1.28-.41.77,0,1.91.5,1.91,2.52v3.42h-1.03v-3.29c0-1.12-.41-1.79-1.26-1.79-.6,0-1.07.44-1.25.96-.05.14-.08.34-.08.53v3.59h-1.03v-3.48c0-.92-.41-1.6-1.21-1.6-.66,0-1.14.53-1.31,1.06-.06.16-.08.34-.08.52v3.5h-1.03v-4.23Z"/>
    <path d="M1362.91,383.62c.02,1.43.94,2.01,1.99,2.01.76,0,1.21-.13,1.61-.3l.18.76c-.37.17-1.01.36-1.93.36-1.79,0-2.85-1.18-2.85-2.93s1.03-3.13,2.72-3.13c1.89,0,2.4,1.67,2.4,2.73,0,.22-.02.38-.04.49h-4.08ZM1366.01,382.86c.01-.67-.28-1.71-1.46-1.71-1.07,0-1.54.98-1.62,1.71h3.08Z"/>
    <path d="M1368.19,385.25c.31.2.86.42,1.39.42.77,0,1.13-.38,1.13-.86,0-.5-.3-.78-1.08-1.07-1.04-.37-1.54-.95-1.54-1.64,0-.94.75-1.7,2-1.7.59,0,1.1.17,1.43.36l-.26.77c-.23-.14-.65-.34-1.19-.34-.62,0-.97.36-.97.79,0,.48.35.7,1.1.98,1.01.38,1.52.89,1.52,1.75,0,1.02-.79,1.74-2.17,1.74-.64,0-1.22-.16-1.63-.4l.26-.8Z"/>
    <path d="M1372.95,385.25c.31.2.86.42,1.39.42.77,0,1.13-.38,1.13-.86,0-.5-.3-.78-1.08-1.07-1.04-.37-1.54-.95-1.54-1.64,0-.94.75-1.7,2-1.7.59,0,1.1.17,1.43.36l-.26.77c-.23-.14-.65-.34-1.19-.34-.62,0-.97.36-.97.79,0,.48.35.7,1.1.98,1.01.38,1.52.89,1.52,1.75,0,1.02-.79,1.74-2.17,1.74-.64,0-1.22-.16-1.63-.4l.26-.8Z"/>
    <path d="M1381.06,386.33l-.08-.73h-.04c-.32.46-.95.86-1.78.86-1.17,0-1.78-.83-1.78-1.67,0-1.4,1.25-2.17,3.49-2.16v-.12c0-.48-.13-1.34-1.32-1.34-.54,0-1.1.17-1.51.43l-.24-.7c.48-.31,1.18-.52,1.91-.52,1.78,0,2.21,1.21,2.21,2.37v2.17c0,.5.02,1,.1,1.39h-.96ZM1380.9,383.36c-1.15-.02-2.46.18-2.46,1.31,0,.68.46,1.01,1,1.01.75,0,1.24-.48,1.4-.97.04-.11.06-.23.06-.34v-1.01Z"/>
    <path d="M1388.63,380.52c-.02.42-.05.89-.05,1.6v3.37c0,1.33-.26,2.15-.83,2.65-.56.53-1.38.7-2.11.7s-1.46-.17-1.93-.48l.26-.8c.38.24.98.46,1.7.46,1.08,0,1.87-.56,1.87-2.03v-.65h-.02c-.32.54-.95.97-1.85.97-1.44,0-2.47-1.22-2.47-2.83,0-1.97,1.28-3.08,2.61-3.08,1.01,0,1.56.53,1.81,1.01h.02l.05-.88h.92ZM1387.54,382.81c0-.18-.01-.34-.06-.48-.19-.61-.71-1.12-1.47-1.12-1.01,0-1.73.85-1.73,2.19,0,1.14.58,2.09,1.71,2.09.65,0,1.24-.41,1.46-1.08.06-.18.08-.38.08-.56v-1.04Z"/>
    <path d="M1390.92,383.62c.02,1.43.94,2.01,1.99,2.01.76,0,1.21-.13,1.61-.3l.18.76c-.37.17-1.01.36-1.93.36-1.79,0-2.85-1.18-2.85-2.93s1.03-3.13,2.72-3.13c1.89,0,2.4,1.67,2.4,2.73,0,.22-.02.38-.04.49h-4.08ZM1394.02,382.86c.01-.67-.28-1.71-1.46-1.71-1.07,0-1.54.98-1.62,1.71h3.08Z"/>
    <path d="M1322.98,397.32v.72h-5.28v-.72h5.28Z"/>
    <path d="M1326.76,396.49c0-.6-.01-1.09-.05-1.57h.94l.06.96h.02c.29-.55.96-1.09,1.92-1.09.8,0,2.05.48,2.05,2.47v3.47h-1.06v-3.35c0-.94-.35-1.71-1.34-1.71-.7,0-1.24.49-1.42,1.08-.05.13-.07.31-.07.49v3.49h-1.06v-4.23Z"/>
    <path d="M1334.01,398.02c.02,1.43.94,2.02,1.99,2.02.76,0,1.21-.13,1.61-.3l.18.76c-.37.17-1.01.36-1.93.36-1.79,0-2.85-1.18-2.85-2.93s1.03-3.13,2.72-3.13c1.89,0,2.4,1.67,2.4,2.73,0,.22-.02.38-.04.49h-4.08ZM1337.1,397.26c.01-.67-.28-1.72-1.46-1.72-1.07,0-1.54.98-1.62,1.72h3.08Z"/>
    <path d="M1339.85,394.92l.77,2.95c.17.65.32,1.25.43,1.85h.04c.13-.59.32-1.21.52-1.83l.95-2.96h.89l.9,2.9c.22.7.38,1.31.52,1.9h.04c.1-.59.25-1.2.44-1.88l.83-2.91h1.04l-1.87,5.8h-.96l-.89-2.77c-.2-.65-.37-1.22-.52-1.91h-.02c-.14.7-.32,1.3-.53,1.92l-.94,2.76h-.96l-1.75-5.8h1.08Z"/>
    <path d="M1350.81,396.49c0-.6-.01-1.09-.05-1.57h.92l.05.94h.04c.32-.55.86-1.07,1.82-1.07.79,0,1.39.48,1.64,1.16h.02c.18-.32.41-.58.65-.76.35-.26.73-.41,1.28-.41.77,0,1.91.5,1.91,2.52v3.42h-1.03v-3.29c0-1.12-.41-1.79-1.26-1.79-.6,0-1.07.44-1.25.96-.05.14-.08.34-.08.53v3.59h-1.03v-3.48c0-.92-.41-1.6-1.21-1.6-.66,0-1.14.53-1.31,1.06-.06.16-.08.34-.08.52v3.5h-1.03v-4.23Z"/>
    <path d="M1361.4,398.02c.02,1.43.94,2.02,1.99,2.02.76,0,1.21-.13,1.61-.3l.18.76c-.37.17-1.01.36-1.93.36-1.79,0-2.85-1.18-2.85-2.93s1.03-3.13,2.72-3.13c1.89,0,2.4,1.67,2.4,2.73,0,.22-.02.38-.04.49h-4.08ZM1364.5,397.26c.01-.67-.28-1.72-1.46-1.72-1.07,0-1.54.98-1.62,1.72h3.08Z"/>
    <path d="M1366.68,399.65c.31.2.86.42,1.39.42.77,0,1.13-.38,1.13-.86,0-.5-.3-.78-1.08-1.07-1.04-.37-1.54-.95-1.54-1.64,0-.94.76-1.7,2-1.7.59,0,1.1.17,1.43.36l-.26.77c-.23-.14-.65-.34-1.19-.34-.62,0-.97.36-.97.79,0,.48.35.7,1.1.98,1.01.38,1.52.89,1.52,1.75,0,1.02-.79,1.74-2.17,1.74-.64,0-1.22-.16-1.63-.4l.26-.8Z"/>
    <path d="M1371.43,399.65c.31.2.86.42,1.39.42.77,0,1.13-.38,1.13-.86,0-.5-.3-.78-1.08-1.07-1.04-.37-1.54-.95-1.54-1.64,0-.94.76-1.7,2-1.7.59,0,1.1.17,1.43.36l-.26.77c-.23-.14-.65-.34-1.19-.34-.62,0-.97.36-.97.79,0,.48.35.7,1.1.98,1.01.38,1.52.89,1.52,1.75,0,1.02-.79,1.74-2.17,1.74-.64,0-1.22-.16-1.63-.4l.26-.8Z"/>
    <path d="M1379.54,400.73l-.08-.73h-.04c-.32.46-.95.86-1.77.86-1.18,0-1.78-.83-1.78-1.67,0-1.4,1.25-2.17,3.49-2.16v-.12c0-.48-.13-1.34-1.32-1.34-.54,0-1.1.17-1.51.43l-.24-.7c.48-.31,1.18-.52,1.91-.52,1.77,0,2.21,1.21,2.21,2.37v2.17c0,.5.02,1,.1,1.39h-.96ZM1379.39,397.76c-1.15-.02-2.46.18-2.46,1.31,0,.68.46,1.01,1,1.01.76,0,1.24-.48,1.4-.97.04-.11.06-.23.06-.34v-1.01Z"/>
    <path d="M1387.12,394.92c-.02.42-.05.89-.05,1.6v3.37c0,1.33-.26,2.15-.83,2.65-.56.53-1.38.7-2.11.7s-1.46-.17-1.93-.48l.26-.8c.38.24.98.46,1.7.46,1.08,0,1.87-.56,1.87-2.03v-.65h-.02c-.32.54-.95.97-1.85.97-1.44,0-2.47-1.22-2.47-2.83,0-1.97,1.28-3.08,2.61-3.08,1.01,0,1.56.53,1.81,1.01h.02l.05-.88h.92ZM1386.02,397.21c0-.18-.01-.34-.06-.48-.19-.61-.71-1.12-1.48-1.12-1.01,0-1.73.85-1.73,2.19,0,1.14.58,2.09,1.71,2.09.65,0,1.24-.41,1.46-1.08.06-.18.08-.38.08-.56v-1.04Z"/>
    <path d="M1389.41,398.02c.02,1.43.94,2.02,1.99,2.02.76,0,1.21-.13,1.61-.3l.18.76c-.37.17-1.01.36-1.93.36-1.79,0-2.85-1.18-2.85-2.93s1.03-3.13,2.72-3.13c1.89,0,2.4,1.67,2.4,2.73,0,.22-.02.38-.04.49h-4.08ZM1392.5,397.26c.01-.67-.28-1.72-1.46-1.72-1.07,0-1.54.98-1.62,1.72h3.08Z"/>
    <path d="M1397.12,392.4c-.88,1.18-1.51,2.73-1.51,4.91s.66,3.67,1.51,4.87h-.83c-.76-1-1.57-2.53-1.57-4.87.01-2.36.82-3.9,1.57-4.91h.83Z"/>
    <path d="M1398.1,399.65c.31.2.86.42,1.39.42.77,0,1.13-.38,1.13-.86,0-.5-.3-.78-1.08-1.07-1.04-.37-1.54-.95-1.54-1.64,0-.94.76-1.7,2-1.7.59,0,1.1.17,1.43.36l-.26.77c-.23-.14-.65-.34-1.19-.34-.62,0-.97.36-.97.79,0,.48.35.7,1.1.98,1.01.38,1.52.89,1.52,1.75,0,1.02-.79,1.74-2.17,1.74-.64,0-1.22-.16-1.63-.4l.26-.8Z"/>
    <path d="M1402.36,402.18c.85-1.19,1.51-2.75,1.51-4.91s-.65-3.68-1.51-4.87h.82c.77.98,1.57,2.52,1.57,4.88s-.8,3.87-1.57,4.89h-.82Z"/>
    <path class="cls-9" d="M1316.56,415.13v-8.08h1.14l2.59,4.09c.6.95,1.07,1.8,1.45,2.63h.02c-.1-1.09-.12-2.07-.12-3.33v-3.38h.98v8.08h-1.06l-2.57-4.1c-.56-.9-1.1-1.82-1.51-2.7h-.04c.06,1.03.08,2,.08,3.35v3.45h-.98Z"/>
    <path class="cls-9" d="M1329.67,412.18c0,2.15-1.49,3.08-2.89,3.08-1.57,0-2.78-1.15-2.78-2.99,0-1.94,1.27-3.08,2.88-3.08s2.79,1.21,2.79,2.99ZM1325.07,412.24c0,1.27.73,2.23,1.76,2.23s1.76-.95,1.76-2.25c0-.98-.49-2.23-1.74-2.23s-1.79,1.15-1.79,2.25Z"/>
    <path class="cls-9" d="M1332.28,407.65v1.67h1.51v.8h-1.51v3.13c0,.72.2,1.13.79,1.13.28,0,.48-.04.61-.07l.05.79c-.2.08-.53.14-.94.14-.49,0-.89-.16-1.14-.44-.3-.31-.41-.83-.41-1.51v-3.17h-.9v-.8h.9v-1.39l1.03-.28Z"/>
    <path class="cls-9" d="M1337.91,409.32l1.27,3.43c.13.38.28.84.37,1.19h.02c.11-.35.23-.79.37-1.21l1.15-3.41h1.12l-1.58,4.14c-.76,1.99-1.27,3.01-1.99,3.63-.52.46-1.03.64-1.29.68l-.26-.89c.26-.08.61-.25.92-.52.29-.23.65-.64.89-1.18.05-.11.08-.19.08-.25s-.02-.14-.07-.28l-2.15-5.35h1.15Z"/>
    <path class="cls-9" d="M1343.76,412.42c.02,1.43.93,2.02,1.99,2.02.76,0,1.21-.13,1.61-.3l.18.76c-.37.17-1.01.36-1.93.36-1.79,0-2.85-1.18-2.85-2.93s1.03-3.13,2.72-3.13c1.89,0,2.4,1.67,2.4,2.73,0,.22-.02.38-.04.49h-4.08ZM1346.86,411.66c.01-.67-.28-1.72-1.46-1.72-1.07,0-1.54.98-1.62,1.72h3.08Z"/>
    <path class="cls-9" d="M1350.46,407.65v1.67h1.51v.8h-1.51v3.13c0,.72.2,1.13.79,1.13.28,0,.48-.04.61-.07l.05.79c-.2.08-.53.14-.94.14-.49,0-.89-.16-1.14-.44-.3-.31-.41-.83-.41-1.51v-3.17h-.9v-.8h.9v-1.39l1.03-.28Z"/>
    <path class="cls-9" d="M1355.56,414.05c.31.2.86.42,1.39.42.77,0,1.13-.38,1.13-.86,0-.5-.3-.78-1.08-1.07-1.04-.37-1.54-.95-1.54-1.64,0-.94.76-1.7,2-1.7.59,0,1.1.17,1.43.36l-.26.77c-.23-.14-.65-.34-1.19-.34-.62,0-.97.36-.97.79,0,.48.35.7,1.1.98,1.01.38,1.52.89,1.52,1.75,0,1.02-.79,1.74-2.17,1.74-.64,0-1.22-.16-1.63-.4l.26-.8Z"/>
    <path class="cls-9" d="M1361.63,407.69c.01.36-.25.65-.67.65-.37,0-.64-.29-.64-.65s.28-.66.66-.66.65.29.65.66ZM1360.45,415.13v-5.8h1.06v5.8h-1.06Z"/>
    <path class="cls-9" d="M1368.26,409.32c-.02.42-.05.89-.05,1.6v3.37c0,1.33-.26,2.15-.83,2.65-.56.53-1.38.7-2.11.7s-1.46-.17-1.93-.48l.26-.8c.38.24.98.46,1.7.46,1.08,0,1.87-.56,1.87-2.03v-.65h-.02c-.32.54-.95.97-1.85.97-1.44,0-2.47-1.22-2.47-2.83,0-1.97,1.28-3.08,2.61-3.08,1.01,0,1.56.53,1.81,1.01h.02l.05-.88h.92ZM1367.17,411.61c0-.18-.01-.34-.06-.48-.19-.61-.71-1.12-1.48-1.12-1.01,0-1.73.85-1.73,2.19,0,1.14.58,2.09,1.71,2.09.65,0,1.24-.41,1.46-1.08.06-.18.08-.38.08-.56v-1.04Z"/>
    <path class="cls-9" d="M1369.97,410.89c0-.6-.01-1.09-.05-1.57h.94l.06.96h.02c.29-.55.96-1.09,1.92-1.09.8,0,2.05.48,2.05,2.47v3.47h-1.06v-3.35c0-.94-.35-1.71-1.34-1.71-.7,0-1.24.49-1.42,1.08-.05.13-.07.31-.07.49v3.49h-1.06v-4.23Z"/>
    <path class="cls-9" d="M1377.22,412.42c.02,1.43.94,2.02,1.99,2.02.76,0,1.21-.13,1.61-.3l.18.76c-.37.17-1.01.36-1.93.36-1.79,0-2.85-1.18-2.85-2.93s1.03-3.13,2.72-3.13c1.89,0,2.4,1.67,2.4,2.73,0,.22-.02.38-.04.49h-4.08ZM1380.31,411.66c.01-.67-.28-1.72-1.46-1.72-1.07,0-1.54.98-1.62,1.72h3.08Z"/>
    <path class="cls-9" d="M1387.66,406.61v7.02c0,.52.01,1.1.05,1.5h-.95l-.05-1.01h-.02c-.32.65-1.03,1.14-1.98,1.14-1.4,0-2.48-1.19-2.48-2.95-.01-1.93,1.19-3.12,2.6-3.12.89,0,1.49.42,1.75.89h.02v-3.47h1.06ZM1386.6,411.68c0-.13-.01-.31-.05-.44-.16-.67-.73-1.22-1.52-1.22-1.09,0-1.74.96-1.74,2.24,0,1.18.58,2.15,1.72,2.15.71,0,1.35-.47,1.55-1.26.04-.14.05-.29.05-.46v-1.01Z"/>
    <path class="cls-9" d="M1397.21,412.18c0,2.15-1.49,3.08-2.89,3.08-1.57,0-2.78-1.15-2.78-2.99,0-1.94,1.27-3.08,2.88-3.08s2.79,1.21,2.79,2.99ZM1392.6,412.24c0,1.27.73,2.23,1.76,2.23s1.76-.95,1.76-2.25c0-.98-.49-2.23-1.74-2.23s-1.79,1.15-1.79,2.25Z"/>
    <path class="cls-9" d="M1398.65,415.13v-5h-.82v-.8h.82v-.28c0-.82.18-1.56.67-2.03.4-.38.92-.54,1.42-.54.37,0,.7.08.9.17l-.14.82c-.16-.07-.37-.13-.67-.13-.9,0-1.13.79-1.13,1.68v.31h1.4v.8h-1.4v5h-1.04Z"/>
    <path class="cls-9" d="M1402.15,415.13v-5h-.82v-.8h.82v-.28c0-.82.18-1.56.67-2.03.4-.38.92-.54,1.42-.54.37,0,.7.08.9.17l-.14.82c-.16-.07-.37-.13-.67-.13-.9,0-1.13.79-1.13,1.68v.31h1.4v.8h-1.4v5h-1.04Z"/>
    <path class="cls-9" d="M1324.29,426.58c0,2.15-1.49,3.08-2.89,3.08-1.57,0-2.78-1.15-2.78-2.99,0-1.94,1.27-3.08,2.88-3.08s2.79,1.21,2.79,2.99ZM1319.68,426.64c0,1.27.73,2.23,1.76,2.23s1.76-.95,1.76-2.25c0-.98-.49-2.23-1.74-2.23s-1.79,1.15-1.79,2.25Z"/>
    <path class="cls-9" d="M1325.63,425.53c0-.68-.01-1.27-.05-1.81h.92l.04,1.14h.05c.26-.78.9-1.27,1.61-1.27.12,0,.2.01.3.04v1c-.11-.02-.22-.04-.36-.04-.74,0-1.27.56-1.42,1.36-.02.14-.05.31-.05.49v3.09h-1.04v-3.99Z"/>
    <path class="cls-9" d="M1333.27,422.09c.01.36-.25.65-.67.65-.37,0-.64-.29-.64-.65s.28-.66.66-.66.65.29.65.66ZM1332.09,429.53v-5.8h1.06v5.8h-1.06Z"/>
    <path class="cls-9" d="M1334.9,425.29c0-.6-.01-1.09-.05-1.57h.94l.06.96h.02c.29-.55.96-1.09,1.92-1.09.8,0,2.05.48,2.05,2.47v3.47h-1.06v-3.35c0-.94-.35-1.71-1.34-1.71-.7,0-1.24.49-1.42,1.08-.05.13-.07.31-.07.49v3.49h-1.06v-4.23Z"/>
    <path class="cls-9" d="M1343.96,428.45c.31.2.86.42,1.39.42.77,0,1.13-.38,1.13-.86,0-.5-.3-.78-1.08-1.07-1.04-.37-1.54-.95-1.54-1.64,0-.94.76-1.7,2-1.7.59,0,1.1.17,1.43.36l-.26.77c-.23-.14-.65-.34-1.19-.34-.62,0-.97.36-.97.79,0,.48.35.7,1.1.98,1.01.38,1.52.89,1.52,1.75,0,1.02-.79,1.74-2.17,1.74-.64,0-1.22-.16-1.63-.4l.26-.8Z"/>
    <path class="cls-9" d="M1348.86,425.62c0-.74-.02-1.34-.05-1.9h.95l.05,1h.02c.43-.71,1.12-1.13,2.06-1.13,1.4,0,2.46,1.19,2.46,2.95,0,2.09-1.27,3.12-2.64,3.12-.77,0-1.44-.33-1.79-.91h-.02v3.15h-1.04v-6.28ZM1349.9,427.16c0,.16.02.3.05.43.19.73.83,1.24,1.58,1.24,1.12,0,1.76-.91,1.76-2.24,0-1.16-.61-2.16-1.73-2.16-.72,0-1.39.52-1.59,1.31-.04.13-.07.29-.07.43v1Z"/>
    <path class="cls-9" d="M1355.68,425.53c0-.68-.01-1.27-.05-1.81h.92l.04,1.14h.05c.26-.78.9-1.27,1.61-1.27.12,0,.2.01.3.04v1c-.11-.02-.22-.04-.36-.04-.74,0-1.27.56-1.42,1.36-.02.14-.05.31-.05.49v3.09h-1.04v-3.99Z"/>
    <path class="cls-9" d="M1360.2,426.82c.02,1.43.94,2.01,1.99,2.01.76,0,1.21-.13,1.61-.3l.18.76c-.37.17-1.01.36-1.93.36-1.79,0-2.85-1.17-2.85-2.93s1.03-3.13,2.72-3.13c1.89,0,2.4,1.67,2.4,2.73,0,.22-.02.38-.04.49h-4.08ZM1363.29,426.06c.01-.67-.28-1.71-1.46-1.71-1.07,0-1.54.98-1.62,1.71h3.08Z"/>
    <path class="cls-9" d="M1368.83,429.53l-.08-.73h-.04c-.32.46-.95.86-1.77.86-1.18,0-1.78-.83-1.78-1.67,0-1.4,1.25-2.17,3.49-2.16v-.12c0-.48-.13-1.34-1.32-1.34-.54,0-1.1.17-1.51.43l-.24-.7c.48-.31,1.18-.52,1.91-.52,1.77,0,2.21,1.21,2.21,2.38v2.17c0,.5.02,1,.1,1.39h-.96ZM1368.68,426.56c-1.15-.02-2.46.18-2.46,1.31,0,.68.46,1.01,1,1.01.76,0,1.24-.48,1.4-.97.04-.11.06-.23.06-.34v-1.01Z"/>
    <path class="cls-9" d="M1376.42,421.01v7.02c0,.52.01,1.1.05,1.5h-.95l-.05-1.01h-.02c-.32.65-1.03,1.14-1.98,1.14-1.4,0-2.48-1.19-2.48-2.95-.01-1.93,1.19-3.12,2.6-3.12.89,0,1.49.42,1.75.89h.02v-3.47h1.06ZM1375.36,426.08c0-.13-.01-.31-.05-.44-.16-.67-.73-1.22-1.52-1.22-1.09,0-1.74.96-1.74,2.24,0,1.18.58,2.15,1.71,2.15.71,0,1.36-.47,1.55-1.26.04-.14.05-.29.05-.46v-1.01Z"/>
    <path class="cls-9" d="M1378.03,428.45c.31.2.86.42,1.39.42.77,0,1.13-.38,1.13-.86,0-.5-.3-.78-1.08-1.07-1.04-.37-1.54-.95-1.54-1.64,0-.94.76-1.7,2-1.7.59,0,1.1.17,1.43.36l-.26.77c-.23-.14-.65-.34-1.19-.34-.62,0-.97.36-.97.79,0,.48.35.7,1.1.98,1.01.38,1.52.89,1.52,1.75,0,1.02-.79,1.74-2.17,1.74-.64,0-1.22-.16-1.63-.4l.26-.8Z"/>
    <path class="cls-9" d="M1382.92,421.01h1.06v3.62h.02c.17-.3.43-.56.76-.74.31-.18.68-.3,1.08-.3.78,0,2.03.48,2.03,2.48v3.45h-1.06v-3.33c0-.94-.35-1.73-1.34-1.73-.68,0-1.22.48-1.42,1.05-.06.14-.07.3-.07.5v3.5h-1.06v-8.52Z"/>
    <path class="cls-9" d="M1390.17,426.82c.02,1.43.94,2.01,1.99,2.01.76,0,1.21-.13,1.61-.3l.18.76c-.37.17-1.01.36-1.93.36-1.79,0-2.85-1.17-2.85-2.93s1.03-3.13,2.72-3.13c1.89,0,2.4,1.67,2.4,2.73,0,.22-.02.38-.04.49h-4.08ZM1393.27,426.06c.01-.67-.28-1.71-1.46-1.71-1.07,0-1.54.98-1.62,1.71h3.08Z"/>
    <path class="cls-9" d="M1396.18,426.82c.02,1.43.94,2.01,1.99,2.01.76,0,1.21-.13,1.61-.3l.18.76c-.37.17-1.01.36-1.93.36-1.79,0-2.85-1.17-2.85-2.93s1.03-3.13,2.72-3.13c1.89,0,2.4,1.67,2.4,2.73,0,.22-.02.38-.04.49h-4.08ZM1399.28,426.06c.01-.67-.28-1.71-1.46-1.71-1.07,0-1.54.98-1.62,1.71h3.08Z"/>
    <path class="cls-9" d="M1402.88,422.05v1.67h1.51v.8h-1.51v3.13c0,.72.2,1.13.79,1.13.28,0,.48-.04.61-.07l.05.79c-.2.08-.53.14-.94.14-.49,0-.89-.16-1.14-.44-.3-.31-.41-.83-.41-1.51v-3.17h-.9v-.8h.9v-1.39l1.03-.28Z"/>
  </g>
  <g>
    <path d="M621.51,518.34c.5-.08,1.16-.16,2-.16,1.03,0,1.79.24,2.27.67.44.38.71.97.71,1.69s-.22,1.31-.62,1.73c-.55.59-1.45.89-2.47.89-.31,0-.6-.01-.84-.07v3.24h-1.04v-7.99ZM622.56,522.24c.23.06.52.08.86.08,1.26,0,2.03-.61,2.03-1.73s-.76-1.58-1.91-1.58c-.46,0-.8.04-.98.08v3.14Z"/>
    <path d="M629.04,518.89c.01.36-.25.65-.67.65-.37,0-.64-.29-.64-.65s.28-.66.66-.66.65.29.65.66ZM627.86,526.33v-5.8h1.06v5.8h-1.06Z"/>
    <path d="M634.81,526.11c-.28.14-.89.34-1.67.34-1.75,0-2.89-1.19-2.89-2.96s1.22-3.08,3.12-3.08c.62,0,1.18.16,1.46.3l-.24.82c-.25-.14-.65-.28-1.22-.28-1.33,0-2.05.98-2.05,2.19,0,1.34.86,2.17,2.01,2.17.6,0,1-.16,1.3-.29l.18.79Z"/>
    <path d="M637.32,518.85v1.67h1.51v.8h-1.51v3.13c0,.72.2,1.13.79,1.13.28,0,.48-.04.61-.07l.05.79c-.2.08-.53.14-.94.14-.49,0-.89-.16-1.14-.44-.3-.31-.41-.83-.41-1.51v-3.17h-.9v-.8h.9v-1.39l1.03-.28Z"/>
    <path d="M644.88,524.74c0,.6.01,1.13.05,1.58h-.94l-.06-.95h-.02c-.28.47-.89,1.08-1.92,1.08-.91,0-2-.5-2-2.54v-3.39h1.06v3.21c0,1.1.34,1.85,1.29,1.85.71,0,1.2-.49,1.39-.96.06-.16.1-.35.1-.54v-3.56h1.06v4.22Z"/>
    <path d="M646.63,522.33c0-.68-.01-1.27-.05-1.81h.92l.04,1.14h.05c.26-.78.9-1.27,1.61-1.27.12,0,.2.01.3.04v1c-.11-.02-.22-.04-.36-.04-.74,0-1.27.56-1.42,1.36-.02.14-.05.31-.05.49v3.09h-1.04v-3.99Z"/>
    <path d="M651.14,523.62c.02,1.43.94,2.02,1.99,2.02.76,0,1.21-.13,1.61-.3l.18.75c-.37.17-1.01.36-1.93.36-1.79,0-2.85-1.18-2.85-2.93s1.03-3.13,2.72-3.13c1.9,0,2.4,1.67,2.4,2.73,0,.22-.02.38-.04.49h-4.08ZM654.24,522.86c.01-.67-.28-1.72-1.46-1.72-1.07,0-1.54.98-1.62,1.72h3.08Z"/>
    <path d="M659.11,522.09c0-.6-.01-1.09-.05-1.57h.92l.05.94h.04c.32-.55.86-1.07,1.82-1.07.79,0,1.39.48,1.64,1.16h.02c.18-.32.41-.58.65-.76.35-.26.73-.41,1.28-.41.77,0,1.91.5,1.91,2.52v3.42h-1.03v-3.29c0-1.12-.41-1.79-1.26-1.79-.6,0-1.07.44-1.25.96-.05.14-.08.33-.08.53v3.59h-1.03v-3.48c0-.92-.41-1.59-1.21-1.59-.66,0-1.14.53-1.31,1.06-.06.16-.08.34-.08.52v3.5h-1.03v-4.23Z"/>
    <path d="M669.71,523.62c.02,1.43.94,2.02,1.99,2.02.76,0,1.21-.13,1.61-.3l.18.75c-.37.17-1.01.36-1.93.36-1.79,0-2.85-1.18-2.85-2.93s1.03-3.13,2.72-3.13c1.9,0,2.4,1.67,2.4,2.73,0,.22-.02.38-.04.49h-4.08ZM672.8,522.86c.01-.67-.28-1.72-1.46-1.72-1.07,0-1.54.98-1.62,1.72h3.08Z"/>
    <path d="M674.99,525.25c.31.2.86.42,1.39.42.77,0,1.13-.38,1.13-.86s-.3-.78-1.08-1.07c-1.04-.37-1.54-.95-1.54-1.64,0-.94.76-1.7,2-1.7.59,0,1.1.17,1.43.36l-.26.77c-.23-.14-.65-.34-1.19-.34-.62,0-.97.36-.97.79,0,.48.35.7,1.1.98,1.01.38,1.52.89,1.52,1.75,0,1.02-.79,1.74-2.17,1.74-.64,0-1.22-.16-1.63-.4l.26-.8Z"/>
    <path d="M679.74,525.25c.31.2.86.42,1.39.42.77,0,1.13-.38,1.13-.86s-.3-.78-1.08-1.07c-1.04-.37-1.54-.95-1.54-1.64,0-.94.76-1.7,2-1.7.59,0,1.1.17,1.43.36l-.26.77c-.23-.14-.65-.34-1.19-.34-.62,0-.97.36-.97.79,0,.48.35.7,1.1.98,1.01.38,1.52.89,1.52,1.75,0,1.02-.79,1.74-2.17,1.74-.64,0-1.22-.16-1.63-.4l.26-.8Z"/>
    <path d="M687.85,526.33l-.08-.73h-.04c-.32.46-.95.86-1.77.86-1.18,0-1.77-.83-1.77-1.67,0-1.4,1.25-2.17,3.49-2.16v-.12c0-.48-.13-1.34-1.32-1.34-.54,0-1.1.17-1.51.43l-.24-.7c.48-.31,1.18-.52,1.91-.52,1.77,0,2.21,1.21,2.21,2.37v2.17c0,.5.02,1,.1,1.39h-.96ZM687.69,523.36c-1.15-.02-2.46.18-2.46,1.31,0,.68.46,1.01,1,1.01.76,0,1.24-.48,1.4-.97.04-.11.06-.23.06-.34v-1.01Z"/>
    <path d="M695.42,520.52c-.02.42-.05.89-.05,1.59v3.37c0,1.33-.26,2.15-.83,2.65-.56.53-1.38.7-2.11.7s-1.46-.17-1.93-.48l.26-.8c.38.24.98.46,1.7.46,1.08,0,1.87-.56,1.87-2.03v-.65h-.02c-.32.54-.95.97-1.85.97-1.44,0-2.47-1.22-2.47-2.83,0-1.97,1.28-3.08,2.61-3.08,1.01,0,1.56.53,1.81,1.01h.02l.05-.88h.92ZM694.33,522.81c0-.18-.01-.34-.06-.48-.19-.61-.71-1.12-1.48-1.12-1.01,0-1.73.85-1.73,2.2,0,1.14.58,2.09,1.72,2.09.65,0,1.23-.41,1.46-1.08.06-.18.08-.38.08-.56v-1.04Z"/>
    <path d="M697.71,523.62c.02,1.43.94,2.02,1.99,2.02.76,0,1.21-.13,1.61-.3l.18.75c-.37.17-1.01.36-1.93.36-1.79,0-2.85-1.18-2.85-2.93s1.03-3.13,2.72-3.13c1.89,0,2.4,1.67,2.4,2.73,0,.22-.02.38-.04.49h-4.08ZM700.81,522.86c.01-.67-.28-1.72-1.46-1.72-1.07,0-1.54.98-1.62,1.72h3.08Z"/>
    <path d="M622.98,537.32v.72h-5.28v-.72h5.28Z"/>
    <path d="M626.76,536.49c0-.6-.01-1.09-.05-1.57h.94l.06.96h.02c.29-.55.96-1.09,1.92-1.09.8,0,2.05.48,2.05,2.47v3.47h-1.06v-3.35c0-.94-.35-1.71-1.34-1.71-.7,0-1.24.49-1.42,1.08-.05.13-.07.31-.07.49v3.49h-1.06v-4.23Z"/>
    <path d="M634.01,538.02c.02,1.43.94,2.01,1.99,2.01.76,0,1.21-.13,1.61-.3l.18.76c-.37.17-1.01.36-1.93.36-1.79,0-2.85-1.17-2.85-2.93s1.03-3.13,2.72-3.13c1.9,0,2.4,1.67,2.4,2.74,0,.22-.02.38-.04.49h-4.08ZM637.1,537.26c.01-.67-.28-1.71-1.46-1.71-1.07,0-1.54.98-1.62,1.71h3.08Z"/>
    <path d="M639.85,534.92l.77,2.95c.17.65.32,1.25.43,1.85h.04c.13-.59.32-1.21.52-1.83l.95-2.96h.89l.9,2.9c.22.7.38,1.31.52,1.89h.04c.1-.59.25-1.2.44-1.88l.83-2.92h1.04l-1.87,5.81h-.96l-.89-2.77c-.2-.65-.37-1.22-.52-1.91h-.02c-.14.7-.32,1.29-.53,1.92l-.94,2.76h-.96l-1.75-5.81h1.08Z"/>
    <path d="M650.81,536.49c0-.6-.01-1.09-.05-1.57h.92l.05.94h.04c.32-.55.86-1.07,1.82-1.07.79,0,1.39.48,1.64,1.16h.02c.18-.32.41-.58.65-.76.35-.26.73-.41,1.28-.41.77,0,1.91.5,1.91,2.52v3.42h-1.03v-3.29c0-1.12-.41-1.79-1.26-1.79-.6,0-1.07.44-1.25.96-.05.14-.08.34-.08.53v3.59h-1.03v-3.48c0-.92-.41-1.59-1.21-1.59-.66,0-1.14.53-1.31,1.05-.06.16-.08.34-.08.52v3.5h-1.03v-4.23Z"/>
    <path d="M661.4,538.02c.02,1.43.94,2.01,1.99,2.01.76,0,1.21-.13,1.61-.3l.18.76c-.37.17-1.01.36-1.93.36-1.79,0-2.85-1.17-2.85-2.93s1.03-3.13,2.72-3.13c1.9,0,2.4,1.67,2.4,2.74,0,.22-.02.38-.04.49h-4.08ZM664.5,537.26c.01-.67-.28-1.71-1.46-1.71-1.07,0-1.54.98-1.62,1.71h3.08Z"/>
    <path d="M666.68,539.65c.31.2.86.42,1.39.42.77,0,1.13-.38,1.13-.86,0-.5-.3-.78-1.08-1.07-1.04-.37-1.54-.95-1.54-1.64,0-.94.76-1.7,2-1.7.59,0,1.1.17,1.43.36l-.26.77c-.23-.14-.65-.34-1.19-.34-.62,0-.97.36-.97.79,0,.48.35.7,1.1.98,1.01.38,1.52.89,1.52,1.75,0,1.02-.79,1.74-2.17,1.74-.64,0-1.22-.16-1.63-.4l.26-.8Z"/>
    <path d="M671.43,539.65c.31.2.86.42,1.39.42.77,0,1.13-.38,1.13-.86,0-.5-.3-.78-1.08-1.07-1.04-.37-1.54-.95-1.54-1.64,0-.94.76-1.7,2-1.7.59,0,1.1.17,1.43.36l-.26.77c-.23-.14-.65-.34-1.19-.34-.62,0-.97.36-.97.79,0,.48.35.7,1.1.98,1.01.38,1.52.89,1.52,1.75,0,1.02-.79,1.74-2.17,1.74-.64,0-1.22-.16-1.63-.4l.26-.8Z"/>
    <path d="M679.54,540.73l-.08-.73h-.04c-.32.46-.95.86-1.77.86-1.18,0-1.78-.83-1.78-1.67,0-1.4,1.25-2.17,3.49-2.16v-.12c0-.48-.13-1.34-1.32-1.34-.54,0-1.1.17-1.51.43l-.24-.7c.48-.31,1.18-.52,1.91-.52,1.77,0,2.21,1.21,2.21,2.38v2.17c0,.5.02,1,.1,1.39h-.96ZM679.39,537.76c-1.15-.02-2.46.18-2.46,1.31,0,.68.46,1.01,1,1.01.76,0,1.24-.48,1.4-.97.04-.11.06-.23.06-.34v-1.01Z"/>
    <path d="M687.12,534.92c-.02.42-.05.89-.05,1.6v3.37c0,1.33-.26,2.15-.83,2.65-.56.53-1.38.7-2.11.7s-1.46-.17-1.93-.48l.26-.8c.38.24.98.46,1.7.46,1.08,0,1.87-.56,1.87-2.03v-.65h-.02c-.32.54-.95.97-1.85.97-1.44,0-2.47-1.22-2.47-2.83,0-1.97,1.28-3.08,2.61-3.08,1.01,0,1.56.53,1.81,1.01h.02l.05-.88h.92ZM686.02,537.21c0-.18-.01-.34-.06-.48-.19-.61-.71-1.12-1.48-1.12-1.01,0-1.73.85-1.73,2.19,0,1.14.58,2.09,1.71,2.09.65,0,1.24-.41,1.46-1.08.06-.18.08-.38.08-.56v-1.04Z"/>
    <path d="M689.41,538.02c.02,1.43.94,2.01,1.99,2.01.76,0,1.21-.13,1.61-.3l.18.76c-.37.17-1.01.36-1.93.36-1.79,0-2.85-1.17-2.85-2.93s1.03-3.13,2.72-3.13c1.9,0,2.4,1.67,2.4,2.74,0,.22-.02.38-.04.49h-4.08ZM692.5,537.26c.01-.67-.28-1.71-1.46-1.71-1.07,0-1.54.98-1.62,1.71h3.08Z"/>
    <path d="M697.12,532.4c-.88,1.18-1.51,2.74-1.51,4.91s.66,3.67,1.51,4.87h-.83c-.76-1-1.57-2.53-1.57-4.87.01-2.36.82-3.9,1.57-4.91h.83Z"/>
    <path d="M698.1,539.65c.31.2.86.42,1.39.42.77,0,1.13-.38,1.13-.86,0-.5-.3-.78-1.08-1.07-1.04-.37-1.54-.95-1.54-1.64,0-.94.76-1.7,2-1.7.59,0,1.1.17,1.43.36l-.26.77c-.23-.14-.65-.34-1.19-.34-.62,0-.97.36-.97.79,0,.48.35.7,1.1.98,1.01.38,1.52.89,1.52,1.75,0,1.02-.79,1.74-2.17,1.74-.64,0-1.22-.16-1.63-.4l.26-.8Z"/>
    <path d="M702.36,542.18c.85-1.19,1.51-2.75,1.51-4.91s-.65-3.68-1.51-4.87h.82c.77.98,1.57,2.52,1.57,4.88s-.8,3.87-1.57,4.89h-.82Z"/>
  </g>
  <g>
    <path d="M1207.87,658.24v8.08h-1.04v-8.08h1.04Z"/>
    <path d="M1209.65,662.09c0-.6-.01-1.09-.05-1.57h.94l.06.96h.02c.29-.55.96-1.09,1.92-1.09.8,0,2.05.48,2.05,2.47v3.47h-1.06v-3.35c0-.94-.35-1.72-1.34-1.72-.7,0-1.24.49-1.42,1.08-.05.13-.07.31-.07.49v3.49h-1.06v-4.23Z"/>
    <path d="M1216.27,666.33c.02-.4.05-.98.05-1.5v-7.02h1.04v3.65h.02c.37-.65,1.04-1.07,1.98-1.07,1.44,0,2.46,1.2,2.45,2.96,0,2.08-1.31,3.11-2.6,3.11-.84,0-1.51-.32-1.94-1.09h-.04l-.05.96h-.91ZM1217.36,664c0,.13.02.26.05.38.2.73.82,1.24,1.58,1.24,1.1,0,1.76-.9,1.76-2.23,0-1.16-.6-2.16-1.73-2.16-.72,0-1.39.49-1.61,1.3-.02.12-.06.26-.06.43v1.04Z"/>
    <path d="M1228.4,663.38c0,2.15-1.49,3.08-2.89,3.08-1.57,0-2.78-1.15-2.78-2.99,0-1.94,1.27-3.08,2.88-3.08s2.79,1.21,2.79,2.99ZM1223.79,663.44c0,1.27.73,2.23,1.76,2.23s1.76-.95,1.76-2.25c0-.98-.49-2.23-1.74-2.23s-1.79,1.15-1.79,2.25Z"/>
    <path d="M1230.22,660.52l.83,1.25c.22.32.4.62.59.95h.04c.19-.35.38-.65.58-.96l.82-1.24h1.14l-1.98,2.81,2.04,3h-1.2l-.85-1.31c-.23-.34-.42-.66-.62-1.01h-.02c-.19.35-.4.66-.61,1.01l-.84,1.31h-1.16l2.06-2.96-1.97-2.84h1.17Z"/>
    <path d="M1182.98,677.32v.72h-5.28v-.72h5.28Z"/>
    <path d="M1186.76,676.49c0-.6-.01-1.09-.05-1.57h.94l.06.96h.02c.29-.55.96-1.09,1.92-1.09.8,0,2.05.48,2.05,2.47v3.47h-1.06v-3.35c0-.94-.35-1.71-1.34-1.71-.7,0-1.24.49-1.42,1.08-.05.13-.07.31-.07.49v3.49h-1.06v-4.23Z"/>
    <path d="M1194.01,678.02c.02,1.43.94,2.01,1.99,2.01.76,0,1.21-.13,1.61-.3l.18.76c-.37.17-1.01.36-1.93.36-1.79,0-2.85-1.17-2.85-2.93s1.03-3.13,2.72-3.13c1.89,0,2.4,1.67,2.4,2.74,0,.22-.02.38-.04.49h-4.08ZM1197.1,677.26c.01-.67-.28-1.71-1.46-1.71-1.07,0-1.54.98-1.62,1.71h3.08Z"/>
    <path d="M1199.85,674.92l.77,2.95c.17.65.32,1.25.43,1.85h.04c.13-.59.32-1.21.52-1.83l.95-2.96h.89l.9,2.9c.22.7.38,1.31.52,1.89h.04c.1-.59.25-1.2.44-1.88l.83-2.92h1.04l-1.87,5.81h-.96l-.89-2.77c-.2-.65-.37-1.22-.52-1.91h-.02c-.14.7-.32,1.29-.53,1.92l-.94,2.76h-.96l-1.75-5.81h1.08Z"/>
    <path d="M1210.81,676.49c0-.6-.01-1.09-.05-1.57h.92l.05.94h.04c.32-.55.86-1.07,1.82-1.07.79,0,1.39.48,1.64,1.16h.02c.18-.32.41-.58.65-.76.35-.26.73-.41,1.28-.41.77,0,1.91.5,1.91,2.52v3.42h-1.03v-3.29c0-1.12-.41-1.79-1.26-1.79-.6,0-1.07.44-1.25.96-.05.14-.08.34-.08.53v3.59h-1.03v-3.48c0-.92-.41-1.59-1.21-1.59-.66,0-1.14.53-1.31,1.05-.06.16-.08.34-.08.52v3.5h-1.03v-4.23Z"/>
    <path d="M1221.4,678.02c.02,1.43.94,2.01,1.99,2.01.76,0,1.21-.13,1.61-.3l.18.76c-.37.17-1.01.36-1.93.36-1.79,0-2.85-1.17-2.85-2.93s1.03-3.13,2.72-3.13c1.89,0,2.4,1.67,2.4,2.74,0,.22-.02.38-.04.49h-4.08ZM1224.5,677.26c.01-.67-.28-1.71-1.46-1.71-1.07,0-1.54.98-1.62,1.71h3.08Z"/>
    <path d="M1226.68,679.65c.31.2.86.42,1.39.42.77,0,1.13-.38,1.13-.86,0-.5-.3-.78-1.08-1.07-1.04-.37-1.54-.95-1.54-1.64,0-.94.76-1.7,2-1.7.59,0,1.1.17,1.43.36l-.26.77c-.23-.14-.65-.34-1.19-.34-.62,0-.97.36-.97.79,0,.48.35.7,1.1.98,1.01.38,1.52.89,1.52,1.75,0,1.02-.79,1.74-2.17,1.74-.64,0-1.22-.16-1.63-.4l.26-.8Z"/>
    <path d="M1231.43,679.65c.31.2.86.42,1.39.42.77,0,1.13-.38,1.13-.86,0-.5-.3-.78-1.08-1.07-1.04-.37-1.54-.95-1.54-1.64,0-.94.76-1.7,2-1.7.59,0,1.1.17,1.43.36l-.26.77c-.23-.14-.65-.34-1.19-.34-.62,0-.97.36-.97.79,0,.48.35.7,1.1.98,1.01.38,1.52.89,1.52,1.75,0,1.02-.79,1.74-2.17,1.74-.64,0-1.22-.16-1.63-.4l.26-.8Z"/>
    <path d="M1239.54,680.73l-.08-.73h-.04c-.32.46-.95.86-1.77.86-1.18,0-1.78-.83-1.78-1.67,0-1.4,1.25-2.17,3.49-2.16v-.12c0-.48-.13-1.34-1.32-1.34-.54,0-1.1.17-1.51.43l-.24-.7c.48-.31,1.18-.52,1.91-.52,1.77,0,2.21,1.21,2.21,2.38v2.17c0,.5.02,1,.1,1.39h-.96ZM1239.39,677.76c-1.15-.02-2.46.18-2.46,1.31,0,.68.46,1.01,1,1.01.76,0,1.24-.48,1.4-.97.04-.11.06-.23.06-.34v-1.01Z"/>
    <path d="M1247.12,674.92c-.02.42-.05.89-.05,1.6v3.37c0,1.33-.26,2.15-.83,2.65-.56.53-1.38.7-2.11.7s-1.46-.17-1.93-.48l.26-.8c.38.24.98.46,1.7.46,1.08,0,1.87-.56,1.87-2.03v-.65h-.02c-.32.54-.95.97-1.85.97-1.44,0-2.47-1.22-2.47-2.83,0-1.97,1.28-3.08,2.61-3.08,1.01,0,1.56.53,1.81,1.01h.02l.05-.88h.92ZM1246.02,677.21c0-.18-.01-.34-.06-.48-.19-.61-.71-1.12-1.48-1.12-1.01,0-1.73.85-1.73,2.19,0,1.14.58,2.09,1.71,2.09.65,0,1.24-.41,1.46-1.08.06-.18.08-.38.08-.56v-1.04Z"/>
    <path d="M1249.41,678.02c.02,1.43.94,2.01,1.99,2.01.76,0,1.21-.13,1.61-.3l.18.76c-.37.17-1.01.36-1.93.36-1.79,0-2.85-1.17-2.85-2.93s1.03-3.13,2.72-3.13c1.89,0,2.4,1.67,2.4,2.74,0,.22-.02.38-.04.49h-4.08ZM1252.5,677.26c.01-.67-.28-1.71-1.46-1.71-1.07,0-1.54.98-1.62,1.71h3.08Z"/>
    <path d="M1257.12,672.4c-.88,1.18-1.51,2.74-1.51,4.91s.66,3.67,1.51,4.87h-.83c-.76-1-1.57-2.53-1.57-4.87.01-2.36.82-3.9,1.57-4.91h.83Z"/>
    <path d="M1258.1,679.65c.31.2.86.42,1.39.42.77,0,1.13-.38,1.13-.86,0-.5-.3-.78-1.08-1.07-1.04-.37-1.54-.95-1.54-1.64,0-.94.76-1.7,2-1.7.59,0,1.1.17,1.43.36l-.26.77c-.23-.14-.65-.34-1.19-.34-.62,0-.97.36-.97.79,0,.48.35.7,1.1.98,1.01.38,1.52.89,1.52,1.75,0,1.02-.79,1.74-2.17,1.74-.64,0-1.22-.16-1.63-.4l.26-.8Z"/>
    <path d="M1262.36,682.18c.85-1.19,1.51-2.75,1.51-4.91s-.65-3.68-1.51-4.87h.82c.77.98,1.57,2.52,1.57,4.88s-.8,3.87-1.57,4.89h-.82Z"/>
  </g>
  <g>
    <path class="cls-2" d="M934.43,343c-7.73,0-14-6.27-14-14s6.27-14,14-14h14c7.73,0,14,6.27,14,14s-6.27,14-14,14h-2.33c0,7.73-6.27,14-14,14"/>
    <rect class="cls-1" x="901.43" y="296" width="80" height="80"/>
  </g>
  <g>
    <rect class="cls-1" x="1041.43" y="296" width="80" height="80"/>
    <g>
      <path class="cls-2" d="M1074.43,343c-7.73,0-14-6.27-14-14s6.27-14,14-14h9"/>
      <g>
        <line class="cls-2" x1="1097.68" y1="305.96" x2="1097.68" y2="310.96"/>
        <line class="cls-2" x1="1092.92" y1="309.41" x2="1097.68" y2="310.96"/>
        <line class="cls-2" x1="1094.74" y1="315" x2="1097.68" y2="310.96"/>
        <line class="cls-2" x1="1100.62" y1="315" x2="1097.68" y2="310.96"/>
        <line class="cls-2" x1="1102.43" y1="309.41" x2="1097.68" y2="310.96"/>
      </g>
      <path class="cls-2" d="M1101.84,325c.38,1.27.59,2.61.59,4,0,7.73-6.27,14-14,14h-2.33c0,7.73-6.27,14-14,14"/>
    </g>
  </g>
  <g>
    <g>
      <path class="cls-2" d="M916.43,193c0-7,9-12,25-12s25,5,25,12v3c0,2.76-2.24,5-5,5h-5c-2.76,0-5-2.24-5-5,0-3-2-5-10-5s-10,2-10,5c0,2.76-2.24,5-5,5h-5"/>
      <line class="cls-2" x1="921.43" y1="211" x2="962.43" y2="211"/>
    </g>
    <rect class="cls-1" x="901.43" y="156" width="80" height="80"/>
  </g>
  <g>
    <rect class="cls-1" x="621.43" y="436" width="80" height="80"/>
    <g>
      <g>
        <line class="cls-2" x1="691.43" y1="489.96" x2="691.43" y2="494.96"/>
        <line class="cls-2" x1="686.68" y1="493.41" x2="691.43" y2="494.96"/>
        <line class="cls-2" x1="688.49" y1="499" x2="691.43" y2="494.96"/>
        <line class="cls-2" x1="694.37" y1="499" x2="691.43" y2="494.96"/>
        <line class="cls-2" x1="696.19" y1="493.41" x2="691.43" y2="494.96"/>
      </g>
      <g>
        <path class="cls-2" d="M652.43,477h-19c-2.76,0-5-2.24-5-5v-9"/>
        <path class="cls-2" d="M661.43,453l-14,13-14-13h28c2.76,0,5,2.24,5,5v14"/>
        <g>
          <path class="cls-2" d="M677.43,499h-20c-2.76,0-5-2.24-5-5v-17c0-2.76,2.24-5,5-5h9c0-2.76,2.24-5,5-5h4c2.76,0,5,2.24,5,5h9c2.76,0,5,2.24,5,5v3"/>
          <circle class="cls-2" cx="673.43" cy="485" r="5"/>
        </g>
      </g>
    </g>
  </g>
  <g>
    <path class="cls-2" d="M664.43,631h-23c-2.76,0-5-2.24-5-5v-20c0-2.76,2.24-5,5-5h40c2.76,0,5,2.24,5,5v4"/>
    <polyline class="cls-2" points="641.43 601 661.43 618 681.43 601"/>
    <rect class="cls-1" x="621.43" y="576" width="80" height="80"/>
    <g>
      <line class="cls-2" x1="687.43" y1="625" x2="673.43" y2="625"/>
      <line class="cls-2" x1="680.43" y1="632" x2="680.43" y2="618"/>
    </g>
  </g>
  <text class="cls-5" transform="translate(614.54 666.33)"><tspan x="0" y="0">Add email account</tspan></text>
  <g>
    <rect class="cls-1" x="761.43" y="436" width="80" height="80"/>
    <g>
      <g>
        <path class="cls-2" d="M791.93,477h-19c-2.76,0-5-2.24-5-5v-9"/>
        <path class="cls-2" d="M800.93,453l-14,13-14-13h28c2.76,0,5,2.24,5,5v14"/>
      </g>
      <g>
        <path class="cls-2" d="M836.93,499h-40c-2.76,0-5-2.24-5-5v-17c0-2.76,2.24-5,5-5h9c0-2.76,2.24-5,5-5h4c2.76,0,5,2.24,5,5h9c2.76,0,5,2.24,5,5v7"/>
        <circle class="cls-2" cx="812.93" cy="485" r="5"/>
        <polyline class="cls-2" points="829.93 494 836.93 499 829.93 504"/>
      </g>
    </g>
  </g>
  <g>
    <rect class="cls-1" x="1461.43" y="296" width="80" height="80"/>
    <g>
      <path class="cls-2" d="M1498.93,335h-23c-2.76,0-5-2.24-5-5v-9"/>
      <path class="cls-2" d="M1503.93,311l-14,13-14-13h28c2.76,0,5,2.24,5,5v11"/>
      <g>
        <path class="cls-2" d="M1533.93,361h-30c-2.76,0-5-2.24-5-5v-24c0-2.76,2.24-5,5-5h22c2.76,0,5,2.24,5,5v14"/>
        <line class="cls-2" x1="1509.93" y1="349" x2="1519.93" y2="349"/>
        <line class="cls-2" x1="1509.93" y1="339" x2="1519.93" y2="339"/>
        <polyline class="cls-2" points="1526.93 356 1533.93 361 1526.93 366"/>
      </g>
    </g>
  </g>
  <text class="cls-5" transform="translate(1467.4974 526.3262)"><tspan x="0" y="0">Conferencing</tspan></text>
  <g>
    <g>
      <path class="cls-2" d="M1517.27,496.37c-4.95,4.95-14.85,2.12-26.16-9.19-11.31-11.31-14.14-21.21-9.19-26.16l2.12-2.12c1.95-1.95,5.12-1.95,7.07,0l3.54,3.54c1.95,1.95,1.95,5.12,0,7.07-2.12,2.12-2.12,4.95,3.54,10.61,5.66,5.66,8.48,5.66,10.61,3.54,1.95-1.95,5.12-1.95,7.07,0l3.54,3.54"/>
      <path class="cls-2" d="M1514.26,456.21c-4.63-3.07-10.22-4.5-15.76-4.06"/>
      <path class="cls-2" d="M1525.4,479.04c.43-5.54-.99-11.12-4.06-15.76"/>
      <path class="cls-2" d="M1477.39,486.65c2.46,5.93,7.14,10.7,13,13.29"/>
    </g>
    <rect class="cls-1" x="1461.43" y="436" width="80" height="80"/>
  </g>
  <g>
    <g>
      <path class="cls-2" d="M1216.43,348h-14c-2.76,0-5-2.24-5-5v-22c0-2.76,2.24-5,5-5h38c2.76,0,5,2.24,5,5v22c0,2.76-2.24,5-5,5h-14c0,7.73-6.27,14-14,14"/>
      <text class="cls-7" transform="translate(1206.3141 338)"><tspan x="0" y="0">SMS</tspan></text>
    </g>
    <rect class="cls-1" x="1181.43" y="296" width="80" height="80"/>
  </g>
  <g>
    <rect class="cls-1" x="1321.43" y="296" width="80" height="80"/>
    <rect class="cls-1" x="1321.43" y="296" width="80" height="80"/>
    <g>
      <path class="cls-2" d="M1371.43,348h-5c0,7.73-6.27,14-14,14"/>
      <path class="cls-2" d="M1356.43,348h-14c-2.76,0-5-2.24-5-5v-22c0-2.76,2.24-5,5-5h38c2.76,0,5,2.24,5,5v9"/>
      <text class="cls-7" transform="translate(1346.3121 338)"><tspan x="0" y="0">SMS</tspan></text>
      <g>
        <line class="cls-2" x1="1385.43" y1="338.96" x2="1385.43" y2="343.96"/>
        <line class="cls-2" x1="1380.68" y1="342.41" x2="1385.43" y2="343.96"/>
        <line class="cls-2" x1="1382.49" y1="348" x2="1385.43" y2="343.96"/>
        <line class="cls-2" x1="1388.37" y1="348" x2="1385.43" y2="343.96"/>
        <line class="cls-2" x1="1390.19" y1="342.41" x2="1385.43" y2="343.96"/>
      </g>
    </g>
  </g>
  <g>
    <path d="M1189.84,379.13h-2.46v-.89h5.99v.89h-2.47v7.2h-1.06v-7.2Z"/>
    <path d="M1194.82,383.62c.02,1.43.94,2.01,1.99,2.01.75,0,1.21-.13,1.61-.3l.18.76c-.37.17-1.01.36-1.93.36-1.79,0-2.85-1.18-2.85-2.93s1.03-3.13,2.72-3.13c1.9,0,2.4,1.67,2.4,2.73,0,.22-.02.38-.04.49h-4.08ZM1197.92,382.86c.01-.67-.28-1.71-1.46-1.71-1.07,0-1.54.98-1.62,1.71h3.08Z"/>
    <path d="M1200.74,380.52l.83,1.25c.22.32.4.62.59.95h.04c.19-.35.38-.65.58-.96l.82-1.24h1.14l-1.98,2.81,2.04,3h-1.2l-.85-1.31c-.23-.34-.42-.66-.62-1.01h-.02c-.19.35-.4.66-.61,1.01l-.84,1.31h-1.16l2.06-2.96-1.97-2.84h1.18Z"/>
    <path d="M1207.07,378.85v1.67h1.51v.8h-1.51v3.13c0,.72.2,1.13.79,1.13.28,0,.48-.04.61-.07l.05.79c-.2.08-.53.14-.93.14-.49,0-.89-.16-1.14-.44-.3-.31-.41-.83-.41-1.51v-3.17h-.9v-.8h.9v-1.39l1.03-.28Z"/>
    <path d="M1212.32,382.09c0-.6-.01-1.09-.05-1.57h.92l.05.94h.04c.32-.55.86-1.07,1.82-1.07.79,0,1.39.48,1.64,1.16h.02c.18-.32.41-.58.65-.76.35-.26.73-.41,1.28-.41.77,0,1.91.5,1.91,2.52v3.42h-1.03v-3.29c0-1.12-.41-1.79-1.26-1.79-.6,0-1.07.44-1.25.96-.05.14-.08.34-.08.53v3.59h-1.03v-3.48c0-.92-.41-1.6-1.21-1.6-.66,0-1.14.53-1.31,1.06-.06.16-.08.34-.08.52v3.5h-1.03v-4.23Z"/>
    <path d="M1222.91,383.62c.02,1.43.94,2.01,1.99,2.01.76,0,1.21-.13,1.61-.3l.18.76c-.37.17-1.01.36-1.93.36-1.79,0-2.85-1.18-2.85-2.93s1.03-3.13,2.72-3.13c1.89,0,2.4,1.67,2.4,2.73,0,.22-.02.38-.04.49h-4.08ZM1226.01,382.86c.01-.67-.28-1.71-1.46-1.71-1.07,0-1.54.98-1.62,1.71h3.08Z"/>
    <path d="M1228.19,385.25c.31.2.86.42,1.39.42.77,0,1.13-.38,1.13-.86,0-.5-.3-.78-1.08-1.07-1.04-.37-1.54-.95-1.54-1.64,0-.94.75-1.7,2-1.7.59,0,1.1.17,1.43.36l-.26.77c-.23-.14-.65-.34-1.19-.34-.62,0-.97.36-.97.79,0,.48.35.7,1.1.98,1.01.38,1.52.89,1.52,1.75,0,1.02-.79,1.74-2.17,1.74-.64,0-1.22-.16-1.63-.4l.26-.8Z"/>
    <path d="M1232.95,385.25c.31.2.86.42,1.39.42.77,0,1.13-.38,1.13-.86,0-.5-.3-.78-1.08-1.07-1.04-.37-1.54-.95-1.54-1.64,0-.94.75-1.7,2-1.7.59,0,1.1.17,1.43.36l-.26.77c-.23-.14-.65-.34-1.19-.34-.62,0-.97.36-.97.79,0,.48.35.7,1.1.98,1.01.38,1.52.89,1.52,1.75,0,1.02-.79,1.74-2.17,1.74-.64,0-1.22-.16-1.63-.4l.26-.8Z"/>
    <path d="M1241.06,386.33l-.08-.73h-.04c-.32.46-.95.86-1.78.86-1.17,0-1.78-.83-1.78-1.67,0-1.4,1.25-2.17,3.49-2.16v-.12c0-.48-.13-1.34-1.32-1.34-.54,0-1.1.17-1.51.43l-.24-.7c.48-.31,1.18-.52,1.91-.52,1.78,0,2.21,1.21,2.21,2.37v2.17c0,.5.02,1,.1,1.39h-.96ZM1240.9,383.36c-1.15-.02-2.46.18-2.46,1.31,0,.68.46,1.01,1,1.01.75,0,1.24-.48,1.4-.97.04-.11.06-.23.06-.34v-1.01Z"/>
    <path d="M1248.63,380.52c-.02.42-.05.89-.05,1.6v3.37c0,1.33-.26,2.15-.83,2.65-.56.53-1.38.7-2.11.7s-1.46-.17-1.93-.48l.26-.8c.38.24.98.46,1.7.46,1.08,0,1.87-.56,1.87-2.03v-.65h-.02c-.32.54-.95.97-1.85.97-1.44,0-2.47-1.22-2.47-2.83,0-1.97,1.28-3.08,2.61-3.08,1.01,0,1.56.53,1.81,1.01h.02l.05-.88h.92ZM1247.54,382.81c0-.18-.01-.34-.06-.48-.19-.61-.71-1.12-1.47-1.12-1.01,0-1.73.85-1.73,2.19,0,1.14.58,2.09,1.71,2.09.65,0,1.24-.41,1.46-1.08.06-.18.08-.38.08-.56v-1.04Z"/>
    <path d="M1250.92,383.62c.02,1.43.94,2.01,1.99,2.01.76,0,1.21-.13,1.61-.3l.18.76c-.37.17-1.01.36-1.93.36-1.79,0-2.85-1.18-2.85-2.93s1.03-3.13,2.72-3.13c1.89,0,2.4,1.67,2.4,2.73,0,.22-.02.38-.04.49h-4.08ZM1254.02,382.86c.01-.67-.28-1.71-1.46-1.71-1.07,0-1.54.98-1.62,1.71h3.08Z"/>
    <path class="cls-9" d="M1176.56,400.73v-8.08h1.14l2.59,4.09c.6.95,1.07,1.8,1.45,2.63h.02c-.1-1.09-.12-2.07-.12-3.33v-3.38h.98v8.08h-1.06l-2.57-4.1c-.56-.9-1.1-1.82-1.51-2.7h-.04c.06,1.03.08,2,.08,3.35v3.45h-.98Z"/>
    <path class="cls-9" d="M1189.67,397.78c0,2.15-1.49,3.08-2.89,3.08-1.57,0-2.78-1.15-2.78-2.99,0-1.94,1.27-3.08,2.88-3.08s2.79,1.21,2.79,2.99ZM1185.07,397.84c0,1.27.73,2.23,1.76,2.23s1.76-.95,1.76-2.25c0-.98-.49-2.23-1.74-2.23s-1.79,1.15-1.79,2.25Z"/>
    <path class="cls-9" d="M1192.28,393.25v1.67h1.51v.8h-1.51v3.13c0,.72.2,1.13.79,1.13.28,0,.48-.04.61-.07l.05.79c-.2.08-.53.14-.94.14-.49,0-.89-.16-1.14-.44-.3-.31-.41-.83-.41-1.51v-3.17h-.9v-.8h.9v-1.39l1.03-.28Z"/>
    <path class="cls-9" d="M1197.91,394.92l1.27,3.43c.13.38.28.84.37,1.19h.02c.11-.35.23-.79.37-1.21l1.15-3.41h1.12l-1.58,4.14c-.76,1.99-1.27,3.01-1.99,3.63-.52.46-1.03.64-1.29.68l-.26-.89c.26-.08.61-.25.92-.52.29-.23.65-.64.89-1.18.05-.11.08-.19.08-.25s-.02-.14-.07-.28l-2.15-5.35h1.15Z"/>
    <path class="cls-9" d="M1203.76,398.02c.02,1.43.93,2.02,1.99,2.02.76,0,1.21-.13,1.61-.3l.18.76c-.37.17-1.01.36-1.93.36-1.79,0-2.85-1.18-2.85-2.93s1.03-3.13,2.72-3.13c1.89,0,2.4,1.67,2.4,2.73,0,.22-.02.38-.04.49h-4.08ZM1206.86,397.26c.01-.67-.28-1.72-1.46-1.72-1.07,0-1.54.98-1.62,1.72h3.08Z"/>
    <path class="cls-9" d="M1210.46,393.25v1.67h1.51v.8h-1.51v3.13c0,.72.2,1.13.79,1.13.28,0,.48-.04.61-.07l.05.79c-.2.08-.53.14-.94.14-.49,0-.89-.16-1.14-.44-.3-.31-.41-.83-.41-1.51v-3.17h-.9v-.8h.9v-1.39l1.03-.28Z"/>
    <path class="cls-9" d="M1215.56,399.65c.31.2.86.42,1.39.42.77,0,1.13-.38,1.13-.86,0-.5-.3-.78-1.08-1.07-1.04-.37-1.54-.95-1.54-1.64,0-.94.76-1.7,2-1.7.59,0,1.1.17,1.43.36l-.26.77c-.23-.14-.65-.34-1.19-.34-.62,0-.97.36-.97.79,0,.48.35.7,1.1.98,1.01.38,1.52.89,1.52,1.75,0,1.02-.79,1.74-2.17,1.74-.64,0-1.22-.16-1.63-.4l.26-.8Z"/>
    <path class="cls-9" d="M1221.63,393.29c.01.36-.25.65-.67.65-.37,0-.64-.29-.64-.65s.28-.66.66-.66.65.29.65.66ZM1220.45,400.73v-5.8h1.06v5.8h-1.06Z"/>
    <path class="cls-9" d="M1228.26,394.92c-.02.42-.05.89-.05,1.6v3.37c0,1.33-.26,2.15-.83,2.65-.56.53-1.38.7-2.11.7s-1.46-.17-1.93-.48l.26-.8c.38.24.98.46,1.7.46,1.08,0,1.87-.56,1.87-2.03v-.65h-.02c-.32.54-.95.97-1.85.97-1.44,0-2.47-1.22-2.47-2.83,0-1.97,1.28-3.08,2.61-3.08,1.01,0,1.56.53,1.81,1.01h.02l.05-.88h.92ZM1227.17,397.21c0-.18-.01-.34-.06-.48-.19-.61-.71-1.12-1.48-1.12-1.01,0-1.73.85-1.73,2.19,0,1.14.58,2.09,1.71,2.09.65,0,1.24-.41,1.46-1.08.06-.18.08-.38.08-.56v-1.04Z"/>
    <path class="cls-9" d="M1229.97,396.49c0-.6-.01-1.09-.05-1.57h.94l.06.96h.02c.29-.55.96-1.09,1.92-1.09.8,0,2.05.48,2.05,2.47v3.47h-1.06v-3.35c0-.94-.35-1.71-1.34-1.71-.7,0-1.24.49-1.42,1.08-.05.13-.07.31-.07.49v3.49h-1.06v-4.23Z"/>
    <path class="cls-9" d="M1237.22,398.02c.02,1.43.94,2.02,1.99,2.02.76,0,1.21-.13,1.61-.3l.18.76c-.37.17-1.01.36-1.93.36-1.79,0-2.85-1.18-2.85-2.93s1.03-3.13,2.72-3.13c1.89,0,2.4,1.67,2.4,2.73,0,.22-.02.38-.04.49h-4.08ZM1240.31,397.26c.01-.67-.28-1.72-1.46-1.72-1.07,0-1.54.98-1.62,1.72h3.08Z"/>
    <path class="cls-9" d="M1247.66,392.21v7.02c0,.52.01,1.1.05,1.5h-.95l-.05-1.01h-.02c-.32.65-1.03,1.14-1.98,1.14-1.4,0-2.48-1.19-2.48-2.95-.01-1.93,1.19-3.12,2.6-3.12.89,0,1.49.42,1.75.89h.02v-3.47h1.06ZM1246.6,397.28c0-.13-.01-.31-.05-.44-.16-.67-.73-1.22-1.52-1.22-1.09,0-1.74.96-1.74,2.24,0,1.18.58,2.15,1.72,2.15.71,0,1.35-.47,1.55-1.26.04-.14.05-.29.05-.46v-1.01Z"/>
    <path class="cls-9" d="M1257.21,397.78c0,2.15-1.49,3.08-2.89,3.08-1.57,0-2.78-1.15-2.78-2.99,0-1.94,1.27-3.08,2.88-3.08s2.79,1.21,2.79,2.99ZM1252.6,397.84c0,1.27.73,2.23,1.76,2.23s1.76-.95,1.76-2.25c0-.98-.49-2.23-1.74-2.23s-1.79,1.15-1.79,2.25Z"/>
    <path class="cls-9" d="M1258.65,400.73v-5h-.82v-.8h.82v-.28c0-.82.18-1.56.67-2.03.4-.38.92-.54,1.42-.54.37,0,.7.08.9.17l-.14.82c-.16-.07-.37-.13-.67-.13-.9,0-1.13.79-1.13,1.68v.31h1.4v.8h-1.4v5h-1.04Z"/>
    <path class="cls-9" d="M1262.15,400.73v-5h-.82v-.8h.82v-.28c0-.82.18-1.56.67-2.03.4-.38.92-.54,1.42-.54.37,0,.7.08.9.17l-.14.82c-.16-.07-.37-.13-.67-.13-.9,0-1.13.79-1.13,1.68v.31h1.4v.8h-1.4v5h-1.04Z"/>
    <path class="cls-9" d="M1184.29,412.18c0,2.15-1.49,3.08-2.89,3.08-1.57,0-2.78-1.15-2.78-2.99,0-1.94,1.27-3.08,2.88-3.08s2.79,1.21,2.79,2.99ZM1179.68,412.24c0,1.27.73,2.23,1.76,2.23s1.76-.95,1.76-2.25c0-.98-.49-2.23-1.74-2.23s-1.79,1.15-1.79,2.25Z"/>
    <path class="cls-9" d="M1185.63,411.13c0-.68-.01-1.27-.05-1.81h.92l.04,1.14h.05c.26-.78.9-1.27,1.61-1.27.12,0,.2.01.3.04v1c-.11-.02-.22-.04-.36-.04-.74,0-1.27.56-1.42,1.35-.02.14-.05.31-.05.49v3.09h-1.04v-3.99Z"/>
    <path class="cls-9" d="M1193.27,407.69c.01.36-.25.65-.67.65-.37,0-.64-.29-.64-.65s.28-.66.66-.66.65.29.65.66ZM1192.09,415.13v-5.8h1.06v5.8h-1.06Z"/>
    <path class="cls-9" d="M1194.9,410.89c0-.6-.01-1.09-.05-1.57h.94l.06.96h.02c.29-.55.96-1.09,1.92-1.09.8,0,2.05.48,2.05,2.47v3.47h-1.06v-3.35c0-.94-.35-1.71-1.34-1.71-.7,0-1.24.49-1.42,1.08-.05.13-.07.31-.07.49v3.49h-1.06v-4.23Z"/>
    <path class="cls-9" d="M1203.96,414.05c.31.2.86.42,1.39.42.77,0,1.13-.38,1.13-.86,0-.5-.3-.78-1.08-1.07-1.04-.37-1.54-.95-1.54-1.64,0-.94.76-1.7,2-1.7.59,0,1.1.17,1.43.36l-.26.77c-.23-.14-.65-.34-1.19-.34-.62,0-.97.36-.97.79,0,.48.35.7,1.1.98,1.01.38,1.52.89,1.52,1.75,0,1.02-.79,1.74-2.17,1.74-.64,0-1.22-.16-1.63-.4l.26-.8Z"/>
    <path class="cls-9" d="M1208.86,411.22c0-.74-.02-1.34-.05-1.9h.95l.05,1h.02c.43-.71,1.12-1.13,2.06-1.13,1.4,0,2.46,1.19,2.46,2.95,0,2.09-1.27,3.12-2.64,3.12-.77,0-1.44-.34-1.79-.91h-.02v3.15h-1.04v-6.28ZM1209.9,412.76c0,.16.02.3.05.43.19.73.83,1.24,1.58,1.24,1.12,0,1.76-.91,1.76-2.24,0-1.16-.61-2.16-1.73-2.16-.72,0-1.39.52-1.59,1.31-.04.13-.07.29-.07.43v1Z"/>
    <path class="cls-9" d="M1215.68,411.13c0-.68-.01-1.27-.05-1.81h.92l.04,1.14h.05c.26-.78.9-1.27,1.61-1.27.12,0,.2.01.3.04v1c-.11-.02-.22-.04-.36-.04-.74,0-1.27.56-1.42,1.35-.02.14-.05.31-.05.49v3.09h-1.04v-3.99Z"/>
    <path class="cls-9" d="M1220.2,412.42c.02,1.43.94,2.02,1.99,2.02.76,0,1.21-.13,1.61-.3l.18.76c-.37.17-1.01.36-1.93.36-1.79,0-2.85-1.18-2.85-2.93s1.03-3.13,2.72-3.13c1.89,0,2.4,1.67,2.4,2.73,0,.22-.02.38-.04.49h-4.08ZM1223.29,411.66c.01-.67-.28-1.72-1.46-1.72-1.07,0-1.54.98-1.62,1.72h3.08Z"/>
    <path class="cls-9" d="M1228.83,415.13l-.08-.73h-.04c-.32.46-.95.86-1.77.86-1.18,0-1.78-.83-1.78-1.67,0-1.4,1.25-2.17,3.49-2.16v-.12c0-.48-.13-1.34-1.32-1.34-.54,0-1.1.17-1.51.43l-.24-.7c.48-.31,1.18-.52,1.91-.52,1.77,0,2.21,1.21,2.21,2.37v2.17c0,.5.02,1,.1,1.39h-.96ZM1228.68,412.16c-1.15-.02-2.46.18-2.46,1.31,0,.68.46,1.01,1,1.01.76,0,1.24-.48,1.4-.97.04-.11.06-.23.06-.34v-1.01Z"/>
    <path class="cls-9" d="M1236.42,406.61v7.02c0,.52.01,1.1.05,1.5h-.95l-.05-1.01h-.02c-.32.65-1.03,1.14-1.98,1.14-1.4,0-2.48-1.19-2.48-2.95-.01-1.93,1.19-3.12,2.6-3.12.89,0,1.49.42,1.75.89h.02v-3.47h1.06ZM1235.36,411.68c0-.13-.01-.31-.05-.44-.16-.67-.73-1.22-1.52-1.22-1.09,0-1.74.96-1.74,2.24,0,1.18.58,2.15,1.71,2.15.71,0,1.36-.47,1.55-1.26.04-.14.05-.29.05-.46v-1.01Z"/>
    <path class="cls-9" d="M1238.03,414.05c.31.2.86.42,1.39.42.77,0,1.13-.38,1.13-.86,0-.5-.3-.78-1.08-1.07-1.04-.37-1.54-.95-1.54-1.64,0-.94.76-1.7,2-1.7.59,0,1.1.17,1.43.36l-.26.77c-.23-.14-.65-.34-1.19-.34-.62,0-.97.36-.97.79,0,.48.35.7,1.1.98,1.01.38,1.52.89,1.52,1.75,0,1.02-.79,1.74-2.17,1.74-.64,0-1.22-.16-1.63-.4l.26-.8Z"/>
    <path class="cls-9" d="M1242.92,406.61h1.06v3.62h.02c.17-.3.43-.56.76-.74.31-.18.68-.3,1.08-.3.78,0,2.03.48,2.03,2.48v3.45h-1.06v-3.33c0-.94-.35-1.73-1.34-1.73-.68,0-1.22.48-1.42,1.06-.06.14-.07.3-.07.5v3.5h-1.06v-8.52Z"/>
    <path class="cls-9" d="M1250.17,412.42c.02,1.43.94,2.02,1.99,2.02.76,0,1.21-.13,1.61-.3l.18.76c-.37.17-1.01.36-1.93.36-1.79,0-2.85-1.18-2.85-2.93s1.03-3.13,2.72-3.13c1.89,0,2.4,1.67,2.4,2.73,0,.22-.02.38-.04.49h-4.08ZM1253.27,411.66c.01-.67-.28-1.72-1.46-1.72-1.07,0-1.54.98-1.62,1.72h3.08Z"/>
    <path class="cls-9" d="M1256.18,412.42c.02,1.43.94,2.02,1.99,2.02.76,0,1.21-.13,1.61-.3l.18.76c-.37.17-1.01.36-1.93.36-1.79,0-2.85-1.18-2.85-2.93s1.03-3.13,2.72-3.13c1.89,0,2.4,1.67,2.4,2.73,0,.22-.02.38-.04.49h-4.08ZM1259.28,411.66c.01-.67-.28-1.72-1.46-1.72-1.07,0-1.54.98-1.62,1.72h3.08Z"/>
    <path class="cls-9" d="M1262.88,407.65v1.67h1.51v.8h-1.51v3.13c0,.72.2,1.13.79,1.13.28,0,.48-.04.61-.07l.05.79c-.2.08-.53.14-.94.14-.49,0-.89-.16-1.14-.44-.3-.31-.41-.83-.41-1.51v-3.17h-.9v-.8h.9v-1.39l1.03-.28Z"/>
  </g>
</svg>