<?xml version="1.0" encoding="utf-8"?>
<!-- Generator: Adobe Illustrator 23.0.3, SVG Export Plug-In . SVG Version: 6.00 Build 0)  -->
<svg version="1.1" id="Ebene_1" xmlns="http://www.w3.org/2000/svg" xmlns:xlink="http://www.w3.org/1999/xlink" x="0px" y="0px"
	 viewBox="0 0 585 102" style="enable-background:new 0 0 585 102;" xml:space="preserve">
<style type="text/css">
	.st0{fill:#0058E2;}
	.st1{fill:#003D85;}
	.st2{fill:#3FA9F5;}
	.st3{clip-path:url(#SVGID_2_);}
	.st4{clip-path:url(#SVGID_2_);fill:#0058E2;}
	.st5{clip-path:url(#SVGID_2_);fill:#003D85;}
	.st6{clip-path:url(#SVGID_2_);fill:#3FA9F5;}
	.st7{clip-path:url(#SVGID_4_);}
	.st8{fill:#1D1D1B;}
</style>
<g>
	<rect x="59.96" y="21.37" class="st0" width="2.98" height="44.63"/>
	<rect x="59.96" y="66" class="st1" width="2.98" height="19"/>
	
		<rect x="72.07" y="32.96" transform="matrix(0.7071 0.7071 -0.7071 0.7071 55.2037 -38.0709)" class="st1" width="2.98" height="29.28"/>
	<circle class="st0" cx="61.32" cy="16.97" r="7.81"/>
	<circle class="st1" cx="39.73" cy="38.4" r="7.81"/>
	<circle class="st0" cx="61.52" cy="38.4" r="7.81"/>
	<circle class="st1" cx="83.32" cy="38.4" r="7.81"/>
	<circle class="st0" cx="17.94" cy="59.83" r="7.81"/>
	<circle class="st2" cx="39.73" cy="59.83" r="7.81"/>
	<circle class="st1" cx="61.52" cy="59.83" r="7.81"/>
	<circle class="st2" cx="83.32" cy="59.83" r="7.81"/>
	<circle class="st2" cx="17.94" cy="81.26" r="7.81"/>
	<circle class="st1" cx="39.73" cy="81.26" r="7.81"/>
	<circle class="st2" cx="61.52" cy="81.26" r="7.81"/>
	<circle class="st2" cx="83.32" cy="81.26" r="7.81"/>
</g>
<g>
	<defs>
		<rect id="SVGID_1_" x="100" y="13" width="475.58" height="59"/>
	</defs>
	<clipPath id="SVGID_2_">
		<use xlink:href="#SVGID_1_"  style="overflow:visible;"/>
	</clipPath>
	<path class="st3" d="M116.94,69.5c-2.93-1.66-5.31-4.09-7.13-7.29c-1.82-3.19-2.73-6.93-2.73-11.21s0.91-8.01,2.73-11.21
		c1.82-3.19,4.2-5.62,7.13-7.29c2.93-1.66,6.03-2.49,9.31-2.49c5.17,0,9.69,2.01,13.54,6.02v-19.4c0-1.06,0.36-1.93,1.07-2.61
		c0.71-0.69,1.57-1.03,2.57-1.03c1,0,1.85,0.36,2.53,1.07c0.69,0.71,1.03,1.57,1.03,2.57v51.4c0,1-0.34,1.85-1.03,2.53
		c-0.69,0.69-1.53,1.03-2.53,1.03c-1,0-1.86-0.34-2.57-1.03s-1.07-1.53-1.07-2.53v-2.06c-3.85,4.01-8.37,6.02-13.54,6.02
		C122.97,72,119.87,71.17,116.94,69.5 M134.12,63.64c2.14-1.08,4.03-2.52,5.66-4.32V42.7c-1.64-1.79-3.52-3.23-5.66-4.32
		c-2.14-1.08-4.42-1.62-6.85-1.62c-3.91,0-7.05,1.24-9.42,3.72c-2.38,2.48-3.56,5.99-3.56,10.53c0,4.54,1.19,8.05,3.56,10.53
		c2.38,2.48,5.52,3.72,9.42,3.72C129.7,65.27,131.99,64.73,134.12,63.64"/>
	<path class="st3" d="M163.35,70.57c-1.98-0.95-3.55-2.34-4.71-4.16c-1.16-1.82-1.74-3.92-1.74-6.3c0-3.91,1.54-7.02,4.63-9.34
		c3.09-2.32,7.61-3.48,13.58-3.48h9.58v-0.63c0-3.48-0.86-5.99-2.57-7.52c-1.72-1.53-4.4-2.3-8.04-2.3c-2.01,0-3.79,0.16-5.35,0.48
		c-1.56,0.32-3.29,0.79-5.19,1.43c-0.42,0.11-0.77,0.16-1.03,0.16c-0.79,0-1.48-0.29-2.06-0.87c-0.58-0.58-0.87-1.29-0.87-2.14
		c0-1.43,0.69-2.43,2.06-3.01c4.49-1.9,9.05-2.85,13.7-2.85c3.64,0,6.72,0.74,9.23,2.22c2.51,1.48,4.36,3.39,5.54,5.74
		c1.19,2.35,1.78,4.9,1.78,7.64v22.41c0,1-0.36,1.85-1.07,2.53c-0.71,0.69-1.57,1.03-2.57,1.03s-1.85-0.34-2.53-1.03
		c-0.69-0.69-1.03-1.53-1.03-2.53v-2.06c-3.91,4.01-8.87,6.02-14.89,6.02C167.48,72,165.33,71.52,163.35,70.57 M179.22,63.96
		c2.16-1.13,3.99-2.55,5.46-4.24v-6.65h-8.63c-7.97,0-11.96,2.09-11.96,6.26c0,1.9,0.65,3.43,1.94,4.59
		c1.29,1.16,3.44,1.74,6.45,1.74C174.82,65.66,177.06,65.1,179.22,63.96"/>
	<path class="st3" d="M205.44,61.55V37h-5.62c-0.42,0-0.78-0.14-1.07-0.44c-0.29-0.29-0.44-0.65-0.44-1.07
		c0-0.53,0.24-0.98,0.71-1.35l10.77-10.53c0.48-0.48,0.92-0.71,1.35-0.71c0.42,0,0.78,0.16,1.07,0.48c0.29,0.32,0.44,0.69,0.44,1.11
		v6.34h8.95c0.9,0,1.64,0.29,2.22,0.87c0.58,0.58,0.87,1.32,0.87,2.22c0,0.85-0.29,1.57-0.87,2.18c-0.58,0.61-1.32,0.91-2.22,0.91
		h-8.95v23.92c0,2.06,0.49,3.37,1.47,3.92c0.98,0.55,2.2,0.83,3.68,0.83c1.06,0,2.11-0.16,3.17-0.48c0.21-0.05,0.44-0.11,0.67-0.16
		c0.24-0.05,0.54-0.08,0.91-0.08c0.74,0,1.4,0.28,1.98,0.83c0.58,0.55,0.87,1.23,0.87,2.02c0,1.22-0.61,2.14-1.82,2.77
		C221.51,71.52,219.32,72,217,72C209.29,72,205.44,68.51,205.44,61.55"/>
	<path class="st3" d="M237.15,70.57c-1.98-0.95-3.55-2.34-4.71-4.16c-1.16-1.82-1.74-3.92-1.74-6.3c0-3.91,1.54-7.02,4.63-9.34
		c3.09-2.32,7.61-3.48,13.58-3.48h9.58v-0.63c0-3.48-0.86-5.99-2.57-7.52c-1.72-1.53-4.4-2.3-8.04-2.3c-2.01,0-3.79,0.16-5.35,0.48
		c-1.56,0.32-3.29,0.79-5.19,1.43c-0.42,0.11-0.77,0.16-1.03,0.16c-0.79,0-1.48-0.29-2.06-0.87c-0.58-0.58-0.87-1.29-0.87-2.14
		c0-1.43,0.69-2.43,2.06-3.01c4.49-1.9,9.05-2.85,13.7-2.85c3.64,0,6.72,0.74,9.23,2.22c2.51,1.48,4.36,3.39,5.54,5.74
		c1.19,2.35,1.78,4.9,1.78,7.64v22.41c0,1-0.36,1.85-1.07,2.53c-0.71,0.69-1.57,1.03-2.57,1.03c-1,0-1.85-0.34-2.53-1.03
		c-0.69-0.69-1.03-1.53-1.03-2.53v-2.06c-3.91,4.01-8.87,6.02-14.89,6.02C241.28,72,239.13,71.52,237.15,70.57 M253.03,63.96
		c2.16-1.13,3.99-2.55,5.46-4.24v-6.65h-8.63c-7.97,0-11.96,2.09-11.96,6.26c0,1.9,0.65,3.43,1.94,4.59
		c1.29,1.16,3.44,1.74,6.45,1.74C248.62,65.66,250.87,65.1,253.03,63.96"/>
	<path class="st3" d="M285.22,69.5c-2.93-1.66-5.31-4.09-7.13-7.29c-1.82-3.19-2.73-6.93-2.73-11.21s0.91-8.01,2.73-11.21
		c1.82-3.19,4.2-5.62,7.13-7.29c2.93-1.66,6.03-2.49,9.31-2.49c5.17,0,9.69,2.01,13.54,6.02v-19.4c0-1.06,0.36-1.93,1.07-2.61
		c0.71-0.69,1.57-1.03,2.57-1.03c1,0,1.85,0.36,2.53,1.07c0.69,0.71,1.03,1.57,1.03,2.57v51.4c0,1-0.34,1.85-1.03,2.53
		c-0.69,0.69-1.53,1.03-2.53,1.03c-1,0-1.86-0.34-2.57-1.03c-0.71-0.69-1.07-1.53-1.07-2.53v-2.06c-3.85,4.01-8.37,6.02-13.54,6.02
		C291.25,72,288.15,71.17,285.22,69.5 M302.41,63.64c2.14-1.08,4.03-2.52,5.66-4.32V42.7c-1.64-1.79-3.52-3.23-5.66-4.32
		c-2.14-1.08-4.42-1.62-6.85-1.62c-3.91,0-7.05,1.24-9.42,3.72c-2.38,2.48-3.56,5.99-3.56,10.53c0,4.54,1.19,8.05,3.56,10.53
		c2.38,2.48,5.52,3.72,9.42,3.72C297.99,65.27,300.27,64.73,302.41,63.64"/>
	<path class="st3" d="M328.34,21.4c-0.79-0.79-1.19-1.74-1.19-2.85v-0.32c0-1.11,0.4-2.06,1.19-2.85c0.79-0.79,1.74-1.19,2.85-1.19
		h0.48c1.11,0,2.06,0.4,2.85,1.19c0.79,0.79,1.19,1.74,1.19,2.85v0.32c0,1.11-0.4,2.06-1.19,2.85c-0.79,0.79-1.74,1.19-2.85,1.19
		h-0.48C330.09,22.58,329.14,22.19,328.34,21.4 M328.82,70.57c-0.69-0.69-1.03-1.53-1.03-2.53V34.07c0-1,0.34-1.86,1.03-2.57
		c0.69-0.71,1.53-1.07,2.53-1.07c1.06,0,1.93,0.34,2.61,1.03c0.69,0.69,1.03,1.56,1.03,2.61v33.97c0,1-0.36,1.85-1.07,2.53
		c-0.71,0.69-1.57,1.03-2.57,1.03C330.35,71.6,329.5,71.26,328.82,70.57"/>
	<path class="st3" d="M354.64,69.39c-3.06-1.74-5.42-4.21-7.09-7.4c-1.66-3.19-2.49-6.85-2.49-10.97c0-4.12,0.83-7.77,2.49-10.97
		c1.66-3.19,4.03-5.66,7.09-7.41c3.06-1.74,6.62-2.61,10.69-2.61c4.01,0,7.55,0.87,10.61,2.61c3.06,1.74,5.44,4.21,7.13,7.41
		c1.69,3.2,2.53,6.85,2.53,10.97c0,4.12-0.85,7.77-2.53,10.97c-1.69,3.2-4.07,5.66-7.13,7.4c-3.06,1.74-6.6,2.61-10.61,2.61
		C361.26,72,357.7,71.13,354.64,69.39 M371.54,63.92c1.98-1,3.62-2.59,4.91-4.75c1.29-2.16,1.94-4.91,1.94-8.24
		c0-3.27-0.65-5.99-1.94-8.16c-1.29-2.16-2.93-3.74-4.91-4.71c-1.98-0.98-4.05-1.47-6.22-1.47c-2.22,0-4.32,0.49-6.3,1.47
		c-1.98,0.98-3.6,2.55-4.87,4.71c-1.27,2.17-1.9,4.88-1.9,8.16c0,3.33,0.63,6.07,1.9,8.24c1.27,2.17,2.89,3.75,4.87,4.75
		c1.98,1,4.08,1.5,6.3,1.5C367.49,65.43,369.56,64.93,371.54,63.92"/>
	<path class="st3" d="M396.69,70.57c-0.69-0.69-1.03-1.53-1.03-2.53V34.07c0-1,0.34-1.86,1.03-2.57c0.69-0.71,1.53-1.07,2.53-1.07
		c1,0,1.86,0.36,2.57,1.07c0.71,0.71,1.07,1.57,1.07,2.57v3.41c3.69-4.96,7.84-7.44,12.43-7.44h0.4c1,0,1.83,0.34,2.49,1.03
		c0.66,0.69,0.99,1.53,0.99,2.53c0,1-0.34,1.82-1.03,2.45c-0.69,0.63-1.56,0.95-2.61,0.95h-0.4c-2.53,0-4.86,0.62-6.97,1.86
		c-2.11,1.24-3.88,2.94-5.31,5.11v24.07c0,1-0.36,1.85-1.07,2.53c-0.71,0.69-1.57,1.03-2.57,1.03
		C398.22,71.6,397.37,71.26,396.69,70.57"/>
	<path class="st3" d="M429.83,70.57c-1.98-0.95-3.55-2.34-4.71-4.16c-1.16-1.82-1.74-3.92-1.74-6.3c0-3.91,1.54-7.02,4.63-9.34
		c3.09-2.32,7.61-3.48,13.58-3.48h9.58v-0.63c0-3.48-0.86-5.99-2.57-7.52c-1.72-1.53-4.4-2.3-8.04-2.3c-2.01,0-3.79,0.16-5.35,0.48
		c-1.56,0.32-3.29,0.79-5.19,1.43c-0.42,0.11-0.77,0.16-1.03,0.16c-0.79,0-1.48-0.29-2.06-0.87c-0.58-0.58-0.87-1.29-0.87-2.14
		c0-1.43,0.69-2.43,2.06-3.01c4.49-1.9,9.05-2.85,13.7-2.85c3.64,0,6.72,0.74,9.23,2.22c2.51,1.48,4.36,3.39,5.54,5.74
		c1.19,2.35,1.78,4.9,1.78,7.64v22.41c0,1-0.36,1.85-1.07,2.53c-0.71,0.69-1.57,1.03-2.57,1.03c-1,0-1.85-0.34-2.53-1.03
		c-0.69-0.69-1.03-1.53-1.03-2.53v-2.06c-3.91,4.01-8.87,6.02-14.89,6.02C433.96,72,431.81,71.52,429.83,70.57 M445.71,63.96
		c2.16-1.13,3.99-2.55,5.46-4.24v-6.65h-8.63c-7.97,0-11.96,2.09-11.96,6.26c0,1.9,0.65,3.43,1.94,4.59
		c1.29,1.16,3.44,1.74,6.45,1.74C441.3,65.66,443.54,65.1,445.71,63.96"/>
	<path class="st3" d="M471.52,70.57c-0.69-0.69-1.03-1.53-1.03-2.53V34.07c0-1,0.34-1.86,1.03-2.57c0.69-0.71,1.53-1.07,2.53-1.07
		c1,0,1.86,0.36,2.57,1.07c0.71,0.71,1.07,1.57,1.07,2.57v3.25c1.48-2.11,3.26-3.85,5.35-5.23c2.08-1.37,4.79-2.06,8.12-2.06
		c2.96,0,5.49,0.79,7.6,2.38c2.11,1.58,3.62,3.51,4.51,5.78c3.27-5.44,8.13-8.16,14.57-8.16c2.96,0,5.42,0.74,7.4,2.22
		c1.98,1.48,3.44,3.38,4.4,5.7c0.95,2.32,1.43,4.75,1.43,7.29v22.81c0,1-0.36,1.85-1.07,2.53c-0.71,0.69-1.57,1.03-2.57,1.03
		c-1,0-1.85-0.34-2.53-1.03c-0.69-0.69-1.03-1.53-1.03-2.53V46.66c0-3.43-0.61-5.95-1.82-7.56c-1.21-1.61-3.3-2.42-6.26-2.42
		c-2.69,0-4.92,0.7-6.69,2.1c-1.77,1.4-3.34,3.23-4.71,5.5v23.76c0,1-0.36,1.85-1.07,2.53c-0.71,0.69-1.57,1.03-2.57,1.03
		c-1,0-1.85-0.34-2.53-1.03c-0.69-0.69-1.03-1.53-1.03-2.53V46.66c0-3.43-0.61-5.95-1.82-7.56c-1.22-1.61-3.3-2.42-6.26-2.42
		c-2.69,0-4.92,0.7-6.69,2.1c-1.77,1.4-3.34,3.23-4.71,5.5v23.76c0,1-0.36,1.85-1.07,2.53c-0.71,0.69-1.57,1.03-2.57,1.03
		C473.05,71.6,472.21,71.26,471.52,70.57"/>
	<path class="st3" d="M547.03,70.57c-1.98-0.95-3.55-2.34-4.71-4.16c-1.16-1.82-1.74-3.92-1.74-6.3c0-3.91,1.54-7.02,4.63-9.34
		c3.09-2.32,7.61-3.48,13.58-3.48h9.58v-0.63c0-3.48-0.86-5.99-2.57-7.52c-1.72-1.53-4.4-2.3-8.04-2.3c-2.01,0-3.79,0.16-5.35,0.48
		c-1.56,0.32-3.29,0.79-5.19,1.43c-0.42,0.11-0.77,0.16-1.03,0.16c-0.79,0-1.48-0.29-2.06-0.87c-0.58-0.58-0.87-1.29-0.87-2.14
		c0-1.43,0.69-2.43,2.06-3.01c4.49-1.9,9.05-2.85,13.7-2.85c3.64,0,6.72,0.74,9.23,2.22c2.51,1.48,4.36,3.39,5.54,5.74
		c1.19,2.35,1.78,4.9,1.78,7.64v22.41c0,1-0.36,1.85-1.07,2.53c-0.71,0.69-1.57,1.03-2.57,1.03c-1,0-1.85-0.34-2.53-1.03
		c-0.69-0.69-1.03-1.53-1.03-2.53v-2.06c-3.91,4.01-8.87,6.02-14.89,6.02C551.17,72,549.01,71.52,547.03,70.57 M562.91,63.96
		c2.16-1.13,3.99-2.55,5.46-4.24v-6.65h-8.63c-7.97,0-11.96,2.09-11.96,6.26c0,1.9,0.65,3.43,1.94,4.59
		c1.29,1.16,3.45,1.74,6.46,1.74C558.5,65.66,560.75,65.1,562.91,63.96"/>
	<rect x="67.8" y="25.47" class="st4" width="2.04" height="30.54"/>
	<rect x="67.8" y="56.02" class="st5" width="2.04" height="13"/>
	
		<rect x="67.08" y="42.4" transform="matrix(0.7071 -0.7071 0.7071 0.7071 -8.1217 67.2389)" class="st5" width="20.04" height="2.04"/>
	<path class="st4" d="M74.07,22.46c0,2.95-2.39,5.34-5.35,5.34s-5.34-2.39-5.34-5.34c0-2.95,2.39-5.35,5.34-5.35
		S74.07,19.51,74.07,22.46"/>
	<path class="st5" d="M59.3,37.12c0,2.95-2.39,5.35-5.35,5.35c-2.95,0-5.34-2.39-5.34-5.35c0-2.95,2.39-5.34,5.34-5.34
		C56.9,31.78,59.3,34.17,59.3,37.12"/>
	<path class="st4" d="M74.21,37.12c0,2.95-2.39,5.35-5.34,5.35s-5.35-2.39-5.35-5.35c0-2.95,2.39-5.34,5.35-5.34
		S74.21,34.17,74.21,37.12"/>
	<path class="st5" d="M89.13,37.12c0,2.95-2.39,5.35-5.35,5.35s-5.34-2.39-5.34-5.35c0-2.95,2.39-5.34,5.34-5.34
		S89.13,34.17,89.13,37.12"/>
	<path class="st4" d="M44.38,51.79c0,2.95-2.39,5.35-5.34,5.35s-5.35-2.39-5.35-5.35c0-2.95,2.39-5.35,5.35-5.35
		S44.38,48.84,44.38,51.79"/>
	<path class="st6" d="M59.3,51.79c0,2.95-2.39,5.35-5.35,5.35c-2.95,0-5.34-2.39-5.34-5.35c0-2.95,2.39-5.35,5.34-5.35
		C56.9,46.44,59.3,48.84,59.3,51.79"/>
	<path class="st5" d="M74.21,51.79c0,2.95-2.39,5.35-5.34,5.35s-5.35-2.39-5.35-5.35c0-2.95,2.39-5.35,5.35-5.35
		S74.21,48.84,74.21,51.79"/>
	<path class="st6" d="M89.13,51.79c0,2.95-2.39,5.35-5.35,5.35s-5.34-2.39-5.34-5.35c0-2.95,2.39-5.35,5.34-5.35
		S89.13,48.84,89.13,51.79"/>
	<path class="st6" d="M44.38,66.46c0,2.95-2.39,5.34-5.34,5.34s-5.35-2.39-5.35-5.34s2.39-5.35,5.35-5.35S44.38,63.51,44.38,66.46"
		/>
	<path class="st5" d="M59.3,66.46c0,2.95-2.39,5.34-5.35,5.34c-2.95,0-5.34-2.39-5.34-5.34s2.39-5.35,5.34-5.35
		C56.9,61.11,59.3,63.51,59.3,66.46"/>
	<path class="st6" d="M74.21,66.46c0,2.95-2.39,5.34-5.34,5.34s-5.35-2.39-5.35-5.34s2.39-5.35,5.35-5.35S74.21,63.51,74.21,66.46"
		/>
	<path class="st6" d="M89.13,66.46c0,2.95-2.39,5.34-5.35,5.34s-5.34-2.39-5.34-5.34s2.39-5.35,5.34-5.35S89.13,63.51,89.13,66.46"
		/>
</g>
<g>
	<defs>
		<rect id="SVGID_3_" x="100" y="-12" width="475.21" height="105"/>
	</defs>
	<clipPath id="SVGID_4_">
		<use xlink:href="#SVGID_3_"  style="overflow:visible;"/>
	</clipPath>
	<g class="st7">
		<path class="st8" d="M111.89,87.4c0.48,0.31,1.32,0.64,2.13,0.64c1.18,0,1.73-0.59,1.73-1.32c0-0.77-0.46-1.19-1.65-1.64
			c-1.6-0.57-2.35-1.45-2.35-2.52c0-1.43,1.16-2.61,3.07-2.61c0.9,0,1.69,0.26,2.19,0.55l-0.4,1.18c-0.35-0.22-0.99-0.51-1.82-0.51
			c-0.96,0-1.49,0.55-1.49,1.21c0,0.73,0.53,1.07,1.69,1.51c1.54,0.59,2.33,1.36,2.33,2.68c0,1.56-1.21,2.66-3.33,2.66
			c-0.97,0-1.87-0.24-2.5-0.61L111.89,87.4z"/>
		<path class="st8" d="M126.21,80.16l1.95,5.25c0.2,0.59,0.42,1.29,0.57,1.82h0.04c0.17-0.53,0.35-1.21,0.57-1.86l1.76-5.22h1.71
			l-2.43,6.34c-1.16,3.05-1.95,4.61-3.05,5.57c-0.79,0.7-1.58,0.97-1.98,1.05l-0.4-1.36c0.4-0.13,0.94-0.39,1.41-0.79
			c0.44-0.35,0.99-0.97,1.36-1.8c0.07-0.17,0.13-0.29,0.13-0.39s-0.04-0.22-0.11-0.42l-3.29-8.19H126.21z"/>
		<path class="st8" d="M140.19,87.4c0.48,0.31,1.32,0.64,2.13,0.64c1.18,0,1.73-0.59,1.73-1.32c0-0.77-0.46-1.19-1.65-1.64
			c-1.6-0.57-2.35-1.45-2.35-2.52c0-1.43,1.16-2.61,3.07-2.61c0.9,0,1.69,0.26,2.19,0.55l-0.4,1.18c-0.35-0.22-0.99-0.51-1.82-0.51
			c-0.96,0-1.49,0.55-1.49,1.21c0,0.73,0.53,1.07,1.69,1.51c1.54,0.59,2.33,1.36,2.33,2.68c0,1.56-1.21,2.66-3.33,2.66
			c-0.97,0-1.87-0.24-2.5-0.61L140.19,87.4z"/>
		<path class="st8" d="M155.86,77.61v2.55h2.31v1.23h-2.31v4.79c0,1.1,0.31,1.73,1.21,1.73c0.42,0,0.73-0.06,0.94-0.11l0.07,1.21
			c-0.31,0.13-0.81,0.22-1.43,0.22c-0.75,0-1.36-0.24-1.75-0.68c-0.46-0.48-0.62-1.27-0.62-2.31v-4.85h-1.38v-1.23h1.38v-2.13
			L155.86,77.61z"/>
		<path class="st8" d="M167,84.9c0.04,2.19,1.43,3.09,3.05,3.09c1.16,0,1.86-0.2,2.46-0.46l0.28,1.16
			c-0.57,0.26-1.54,0.55-2.96,0.55c-2.74,0-4.37-1.8-4.37-4.48c0-2.68,1.58-4.79,4.17-4.79c2.9,0,3.67,2.55,3.67,4.19
			c0,0.33-0.04,0.59-0.06,0.75H167z M171.75,83.74c0.02-1.03-0.42-2.63-2.24-2.63c-1.63,0-2.35,1.51-2.48,2.63H171.75z"/>
		<path class="st8" d="M181.55,82.57c0-0.92-0.02-1.67-0.07-2.41h1.41l0.07,1.43h0.06c0.5-0.84,1.32-1.63,2.79-1.63
			c1.21,0,2.13,0.73,2.52,1.78h0.04c0.28-0.5,0.62-0.88,0.99-1.16c0.53-0.4,1.12-0.62,1.97-0.62c1.18,0,2.92,0.77,2.92,3.86v5.24
			h-1.58v-5.03c0-1.71-0.62-2.74-1.93-2.74c-0.92,0-1.64,0.68-1.91,1.47c-0.07,0.22-0.13,0.51-0.13,0.81v5.49h-1.58v-5.33
			c0-1.41-0.62-2.44-1.86-2.44c-1.01,0-1.75,0.81-2,1.62c-0.09,0.24-0.13,0.51-0.13,0.79v5.36h-1.58V82.57z"/>
		<path class="st8" d="M203.11,76.01h1.62v5.55h0.04c0.26-0.46,0.66-0.86,1.16-1.14c0.48-0.28,1.05-0.46,1.65-0.46
			c1.19,0,3.1,0.73,3.1,3.8v5.29h-1.62v-5.11c0-1.43-0.53-2.65-2.06-2.65c-1.05,0-1.87,0.73-2.17,1.62
			c-0.09,0.22-0.11,0.46-0.11,0.77v5.36h-1.62V76.01z"/>
		<path class="st8" d="M224.48,89.05l-0.13-1.12h-0.06c-0.5,0.7-1.45,1.32-2.72,1.32c-1.8,0-2.72-1.27-2.72-2.55
			c0-2.15,1.91-3.33,5.35-3.31v-0.18c0-0.73-0.2-2.06-2.02-2.06c-0.83,0-1.69,0.26-2.31,0.66l-0.37-1.07
			c0.73-0.48,1.8-0.79,2.92-0.79c2.72,0,3.38,1.86,3.38,3.64v3.33c0,0.77,0.04,1.52,0.15,2.13H224.48z M224.24,84.51
			c-1.76-0.04-3.77,0.28-3.77,2c0,1.05,0.7,1.54,1.52,1.54c1.16,0,1.89-0.73,2.15-1.49c0.06-0.17,0.09-0.35,0.09-0.51V84.51z"/>
		<path class="st8" d="M242.07,86.63c0,0.92,0.02,1.73,0.07,2.42h-1.43l-0.09-1.45h-0.04c-0.42,0.72-1.36,1.65-2.94,1.65
			c-1.4,0-3.07-0.77-3.07-3.9v-5.2h1.62v4.92c0,1.69,0.51,2.83,1.98,2.83c1.08,0,1.84-0.75,2.13-1.47c0.09-0.24,0.15-0.53,0.15-0.83
			v-5.46h1.62V86.63z"/>
		<path class="st8" d="M250.78,87.4c0.48,0.31,1.32,0.64,2.13,0.64c1.18,0,1.73-0.59,1.73-1.32c0-0.77-0.46-1.19-1.65-1.64
			c-1.6-0.57-2.35-1.45-2.35-2.52c0-1.43,1.16-2.61,3.07-2.61c0.9,0,1.69,0.26,2.19,0.55l-0.4,1.18c-0.35-0.22-0.99-0.51-1.82-0.51
			c-0.96,0-1.49,0.55-1.49,1.21c0,0.73,0.53,1.07,1.69,1.51c1.54,0.59,2.33,1.36,2.33,2.68c0,1.56-1.21,2.66-3.33,2.66
			c-0.97,0-1.87-0.24-2.5-0.61L250.78,87.4z"/>
		<path class="st8" d="M282.44,89.05c-0.35-0.35-0.68-0.7-1.16-1.21c-1.07,0.99-2.26,1.41-3.62,1.41c-2.41,0-3.8-1.62-3.8-3.47
			c0-1.69,1.01-2.85,2.43-3.62v-0.06c-0.64-0.81-1.03-1.71-1.03-2.59c0-1.51,1.08-3.05,3.14-3.05c1.54,0,2.74,1.03,2.74,2.63
			c0,1.3-0.75,2.33-2.72,3.31v0.06c1.05,1.21,2.22,2.57,3.01,3.45c0.57-0.86,0.96-2.06,1.19-3.62h1.47
			c-0.33,1.95-0.86,3.49-1.78,4.57c0.66,0.7,1.3,1.4,2.04,2.19H282.44z M280.5,86.92c-0.73-0.81-2.11-2.31-3.49-3.9
			c-0.66,0.42-1.6,1.21-1.6,2.52c0,1.41,1.05,2.5,2.54,2.5C279.01,88.04,279.91,87.56,280.5,86.92z M276.73,79.37
			c0,0.88,0.4,1.56,0.94,2.22c1.25-0.72,2.06-1.38,2.06-2.42c0-0.75-0.42-1.6-1.43-1.6C277.26,77.57,276.73,78.41,276.73,79.37z"/>
		<path class="st8" d="M301.89,87.4c0.48,0.31,1.32,0.64,2.13,0.64c1.18,0,1.73-0.59,1.73-1.32c0-0.77-0.46-1.19-1.65-1.64
			c-1.6-0.57-2.35-1.45-2.35-2.52c0-1.43,1.16-2.61,3.07-2.61c0.9,0,1.69,0.26,2.19,0.55l-0.4,1.18c-0.35-0.22-0.99-0.51-1.82-0.51
			c-0.96,0-1.49,0.55-1.49,1.21c0,0.73,0.53,1.07,1.69,1.51c1.54,0.59,2.33,1.36,2.33,2.68c0,1.56-1.21,2.66-3.33,2.66
			c-0.97,0-1.87-0.24-2.5-0.61L301.89,87.4z"/>
		<path class="st8" d="M323.66,84.53c0,3.29-2.28,4.72-4.43,4.72c-2.41,0-4.26-1.76-4.26-4.57c0-2.98,1.95-4.72,4.41-4.72
			C321.93,79.96,323.66,81.81,323.66,84.53z M316.6,84.62c0,1.95,1.12,3.42,2.7,3.42c1.54,0,2.7-1.45,2.7-3.45
			c0-1.51-0.75-3.42-2.66-3.42C317.43,81.17,316.6,82.93,316.6,84.62z"/>
		<path class="st8" d="M332.1,89.05v-7.66h-1.25v-1.23h1.25v-0.42c0-1.25,0.28-2.39,1.03-3.1c0.61-0.59,1.41-0.83,2.17-0.83
			c0.57,0,1.07,0.13,1.38,0.26l-0.22,1.25c-0.24-0.11-0.57-0.2-1.03-0.2c-1.38,0-1.73,1.21-1.73,2.57v0.48h2.15v1.23h-2.15v7.66
			H332.1z"/>
		<path class="st8" d="M345.7,77.61v2.55h2.31v1.23h-2.31v4.79c0,1.1,0.31,1.73,1.21,1.73c0.42,0,0.73-0.06,0.94-0.11l0.07,1.21
			c-0.31,0.13-0.81,0.22-1.43,0.22c-0.75,0-1.36-0.24-1.75-0.68c-0.46-0.48-0.62-1.27-0.62-2.31v-4.85h-1.38v-1.23h1.38v-2.13
			L345.7,77.61z"/>
		<path class="st8" d="M356.86,80.16l1.18,4.52c0.26,0.99,0.5,1.91,0.66,2.83h0.06c0.2-0.9,0.5-1.86,0.79-2.81l1.45-4.54h1.36
			l1.38,4.45c0.33,1.07,0.59,2,0.79,2.9h0.06c0.15-0.9,0.39-1.84,0.68-2.88l1.27-4.46h1.6l-2.87,8.89h-1.47l-1.36-4.24
			c-0.31-0.99-0.57-1.87-0.79-2.92h-0.04c-0.22,1.07-0.5,1.98-0.81,2.94l-1.43,4.23h-1.47l-2.68-8.89H356.86z"/>
		<path class="st8" d="M380.83,89.05l-0.13-1.12h-0.06c-0.5,0.7-1.45,1.32-2.72,1.32c-1.8,0-2.72-1.27-2.72-2.55
			c0-2.15,1.91-3.33,5.35-3.31v-0.18c0-0.73-0.2-2.06-2.02-2.06c-0.83,0-1.69,0.26-2.31,0.66l-0.37-1.07
			c0.73-0.48,1.8-0.79,2.92-0.79c2.72,0,3.38,1.86,3.38,3.64v3.33c0,0.77,0.04,1.52,0.15,2.13H380.83z M380.59,84.51
			c-1.76-0.04-3.77,0.28-3.77,2c0,1.05,0.7,1.54,1.52,1.54c1.16,0,1.89-0.73,2.15-1.49c0.06-0.17,0.09-0.35,0.09-0.51V84.51z"/>
		<path class="st8" d="M390.99,82.93c0-1.05-0.02-1.95-0.07-2.77h1.41l0.06,1.75h0.07c0.4-1.19,1.38-1.95,2.46-1.95
			c0.18,0,0.31,0.02,0.46,0.05v1.52c-0.17-0.04-0.33-0.06-0.55-0.06c-1.14,0-1.95,0.86-2.17,2.08c-0.04,0.22-0.07,0.48-0.07,0.75
			v4.74h-1.6V82.93z"/>
		<path class="st8" d="M403.96,84.9c0.04,2.19,1.43,3.09,3.05,3.09c1.16,0,1.86-0.2,2.46-0.46l0.28,1.16
			c-0.57,0.26-1.54,0.55-2.96,0.55c-2.74,0-4.37-1.8-4.37-4.48c0-2.68,1.58-4.79,4.17-4.79c2.9,0,3.67,2.55,3.67,4.19
			c0,0.33-0.04,0.59-0.06,0.75H403.96z M408.7,83.74c0.02-1.03-0.42-2.63-2.24-2.63c-1.63,0-2.35,1.51-2.48,2.63H408.7z"/>
		<path class="st8" d="M419.4,84.9c0.04,2.19,1.43,3.09,3.05,3.09c1.16,0,1.86-0.2,2.46-0.46l0.28,1.16
			c-0.57,0.26-1.54,0.55-2.96,0.55c-2.74,0-4.37-1.8-4.37-4.48c0-2.68,1.58-4.79,4.17-4.79c2.9,0,3.67,2.55,3.67,4.19
			c0,0.33-0.04,0.59-0.06,0.75H419.4z M424.14,83.74c0.02-1.03-0.42-2.63-2.24-2.63c-1.63,0-2.35,1.51-2.48,2.63H424.14z"/>
		<path class="st8" d="M433.95,82.57c0-0.92-0.02-1.67-0.07-2.41h1.43l0.09,1.47h0.04c0.44-0.85,1.47-1.67,2.94-1.67
			c1.23,0,3.14,0.73,3.14,3.78v5.31h-1.62v-5.13c0-1.43-0.53-2.63-2.06-2.63c-1.07,0-1.89,0.75-2.17,1.65
			c-0.07,0.2-0.11,0.48-0.11,0.75v5.35h-1.62V82.57z"/>
		<path class="st8" d="M452.26,77.61v2.55h2.31v1.23h-2.31v4.79c0,1.1,0.31,1.73,1.21,1.73c0.42,0,0.73-0.06,0.94-0.11l0.07,1.21
			c-0.31,0.13-0.81,0.22-1.43,0.22c-0.75,0-1.36-0.24-1.75-0.68c-0.46-0.48-0.62-1.27-0.62-2.31v-4.85h-1.38v-1.23h1.38v-2.13
			L452.26,77.61z"/>
		<path class="st8" d="M463.45,80.16l1.18,4.52c0.26,0.99,0.5,1.91,0.66,2.83h0.06c0.2-0.9,0.5-1.86,0.79-2.81l1.45-4.54h1.36
			l1.38,4.45c0.33,1.07,0.59,2,0.79,2.9h0.06c0.15-0.9,0.39-1.84,0.68-2.88l1.27-4.46h1.6l-2.87,8.89h-1.47l-1.36-4.24
			c-0.31-0.99-0.57-1.87-0.79-2.92h-0.04c-0.22,1.07-0.5,1.98-0.81,2.94l-1.43,4.23h-1.47l-2.68-8.89H463.45z"/>
		<path class="st8" d="M484.37,77.66c0.02,0.55-0.39,0.99-1.03,0.99c-0.57,0-0.97-0.44-0.97-0.99c0-0.57,0.42-1.01,1.01-1.01
			C483.98,76.65,484.37,77.09,484.37,77.66z M482.57,89.05v-8.89h1.62v8.89H482.57z"/>
		<path class="st8" d="M499.45,88.72c-0.42,0.22-1.36,0.51-2.55,0.51c-2.68,0-4.43-1.82-4.43-4.54c0-2.74,1.87-4.72,4.78-4.72
			c0.96,0,1.8,0.24,2.24,0.46l-0.37,1.25c-0.39-0.22-0.99-0.42-1.87-0.42c-2.04,0-3.14,1.51-3.14,3.36c0,2.06,1.32,3.33,3.09,3.33
			c0.92,0,1.52-0.24,1.98-0.44L499.45,88.72z"/>
		<path class="st8" d="M509.18,84.24h0.04c0.22-0.31,0.53-0.7,0.79-1.01l2.61-3.07h1.95l-3.44,3.66l3.91,5.24h-1.97l-3.07-4.26
			l-0.83,0.92v3.34h-1.6V76.01h1.6V84.24z"/>
		<path class="st8" d="M522.75,76.01h1.62v13.04h-1.62V76.01z"/>
		<path class="st8" d="M540.76,86.63c0,0.92,0.02,1.73,0.07,2.42h-1.43l-0.09-1.45h-0.04c-0.42,0.72-1.36,1.65-2.94,1.65
			c-1.4,0-3.07-0.77-3.07-3.9v-5.2h1.62v4.92c0,1.69,0.51,2.83,1.98,2.83c1.08,0,1.84-0.75,2.13-1.47c0.09-0.24,0.15-0.53,0.15-0.83
			v-5.46h1.62V86.63z"/>
		<path class="st8" d="M549.68,82.57c0-0.92-0.02-1.67-0.07-2.41h1.43l0.09,1.47h0.04c0.44-0.85,1.47-1.67,2.94-1.67
			c1.23,0,3.14,0.73,3.14,3.78v5.31h-1.62v-5.13c0-1.43-0.53-2.63-2.06-2.63c-1.07,0-1.89,0.75-2.17,1.65
			c-0.07,0.2-0.11,0.48-0.11,0.75v5.35h-1.62V82.57z"/>
		<path class="st8" d="M573.76,80.16c-0.04,0.64-0.07,1.36-0.07,2.44v5.16c0,2.04-0.4,3.29-1.27,4.06
			c-0.86,0.81-2.11,1.07-3.23,1.07c-1.07,0-2.24-0.26-2.96-0.73l0.4-1.23c0.59,0.37,1.51,0.7,2.61,0.7c1.65,0,2.87-0.86,2.87-3.1
			v-0.99h-0.04c-0.5,0.83-1.45,1.49-2.83,1.49c-2.2,0-3.78-1.87-3.78-4.34c0-3.01,1.97-4.72,4-4.72c1.54,0,2.39,0.81,2.77,1.54h0.04
			l0.07-1.34H573.76z M572.09,83.67c0-0.28-0.02-0.51-0.09-0.73c-0.29-0.94-1.08-1.71-2.26-1.71c-1.54,0-2.65,1.3-2.65,3.36
			c0,1.75,0.88,3.2,2.63,3.2c0.99,0,1.89-0.62,2.24-1.65c0.09-0.28,0.13-0.59,0.13-0.86V83.67z"/>
	</g>
</g>
<g>
</g>
<g>
</g>
<g>
</g>
<g>
</g>
<g>
</g>
<g>
</g>
<g>
</g>
<g>
</g>
<g>
</g>
<g>
</g>
<g>
</g>
<g>
</g>
<g>
</g>
<g>
</g>
<g>
</g>
</svg>
